<?xml version="1.0" encoding="utf-8"?>
<!-- Generator: Adobe Illustrator 22.0.1, SVG Export Plug-In . SVG Version: 6.00 Build 0)  -->
<svg version="1.1" id="Layer_1" xmlns="http://www.w3.org/2000/svg" xmlns:xlink="http://www.w3.org/1999/xlink" x="0px" y="0px"
	 viewBox="0 0 80 40" style="enable-background:new 0 0 80 40;" xml:space="preserve">
<style type="text/css">
	.st0{fill:#FFFFFF;}
</style>
<path class="st0" d="M77.8,28.5c-0.5,0-1.1,0.5-1.3,1.6c-0.5,2.3-1.4,6-3.5,6c-2,0-3.4-2.7-5.4-7l6-8.6c0.2-0.2,0.2-0.5,0.2-0.8
	c0-1.2-1.2-2.8-2.2-2.8c-0.6,0-1,0.5-1.5,1.4c-0.9,1.7-2.3,4.3-4.2,7c-1.3-2.8-2.4-4.9-3.7-7c-0.7-1.1-2-1.4-2.8-1.4
	c-2.2,0-3.1,0.7-3.1,2.6c0,2.4-0.6,6.9-1.2,9.4c0,0.1,0,0.2-0.1,0.2c0,0.1,0,0.2-0.1,0.4c0,0.1-0.1,0.2-0.1,0.3c0,0.1,0,0.1,0,0.2
	c-0.8,3-2.5,5.9-6.3,5.9c-2.8,0-4.2-1.5-5-3.3c5.2-1.5,7.9-6.2,7.9-10.2c0-3.2-1.8-5.4-4.8-5.4c-4.1,0-8.2,5.1-8.2,11.8
	c0,0.9,0.1,1.8,0.2,2.6c-0.8,2.1-2.4,4.5-4.4,4.5c-2,0-2.8-1.5-2.8-3.7v-3.1C32.2,28.4,37,17.7,37,9.8c0-3-0.1-8.6-4.7-8.6
	c-2.7,0-4.9,2.8-4.9,6.8V32c-0.6,1.4-1.5,2.7-2.8,3.1c-0.2,0-0.3,0.1-0.4,0.1c-1.8,0-1.4-4.4-1.4-5.5L22.8,24c0.1-3,0.4-5.3,0.6-6.4
	c0.2-1-0.8-1.4-1.7-1.4c-1,0-2.1,0.4-2.2,1.1c-1.9,11-2.7,18.5-8.9,18.5c-4.6,0-6.1-4.9-6.1-11.6c0-8.4,4.3-20.2,12.6-20.2
	c2,0,4,3.3,3,4.4c-3.3,3.4-3.3,5.1-2,5.9c0.2,0.1,0.4,0.2,0.7,0.2c1.9,0,5-2.8,5.5-6.2C25,4.5,21.8,0,17.5,0
	C7.3,0,0.3,12.6,0.3,24.4C0.3,35.8,4.4,40,10.2,40c3.7,0,7.2-2.8,8.6-6c0.6,2.5,3,4.6,4.9,4.6c2,0,3.5-0.9,4.6-2.2
	c1,1.9,2.8,3,5.4,3c3,0,5.1-2,6.5-4.2c1.8,2.7,4.7,4.2,7.7,4.2c7.7,0,9.9-6.2,10.3-9.5c0.7-2.6,1.3-6.3,1.4-8.2
	c1.4,2.5,2.7,4.9,3.8,7.4c-1.5,2.1-3.1,4.3-4.8,6.2c-1.7,2-2.3,1.7-2.3,2.3c0,1,1.5,1.8,2.8,1.8c1,0,1.7-0.4,2.4-1.6l3.6-5.1
	c2.3,4.9,4.3,6.7,7.5,6.7c4.3,0,6.2-4.8,7.1-8.3c0.1-0.2,0.1-0.3,0.1-0.4C79.7,29.7,78.6,28.5,77.8,28.5z M31.5,6.9
	c0-0.9,0.2-2.1,0.8-2.1c0.9,0,1.4,1.6,1.4,5.1c0,2.9-1.1,10-2.2,12.2V6.9z M42.9,28.6c-0.1-2.2,0.7-8.1,3.3-8.1
	c0.7,0,1.1,0.7,1.1,1.9c0,3.2-1.7,6-4.4,7.2C42.9,29.3,42.9,29,42.9,28.6z"/>
</svg>
