<?xml version="1.0" encoding="utf-8"?>
<!-- Generator: Adobe Illustrator 22.0.1, SVG Export Plug-In . SVG Version: 6.00 Build 0)  -->
<svg version="1.1" id="Layer_1" xmlns="http://www.w3.org/2000/svg" xmlns:xlink="http://www.w3.org/1999/xlink" x="0px" y="0px"
	 viewBox="0 0 600 400" style="enable-background:new 0 0 600 400;" xml:space="preserve">
<style type="text/css">
	.st0{fill:#EC1C24;}
	.st1{fill:#BBBDBF;}
</style>
<g>
	<g>
		<polygon class="st0" points="306,218.5 280.1,218.5 254.2,218.5 182.6,129.5 254.2,40.4 280.1,40.4 306,40.4 234.4,129.5 		"/>
		<polygon class="st0" points="377.6,129.5 306,218.5 331.9,218.5 357.8,218.5 429.4,129.5 357.8,40.4 331.9,40.4 306,40.4 		"/>
		<polygon class="st0" points="362.9,125.1 306,54.4 249.1,125.1 		"/>
	</g>
	<g>
		<rect x="165.8" y="266" class="st1" width="31.9" height="92.6"/>
		<path class="st1" d="M99.1,266h-3.6H64.3h-3.6L10,358.4h35.7l8.1-15.1H106l8.1,15.1h35.7L99.1,266z M66.4,320L79.9,295L93.4,320
			H66.4z"/>
		<path class="st1" d="M458.2,280c-2.4-4.4-4.3-5.7-11.3-10.8c-7-5.1-46.3-3.8-46.3-3.8l-31.4,0.5c0,0-8.8,0-17.6,4.1
			s-11.2,11.6-11.5,16.7c-0.5,8.3,0.5,4.6,0.3,33.3c-0.1,28.7,2.7,27.5,6.8,31.5c8.7,8.8,27.9,7.7,27.9,7.7s26,0.5,30.9,0.4
			c17.5-0.4,18.2-0.4,28.2-0.9c10-0.5,12.3-2.7,18.3-6.5s7.3-13.5,7.3-13.5l0.5-46C460.3,292.7,460.6,284.4,458.2,280z M432.5,301.8
			l-0.3,24.8c0,0-0.7,5.3-4,7.3c-3.2,2-4.5,3.2-9.9,3.5c-5.4,0.3-5.8,0.3-15.2,0.5c-2.6,0.1-16.6-0.2-16.6-0.2s-10.3,0.6-15-4.1
			c-2.2-2.2-3.7-1.5-3.6-17c0.1-15.4-0.4-13.5-0.2-17.9c0.2-2.7,1.5-6.7,6.2-9s9.5-2.2,9.5-2.2l16.9-0.3c0,0,21.2-0.7,25,2.1
			s4.8,3.4,6.1,5.8C432.7,297.3,432.5,301.8,432.5,301.8z"/>
		<path class="st1" d="M299.6,327.5c16.8,0,30.4-13.8,30.4-30.7c0-17-13.6-30.7-30.4-30.7h-53.9h-31.4h-0.4v92.9h31.8v-31.4h11.9
			l34.7,31.4H330l-35.9-31.4H299.6z M246.1,289.7h42.5c3.9,0,7.1,3.2,7.1,7.1c0,3.9-3.2,7.1-7.1,7.1h-42.5V289.7z"/>
		<path class="st1" d="M564.3,300.8h-54.7v0c-0.1,0-0.3,0-0.4,0c-3.3,0-5.9-2.6-5.9-5.9c0-3.3,2.6-5.9,5.9-5.9c0.1,0,0.3,0,0.4,0v0
			h75.2c-0.1-12.9-10.6-23.4-23.6-23.4h-61.2c-15.9,0-28.9,12.9-28.9,28.9c0,15.9,12.9,28.9,28.9,28.9h33c0,0.1,0,0.2-0.1,0.3h15.4
			v0c0.1,0,0.3,0,0.4,0c3.3,0,5.9,2.6,5.9,5.9s-2.6,5.9-5.9,5.9c-0.1,0-0.3,0-0.4,0v0h-73.9c0.3,12.7,10.8,22.9,23.6,22.9h61.2v-0.1
			c0.7,0,1.3,0.1,2,0.1c15.9,0,28.9-12.9,28.9-28.9C590,314.6,578.8,302.4,564.3,300.8z"/>
	</g>
</g>
</svg>
