<?xml version="1.0" encoding="utf-8"?>
<!-- Generator: Adobe Illustrator 22.0.1, SVG Export Plug-In . SVG Version: 6.00 Build 0)  -->
<svg version="1.1" xmlns="http://www.w3.org/2000/svg" xmlns:xlink="http://www.w3.org/1999/xlink" x="0px" y="0px"
	 viewBox="0 0 600 400" style="enable-background:new 0 0 600 400;" xml:space="preserve">
<g id="Layer_1" style="display:none;">
	
		<image style="display:inline;overflow:visible;" width="133" height="103" xlink:href="../../../../../Desktop/highland oaks icon.jpg"  transform="matrix(3.8835 0 0 3.8835 41.7476 0)">
	</image>
</g>
<g id="Layer_2">
	<radialGradient id="SVGID_1_" cx="300" cy="200" r="254.951" gradientUnits="userSpaceOnUse">
		<stop  offset="0" style="stop-color:#0096D6"/>
		<stop  offset="0.2527" style="stop-color:#0096D6"/>
		<stop  offset="0.4527" style="stop-color:#008DCD"/>
		<stop  offset="0.7777" style="stop-color:#0079B9"/>
		<stop  offset="1" style="stop-color:#0069AA"/>
	</radialGradient>
	<rect style="fill:url(#SVGID_1_);" width="600" height="400"/>
	<g>
		<g>
			<g>
				<g>
					<g>
						<g>
							<path style="fill:#FFFFFF;" d="M402.5,183.5c-6.9-1.9-8-3.3-12.1-11.7c-4.1-8.2-13.9-28.6-13.9-28.6l69.7,40.2l-23-39.7
								c-3.3-5.7-7.8-8.2-14.3-8.2h-45.4c0,0,20.4,35.2,23.5,40.8C390.7,183,394.6,183.5,402.5,183.5z"/>
						</g>
					</g>
				</g>
				<g>
					<path style="fill:#FFFFFF;" d="M431.8,140.5c-1.9-6.9-1.1-8.5,4.1-16.3c5-7.8,17.8-26.3,17.8-26.3v80.5l22.8-39.9
						c3.3-5.7,3.3-10.8,0-16.5l-22.8-39.1c0,0-20.4,35.2-23.5,40.8C426.5,130,427.9,133.7,431.8,140.5z"/>
				</g>
				<g>
					<path style="fill:#FFFFFF;" d="M483,145.7c5-5,6.9-5.2,16.1-4.6c9.3,0.6,31.7,2.2,31.7,2.2l-69.7,40.2l45.8-0.2
						c6.5,0,10.9-2.6,14.3-8.2l22.8-39.5c0,0-40.6,0-47.1,0C489.5,135.7,486.9,138.9,483,145.7z"/>
				</g>
			</g>
			<g>
				<path style="fill:#FFFFFF;" d="M147.6,225.8c-2.8-8.3-8-13.9-15.4-13.9c-5.7,0-9.6,4.3-9.6,9.6c0,6.1,5.9,9.5,12.6,12.2
					c11.1,4.3,18.7,9.5,18.7,19.1c0,12.8-12.6,19.3-24.7,19.3c-7.6,0-14.5-2.6-17.1-4.8c-1.1-2-2.4-11.5-2.4-16.5l3.9-0.7
					c2.6,9.3,9.5,17.4,18.4,17.4c5.6,0,10.6-3.9,10.6-9.8c0-6.1-4.3-9.5-11.7-12.8c-8.9-3.9-18.5-8.5-18.5-19.3
					c0-9.8,8.9-18,22.6-18c6.1-0.2,10.2,1.3,13.4,2.4c1.1,3.2,2.8,11.5,3.3,15L147.6,225.8z"/>
				<path style="fill:#FFFFFF;" d="M194.9,270.5v-3.7c8.7-0.9,9.8-1.7,9.8-10.8v-23.4c0-11.5-4.6-17.2-14.6-17.2
					c-5.7,0-11.3,2.6-15.6,7v33.4c0,8.9,0.7,10,9.5,10.8v3.7h-31.5l0.2-3.7c8.9-0.7,10.2-1.5,10.2-10.8V191c0-8.9-0.4-9.5-10.2-10.4
					v-3.2c7.2-0.9,16.1-3.2,21.9-4.8v45.2c5.2-5,13.4-10.2,21.3-10.2c12.1-0.2,20.6,7.2,20.6,23.9v24.5c0,9.3,1.1,10,9.8,10.8v3.7
					H194.9z"/>
				<path style="fill:#FFFFFF;" d="M339.1,232.1c-8.5,1.3-9.1,2-9.1,10.2v11.9c0,4.8,0.2,9.5,0.9,13.2c-8.9,2-20.6,5.2-31.9,5.2
					c-31.3,0-52.3-19.1-52.3-46.9c0-32.4,26.5-48.4,54.5-48.4c11.9,0,22.8,3.2,27.4,4.1c0.4,4.8,1.1,12.6,2.2,21.9l-4.1,0.9
					c-3.3-17.1-14.3-21.7-27.8-21.7c-21.9,0-37.8,15.8-37.8,41.5c0,20.2,12.1,43.8,39.7,43.8c4.8,0,9.3-0.9,12.4-2.6
					c2.8-1.5,4.6-3.2,4.6-9.1v-11.9c0-10-0.9-10.9-15-12.1v-3.7h36.2V232.1z"/>
				<path style="fill:#FFFFFF;" d="M359.7,222.5c4.5-7,10.9-14.8,18-14.8c5,0,8.7,3.7,8.7,7c0,2.8-1.9,5.6-4.8,6.9
					c-1.9,0.7-3.2,0.6-4.1-0.2c-2-2-3.9-3-6.3-3c-3.9,0-8.7,4.3-11.9,12.1v25.6c0,9.3,0.7,10,12.2,10.9v3.7h-34.3V267
					c9.3-0.9,10.2-1.7,10.2-10.9v-29.1c0-9.3-0.7-9.8-9.3-10.9v-3.2c7.2-1.1,13.9-2.8,21-5.7v15.2h0.6V222.5z"/>
				<path style="fill:#FFFFFF;" d="M417.6,207.7c18.4,0,32.3,13.9,32.3,31.2c0,22.6-17.6,33.4-32.3,33.4c-20.4,0-32.6-15.4-32.6-31
					C384.7,218,403.8,207.7,417.6,207.7L417.6,207.7z M415.7,212.1c-9.1,0-17.1,8.7-17.1,24.5c0,17.6,8.2,30.8,20.4,30.8
					c9.3,0,16.9-6.5,16.9-25.6C435.7,225.5,428.9,212.1,415.7,212.1L415.7,212.1z"/>
				<path style="fill:#FFFFFF;" d="M521,267c-3.3,0.4-7.4,1.3-11.5,2.2c-3.9,0.9-7.6,2-10.4,2.8l-0.9-0.9v-10
					c-3.5,2.4-6.9,4.8-10.9,7.2c-4.3,2.4-7.4,3.5-11.5,3.5c-10,0-18.5-5.7-18.5-20.8v-27.3c0-7.4-1.1-8.2-5-8.9l-4.1-0.9v-3.2
					c3.2-0.2,6.7-0.6,10.8-0.9c4.1-0.6,8-1.1,10.6-1.5c-0.4,4.3-0.4,10.9-0.4,20.4v18.9c0,12.2,6.5,15.8,13.2,15.8
					c5.4,0,10.9-2,16.1-6.7V224c0-7.6-1.3-8.3-6.3-9.1l-5.4-0.9v-3.2c4.1-0.2,9.1-0.6,13.4-1.1c4.1-0.4,7.8-0.9,10-1.5v46.7
					c0,7,1.1,8,6.9,8.3l4.1,0.4V267L521,267z"/>
				<path style="fill:#FFFFFF;" d="M551.4,209.7c2.6-1.5,5.6-2,7.2-2c16.5,0,26.3,12.6,26.3,26.5c0,21.1-17.8,34.7-37.1,38
					c-4.3-0.2-8.3-1.5-10.2-2.6v18.4c0,10.6,1.1,11.3,12.6,12.2v3.7h-35.2v-3.7c9.5-0.9,10.9-1.7,10.9-10.9V226
					c0-9.1-0.6-9.5-9.8-10.6v-3.3c6.3-0.9,14.6-3.3,21.7-5.9v11.1L551.4,209.7z M537.7,259.8c3.3,3.2,8.9,5.4,14.1,5.4
					c12.6,0,21-10,21-26c0-15-9.1-23.4-20-23.4c-4.8,0-10.9,3.2-14.8,5.9v38H537.7z"/>
				<path style="fill:#FFFFFF;" d="M78.8,270.5v-3.9c9.5-1.1,10.8-2.2,8.7-7.8c-1.9-5.4-5-13-8.2-21.5H44.7
					c-2.4,6.3-4.6,12.2-6.5,18c-3.3,8.9-1.9,10.2,9.3,11.1v3.9H15v-3.9c9.5-1.3,11.5-2,16.7-14.5l32.4-76.8l4.8-1.1
					c9.3,24.1,20.4,53.8,29.9,78.2c4.8,12.1,6.7,13.4,16.3,14.1v3.9H78.8V270.5z M63,192.4h-0.4c-4.8,12.1-11.3,27.4-15.8,38.9h30.2
					L63,192.4z"/>
			</g>
		</g>
		<g style="opacity:0.5;">
			<g>
				<path style="fill:#FFFFFF;" d="M21.1,288.5c1.7-0.4,4.3-0.6,7-0.6c3.7,0,6.1,0.6,7.8,2c1.3,1.1,2.2,3,2.2,5
					c0,3.3-2.2,5.4-4.6,6.3v0.2c1.9,0.7,3,2.4,3.5,4.8c0.7,3.2,1.5,6.1,2,7h-4.8c-0.4-0.7-0.9-2.8-1.7-5.9c-0.7-3.3-1.9-4.3-4.5-4.5
					h-2.4v10.4h-4.6C21.1,313.3,21.1,288.5,21.1,288.5z M25.6,299.6h2.8c3.2,0,5-1.7,5-4.1c0-2.8-1.9-4.1-5-4.1
					c-1.5,0-2.4,0.2-2.8,0.2V299.6z"/>
				<path style="fill:#FFFFFF;" d="M47.4,290.2c0,1.3-0.9,2.4-2.6,2.4c-1.5,0-2.6-1.1-2.6-2.4c0-1.5,1.1-2.6,2.6-2.6
					C46.5,287.6,47.4,288.7,47.4,290.2z M42.6,313.3v-18.2h4.6v18.2H42.6z"/>
				<path style="fill:#FFFFFF;" d="M51.9,309.3c1.1,0.6,3,1.3,4.6,1.3c2,0,3-0.7,3-2c0-1.3-0.7-1.9-3-2.6c-3.5-1.3-5-3.2-5-5.4
					c0-3.2,2.6-5.7,6.9-5.7c2,0,3.7,0.6,4.8,1.1l-0.9,3.3c-0.7-0.4-2.2-1.1-3.9-1.1c-1.7,0-2.6,0.7-2.6,1.9c0,1.1,0.9,1.7,3.2,2.6
					c3.3,1.1,4.8,3,4.8,5.6c0,3.3-2.6,5.7-7.4,5.7c-2.2,0-4.3-0.6-5.6-1.3L51.9,309.3z"/>
				<path style="fill:#FFFFFF;" d="M72.3,303.1L72.3,303.1c0.6-0.7,1.1-1.5,1.5-2l4.5-5.9h5.6l-6.7,7.4l7.8,10.8h-5.6l-5.2-8
					l-1.5,1.9v6.1H68v-26.5h4.6v16.3H72.3z"/>
				<path style="fill:#FFFFFF;" d="M116.1,303.1c-0.2-3.3-0.4-7.2-0.4-10.6h-0.2c-0.7,3.2-1.9,6.5-3,9.6l-3.7,10.9h-3.5l-3.3-10.8
					c-0.9-3.2-1.9-6.7-2.6-9.8l0,0c-0.2,3.3-0.2,7.2-0.4,10.8l-0.6,10.2h-4.3l1.7-25.2h6.1l3.3,10.2c0.9,3,1.7,5.9,2.4,8.7h0.2
					c0.7-2.8,1.5-5.7,2.6-8.7l3.5-10h5.9l1.5,25.2H117L116.1,303.1z"/>
				<path style="fill:#FFFFFF;" d="M135.9,313.3l-0.4-2h-0.2c-1.1,1.5-3,2.4-5.4,2.4c-3.7,0-5.7-2.6-5.7-5.4c0-4.6,4.1-6.9,10.8-6.9
					v-0.4c0-1.1-0.6-3.2-3.7-3.2c-1.9,0-3.7,0.6-4.8,1.3l-0.9-3c1.3-0.7,3.7-1.7,6.7-1.7c5.7,0,7.6,3.7,7.6,7.6v6.7
					c0,1.7,0,3.3,0.2,4.5L135.9,313.3L135.9,313.3z M135.2,304.4c-3.3,0-6.3,0.6-6.3,3.3c0,1.9,1.1,2.6,2.6,2.6
					c1.9,0,3.2-1.1,3.5-2.6c0.2-0.4,0.2-0.7,0.2-0.9V304.4z"/>
				<path style="fill:#FFFFFF;" d="M144.6,300.6c0-2,0-3.9-0.2-5.4h4.1l0.2,2.8h0.2c0.7-1.5,2.8-3.2,5.7-3.2c3.2,0,6.5,2,6.5,7.8
					v10.8h-4.6v-10.2c0-2.6-0.9-4.6-3.5-4.6c-1.9,0-3.2,1.3-3.5,2.8c-0.2,0.4-0.2,0.9-0.2,1.5v10.8h-4.6
					C144.6,313.5,144.6,300.6,144.6,300.6z"/>
				<path style="fill:#FFFFFF;" d="M176.3,313.3l-0.4-2h-0.2c-1.1,1.5-3,2.4-5.4,2.4c-3.7,0-5.7-2.6-5.7-5.4c0-4.6,4.1-6.9,10.8-6.9
					v-0.4c0-1.1-0.6-3.2-3.7-3.2c-1.9,0-3.7,0.6-4.8,1.3l-0.9-3c1.3-0.7,3.7-1.7,6.7-1.7c5.7,0,7.6,3.7,7.6,7.6v6.7
					c0,1.7,0,3.3,0.2,4.5L176.3,313.3L176.3,313.3z M175.6,304.4c-3.3,0-6.3,0.6-6.3,3.3c0,1.9,1.1,2.6,2.6,2.6
					c1.9,0,3.2-1.1,3.5-2.6c0.2-0.4,0.2-0.7,0.2-0.9V304.4z"/>
				<path style="fill:#FFFFFF;" d="M201.7,295.2c0,1.3-0.2,2.8-0.2,5.2v10.4c0,3.9-0.7,6.5-2.8,8.3c-1.9,1.7-4.5,2.2-7,2.2
					c-2.4,0-4.8-0.6-6.3-1.5l0.9-3.5c1.1,0.7,3.2,1.3,5.4,1.3c3,0,5.2-1.5,5.2-5.6v-1.5l0,0c-1.1,1.7-3,2.8-5.4,2.8
					c-4.5,0-7.8-3.7-7.8-8.9c0-5.9,3.9-9.6,8.3-9.6c2.8,0,4.5,1.3,5.2,2.8l0,0l0.2-2.4H201.7z M196.9,302.4c0-0.4,0-0.9-0.2-1.3
					c-0.6-1.7-1.9-3-3.7-3c-2.6,0-4.5,2.2-4.5,5.9c0,3.2,1.5,5.6,4.5,5.6c1.7,0,3.2-1.1,3.7-2.8c0.2-0.6,0.2-1.1,0.2-1.7V302.4z"/>
				<path style="fill:#FFFFFF;" d="M209.7,305.6c0.2,3.3,2.8,4.6,5.6,4.6c2,0,3.7-0.4,5-0.7l0.7,3.2c-1.5,0.6-3.7,1.1-6.3,1.1
					c-5.9,0-9.5-3.7-9.5-9.3c0-5,3.2-9.8,8.9-9.8c5.9,0,7.8,4.8,7.8,8.9c0,0.9,0,1.5-0.2,1.9h-12.1V305.6z M217.7,302.4
					c0-1.7-0.7-4.5-3.7-4.5c-2.8,0-4.1,2.6-4.3,4.5H217.7z"/>
				<path style="fill:#FFFFFF;" d="M225.6,300.6c0-2,0-3.9-0.2-5.4h3.9l0.2,2.8h0.2c0.9-1.5,2.6-3.2,5.6-3.2c2.4,0,4.3,1.3,5,3.3
					l0,0c0.6-0.9,1.3-1.7,2.2-2.2c0.9-0.7,2.2-1.1,3.7-1.1c3,0,6.1,2,6.1,8v10.8h-4.5v-10c0-3-1.1-4.8-3.3-4.8
					c-1.5,0-2.8,1.1-3.2,2.4c-0.2,0.4-0.2,0.9-0.2,1.5v10.9h-4.5V303c0-2.6-0.9-4.3-3.2-4.3c-1.7,0-3,1.3-3.3,2.6
					c-0.2,0.4-0.2,0.9-0.2,1.5v10.8h-4.5V300.6z"/>
				<path style="fill:#FFFFFF;" d="M260.7,305.6c0.2,3.3,2.8,4.6,5.6,4.6c2,0,3.7-0.4,5-0.7l0.7,3.2c-1.5,0.6-3.7,1.1-6.3,1.1
					c-5.9,0-9.5-3.7-9.5-9.3c0-5,3.2-9.8,8.9-9.8c5.9,0,7.8,4.8,7.8,8.9c0,0.9,0,1.5-0.2,1.9h-12.1V305.6z M268.7,302.4
					c0-1.7-0.7-4.5-3.7-4.5c-2.8,0-4.1,2.6-4.3,4.5H268.7z"/>
				<path style="fill:#FFFFFF;" d="M276.8,300.6c0-2,0-3.9-0.2-5.4h4.1l0.2,2.8h0.2c0.7-1.5,2.8-3.2,5.7-3.2c3.2,0,6.5,2,6.5,7.8
					v10.8h-4.6v-10.2c0-2.6-0.9-4.6-3.5-4.6c-1.9,0-3.2,1.3-3.5,2.8c-0.2,0.4-0.2,0.9-0.2,1.5v10.8h-4.6L276.8,300.6L276.8,300.6z"
					/>
				<path style="fill:#FFFFFF;" d="M303.2,290v5.2h4.5v3.5h-4.5v8c0,2.2,0.6,3.3,2.4,3.3c0.7,0,1.3-0.2,1.9-0.2v3.5
					c-0.7,0.2-1.9,0.4-3.3,0.4c-1.7,0-3.2-0.6-3.9-1.5c-0.9-1.1-1.5-2.8-1.5-5v-8.5h-2.6v-3.5h2.6v-4.1L303.2,290z"/>
				<path style="fill:#FFFFFF;" d="M335,313.3c-0.6-0.6-1.3-1.3-2-2c-1.9,1.7-4.3,2.6-7,2.6c-5.6,0-8.3-3.5-8.3-7
					c0-3.3,2-5.7,4.8-7.2v-0.2c-1.1-1.5-2-3.3-2-5c0-3.2,2.4-6.5,7-6.5c3.5,0,6.3,2.2,6.3,5.6c0,2.6-1.5,4.8-5.2,6.7v0.2
					c1.7,2,3.7,4.3,5,5.7c1.1-1.7,1.9-4.1,2.2-6.7h4.1c-0.7,3.9-1.9,7-3.9,9.5c1.3,1.5,2.8,3.2,4.3,4.6H335V313.3z M330.8,308.7
					c-1.5-1.7-3.9-4.3-6.3-7c-1.1,0.7-2.6,2-2.6,4.3c0,2.6,1.9,4.5,4.6,4.5C328.4,310.4,329.9,309.6,330.8,308.7z M324.5,293.9
					c0,1.5,0.7,2.8,1.9,4.1c2-1.3,3.3-2.6,3.3-4.3c0-1.3-0.7-2.8-2.6-2.8C325.4,290.7,324.5,292.2,324.5,293.9z"/>
				<path style="fill:#FFFFFF;" d="M355.4,288.1v25.2h-4.6v-25.2C350.8,288.1,355.4,288.1,355.4,288.1z"/>
				<path style="fill:#FFFFFF;" d="M360.8,300.6c0-2,0-3.9-0.2-5.4h4.1l0.2,2.8h0.2c0.7-1.5,2.8-3.2,5.7-3.2c3.2,0,6.5,2,6.5,7.8
					v10.8h-4.6v-10.2c0-2.6-0.9-4.6-3.5-4.6c-1.9,0-3.2,1.3-3.5,2.8c-0.2,0.4-0.2,0.9-0.2,1.5v10.8h-4.6L360.8,300.6L360.8,300.6z"
					/>
				<path style="fill:#FFFFFF;" d="M382,309.3c1.1,0.6,3,1.3,4.6,1.3c2,0,3-0.7,3-2c0-1.3-0.7-1.9-3-2.6c-3.5-1.3-5-3.2-5-5.4
					c0-3.2,2.6-5.7,6.9-5.7c2,0,3.7,0.6,4.8,1.1l-0.9,3.3c-0.7-0.4-2.2-1.1-3.9-1.1c-1.7,0-2.6,0.7-2.6,1.9c0,1.1,0.9,1.7,3.2,2.6
					c3.3,1.1,4.8,3,4.8,5.6c0,3.3-2.6,5.7-7.4,5.7c-2.2,0-4.3-0.6-5.6-1.3L382,309.3z"/>
				<path style="fill:#FFFFFF;" d="M414,308c0,2.2,0,3.9,0.2,5.4h-4.1l-0.2-2.8l0,0c-0.7,1.3-2.6,3.2-5.7,3.2c-3.3,0-6.3-2-6.3-8
					V295h4.6v9.8c0,3,0.9,5,3.3,5c1.9,0,3-1.3,3.5-2.4c0.2-0.4,0.2-0.9,0.2-1.5V295h4.6v13H414z"/>
				<path style="fill:#FFFFFF;" d="M419,301.1c0-2.4,0-4.3-0.2-5.9h4.1l0.2,3.5h0.2c0.9-2.6,3-3.9,5-3.9c0.4,0,0.7,0,1.1,0.2v4.3
					c-0.4,0-0.7-0.2-1.3-0.2c-2.2,0-3.7,1.5-4.1,3.5c0,0.4-0.2,0.9-0.2,1.5v9.5h-4.6v-12.4H419z"/>
				<path style="fill:#FFFFFF;" d="M442.4,313.3l-0.4-2h-0.2c-1.1,1.5-3,2.4-5.4,2.4c-3.7,0-5.7-2.6-5.7-5.4c0-4.6,4.1-6.9,10.8-6.9
					v-0.4c0-1.1-0.6-3.2-3.7-3.2c-1.9,0-3.7,0.6-4.8,1.3l-0.9-3c1.3-0.7,3.7-1.7,6.7-1.7c5.7,0,7.6,3.7,7.6,7.6v6.7
					c0,1.7,0,3.3,0.2,4.5L442.4,313.3L442.4,313.3z M441.7,304.4c-3.3,0-6.3,0.6-6.3,3.3c0,1.9,1.1,2.6,2.6,2.6
					c1.9,0,3.2-1.1,3.5-2.6c0.2-0.4,0.2-0.7,0.2-0.9V304.4z"/>
				<path style="fill:#FFFFFF;" d="M451.1,300.6c0-2,0-3.9-0.2-5.4h4.1l0.2,2.8h0.2c0.7-1.5,2.8-3.2,5.7-3.2c3.2,0,6.5,2,6.5,7.8
					v10.8H463v-10.2c0-2.6-0.9-4.6-3.5-4.6c-1.9,0-3.2,1.3-3.5,2.8c-0.2,0.4-0.2,0.9-0.2,1.5v10.8h-4.6L451.1,300.6L451.1,300.6z"/>
				<path style="fill:#FFFFFF;" d="M485.8,312.8c-0.9,0.4-3,0.9-5.2,0.9c-5.7,0-9.5-3.7-9.5-9.3c0-5.4,3.7-9.6,10.2-9.6
					c1.7,0,3.3,0.4,4.5,0.9l-0.7,3.5c-0.7-0.4-1.9-0.7-3.5-0.7c-3.5,0-5.6,2.6-5.6,5.9c0,3.7,2.4,5.9,5.6,5.9c1.7,0,2.8-0.4,3.7-0.7
					L485.8,312.8z"/>
				<path style="fill:#FFFFFF;" d="M492.1,305.6c0.2,3.3,2.8,4.6,5.6,4.6c2,0,3.7-0.4,5-0.7l0.7,3.2c-1.5,0.6-3.7,1.1-6.3,1.1
					c-5.9,0-9.5-3.7-9.5-9.3c0-5,3.2-9.8,8.9-9.8c5.9,0,7.8,4.8,7.8,8.9c0,0.9,0,1.5-0.2,1.9h-12.1V305.6z M500.3,302.4
					c0-1.7-0.7-4.5-3.7-4.5c-2.8,0-4.1,2.6-4.3,4.5H500.3z"/>
			</g>
		</g>
	</g>
</g>
</svg>
