<?xml version="1.0" encoding="utf-8"?>
<!-- Generator: Adobe Illustrator 22.0.1, SVG Export Plug-In . SVG Version: 6.00 Build 0)  -->
<svg version="1.1" id="Layer_2" xmlns="http://www.w3.org/2000/svg" xmlns:xlink="http://www.w3.org/1999/xlink" x="0px" y="0px"
	 viewBox="0 0 600 400" style="enable-background:new 0 0 600 400;" xml:space="preserve">
<rect style="fill:#D7D6CB;" width="600" height="400"/>
<path d="M225.5,211.3v-1.2c0-1.2,0.8-2,2.4-2c1.6,0,2.4,0.8,2.4,2v1.4c0,8.4-7.4,16.7-18.5,16.7c-10.3,0-18.5-6.8-18.5-18.7v-20.7
	c0-11.9,8.2-18.9,18.5-18.9c11.1,0,18.5,8.2,18.5,16.9v1.4c0,1.2-0.8,2-2.4,2c-1.6,0-2.4-0.8-2.4-2v-1.2c0-6.2-5.2-12.7-13.7-12.7
	c-7.8,0-13.7,5.2-13.7,15.1v19.5c0,9.7,5.8,14.9,13.7,14.9C220.3,223.7,225.5,217.5,225.5,211.3z"/>
<path d="M250,189.1v36.4c0,1-0.6,2-2.2,2c-1.8,0-2.4-0.8-2.4-2v-76.6c0-1.2,0.6-2,2.4-2c1.6,0,2.2,0.8,2.2,2v28.6
	c2.6-4.8,8-7.6,14.5-7.6c9.9,0,17.9,6.8,17.9,18.9v37c0,1-0.8,2-2.4,2c-1.6,0-2.4-0.8-2.4-2v-36.6c0-9.7-6-15.1-13.7-15.1
	C256.1,174.3,250,179.5,250,189.1z"/>
<path d="M330.9,179.9c-1.2,0.8-2.2,0.4-3-0.4c-2.4-3.2-6-5.4-11.1-5.4c-7.4,0-13.3,5-13.3,14.3v37.2c0,1.2-0.8,2-2.4,2
	c-1.8,0-2.4-0.8-2.4-2v-37.6c0-11.1,8-18.1,18.1-18.1c6.2,0,11.9,2.6,15.1,7.2C332.5,178.1,332.1,179.1,330.9,179.9z"/>
<path d="M375.3,220.5c-2.6,4.8-8,7.6-14.3,7.6c-9.9,0-17.9-6.8-17.9-18.7v-37c0-1.2,0.6-2,2.4-2c1.6,0,2.4,0.8,2.4,2v36.4
	c0,9.7,5.8,15.1,13.7,15.1c7.8,0,13.7-5.2,13.7-15.1v-36.4c0-1.2,0.8-2,2.4-2c1.6,0,2.4,0.8,2.4,2v59.3c0,12.5-8.4,19.3-19.7,19.3
	c-4,0-14.5-2.4-14.5-6.2c0-1.2,1.2-2.4,2.2-2.4c0.4,0,1,0.2,1.4,0.6c3,2.4,6.8,3.8,10.9,3.8c9.2,0,14.9-5.8,14.9-15.5V220.5z"/>
<path d="M394.6,212.1c0-1,0.8-2,2.4-2s2.4,0.8,2.4,2v1c0,6,5.8,10.9,13.3,10.9c7.2,0,12.5-4.2,12.5-10.7s-4-10.5-14.1-13.1
	c-10.5-2.6-16.5-7.4-16.5-16.1c0-9,7.8-14.5,16.9-14.5c10.1,0,17.7,6.2,17.7,15.1v1.2c0,1-0.6,2-2.4,2c-1.6,0-2.4-0.8-2.4-2v-0.8
	c0-6.4-4.8-11.1-12.9-11.1c-7,0-12.3,4-12.3,10.3c0,5.8,4.4,9.9,13.7,12.1c11.1,2.6,16.9,7.8,16.9,16.9c0,8.8-7.2,14.7-17.3,14.7
	c-10.3,0-18.1-6.4-18.1-14.9v-1H394.6z"/>
<path d="M470.2,193.8c2.2-0.6,4.2-1.6,4.2-3.2v-2.2c0-8.4-5.6-14.1-13.7-14.1c-8.4,0-13.7,6.2-13.7,12.5v1.2c0,1.2-0.8,2-2.4,2
	c-1.6,0-2.4-0.8-2.4-2v-1.4c0-8.4,7.2-16.7,18.3-16.7c10.7,0,18.3,7.4,18.3,18.3V209c0,11.7-7.8,18.9-18.3,18.9
	c-11.7,0-18.3-8.2-18.3-16.1c0-8.2,4.2-12.5,12.3-14.5L470.2,193.8z M460.8,223.7c7.4,0,13.7-5,13.7-15.1V196c-0.8,0.8-2.2,1.6-4,2
	l-13.5,3.2c-5.8,1.2-9.7,4.2-9.7,10.9C447.1,217.3,451.5,223.7,460.8,223.7z"/>
<path d="M512,226.1c-0.6,1.6-2,1.8-3,1.2c-9.5-3.4-14.1-11.9-14.1-21.7v-56.7c0-1.2,0.6-2,2.4-2c1.6,0,2.4,0.8,2.4,2v56.5
	c0,8.2,3.8,14.9,11.3,17.7C512,223.7,512.4,224.7,512,226.1z"/>
<path d="M524.7,152.3c0-1.6,0.6-2.8,2.4-2.8c2,0,2.4,1.2,2.4,2.8v4.2c0,1.6-0.6,2.8-2.4,2.8c-2,0-2.4-1.2-2.4-2.8V152.3z
	 M524.9,172.5c0-1.2,0.8-2,2.4-2c1.6,0,2.4,0.8,2.4,2v53.3c0,1-0.8,2-2.4,2c-1.6,0-2.4-0.8-2.4-2V172.5z"/>
<path d="M544.8,212.1c0-1,0.8-2,2.4-2s2.4,0.8,2.4,2v1c0,6,5.8,10.9,13.3,10.9c7.2,0,12.5-4.2,12.5-10.7s-4-10.5-14.1-13.1
	c-10.5-2.6-16.5-7.4-16.5-16.1c0-9,7.8-14.5,16.9-14.5c10.1,0,17.7,6.2,17.7,15.1v1.2c0,1-0.6,2-2.4,2c-1.6,0-2.4-0.8-2.4-2v-0.8
	c0-6.4-4.8-11.1-12.9-11.1c-7,0-12.3,4-12.3,10.3c0,5.8,4.4,9.9,13.7,12.1c11.1,2.6,16.9,7.8,16.9,16.9c0,8.8-7.2,14.7-17.3,14.7
	c-10.3,0-18.1-6.4-18.1-14.9v-1H544.8z"/>
<rect x="391.8" y="242.6" style="fill:#007AC1;" width="169.5" height="1"/>
<rect x="210.2" y="242.6" style="fill:#007AC1;" width="120.2" height="1"/>
<path style="fill:#007AC1;" d="M545,156.4v-1c0.2,0,12.3-0.2,18.1-0.4v1C557.1,156.2,545,156.4,545,156.4z"/>
<path style="fill:#007AC1;" d="M388.2,154.6c-42.2,0-90.1,0-122.7-0.2v-1c70.8,0.4,212.7,0.2,214.1,0.2v1
	C478.9,154.6,437.4,154.6,388.2,154.6z"/>
<rect x="211.6" y="155.2" style="fill:#007AC1;" width="18.5" height="1"/>
<path d="M251.6,263.5c-0.6-0.6-1.4-1.2-2.4-1.6s-2-0.8-3.2-0.8c-4.2,0-7.4,3.4-7.4,7.6c0,5,4,7.4,7.4,7.4c1.2,0,2.4-0.4,3.4-0.8
	c1-0.6,1.8-1.2,2-1.6v2.6c-2,1.4-4.2,1.8-5.4,1.8c-5.4,0-9.5-4-9.5-9.5c0-5.4,4-9.5,9.7-9.5c1,0,3.2,0.2,5.4,1.8V263.5z"/>
<path d="M272.4,268.8c0-5.4,4.2-9.5,9.5-9.5s9.5,4,9.5,9.5c0,5.4-4.2,9.5-9.5,9.5S272.4,274.2,272.4,268.8z M274.4,268.8
	c0,4.2,3.2,7.4,7.4,7.4c4,0,7.4-3.4,7.4-7.4s-3.2-7.4-7.4-7.4C277.8,261.1,274.4,264.5,274.4,268.8z"/>
<polygon points="312.2,277.8 315.2,258.5 322.2,274 329.5,258.5 332.3,277.8 330.3,277.8 328.5,265.1 322.2,278.6 316,265.1 
	314.2,277.8 "/>
<polygon points="353.8,277.8 356.8,258.5 363.8,274 371.1,258.5 373.9,277.8 371.9,277.8 370.1,265.1 363.8,278.6 357.6,265.1 
	355.8,277.8 "/>
<path d="M397.8,270.8c0,1.6,0,3.2,1.4,4.4c0.8,0.6,2,1,3,1c1,0,2.2-0.4,3-1c1.4-1.2,1.4-2.8,1.4-4.4v-11.3h2v11.7
	c0,1.6-0.2,3-1.2,4.4c-1,1.6-3,2.4-5.4,2.4s-4.2-1-5.4-2.4c-1-1.4-1.2-2.8-1.2-4.4v-11.7h2v11.3H397.8z"/>
<polygon points="431.4,277.8 431.4,258.7 445.7,273.6 445.7,259.5 447.7,259.5 447.7,278.6 433.4,263.7 433.4,277.8 "/>
<rect x="470.2" y="259.5" width="2" height="18.3"/>
<polygon points="499.2,261.5 499.2,277.8 497.2,277.8 497.2,261.5 492.7,261.5 492.7,259.5 503.6,259.5 503.6,261.5 "/>
<polygon points="528.5,270 522.5,259.5 524.9,259.5 529.5,267.8 534.2,259.5 536.6,259.5 530.5,270 530.5,277.8 528.5,277.8 "/>
<path d="M223.5,124c-0.6-0.6-1.4-1.2-2.4-1.6c-1-0.4-2-0.8-3.2-0.8c-4.2,0-7.4,3.4-7.4,7.6c0,5,4,7.4,7.4,7.4c1.2,0,2.4-0.4,3.4-0.8
	c1-0.6,1.8-1.2,2-1.6v2.6c-2,1.4-4.2,1.8-5.4,1.8c-5.4,0-9.5-4-9.5-9.5s4-9.5,9.7-9.5c1,0,3.2,0.2,5.4,1.8V124z"/>
<path d="M244,129.2c0-5.4,4.2-9.5,9.5-9.5s9.5,4,9.5,9.5s-4.2,9.5-9.5,9.5S244,134.6,244,129.2z M246.2,129.2c0,4.2,3.2,7.4,7.4,7.4
	c4,0,7.4-3.4,7.4-7.4s-3.2-7.4-7.4-7.4C249.4,121.6,246.2,125,246.2,129.2z"/>
<path d="M287.6,120c1.2,0,3,0,4.4,1c1,0.8,2,2,2,4c0,2.8-1.8,4.8-4.6,5l5.8,8.2h-2.4l-5.6-8h-0.6v8h-2V120H287.6z M286.6,128.4h1.2
	c2.6,0,4-1.2,4-3.4c0-1-0.2-2-1.4-2.6c-0.8-0.4-1.8-0.6-2.6-0.6h-1.2V128.4z"/>
<polygon points="316.2,138.3 316.2,119.2 330.5,134 330.5,120 332.5,120 332.5,139.1 318.2,124.2 318.2,138.3 "/>
<polygon points="364.4,122 357,122 357,127.4 364.2,127.4 364.2,129.4 357,129.4 357,136.5 364.4,136.5 364.4,138.5 355,138.5 
	355,120.2 364.4,120.2 "/>
<path d="M389,120c1.2,0,3,0,4.4,1c1,0.8,2,2,2,4c0,2.8-1.8,4.8-4.6,5l5.8,8.2h-2.4l-5.6-8H388v8h-2V120H389z M388.2,128.4h1.2
	c2.6,0,4-1.2,4-3.4c0-1-0.2-2-1.4-2.6c-0.8-0.4-1.8-0.6-2.6-0.6h-1.2V128.4z"/>
<path d="M425.8,123.6c-0.2-0.4-0.6-1-1-1.4c-0.4-0.2-1-0.6-2-0.6c-1.8,0-3,1.2-3,2.8c0,0.8,0.2,1.2,0.6,1.6c0.6,0.6,1.2,0.8,2,1.2
	l1.8,0.8c1,0.4,2,1,2.8,1.8c1,1,1.4,2,1.4,3.2c0,3.4-2.4,5.6-5.8,5.6c-1.2,0-2.6-0.2-4-1.4c-0.8-0.8-1.4-2.2-1.6-3.2l2-0.6
	c0.2,1,0.6,1.8,1,2.4c0.8,0.8,1.6,1,2.6,1c2.4,0,3.6-1.8,3.6-3.6c0-0.8-0.2-1.6-0.8-2.2c-0.6-0.4-1.2-0.8-2.2-1.2l-1.6-0.8
	c-0.8-0.4-1.6-0.8-2.4-1.4c-0.8-0.8-1.2-1.6-1.2-3c0-2.8,2.2-4.6,5-4.6c1.2,0,2,0.2,3,0.8c0.8,0.4,1.4,1.2,1.8,2L425.8,123.6z"/>
<polygon points="452.9,122 452.9,138.3 450.9,138.3 450.9,122 446.5,122 446.5,120 457.3,120 457.3,122 "/>
<path d="M476,129.2c0-5.4,4.2-9.5,9.5-9.5c5.2,0,9.5,4,9.5,9.5s-4.2,9.5-9.5,9.5C480.3,138.7,476,134.6,476,129.2z M478.1,129.2
	c0,4.2,3.2,7.4,7.4,7.4c4,0,7.4-3.4,7.4-7.4s-3.2-7.4-7.4-7.4C481.5,121.6,478.1,125,478.1,129.2z"/>
<polygon points="516.7,138.3 516.7,119.2 530.9,134 530.9,120 532.9,120 532.9,139.1 518.7,124.2 518.7,138.3 "/>
<polygon points="564.9,122 557.5,122 557.5,127.4 564.7,127.4 564.7,129.4 557.5,129.4 557.5,136.5 564.9,136.5 564.9,138.5 
	555.5,138.5 555.5,120.2 564.9,120.2 "/>
<path style="fill:#FCB945;" d="M74.1,99.9L74.1,99.9C74.3,99.9,74.3,99.9,74.1,99.9C74.3,99.9,74.3,99.9,74.1,99.9
	c0.2,0,0.2,0,0.2,0s0.2,0,0.4-0.2c0,0,0,0,0-0.2c0,0,0,0,0.2,0c0,0,0.2,0,0,0s-0.2,0-0.4,0.2C74.5,99.7,74.5,99.7,74.1,99.9z"/>
<path style="fill:#FCB945;" d="M74.1,99.9L74.1,99.9C74.3,100.1,74.5,100.3,74.1,99.9z"/>
<path style="fill:#FCB945;" d="M74.9,99.9C74.9,99.9,75.1,99.9,74.9,99.9C75.1,99.9,75.1,99.7,74.9,99.9z"/>
<path style="fill:#FCB945;" d="M75.7,101.7l-1.4-1.6C74.1,99.7,73.5,99.3,75.7,101.7z"/>
<path style="fill:#FCB945;" d="M68.9,103.1c-0.2,0.2-0.4,0.6-0.6,0.8C68.5,103.7,68.7,103.5,68.9,103.1z"/>
<path style="fill:#FCB945;" d="M66.6,104.9l0.2-0.6c-1.2,0.8-2.4,2-3.2,2.4c0.8,0.2,1.8-1.4,2.8-1.8H66.6z"/>
<path style="fill:#FCB945;" d="M61,107.3C60.8,107.5,60.8,107.5,61,107.3c-0.4,0.2-0.4,0.4-0.8,0.6C60.6,107.9,59.8,108.5,61,107.3z
	"/>
<path style="fill:#FCB945;" d="M60.8,107.5C61.2,106.9,60.4,107.5,60.8,107.5z"/>
<path style="fill:#FCB945;" d="M58.6,109.7l0.4-0.8c-0.2,0-0.8,0.6-0.6,0.2C57.8,109.9,58,109.9,58.6,109.7z"/>
<path style="fill:#FCB945;" d="M58.2,110.5l0.2-0.4C58.4,110.1,58.4,110.1,58.2,110.5z"/>
<path style="fill:#FCB945;" d="M58.8,109.7c0,0.2,0,0,0.2-0.4l-0.6,0.8C58.6,110.1,58.8,110.1,58.8,109.7z"/>
<path style="fill:#FCB945;" d="M60,109.1c1.2-1.2,0.8-1.2-0.4-0.2C60,108.7,60.6,108.3,60,109.1z"/>
<path style="fill:#FCB945;" d="M63.8,107.3c0.2,0,0.4-0.2,0.6-0.2l0.4-0.4C64.6,106.9,63.6,107.1,63.8,107.3z"/>
<path style="fill:#FCB945;" d="M55.2,113.5l0.4-0.6c-0.4,0.2-0.8,0.6-1,0.6C54.6,113.5,55,113.3,55.2,113.5z"/>
<path style="fill:#FCB945;" d="M55.2,113.5l-0.4,0.8C55.4,113.7,55.4,113.5,55.2,113.5z"/>
<polygon style="fill:#FCB945;" points="58.6,111.1 59.4,109.7 58.4,111.3 "/>
<polygon style="fill:#FCB945;" points="52.4,115.7 52.2,116.8 52.4,116.4 "/>
<path style="fill:#FCB945;" d="M51,118.4c0-0.4-0.6,0.2-0.6-0.2c-0.4,0.6-0.6,1.2-0.6,1.6C50,119.4,50.4,119,51,118.4z"/>
<path style="fill:#FCB945;" d="M49.6,120.8c0-0.2,0.2-0.6,0.2-0.8C49.6,120.2,49.6,120.4,49.6,120.8z"/>
<path style="fill:#FCB945;" d="M53,115.9h0.4l0.2-0.2C53.6,115.5,53.4,115.5,53,115.9z"/>
<path style="fill:#FCB945;" d="M53.4,115.9L53.4,115.9c-0.2,0.4-0.4,0.6-0.6,0.6C53,116.4,53.2,116.2,53.4,115.9z"/>
<path style="fill:#FCB945;" d="M53.8,115.5L53.8,115.5z"/>
<path style="fill:#FCB945;" d="M56.8,113.5c0.2-0.4-0.4,0,0-0.8C56.4,113.1,55.8,114.1,56.8,113.5z"/>
<path style="fill:#FCB945;" d="M54.8,114.3l-0.6,1l0.8-0.8C55,114.5,54.8,114.7,54.8,114.3z"/>
<path style="fill:#FCB945;" d="M54.4,115.3l-0.2,0.2v0.2C54.2,115.7,54.2,115.5,54.4,115.3z"/>
<path style="fill:#FCB945;" d="M50.8,119.4c-0.2,0.4-0.4,0.8-0.6,1.4c0.4-0.4,0.8-1,1-1.4C51,119.2,51,119,50.8,119.4z"/>
<path style="fill:#FCB945;" d="M52,117.8L52,117.8z"/>
<path style="fill:#FCB945;" d="M47.3,125.4h0.2H47.3z"/>
<path style="fill:#FCB945;" d="M51.2,119.4c0.2-0.4,0.4-0.6,0.4-0.8C51.6,118.8,51.4,119,51.2,119.4z"/>
<path style="fill:#FCB945;" d="M48.8,122.2c0.2-0.2,0.4-0.4,0.6-0.6C49.2,121.8,48.8,122,48.8,122.2z"/>
<path style="fill:#FCB945;" d="M51.8,117.8L51.8,117.8C51.8,117.8,51.8,118,51.8,117.8z"/>
<path style="fill:#FCB945;" d="M51.8,117.8c0,0.2-0.2,0.4-0.2,0.6C51.8,118.2,52,118,51.8,117.8C52,117.8,51.8,117.8,51.8,117.8z"/>
<path style="fill:#FCB945;" d="M48.4,123.8l0.2-0.4c-0.2,0.4-0.6,0.6-1,1c-0.2,0.6-0.2,0.8,0,1C47.7,124.8,48.2,124.2,48.4,123.8z"
	/>
<path style="fill:#FCB945;" d="M50,122.8c0.6-1,0.2-0.8,0.4-1.6c-1,1.8,0.2-0.6-0.8,0.6c0.2-0.4,0.4-0.6,0.4-1
	c-0.2,0.2-0.4,0.6-0.6,0.8c0,0,0.2,0,0,0c0,0,0,0,0,0.2c-0.4,0.4-0.2,0,0-0.2c-0.2,0.6-0.6,1.2-0.8,1.8c0.2-0.4,0.4-0.8,1-1.6
	C49.6,122.2,49.2,123,50,122.8z"/>
<path style="fill:#FCB945;" d="M56.6,114.7L56.6,114.7C56.4,114.9,56.4,114.9,56.6,114.7z"/>
<path style="fill:#FCB945;" d="M56,115.3c0-0.2,0-0.4,0.4-0.6s0.2,0.2,0.2,0.2c0.2-0.2,0.4-0.8-0.2-0.4v0.2
	c-0.4,0.4-1.2,0.8-1.4,0.8C55.2,115.5,55.4,115.5,56,115.3z"/>
<path style="fill:#FCB945;" d="M54.8,115.5L54.8,115.5z"/>
<path style="fill:#FCB945;" d="M52.6,119.4L52.6,119.4c0.4-0.8,0.2-0.8,0-1l-0.8,1.4L52.6,119.4z"/>
<polygon style="fill:#FCB945;" points="47.1,125.6 46.9,125.2 46.9,126.2 "/>
<polygon style="fill:#FCB945;" points="45.9,127.4 45.9,128 46.3,127.6 "/>
<path style="fill:#FCB945;" d="M80.9,105.7c0-0.2-0.2-0.4-0.6-0.6C80.5,105.3,80.7,105.5,80.9,105.7z"/>
<path style="fill:#FCB945;" d="M43.7,135.5c0-0.2,0-0.2,0-0.4C43.9,135.1,43.7,135.1,43.7,135.5z"/>
<path style="fill:#FCB945;" d="M44.5,131.2c0,0.4-0.2,0.6-0.2,1C44.5,131.8,44.7,131.6,44.5,131.2C44.7,131.4,44.5,131.4,44.5,131.2
	z"/>
<path style="fill:#FCB945;" d="M46.7,129.4L46.7,129.4c-0.4-0.2-0.6,0.6-0.6,1.2C46.3,130.8,46.5,130,46.7,129.4z"/>
<path style="fill:#FCB945;" d="M46.7,129.2c0-0.2,0.2-0.4,0.2-0.6C46.7,128.6,46.7,129,46.7,129.2z"/>
<polygon style="fill:#FCB945;" points="78.7,102.3 78.3,101.5 78.5,102.1 "/>
<path style="fill:#FCB945;" d="M77.5,100.9l-0.6-0.2c0.2,0.2,0.4,0.4,0.4,0.6L77.5,100.9z"/>
<path style="fill:#FCB945;" d="M42.3,134L42.3,134c-0.2,0.2-0.4,0.4-0.4,0.6C42.1,134.4,41.5,135.3,42.3,134z"/>
<path style="fill:#FCB945;" d="M42.3,134C42.5,133.4,41.9,134.2,42.3,134z"/>
<path style="fill:#FCB945;" d="M40.7,136.7l0.2-0.8c-0.2,0-0.6,0.8-0.6,0.4C40.1,137.3,40.3,137.1,40.7,136.7z"/>
<path style="fill:#FCB945;" d="M40.5,137.7l0.2-0.4C40.7,137.3,40.5,137.5,40.5,137.7z"/>
<path style="fill:#FCB945;" d="M40.9,136.9c0.2,0.2,0,0,0.2-0.6l-0.4,1C40.9,137.3,41.1,137.3,40.9,136.9z"/>
<path style="fill:#FCB945;" d="M41.9,135.9c0.8-1.4,0.4-1.4-0.4,0C41.9,135.5,42.3,135.1,41.9,135.9z"/>
<path style="fill:#FCB945;" d="M38.5,141.5l0.2-0.6c-0.2,0.2-0.6,0.8-0.8,0.8C37.9,141.7,38.3,141.5,38.5,141.5z"/>
<path style="fill:#FCB945;" d="M38.5,141.5c0,0.4-0.2,0.6-0.2,1C38.7,141.7,38.7,141.5,38.5,141.5z"/>
<path style="fill:#FCB945;" d="M41.1,138.1c0.2-0.6,0.2-1,0.4-1.6c-0.2,0.6-0.4,1.2-0.6,1.8L41.1,138.1z"/>
<polygon style="fill:#FCB945;" points="36.5,145.1 36.5,144.5 36.5,145.5 "/>
<path style="fill:#FCB945;" d="M35.9,147.5c-0.2-0.4-0.6,0.4-0.6,0c-0.2,0.6-0.2,1.2,0,1.8C35.3,148.7,35.5,148.1,35.9,147.5z"/>
<path style="fill:#FCB945;" d="M35.3,150.3c0-0.2,0-0.6,0-0.8C35.3,149.7,35.3,149.9,35.3,150.3z"/>
<path style="fill:#FCB945;" d="M37.7,143.9c0,0-0.4,0.2-0.6,0.6l0.4-0.2C37.5,144.3,37.5,144.1,37.7,143.9z"/>
<path style="fill:#FCB945;" d="M37.5,144.3L37.5,144.3c-0.2,0.4-0.2,0.6-0.2,0.8C37.3,145.1,37.3,144.7,37.5,144.3z"/>
<path style="fill:#FCB945;" d="M37.7,143.9L37.7,143.9z"/>
<path style="fill:#FCB945;" d="M39.9,141.1c0-0.4-0.4,0-0.4-0.8C39.5,140.9,39.3,141.9,39.9,141.1z"/>
<path style="fill:#FCB945;" d="M38.5,142.5l-0.2,1.2l0.4-1C38.5,142.7,38.5,142.7,38.5,142.5z"/>
<polygon style="fill:#FCB945;" points="38.1,144.1 38.3,143.5 38.1,143.9 "/>
<path style="fill:#FCB945;" d="M36.1,148.5c0,0.4,0,1-0.2,1.4c0.2-0.6,0.4-1.2,0.6-1.6C36.3,148.3,36.3,147.9,36.1,148.5z"/>
<path style="fill:#FCB945;" d="M36.7,146.5L36.7,146.5C36.9,146.5,36.9,146.5,36.7,146.5z"/>
<path style="fill:#FCB945;" d="M34.9,155.4h0.2H34.9z"/>
<path style="fill:#FCB945;" d="M36.5,148.3c0.2-0.4,0.2-0.6,0.2-1C36.7,147.7,36.5,148.1,36.5,148.3S36.5,148.5,36.5,148.3z"/>
<path style="fill:#FCB945;" d="M35.5,151.1c-0.2,0.2-0.4,0.6-0.2,0.6C35.3,151.5,35.5,151.3,35.5,151.1z"/>
<path style="fill:#FCB945;" d="M36.7,146.7L36.7,146.7C36.5,146.7,36.5,146.7,36.7,146.7z"/>
<path style="fill:#FCB945;" d="M36.7,146.7c0,0.2,0,0.4,0,0.6C36.7,147.1,36.7,146.9,36.7,146.7z"/>
<path style="fill:#FCB945;" d="M35.3,153.4v-0.4c-0.2,0.4-0.4,0.8-0.6,1.4c0,0.8,0.2,0.8,0.2,1L35.3,153.4z"/>
<path style="fill:#FCB945;" d="M36.5,151.9c0.2-1.2,0-0.8,0-1.6c-0.4,2,0-0.6-0.6,0.8c0-0.4,0-0.8,0.2-1c-0.2,0.4-0.2,0.6-0.4,1
	c0,0,0,0,0.2,0.2c-0.2,0.6-0.2,0-0.2-0.2l-0.2,2c0.2-0.4,0.2-1,0.4-1.8C35.9,151.5,35.9,152.5,36.5,151.9z"/>
<path style="fill:#FCB945;" d="M40.3,142.3C40.1,142.3,40.1,142.3,40.3,142.3C40.1,142.5,40.1,142.5,40.3,142.3z"/>
<path style="fill:#FCB945;" d="M38.7,143.5L38.7,143.5z"/>
<path style="fill:#FCB945;" d="M39.7,142.9c0-0.2,0-0.4,0.2-0.8c0.2-0.4,0.2,0,0.2,0c0-0.2,0.2-1-0.4-0.2v0.2
	c-0.4,0.6-0.8,1.2-1,1.2C39.1,143.5,39.3,143.3,39.7,142.9z"/>
<path style="fill:#FCB945;" d="M37.7,147.1l-0.2,1.6l0.4-0.8h-0.2C37.9,147.1,37.7,147.1,37.7,147.1z"/>
<path style="fill:#FCB945;" d="M34.7,155.6l-0.4-0.2c0.2,0.4,0.2,0.6,0.4,1V155.6z"/>
<polygon style="fill:#FCB945;" points="34.5,157.8 34.3,157.6 34.5,158.2 "/>
<path style="fill:#FCB945;" d="M77.9,177.3l-0.2-0.4c-0.4,0-0.8-0.2-1.2-0.2C77.3,177.1,77.9,177.7,77.9,177.3z"/>
<path style="fill:#FCB945;" d="M47.3,171.4c0.6,0.2,1,0.4,1.4,0.4C48.2,171.4,47.5,171,47.3,171.4z"/>
<path style="fill:#FCB945;" d="M50.6,172.1c-0.2,0-0.2,0-0.2-0.2c-0.4,0-0.8,0-1.4-0.2C49.4,172.1,50,172.3,50.6,172.1z"/>
<path style="fill:#FCB945;" d="M34.3,167C34.1,166.2,34.1,167,34.3,167z"/>
<path style="fill:#FCB945;" d="M35.7,164.2C35.5,164.2,35.5,164.2,35.7,164.2C35.5,164.2,35.5,164.2,35.7,164.2z"/>
<path style="fill:#FCB945;" d="M34.3,165.8c0,0.2,0,0.6,0,1C34.3,166.6,34.3,166.4,34.3,165.8z"/>
<path style="fill:#FCB945;" d="M34.1,166c0-0.2,0-0.4,0-0.6C34.1,165.4,34.1,165.4,34.1,166z"/>
<path style="fill:#FCB945;" d="M34.3,168c0-0.4,0-0.8,0-1.2c0,0.2,0,0.2,0,0.2C34.3,167.2,34.3,167.6,34.3,168z"/>
<path style="fill:#FCB945;" d="M145.5,186.1c-0.2-0.2-0.4-0.2-0.6-0.4c-1.2-1.2-1.8-2-0.6-1.2l-2.6-3l0.4,0.2
	c-1.4-1.8-2.4-2.8-3.4-3.4c-0.2-0.4,0.2,0,0.2,0c-1-1.4-1.6-2.2-2.2-2.8c-0.2-0.2-0.4-0.4-0.4-0.4c-0.2-0.2-0.2-0.2-0.4-0.4
	c-0.2-0.2-0.6-0.4-1-0.8l0.2-0.4c-0.6-0.2-1.8-3-3.6-4.6h0.2c-2-1.8-3.2-5.6-4.8-5.4l-1.4-1.2c1.4,1.8-0.6,0.2-0.2,1
	c-0.6-0.6-1.2-2-0.4-1.2v0.2c0.8-0.2-1.6-2.4-1.2-2.6c-2.8-3.4-5.2-7-7.8-10.5l0.2,0.6l-0.8-1.2c-0.2-0.4,0-0.6,0.6,0.2
	c0-0.6-1.4-1.2-1.4-1.2c-1-1.8,1,0.2,0.6-0.2l-0.6-0.6v0.2c-0.6-0.4-0.8-0.2-1.6-1.2c-0.4-0.6,0-0.6-0.2-0.8c0,0,0-0.2-0.2-0.4
	l-1.2-1.4l0.2,0.8c-0.6-0.4-1-1.4-1-0.4c-0.2-1.4-4-5.6-4.4-6.2c-1-0.6-1.6-1.6-2.6-2.6c0.2,0.4-0.2,0.8-0.8-0.2c1-0.4-1-2-1-3.2
	c0.2,1-2.2-2.6-2-1c-0.6-0.8,0.2-0.2,0-1c-1.8-1.6-3-4.2-5-6.4c-0.2,0,0,0.6-0.6,0.2l-0.4-1.6c-0.4-0.4-1,0-1.2-1
	c0,0.2,0,0.4-0.2,0.2c-3-5-7.8-8.8-10.7-14.3c0.2,0.8,0,0.4-0.4,0c0.2,0.4-0.2,0.2-0.4,0.4l-1.2-2.2c-0.6,0-1.6-2-2.2-2l0.6,0.6
	c-0.6-0.2-0.6,0.4-0.6,1l-1.6-1.8c0,0-10.7,2.6-20.5,14.9c-2.2,2.6-3.8,5.2-5,7.4h-0.2c-0.2,0.4-0.4,0.8-0.2,0.6
	c-0.2,0.4-0.4,0.8-0.6,1.2c0.2-0.8-1-0.8-1.8-0.2c0.2,0,0.2,0.2,0,1.2c0.4-0.2,1.4-1.8,1.2-1c-0.4,1.2-0.6,1-1,1.4
	c0.4-0.2,0,1.2,0.4,1.6c-0.2,0.6-0.6,1.2-0.8,1.8h-0.4l0.2,0.4c0-0.2,0.2-0.4,0.2-0.6c-0.2,0.4-0.4,1-0.4,1.4
	c-0.4,0.6-0.8,1-1.2,1.6c0.2-0.6,1-1.6,0.6-2.2l-0.6,0.8v-0.2c0.4-0.6,0.8-1.4,1.4-2h0.2v-0.6c-0.6,0.6-1.2,1.6-1.6,2.4
	c0-1,0-2,0.6-3c-0.6,0.4,0,0.2-0.8,1c0.8-0.6-1,3.2,0,2.2c-0.8,0.8-0.8,1.4-1.4,2.6c0.2,0,0.4-0.4,0.2,0.8c0,0,0,0.2,0.2,0.2
	c0.2-0.2,0.2-0.4,0.4-0.6v0.2c-0.2,0.2-0.4,0.6-0.6,0.8c0-0.2,0-0.2,0.2-0.6c0,0.2-0.2,0.4-0.2,0.6c0,0,0,0,0,0.2c0-0.4,0-0.2,0,0
	c-1.2,2-2.4,4-3.4,6.4c-1.6,3.6-2.4,7.2-3,10.7h-0.2c0,0.6,0,0.8,0,0.6c0,0.4-0.2,1-0.2,1.4c-0.2-0.8-1.2-0.4-1.8,0.4
	c0.2,0,0.2,0,0.4,1c-0.2-1.2,0.4-3,0.4-2c0,1.4-0.2,1-0.4,1.6c0.4-0.4,0.4,1.2,0.8,1.4c0,0.6-0.2,1.4-0.2,2l-0.4,0.2l0.2,0.4
	l0.2-0.6c-0.2,2.6-0.2,4.6,0,5.8c0,0,0,0-0.2,0.2l0.2,0.8c-0.2,1-0.6-1.2-0.6-0.2c-0.2-0.6-0.4-1.2-0.4-1.8c-0.2-0.6-0.2-1.2,0-2
	l0.4-0.2c-0.2,0-0.2,1-0.2,1.4c-0.2-0.6,0.6-2.2,0-2.8l-0.4,1c-0.2-1-0.6-2.2-0.4-3.6c-0.6,0.6,0,0.2-0.6,1.2c0.8-0.8-0.2,3.2,0.6,2
	c-0.6,0.8-0.4,1.6-0.8,2.8c0,0,0.2-0.2,0.2,0c0,0,0,0,0,0.2v0.2c0,0.2,0,0.2,0,0.4c0,0,0.2,0.2,0.2,0.4c0,0,0,0,0,0.2
	c0-0.4,0.2-0.8,0.2-0.8c0.4,0.6,0.4,3.2,0.8,3.6c0.8,0.2-0.6,0-0.2,0.4h1.4c-0.2,0.4,2.2,1-0.2,0.8l2,0.4c0.8,0.4,1.8,0.6,2.4,0.6
	c0.6,0.2,1.6-0.2,1,0l2,0.2c2,0.4,4.2,0.2,6.2,1.2c0.6,0,1.4,0,2.4,0.4l0.2,0.4c0.8,0,2.4,0.8,3,0.6c0.8,1,4,1,5.6,1.4l0.2-0.4
	c1,0.2,2,0.2,3.4,0.4v-0.4c1.2,0,2.8,0.8,4.6,1c-0.2,0.2-0.6,0-0.8-0.2c2,1.2,4.4,0.2,6.2,1.2c0.4,0,0.8,0,1.2,0.2c0,0,0,0-0.2,0
	h0.2c0.2,0,0.4,0.2,0.6,0.2c-0.2-0.2-0.4-0.2-0.6-0.2c0.4,0,1,0.2,1.4,0.2l0.2,0.4c0,0,0,0,0.2,0c0.6,0.2,0.4,0,0.2-0.4
	c0.2,0,0.6,0,0.8,0c0.4,0.6,1.4,0,2,0.8c0.4-0.2,2.4,0.2,3-0.2c0.6,0.2,1.2,0.4,1.8,0.2l0.2,0.6l1.4-0.4c0.8,0.4,1,0.6,0.2,0.8
	c2-0.2,1.6,0,3.4-0.2l-0.2,0.2c0.6,0,1.6-0.2,1.8,0.2c1.2,0.8,6.4,1.2,9.7,2.4c-0.4-1,1.4,0.6,1.8,0c0.2,0.2,0.6,0.4,0,0.6
	c1.8,0,2.4,0.8,3.8,0.4c0.2,0.2-0.4,0.2-0.2,0.4c0.2,0,0.6,0,0.8,0c0.2,0.2-0.2,0.2-0.6,0.2c1.8,0.2,2-0.4,2.2-1
	c0.8,0.4,1.2,0.4,2,0.2c0.2,0.2,0.8,0.6-0.4,0.4c0.6,0.2,3.6,1,3.8,0.4c0.2,0.2,0.8,0.2,1,0.2c1.4,0.2,1.4,0.4,2.8,0.6l-0.4-0.2
	c0.6-0.4,1.2,0,2.2,0.2c2.4,0.8,1.2,0,3.4,1v-0.4c0.4-0.8,2,0.8,3.6,0.8l-0.4-0.2c0.8-0.2,2,1.4,2.8,1.6c0.2,0-0.2,0-0.6,0
	c0.2,0.2,0.4,0.2,0.6,0.2c0.2,0,0.4,0,0.6,0.2c0.2,0,0.2,0,0.2-0.2s0-0.4,1-0.4c0.6,0.4-0.4,0.6,1.4,1c0.4,0.2,1.6,0.2,2.8,0.2
	c1.2,0,2.4,0,4,0.6c-0.8-0.4-1.6-0.8-1-0.8c0.6,0,2.2,0.6,3.6,1c0.6,0.2,1,0.2,1.4,0.4c0,0,0,0,0.2,0.2c0.2,0,0.2,0,0-0.2h0.2
	c0.8,0.2,2.6,1,2,0.4c0.2,0.2,0.6,0.4,0.8,0.6c0.6,0.4,0.4,0-0.2-0.6c0.6,0,1.2,0,1-0.2c-0.4-0.2-0.6-0.4-1-0.4
	C149.9,188.7,147.5,187.3,145.5,186.1z M112.3,144.7l0.2,0.2C111.9,144.5,112.1,144.7,112.3,144.7z M49.2,125.8
	c-0.2,0.6-0.4,1-0.8,1.4C48.6,126.8,48.8,126.4,49.2,125.8z M48.4,127.6L48.4,127.6z M45.3,133L45.3,133l0.6-0.2
	c-0.2,0-0.4,0.4-0.4,0.8c-0.2,0.2-0.2,0.4-0.4,0.6C44.9,133.8,45.1,133.4,45.3,133z M36.9,155.2c0,0.6-0.2,1-0.2,1.6
	C36.5,156.4,36.5,155.8,36.9,155.2z M36.5,157.2L36.5,157.2z M39.5,170L39.5,170C40.1,170.2,39.9,170,39.5,170z M44.7,169.6
	c-3-0.6-2.8,0.6-5-0.2c-0.8-0.6,0.2-0.8,0-1.2c1.4,0,2,0.6,2.8,0.8l-1-0.4c0.4,0,1.2,0,1.8,0.2c0,0-0.2-0.2-0.4-0.2l6,1
	c-0.6,0.4-1.8,0.4-3,0.4C43.9,170,44.9,169.6,44.7,169.6z M55.4,171.2c0-0.2,0-0.2-0.2-0.4l1.2,0.2
	C56.2,171.2,55.8,171.2,55.4,171.2z M61,172.1l-0.2-0.2l1.6,0.2v0.6l0.2-0.6l1.6,0.2c0,0.4-0.2,0.8-0.4,1S61.6,172.5,61,172.1z
	 M71.3,174.7h-1.4c0.4-0.2,1.2-0.6,2-0.8l2.4,0.4c-0.8,0.4-1.6,0.6-2.6,0.6L71.3,174.7z M83.7,176.9
	C83.9,176.9,83.9,176.9,83.7,176.9C83.9,176.9,84.1,176.9,83.7,176.9z M87.4,177.3c0.2-0.2,0.2-0.4,0.2-0.6l1,0.2L87.4,177.3z
	 M110.3,181.3c-0.2-0.2,0-0.2,0.4-0.4c-0.2,0-0.2,0-0.4,0c-0.2-0.2-0.4-0.2-0.2-0.4l0.8,0.2c0,0-0.2,0-0.2,0.2c0.2,0,0.2,0,0.4,0
	h0.4c0.2,0.2,0.4,0.4,0.6,0.4H110.3z"/>
<path style="fill:#FCB945;" d="M34.3,161.6c0,0-0.2,0.2-0.2,0v0.8C34.1,162,34.1,162,34.3,161.6z"/>
<path style="fill:#FCB945;" d="M34.1,161.6L34.1,161.6C33.9,161.6,33.9,161.6,34.1,161.6z"/>
<path style="fill:#FCB945;" d="M35.3,160.8c0.4,0,0.2-0.6,0.2-1.4v0.2C35.1,159.2,35.1,160,35.3,160.8z"/>
<path style="fill:#FCB945;" d="M35.5,158.6c-0.2,0,0,0.2,0,0.6C35.5,159,35.5,158.8,35.5,158.6z"/>
<path style="fill:#FCB945;" d="M34.7,169C34.5,169,34.5,169,34.7,169c-0.2,0-0.4,0-0.2-0.2c-0.2,0-0.2,0,0,0.4v0.2h0.2
	c0.2,0,0.4,0,0.6,0C35.9,169.4,36.3,169.2,34.7,169z"/>
<path style="fill:#FCB945;" d="M35.9,165.6v-1.2l-0.2-0.2C35.9,164.8,35.9,165.6,35.9,165.6z"/>
<path style="fill:#FCB945;" d="M35.9,163.2c0,0.2,0,0.6,0,0.8C35.9,163.8,35.9,163.4,35.9,163.2z"/>
<path style="fill:#FCB945;" d="M46.1,169.4c-0.2,0-0.8,0-0.6,0.2h1.2C46.9,169.4,46.5,169.4,46.1,169.4z"/>
<path style="fill:#F98613;" d="M82.5,159v-0.4c-0.4-0.2-0.8-0.4-1-0.6C81.9,158.6,82.3,159.2,82.5,159z"/>
<path style="fill:#F98613;" d="M55,144.9c0.4,0.4,0.8,0.6,1.2,0.8C55.6,145.3,55.2,144.7,55,144.9z"/>
<path style="fill:#F98613;" d="M57.6,146.5l-0.2-0.2c-0.4-0.2-0.8-0.2-1.2-0.6C56.6,146.1,57,146.5,57.6,146.5z"/>
<path style="fill:#F98613;" d="M43.9,136.3L43.9,136.3z"/>
<path style="fill:#F98613;" d="M45.7,134.4l-0.2-0.2C45.7,134.2,45.7,134.4,45.7,134.4z"/>
<path style="fill:#F98613;" d="M44.1,136.1L44.1,136.1z"/>
<path style="fill:#F98613;" d="M44.1,136.1C43.9,136.3,43.9,136.3,44.1,136.1c0,0.4-0.2,0.6-0.2,1.2
	C43.9,136.9,43.9,136.5,44.1,136.1z"/>
<path style="fill:#F98613;" d="M45.7,133.6C45.7,133.6,45.7,133.8,45.7,133.6c0,0.2-0.2,0.4,0,0.4C45.5,134,45.7,133.8,45.7,133.6z"
	/>
<path style="fill:#F98613;" d="M132.2,182.7c0.4,0.2,0.8,0.4,0.4,0C132.2,182.5,132.2,182.7,132.2,182.7z"/>
<path style="fill:#F98613;" d="M132,182.3c0,0.2-0.2,0.2,0,0.4c0,0,0.2,0,0.2,0.2C132.2,182.7,132.2,182.5,132,182.3z"/>
<path style="fill:#F98613;" d="M136.4,183.5c-1.4-0.6-3-1.2-1.8-0.8l0.2,0.2l0.6,0.2c-2-0.8-2.2-1-2.6-1c-0.2-0.2-0.6-0.2-1.8-0.6
	c1,0.2,0.6,0,2.2,0.6c0.2,0,0.4,0,0.6,0c0.2,0.2,0.2,0.2,0.6,0.4c0.4,0,0-0.2-0.4-0.4s-1-0.4-1.4-0.4c0.2,0,1.6,0.2,0.8-0.2
	c-0.6-0.2-0.8-0.2-1-0.2c-0.2,0-0.4,0.2-0.6,0c0.2,0,0.4-0.2,0.6-0.4c-0.2,0-0.4,0-0.4-0.2c0,0,0,0-0.2,0l-0.2-0.2
	c-0.2-0.2-0.4-0.4-0.8-0.6c-0.2-0.2-0.6-0.6-1-0.8c-0.2-0.2-0.4-0.2-0.6-0.2c-1.2-1-3-1.4-3.8-2.2c0.2,0-0.4-0.6-0.4-0.8l-1.8-1
	c0.8,0.4,1,0.2,1.2,0c-0.6-0.4-0.8-0.4-1.2-0.6c0.2,0,0.6,0.2,0.4-0.2l-2-0.8c0,0.2,0.2,0.2,0.4,0.4c-0.4-0.4-1.6-0.8-2-1.4
	c0.2,0,0.4,0,0.6,0c0.4,0.6,0.8,0.6,1.2,0.6c-1.2-0.8-0.2-0.2-0.8-0.8c-0.8-0.6-1.4-0.6-1.4-0.2c-1-0.8-1.2-1-2.4-1.6l0.4-0.2
	l-1-0.6h1c-1.6-1.4-0.8,0.4-2.6-1.2l0.2-0.4c-0.8-0.4-1.4,0-1.8-0.8c-0.8-0.4,1,1.4-0.8,0.2c-0.2-0.4-0.8-1-1.2-1.4
	c-0.6-0.2,0,0.6,0.4,0.8c-2.6-1.6-0.8-2.2-3.4-3.4c0.6,0.8-1,0.2,0.8,1.4c-1-0.4-1.4-1.6-2.6-2h0.8c-0.4-0.2-0.8-0.4-1-0.4l0.2-0.2
	c-1.6-0.2-2-1.8-3.2-1.6c0.8-0.2-0.8-0.6-1.2-1.2c1.2,0.2,2.8,2,3.2,1.6c-0.4-0.4-1-0.4-1.2-1c0.4,0.2,0.8,0.4,1,0.2
	c-1.2-1.4-2.6-1.4-3.4-1.8l1.6,1c-0.4,0.4-0.8-0.4-1.4-0.4c-0.6-0.8-1.4-0.8-2-1.4c0.2,0.2,0.2,0,0.4,0.2c-1.8-1.2-1.6-2.4-2.2-2.8
	c-0.6-0.6-2-1.2-1.8-0.6c-0.6-0.2,2.4,1.4,1,1.4c-0.4-1.4-2.2-1.2-4-3.2c1.2,0.4-0.2-0.8,0.8-0.4c-1-0.6-1.2-0.6-1.8-0.6l-0.2-0.4
	c-1.6-0.4-0.6,0.2-2.8-0.8c0.8,0.2-0.6-1,0-0.8c-0.6-0.4-1.2-0.8-1.6-0.8c-2.2-1.4-1.4-1.4-3.4-2.4v0.2c-2.6-1.4-5.6-3.8-8.2-5.2
	l0.8,0.6c-0.4-0.2-1.8-1-2.4-1.6c0.2,0,0.4,0.2,0.6,0.4c0-0.2,0-0.6-0.6-1h-0.4l-0.2-0.4c-1-0.6,0,0.6-0.8-0.2c0-1-3.8-2.8-4.2-4
	c-1,0,1.6,1.2,0.6,1.2c-0.2-0.2-0.2-0.4-0.8-1v0.4c-2.6-2.2-3.6-3.2-6-4.8h0.2c-0.8-0.8-1.4-1-1.8-1c0-0.2,0.6,0.2,0.4-0.2
	c-2-0.4-2.8-2.8-4-2.8c0.2-0.2,0-0.8-0.2-1.2l-2-1.4c0,0-3.8,3-7.8,8c-0.6,1.8-0.8,3.2-0.8,4.2c0,0,0,0-0.2,0c0,0.2,0,0.6,0,0.8
	c-0.2,0.4-0.2,0-0.4-0.4c0-0.4,0-0.8-0.2-0.2c0-0.8-0.2-1.6-0.2-2.4c-0.2,0.2-0.4,0.6-0.6,0.8c0,0.4,0,0.8,0,1.2
	c0,0.8,0,1.6,0.2,1.8c0,0.8-0.2-0.2-0.4,0.2c0.2,0.4,0,0.8,0.6,0.8c-0.2,0.2,0.2,0.6,0.4,0.8c0.2,0.2,0.2,0.4-0.8-0.2
	c0.6,0.4,1.2,0.6,1.8,1c0.2,0.2,0.4,0.2,0.6,0.4s0.4,0.2,0.6,0.4c0.4,0.2,0.8,0.4,1,0.4c0.6,0.4,1.6,0.4,1,0.4l2,0.6
	c1.8,1,4,1.2,5.6,2.8c0.6,0.2,1.4,0.4,2.2,1v0.4c0.8,0.2,2.2,1.4,2.6,1.2c0.4,1.2,3.6,2,5,2.8l0.2-0.4c1,0.4,1.8,0.8,3,1.2v-0.4
	c1.2,0.2,2.4,1.4,4,2.2c-0.2,0-0.6-0.2-0.8-0.4c1.6,1.6,4.2,1.4,5.6,2.8c0.4,0,0.8,0.2,1,0.6c0,0,0,0-0.2,0h0.2
	c0.2,0.2,0.4,0.2,0.6,0.4c-0.2-0.2-0.2-0.4-0.4-0.4c0.4,0.2,0.8,0.4,1.4,0.6v0.4c0,0,0,0,0.2,0c0.4,0.4,0.4,0,0.4-0.4
	c0.2,0,0.6,0.2,0.8,0.2c0.2,0.8,1.4,0.4,1.6,1.2c0.4-0.2,2.2,0.8,3,0.6c0.6,0.4,1,0.6,1.6,0.8v0.6H91c0.6,0.6,0.8,1,0,0.8
	c2,0.4,1.6,0.4,3.2,0.8l0.2,1.2c0.6,0.2,1.6,0.2,1.8,0.6c1,1,5.8,3,8.6,4.8c-0.4-1,1.2,1.2,1.6,0.6c0,0.2,0.4,0.6-0.2,0.6
	c1.6,0.6,2.2,1.4,3.4,1.4c0,0.2-0.4,0.2-0.4,0.4c0.2,0,0.6,0,0.6,0.2c0.2,0.2-0.4,0-0.6,0c1.6,0.8,2,0.2,2.4-0.2
	c0.6,0.6,1,0.8,1.8,0.8c0.2,0.4,0.6,0.8-0.4,0.4c0.6,0.2,3.2,2,3.6,1.4c0.2,0.2,0.8,0.4,1,0.4c1.2,0.6,1.4,0.8,2.6,1.2l-0.4-0.2
	c0.8-0.4,1,0.4,2,0.8c2,1.4,1,0.2,3,1.8v-0.4c0.6-0.6,1.8,1.4,3.2,1.8l-0.4-0.4c0.8,0,1.4,2,2.2,2.4c0.2,0.2-0.2,0-0.6,0
	c0.2,0.2,0.4,0.2,0.6,0.4c0.2,0,0.4-0.2,0.6-0.2c0,0,0.2-0.2,0.4,0c0,0,0,0,0-0.2v-0.2c0,0,0,0.2,0.2,0.2h0.2
	c-0.2-0.2-0.4-0.4-0.4-0.6c0.2,0.2,0.2,0.2,0.4,0.4c0.2,0.2,0.2,0.2,0.4,0.2s0.2,0.2,0.4,0.2c0,0-0.2,0-0.2,0.2
	c0.8,0.4,0.8,0.2,0.8,0.2c0-0.2-0.2-0.2,1.2,0.6c-0.4-0.2-0.4,0.2,0.2,0.6l0.2-0.2c0.4,0.2-0.2,0,0.4,0.4c0-0.2-0.2-0.4-0.6-0.6
	l-0.4-0.2c0,0,0.2,0.2,0.4,0.2h0.6c0,0,0.4,0.2,0.6,0.2c0,0-0.2-0.2-0.2-0.4c0,0-0.2,0-0.2-0.2l0.2,0.2c0.2,0.2,1,0.4,1.6,0.6
	C137.4,183.9,137,183.7,136.4,183.5z M131.2,181.3C132,181.3,131.4,181.3,131.2,181.3C131.4,181.3,131.2,181.3,131.2,181.3z
	 M47.7,141.3L47.7,141.3C48.4,141.7,48.2,141.7,47.7,141.3z M53.6,143.3c-1.4-0.6-0.4-0.6-0.8-0.8c-2.6-1.4-2.8,0-4.8-1.6
	c-0.6-0.8,0.4-0.8,0.2-1.2c1.2,0.4,1.6,1.2,2.4,1.4l-0.8-0.6c0.4,0,1.2,0.4,1.6,0.6c0,0-0.2-0.2-0.4-0.2l5.4,2.6
	C55.8,143.7,54.8,143.7,53.6,143.3z M62.6,146.9c0,0,0-0.2,0-0.4l1.2,0.6C63.2,147.1,62.8,147.1,62.6,146.9z M70.1,151.3
	c-0.2-0.2-1.8-1.6-2.2-2v-0.2l1.4,0.6l-0.2,0.6l0.4-0.4l1.4,0.6C70.5,150.9,70.3,151.3,70.1,151.3z M77.1,155l-0.2-0.4l-1.4-0.4
	c0.4,0,1.2-0.2,2-0.2l2.2,1C78.7,155,77.9,155.2,77.1,155z M88.2,160.2C88.4,160.2,88.4,160.2,88.2,160.2
	C88.4,160.2,88.6,160.4,88.2,160.2z M91.6,161.4c0.2-0.2,0.2-0.4,0.2-0.6l1,0.4L91.6,161.4z M112.5,171.6c-0.2-0.2,0-0.2,0.4-0.4
	c-0.2,0-0.2,0-0.4,0c-0.2-0.2-0.2-0.2-0.2-0.4l0.8,0.4h-0.2c0.2,0,0.2,0,0.4,0l0.4,0.2c0.2,0.2,0.4,0.4,0.4,0.6L112.5,171.6z
	 M128.6,178.9h0.2h0.4c0,0,0,0,0,0.2C129,179.1,129,179.1,128.6,178.9z M133.6,182.3L133.6,182.3l2,0.8L133.6,182.3z"/>
<path style="fill:#F98613;" d="M43.9,138.1c-0.2-0.2,0,0.6,0.2,1.2c0.2,0.4,0.4,0.6,0.2-0.6C44.1,138.1,43.7,138.5,43.9,138.1z"/>
<path style="fill:#F98613;" d="M45.9,135.7c0-0.4,0.2-0.6,0.2-1c0,0,0-0.2,0-0.4C45.9,135.1,45.7,135.7,45.9,135.7z"/>
<path style="fill:#F98613;" d="M46.1,134.4c0-0.4,0.2-0.6,0.2-0.8C46.1,133.6,46.1,134,46.1,134.4z"/>
<path style="fill:#F98613;" d="M54.8,143.1c0.2,0,0-0.2-0.4-0.4c-0.2,0-0.6-0.2-0.6,0L54.8,143.1z"/>
<path style="fill:#007AC1;" d="M22.6,182.7c0.2-0.4-0.2-0.4-0.2-0.4C22.2,183.1,22.8,182.7,22.6,182.7z"/>
<polygon style="fill:#007AC1;" points="21.8,190.1 21.8,189.9 22,191 "/>
<path style="fill:#007AC1;" d="M21.6,193.2L21.6,193.2l-0.2-0.8c0,1.4,0.2,3.4,0,4.4C21.8,196.2,21.4,194.4,21.6,193.2z"/>
<path style="fill:#007AC1;" d="M20.2,199.6C20.2,199.6,20.2,199.8,20.2,199.6c0,0.4,0,0.6,0,0.8C20.4,200.2,20.4,201.2,20.2,199.6z"
	/>
<path style="fill:#007AC1;" d="M20.2,199.8C20,199,20,200.2,20.2,199.8z"/>
<path style="fill:#007AC1;" d="M20,203c0.2,1,0.4,0.8,0.4,0.2l-0.2-1C20,202.4,20.2,203.2,20,203z"/>
<path style="fill:#007AC1;" d="M21,204l-0.2-0.4C20.8,203.6,20.8,203.8,21,204z"/>
<path style="fill:#007AC1;" d="M20.8,203c0.2,0,0-0.2-0.2-0.6l0.2,1C20.8,203.4,21,203.4,20.8,203z"/>
<path style="fill:#007AC1;" d="M20.6,201.8c0-0.6,0.2-1.2,0.4-0.2C20.8,199.8,20.4,200,20.6,201.8z"/>
<path style="fill:#007AC1;" d="M21.8,197.2l0.2-0.8v-0.6C22,196.2,21.8,197.2,21.8,197.2z"/>
<path style="fill:#007AC1;" d="M21,209c0.2,0,0.2-0.4,0.4-0.4l-0.2-0.6C21.2,208.4,21.2,209,21,209z"/>
<path style="fill:#007AC1;" d="M21.4,208.6l0.4,1C21.6,208.6,21.6,208.6,21.4,208.6z"/>
<polygon style="fill:#007AC1;" points="21.6,204 21,202.4 21.6,204.4 "/>
<polygon style="fill:#007AC1;" points="21.6,212.5 22.2,213.5 22,213.1 "/>
<path style="fill:#007AC1;" d="M22.4,215.9c0.2,0.6,0.6,1.2,1,1.6c-0.2-0.6-0.4-1.2-0.6-2C22.4,215.3,22.6,216.3,22.4,215.9z"/>
<path style="fill:#007AC1;" d="M23.8,218.3c-0.2-0.2-0.4-0.6-0.6-0.8C23.4,217.9,23.6,218.1,23.8,218.3z"/>
<path style="fill:#007AC1;" d="M22.2,212.3l0.2-0.4c0-0.2,0-0.2,0-0.4C22.2,211.5,22,211.7,22.2,212.3z"/>
<path style="fill:#007AC1;" d="M22.4,211.9L22.4,211.9c0,0.4,0.2,0.8,0.2,0.8C22.6,212.5,22.4,212.3,22.4,211.9z"/>
<path style="fill:#007AC1;" d="M22.2,211.3L22.2,211.3z"/>
<path style="fill:#007AC1;" d="M21.6,206.8c0.2,0.6,0.8,1.8,0.8,0.6C22.2,207,22,207.6,21.6,206.8z"/>
<path style="fill:#007AC1;" d="M22,209.7l0.6,1l-0.2-1C22.2,209.7,22.2,209.9,22,209.7z"/>
<polygon style="fill:#007AC1;" points="22.8,211.3 22.4,210.7 22.6,211.1 "/>
<path style="fill:#007AC1;" d="M23.6,216.5c0.2,0.4,0.4,0.8,0.6,1.4c0-0.6-0.2-1.2-0.4-1.8C23.6,216.1,23.4,215.9,23.6,216.5z"/>
<path style="fill:#007AC1;" d="M23,214.3L23,214.3C23,214.3,23,214.1,23,214.3z"/>
<polygon style="fill:#007AC1;" points="26.4,223.3 26.4,223.3 26.2,223.3 "/>
<path style="fill:#007AC1;" d="M23.8,215.9c0-0.4-0.2-0.8-0.4-1C23.4,215.3,23.6,215.7,23.8,215.9C23.8,216.1,23.8,216.1,23.8,215.9
	z"/>
<path style="fill:#007AC1;" d="M24.6,219.9c0-0.2,0-0.6-0.2-0.8C24.4,219.3,24.4,219.7,24.6,219.9z"/>
<path style="fill:#007AC1;" d="M23,214.5L23,214.5z"/>
<path style="fill:#007AC1;" d="M23,214.5c0.2,0.2,0.2,0.4,0.4,0.6C23.2,214.7,23.2,214.5,23,214.5C23,214.3,23,214.5,23,214.5z"/>
<path style="fill:#007AC1;" d="M25.6,221.3l-0.2-0.4c0.2,0.4,0.2,0.8,0.2,1.6c0.4,0.6,0.6,0.8,0.8,0.8L25.6,221.3z"/>
<path style="fill:#007AC1;" d="M25.8,219.5c-0.4-1.2-0.6-0.8-1-1.4c0.8,2-0.4-0.6,0,1c-0.2-0.4-0.4-0.8-0.4-1c0,0.4,0.2,0.8,0.2,1
	c0-0.2,0-0.2,0,0h0.2c0.2,0.6,0,0.2-0.2,0l1,2c-0.2-0.4-0.4-1-0.8-1.8C25.2,219.3,25.6,220.1,25.8,219.5z"/>
<path style="fill:#007AC1;" d="M23.4,208.4L23.4,208.4C23.4,208.6,23.4,208.6,23.4,208.4z"/>
<path style="fill:#007AC1;" d="M23.4,209.3c0-0.2-0.2-0.2-0.2-0.8c0-0.4,0.2,0,0.2,0c-0.2-0.2-0.4-1-0.4,0v0.2c0,0.6,0,1.6-0.2,1.8
	C23,210.1,23.2,209.9,23.4,209.3z"/>
<path style="fill:#007AC1;" d="M22.8,210.3C22.8,210.5,22.8,210.5,22.8,210.3C22.8,210.5,22.8,210.5,22.8,210.3z"/>
<path style="fill:#007AC1;" d="M24.6,215.7v-1h-0.2c-0.2-0.8-0.2-0.4-0.4-0.6c0,0,0.2,0.4,0.4,0.8C24.4,215.3,24.6,215.7,24.6,215.7
	z"/>
<polygon style="fill:#007AC1;" points="25.8,223.5 26.6,224.3 26.2,223.5 "/>
<polygon style="fill:#007AC1;" points="27,225.7 27.4,226.1 27.2,225.7 "/>
<path style="fill:#007AC1;" d="M145.5,187.5C145.7,187.3,145.7,187.3,145.5,187.5C145.1,187.5,145.1,187.5,145.5,187.5z"/>
<path style="fill:#007AC1;" d="M30.9,181.7c0.2,0,0.6,0,0.8,0C31.5,181.7,31.3,181.7,30.9,181.7z"/>
<path style="fill:#007AC1;" d="M146.5,185.3c0.2-0.4,0.2-0.6,0-0.4c0.6-0.4,1-0.6,1.4-0.8c0.4-0.6-2.2,0.6-4.2,1.2h-0.2
	c-2.2,0-3.6,0.2-2.4-0.4h-4.2l0.2-0.2c-2.6-0.2-4,0-4.8,0.4c-0.6,0,0-0.2,0-0.2c-1,0-1.6-0.2-2.2-0.2c-0.4,0-0.8,0-1.2,0
	c-0.6,0-1.2,0.2-2.4,0.4l-0.2-0.4c-0.6,0.2-3.8-0.8-6.4-0.4c0,0,0-0.2,0.2-0.2c-3,0.4-6.8-1.2-8,0l-2,0.2c2.4,0.2-0.4,0.6,0.6,0.8
	c-1,0-2.4-0.6-1.4-0.6h0.2c0.4-0.8-3-0.4-3-0.8c-4.8-0.2-9.7-0.6-14.3-0.8l0.6,0.6H91c-0.4-0.2-0.6-0.4,0.6-0.4
	c-0.6-0.4-2,0.2-2,0.4c-2.2-0.2,0.8-0.6,0.2-0.6h-1H89c-0.8,0.2-0.8,0.4-2.2,0.4c-0.8-0.2-0.4-0.4-0.8-0.4c0,0-0.2,0-0.6,0l-2-0.2
	l0.8,0.4c-0.8,0.2-1.8,0-1,0.4c-1.4-0.8-7.4-0.6-8.2-0.8c-1.2,0.2-2.4,0.2-4,0.2c0.4,0.2,0.6,0.6-0.8,0.6c0.6-1-2.4-0.6-3.4-1.4
	c1,0.6-3.8,0-2.2,0.8c-1-0.2,0-0.4-0.8-0.6c-2.6,0.4-5.8-0.4-9-0.4c0,0.2,0.4,0.4-0.2,0.6l-1.6-0.8c-0.6,0-0.6,0.8-1.8,0.2
	c0.2,0.2,0.4,0.4,0,0.4c-5.8-0.4-12.5,0.6-18.9-1c0.8,0.2,0.2,0.2-0.4,0.2c0.4,0,0,0.4,0,0.6l-2.6-0.6c-0.6,0.4-2.8,0-3.2,0.4h0.8
	c-0.6,0.2-0.2,0.6,0.4,1h-2.6c0,0-4,12.9-0.8,26.3c1,4,2.2,7.6,3.4,10.9c0,0,0,0,0-0.2l-0.2,0.2c0.2,0.6,0.4,0.8,0.4,0.6
	c0.2,0.4,0.2,0.6,0.4,1h-0.2v0.2c-0.6-0.2-1,0.6-1.2,1.4c0.2,0,0.2,0,0.8,0.8c0-0.4-0.6-2.4,0-1.6c0.8,1.2,0.4,1.2,0.4,1.8
	c0-0.6,1,1,1.4,1c0.2,0.6,0.4,1,0.8,1.6c0,0.2,0,0.4,0,0.6v0.2h0.2c0,0.4,0,0.6,0.2,1c0,0,0,0-0.2,0l0.2,1c-0.8-0.8-1.8-1.8-2.2-3.2
	c-0.2,0.8,0.2,0.2,0.2,1.4c0.2-1,1.6,3.2,1.6,1.6c0,1.2,0.6,1.6,0.8,3c0,0,0-0.4,0.2,0c1,5,2.6,10.9,5.8,16.5
	c1.6,2.8,3.6,5.2,5.8,7.6v0.2c0.4,0.4,0.8,0.6,0.6,0.4c0.4,0.4,0.6,0.6,1,1c-0.8-0.4-1,0.6-0.8,1.8c0.2,0,0.2-0.2,1.2,0.4
	c-0.2-0.4-1.4-2-0.6-1.6c1.2,0.8,0.8,0.8,1.2,1.4c-0.2-0.6,1.4,0.4,1.8,0.4c2.6,2.2,5,4.2,6.8,5.2c0,0,0,0,0,0.2l0.8,0.4
	c0.6,0.8-1.6-0.6-0.8,0.2c-1.2-0.4-2.2-0.8-3.4-2v-0.6c0,0.2,0.6,0.8,1,1c-0.6-0.2-1.4-2-2.4-1.8l0.6,1c-1-0.4-2.4-1-3.4-2
	c0.2,0.8,0.2,0.2,0.6,1.2c-0.2-1,2.8,2.2,2,0.8c0.4,1.2,1.2,1.2,2,2.4c0-0.2-0.2-0.6,0.6,0.2h0.2c-0.2-0.2-0.4-0.4-0.4-0.6
	c0.4,0,0.8,0.2,1.4,0.6c0.8,0.4,1.4,0.8,1.8,1c0.8,0.6-0.4,0,0,0.4l1.2,0.4c0,0.4,2.2-1.2,0.4,0.8l1.8-1.6c0.2-0.2,0.6-0.4,1-0.6
	c0.2-0.2,0.4-0.4,0.6-0.4c0.4-0.4,0.6-0.6,1-1c0.6-0.4,1-1.4,0.8-0.8l1.4-1.6c1.6-1.4,3-3.4,5.2-4.6c0.4-0.6,1-1.2,2-2h0.4
	c0.6-0.8,2.2-1.6,2.4-2.2c1.2,0,3.4-3,4.8-4l-0.2-0.4c0.8-0.8,1.6-1.6,2.6-2.6l-0.2-0.2c0.8-1,2.4-2,3.8-3.2c0,0.2-0.4,0.4-0.8,0.6
	c2.2-1,3.2-3.8,5.2-4.8c0.2-0.4,0.6-0.6,1-0.8c0,0,0,0,0,0.2c0,0,0,0,0.2-0.2c0.2-0.2,0.4-0.2,0.6-0.4c-0.2,0-0.4,0.2-0.6,0.2
	c0.2-0.2,0.8-0.8,1-1.2l0.4,0.2c0,0,0,0,0-0.2c0.6-0.2,0.2-0.4-0.2-0.4c0.2-0.2,0.4-0.4,0.4-0.8c0.8,0.2,1-1.2,2-1.2
	c0-0.4,1.8-2,1.8-2.8c0.6-0.4,1-0.8,1.4-1.4l0.6,0.2L97,230c0.8-0.4,1.2-0.6,0.8,0.4c1.2-1.8,1.2-1.4,2-3l0.2,0.2
	c0.4-0.4,1-1.4,1.4-1.6c1.4-0.6,5.4-4.8,8.4-6.8c-1.2-0.2,1.6-0.8,1.2-1.4c0.4,0,0.8-0.2,0.4,0.2c1.2-1.4,2.4-1.6,2.8-3
	c0.4,0,0,0.6,0.2,0.4c0-0.2,0.4-0.6,0.6-0.6c0.2,0,0,0.4-0.2,0.6c1.4-1.4,1-2,0.8-2.4c1-0.4,1.2-0.8,1.4-1.6c0.4,0,1-0.4,0.2,0.6
	c0.6-0.4,3.2-2.6,3-3c0.2,0,0.8-0.6,0.8-0.8c1.2-1,1.2-1,2.4-2l-0.4,0.2c0-0.8,0.8-1,1.6-1.8c2.4-1.6,0.8-1,3-2.4l-0.4-0.2
	c-0.4-0.8,2-1.2,3-2.6l-0.6,0.8c0.4-0.8,2.6-0.8,3.2-1.4c0.2,0-0.2,0.2-0.4,0.4c2-1.2-0.2-0.6,1-1.8c0.4,0,0.2,0.8,1,0
	c0.4-0.2,1.4-1.4,2.2-2.4c1-1.2,1.8-2.2,3.2-3c-0.8,0.4-1.4,0.8-1,0c0.6-0.6,1.8-1.4,3-2.4c0.8-0.6,1.6-1.2,1.8-1.6
	c0.4-0.2,0.4-0.4,0.4-0.4c0.2,0,0.2,0,0.2,0s0,0,0.2,0s0.2,0,0.4,0c0.6-0.4,2.6-1.4,2.2-1.6c-0.2,0-0.4,0-0.6,0
	C148.5,185.5,147.7,185.3,146.5,185.3z M86.4,183.3l0.4,0.2C86,183.5,86.2,183.5,86.4,183.3z M27.8,222.1c0.2,0.6,0.4,1.2,0.8,1.6
	C28.2,223.3,27.8,222.7,27.8,222.1z M28.6,224.1L28.6,224.1C28.6,224.1,28.8,224.1,28.6,224.1z M43.9,258.3c0.4,0.4,0.8,0.8,1.2,1.2
	C44.7,259.3,44.1,258.9,43.9,258.3z M45.3,259.7L45.3,259.7C45.5,259.7,45.5,259.7,45.3,259.7z M58.6,266.8L58.6,266.8
	C59.2,266.4,59,266.6,58.6,266.8z M61.8,262.1c-2.4,2.2-1.2,2.8-3.6,4.2c-1.2,0.4-0.6-0.6-1-0.6c1-1,1.8-1.2,2.4-2l-1,0.6
	c0.2-0.4,0.8-1.2,1.4-1.4c-0.2,0-0.2,0.2-0.4,0.2l5-4.6c-0.2,0.8-0.8,1.8-1.8,3C61.8,262.9,62,261.9,61.8,262.1z M70.1,253.9l1-1
	c-0.2,0.4-0.4,0.8-0.6,1H70.1z M74.9,249.7c-0.2,0-0.2,0-0.2,0l1.2-1.2l0.4,0.4l-0.2-0.6l1.2-1.2c0.4,0.4,0.6,0.6,0.4,1
	C77.7,248.3,75.5,249.5,74.9,249.7z M83.7,242.4l-1,1.2c0.2-0.4,0.4-1.2,0.6-2.2l1.8-1.8c-0.2,0.8-0.6,1.8-1.2,2.6L83.7,242.4z
	 M94.2,233C94.2,233,94.2,232.8,94.2,233C94.2,232.8,94.4,232.8,94.2,233z M96.4,229.8l0.8-0.8l-0.4,1.2
	C96.8,230,96.6,229.8,96.4,229.8z M115.5,212.9c-0.2,0-0.2-0.2-0.2-0.6c0,0.2-0.2,0.2-0.2,0.4c-0.2,0.2-0.4,0.2-0.4,0l0.8-0.6v0.2
	c0-0.2,0.2-0.2,0.2-0.4l0.4-0.2c0.4-0.2,0.6-0.2,0.8-0.2L115.5,212.9z"/>
<path style="fill:#007AC1;" d="M29.5,230.6c-0.2-0.4-0.2-0.6-0.4-1c0,0,0,0.2-0.2,0.2L29.5,230.6z"/>
<path style="fill:#007AC1;" d="M28.8,229.8L28.8,229.8z"/>
<path style="fill:#007AC1;" d="M29.5,228.2c0.2-0.2-0.2-0.8-0.6-1.4v0.2C28.6,226.9,29,227.5,29.5,228.2z"/>
<path style="fill:#007AC1;" d="M28.8,226.7c-0.2-0.2-0.2-0.4-0.2-0.6C28.4,225.9,28.6,226.3,28.8,226.7z"/>
<polygon style="fill:#007AC1;" points="27.2,181.1 26.4,180.9 27,181.3 "/>
<path style="fill:#007AC1;" d="M25.4,181.7l-0.2-0.6l-0.6,0.4C24.8,181.5,25.2,181.5,25.4,181.7z"/>
<polygon style="fill:#007AC1;" points="29,229.2 28.8,229.2 29.5,230.2 "/>
<path style="fill:#007AC1;" d="M29.7,232.2l-0.6-0.4c0.2,1.4,1,3.2,1,4.2c0.4-0.8-0.6-2.4-0.6-3.6L29.7,232.2z"/>
<path style="fill:#007AC1;" d="M29.9,239c0,0.2,0,0.4,0.2,0.6C30.3,239.4,30.5,240.4,29.9,239z"/>
<path style="fill:#007AC1;" d="M29.9,239C29.7,238.4,29.9,239.6,29.9,239z"/>
<path style="fill:#007AC1;" d="M30.5,242.2c0.4,1,0.4,0.6,0.4,0l-0.4-0.8C30.5,241.6,30.7,242.4,30.5,242.2z"/>
<path style="fill:#007AC1;" d="M31.7,243l-0.2-0.4C31.5,242.6,31.5,242.8,31.7,243z"/>
<path style="fill:#007AC1;" d="M31.3,242.2c0.2,0,0-0.2-0.2-0.6l0.4,1C31.5,242.4,31.7,242.4,31.3,242.2z"/>
<path style="fill:#007AC1;" d="M30.9,241c0-0.6-0.2-1.2,0.2-0.4C30.5,239,30.3,239.2,30.9,241z"/>
<path style="fill:#007AC1;" d="M30.9,236.2v-0.8l-0.4-0.6C30.9,235.2,30.9,236.2,30.9,236.2z"/>
<path style="fill:#007AC1;" d="M33.1,248.1c0.2,0,0.2-0.4,0.2-0.6l-0.4-0.6C33.1,247.3,33.3,247.9,33.1,248.1z"/>
<path style="fill:#007AC1;" d="M33.3,247.5l0.8,0.8C33.7,247.5,33.5,247.3,33.3,247.5z"/>
<path style="fill:#007AC1;" d="M31.9,242.2c-0.2-0.4-0.4-0.8-0.4-0.8S31.7,241.8,31.9,242.2c0.4,0.6,0.6,1,0.6,1l-0.2-0.4
	C32.3,243,32.1,242.6,31.9,242.2z"/>
<polygon style="fill:#007AC1;" points="34.5,251.3 35.5,251.9 35.1,251.7 "/>
<path style="fill:#007AC1;" d="M36.3,254.3c0.4,0.6,1,1,1.6,1.2c-0.4-0.4-0.8-1-1.2-1.8C36.3,253.7,36.7,254.7,36.3,254.3z"/>
<path style="fill:#007AC1;" d="M38.7,256.3c-0.2-0.2-0.6-0.4-0.8-0.6C38.1,255.9,38.5,256.1,38.7,256.3z"/>
<path style="fill:#007AC1;" d="M34.9,250.9v-0.6c0-0.2-0.2-0.2-0.2-0.4C34.7,250.1,34.7,250.3,34.9,250.9z"/>
<path style="fill:#007AC1;" d="M35.1,250.3L35.1,250.3c0.2,0.4,0.4,0.6,0.4,0.8C35.5,250.9,35.3,250.7,35.1,250.3z"/>
<path style="fill:#007AC1;" d="M34.7,249.9L34.7,249.9C34.9,249.9,34.9,249.9,34.7,249.9z"/>
<path style="fill:#007AC1;" d="M33.1,245.6c0.4,0.4,1.2,1.6,0.8,0.4C33.7,245.6,33.7,246.2,33.1,245.6z"/>
<path style="fill:#007AC1;" d="M34.1,248.3l0.8,1l-0.4-1C34.3,248.3,34.3,248.5,34.1,248.3z"/>
<polygon style="fill:#007AC1;" points="35.3,249.7 34.9,249.1 35.1,249.5 "/>
<path style="fill:#007AC1;" d="M37.7,254.5c0.4,0.2,0.8,0.6,1.2,1.2c-0.4-0.6-0.8-1-1.2-1.6C37.7,254.1,37.3,253.9,37.7,254.5z"/>
<path style="fill:#007AC1;" d="M36.3,252.5L36.3,252.5C36.5,252.5,36.5,252.5,36.3,252.5z"/>
<path style="fill:#007AC1;" d="M42.9,259.9L42.9,259.9z"/>
<path style="fill:#007AC1;" d="M37.7,253.9c-0.2-0.4-0.4-0.6-0.8-0.8C37.3,253.5,37.5,253.7,37.7,253.9S37.9,254.1,37.7,253.9z"/>
<path style="fill:#007AC1;" d="M39.9,257.3c-0.2-0.2-0.2-0.4-0.4-0.8C39.5,256.9,39.9,257.3,39.9,257.3z"/>
<path style="fill:#007AC1;" d="M36.5,252.7L36.5,252.7C36.5,252.9,36.5,252.9,36.5,252.7z"/>
<path style="fill:#007AC1;" d="M36.5,252.7c0.2,0.2,0.4,0.2,0.6,0.4C36.9,252.9,36.7,252.7,36.5,252.7z"/>
<path style="fill:#007AC1;" d="M41.3,258.3L41.3,258.3l-0.2-0.2c0.4,0.4,0.4,0.8,0.8,1.4c0.6,0.4,0.8,0.4,1,0.4c0,0-0.4-0.4-0.8-0.8
	C41.7,258.7,41.3,258.3,41.3,258.3z"/>
<path style="fill:#007AC1;" d="M40.9,256.5c-0.8-1-0.8-0.6-1.4-1c1.4,1.6-0.6-0.4,0.4,1c-0.4-0.2-0.6-0.6-0.8-0.8
	c0.2,0.4,0.4,0.6,0.6,1c0,0,0-0.2,0,0h0.2c0.4,0.6,0,0.2-0.2,0c0,0,0.4,0.4,0.8,0.8c0.4,0.4,0.8,0.8,0.8,0.8
	c-0.2-0.4-0.6-0.8-1.4-1.6C40.1,256.5,41.1,257.3,40.9,256.5z"/>
<path style="fill:#007AC1;" d="M35.1,246.7L35.1,246.7C35.1,246.9,35.3,246.9,35.1,246.7z"/>
<path style="fill:#007AC1;" d="M35.1,246.9c-0.2-0.2-0.6-0.8-0.4,0l0.2,0.2c0.2,0.6,0.4,1.4,0.4,1.8c0.2-0.4,0.2-0.6,0.2-1.2
	c-0.2-0.2-0.2-0.2-0.4-0.6C34.7,246.4,35.1,246.9,35.1,246.9z"/>
<path style="fill:#007AC1;" d="M35.1,248.7C35.1,248.7,35.1,248.9,35.1,248.7C35.1,248.9,35.1,248.9,35.1,248.7z"/>
<path style="fill:#007AC1;" d="M38.5,253.5l-0.4-1v0.2c-0.6-0.8-0.6-0.6-0.8-0.6c0,0,0.2,0.4,0.6,0.6
	C38.1,253.1,38.5,253.5,38.5,253.5z"/>
<polygon style="fill:#007AC1;" points="42.5,260.3 43.7,260.7 42.9,260.1 "/>
<polygon style="fill:#007AC1;" points="44.5,261.9 45.1,262.1 44.7,261.7 "/>
<path style="fill:#007AC1;" d="M89.2,239c0.8-0.2,1.6-0.6,1.4-0.8h-0.4C89.8,238.6,89.4,238.8,89.2,239z"/>
<path style="fill:#007AC1;" d="M65,260.9c0.6-0.4,1-0.6,1.4-1C65.6,260.3,65,260.5,65,260.9z"/>
<path style="fill:#007AC1;" d="M66.4,259.9c0.6-0.2,1-0.6,1.4-1.2c-0.2,0-0.2,0.2-0.4,0.2C67.3,259.3,66.9,259.5,66.4,259.9z"/>
<path style="fill:#007AC1;" d="M52,267.6C51.6,267.4,52,267.6,52,267.6z"/>
<path style="fill:#007AC1;" d="M51.2,265.1H51C51,265.1,51,265.1,51.2,265.1z"/>
<path style="fill:#007AC1;" d="M51.6,267.2c0.2,0.2,0.2,0.2,0.4,0.4C52,267.4,51.8,267.4,51.6,267.2z"/>
<path style="fill:#007AC1;" d="M51.6,267.4c-0.2-0.2-0.2-0.2-0.4-0.2C51,267,51.2,267.2,51.6,267.4z"/>
<path style="fill:#007AC1;" d="M52,267.6c0.2,0.2,0.4,0.2,0.8,0.6C52.6,268,52.2,267.8,52,267.6z"/>
<path style="fill:#007AC1;" d="M47.9,264.5c0,0,0,0.4-0.2,0.2l1,0.6C48.4,264.9,48.2,264.7,47.9,264.5z"/>
<path style="fill:#007AC1;" d="M47.7,263.1c0.2-0.2-0.4-0.6-1-1C46.3,262.3,47.1,262.7,47.7,263.1z"/>
<path style="fill:#007AC1;" d="M46.1,261.5c-0.2,0,0.2,0.2,0.6,0.4C46.5,261.9,46.3,261.7,46.1,261.5z"/>
<path style="fill:#007AC1;" d="M54.2,268.8c-0.4-0.4-0.4,0.2-0.6,0c-0.4,0,0.6,0.4,1.2,0.6C55.2,269.6,55.4,269.6,54.2,268.8z"/>
<polygon style="fill:#007AC1;" points="47.9,261.9 47.9,262.3 48.6,262.5 "/>
<path style="fill:#007AC1;" d="M52.4,265.8l-0.8-0.8c0,0-0.2,0-0.4,0C51.8,265.3,52.4,265.8,52.4,265.8z"/>
<path style="fill:#007AC1;" d="M50.4,264.3c0.2,0.2,0.6,0.4,0.8,0.6C51,264.5,50.6,264.3,50.4,264.3z"/>
<path style="fill:#007AC1;" d="M62.6,260.7c-0.2,0.2-0.4,0.6-0.2,0.6l0.8-1C63.2,260.3,63,260.3,62.6,260.7z"/>
<path style="fill:#003A92;" d="M77.5,218.1l-0.4-0.2c-0.4,0.2-0.8,0.4-1.2,0.4C76.7,218.3,77.7,218.5,77.5,218.1z"/>
<path style="fill:#003A92;" d="M46.3,231.4c0.6-0.2,1.2-0.2,1.6-0.4C46.9,231,46.3,231,46.3,231.4z"/>
<path style="fill:#003A92;" d="M49.6,230.2c-0.2,0-0.2,0-0.4,0c-0.4,0.2-0.8,0.4-1.4,0.6C48.4,230.8,49,230.6,49.6,230.2z"/>
<path style="fill:#003A92;" d="M31.9,234.4C31.3,233.8,31.7,234.2,31.9,234.4z"/>
<path style="fill:#003A92;" d="M31.5,231.2c0,0,0.2,0.2,0.2,0C31.7,231.4,31.5,231.4,31.5,231.2z"/>
<path style="fill:#003A92;" d="M31.3,233.2c0,0.2,0.2,0.6,0.4,0.8C31.7,234,31.5,233.8,31.3,233.2z"/>
<path style="fill:#003A92;" d="M31.3,233.4c0-0.2-0.2-0.2-0.2-0.4C30.9,233,30.9,233,31.3,233.4z"/>
<path style="fill:#003A92;" d="M31.9,234.4c0.2,0.2,0.4,0.4,0.6,1C32.3,235,31.9,234.6,31.9,234.4z"/>
<path style="fill:#003A92;" d="M133.4,191.8c0.2-0.2,0.2,0,0.6-0.2C134.4,191.2,133.8,191.4,133.4,191.8c-0.6,0.2-1,0.6-1.2,0.8
	c0-0.2,1.2-1.2,0.2-0.8c-0.6,0.2-0.6,0.4-0.6,0.6c0,0.2-0.2,0.4-0.2,0.6v-0.6c-0.2,0.2-0.2,0.2-0.4,0.4c-0.2,0-0.8,0.2-1,0.4
	c-0.8,0.2-1.6,0.2-2.2,0.4c-0.4,0.2-0.4,0.2-0.6,0.4c0,0.2,0.4,0.2-0.4,0.6l0.4-0.6c-1.6,0.2-3.2,1.6-4.4,1.8c0.2-0.2-0.8-0.2-1-0.2
	l-2,1c1-0.4,0.8-0.8,0.8-1c-0.6,0.2-1,0.6-1.4,0.6l0.2-0.2c0-0.2,0.2-0.2-0.2-0.2l-1.6,1l-0.6,0.2c0.2,0,0.4,0,0.6-0.2
	c-0.6,0.2-1.6,0.6-2.4,0.8c0,0,0,0-0.2,0c0,0,0,0-0.2,0c0,0,0,0,0-0.2c0-0.2,0.2-0.2,0.2-0.4c0.2,0,0.4,0,0.6,0c0,0,0,0,0.2,0
	c0.2-0.2,0.4-0.4,0.6-0.6c-1.6,0.6-0.4,0-1.2,0c-1,0.4-1.4,0.8-1,1c-1.2,0.2-1.6,0.4-2.8,1l0.2-0.4l-1.2,0.6l0.8-0.8
	c-2.4,0.4-0.2,0.8-2.8,1.4l-0.2-0.4c-1,0.4-1,1.2-2,1c-0.8,0.6,1.8,0-0.4,0.8c-0.4,0-1.4,0-2,0.2c-0.6,0.4,0.4,0.2,1,0.2
	c-3,1-2.4-0.6-5,0.8c1,0-0.6,1,1.8,0.2c-1,0.6-2.4,0.2-3.6,1l0.6-0.6c-0.4,0.2-0.8,0.4-1,0.6v-0.4c-1.2,1-2.8,0.6-3.4,1.6
	c0.4-0.8-1,0.4-1.8,0.4c1-0.8,3.6-1,3.4-1.8c-0.6,0-1,0.4-1.6,0.4c-0.4,0.2-0.6,0.2-0.2,0c0,0,0,0,0.2,0c0.4-0.2,0.8-0.6,1-0.6
	c-2,0.2-2.8,1.2-4,1.8l2-0.8c0,0.6-0.8,0.4-1.2,1c-1.2,0-1.8,0.6-2.6,0.8c0.2,0,0.2-0.2,0.4-0.2c-2.2,0.6-3,0-4,0.2
	c-0.8,0.2-2.4,1-1.8,1c-0.6,0.4,2.8-1,1.8,0c-1.6-0.4-2.4,1.2-5.4,1.4c1-0.6-0.8-0.2,0.2-0.8c-1.2,0.4-1.2,0.6-1.8,1l-0.4-0.6
	c-1.6,1.2-0.2,0.6-2.6,1.8c0.8-0.4-1.2,0-0.6-0.4c-0.8,0.2-1.4,0.4-1.8,0.8c-2.6,1-2.2,0.4-4.6,1.4h0.2c-3,1.4-7,2.4-10.3,3.6
	l1.2-0.2c-0.4,0-2,1-3.2,1c-0.2,0-0.2,0-0.2,0h0.2c0.2,0,0.6-0.2,0.8-0.2c0-0.2-0.6-0.4-1.4-0.2l-0.2,0.4l-0.4-0.2
	c-1.2,0.4,0.4,0.2-0.8,0.6c-1-0.6-5,1.4-6.4,1c-0.6,0.8,2.2-0.6,1.6,0.2c-0.4,0-0.6,0-1.4,0.2l0.4,0.2c-3.6,0.8-5,1-8.2,2l0.2-0.2
	c-1.2,0.2-1.8,0.4-2.2,1c-0.2,0,0.6-0.4,0-0.4c-1.8,1.6-4.2,0.6-5.2,1.6c0-0.4-0.6-0.6-1.2-0.6l-2.6,0.8c0,0,0,2,0.2,5.2
	c0,0.2,0.2,0.2,0.2,0.4h0.2v0.2l0.4,0.2l-0.2-0.6c1.2,2.4,2.4,4.4,3.2,5.6c0,0,0,0,0,0.2l0.4,0.6c0.2,0.4-0.2,0.2-0.4,0
	s-0.6-0.6-0.2,0c-1-1-1.8-1.8-2.4-3.2l0.2-0.4c-0.2,0,0.2,1,0.6,1.4c-0.4-0.4-0.6-2-1.2-2.6c0.2,1.2,0.4,2.6,0.6,3.8
	c0,0.2,0.2,0.2,0.2,0.4c0,0,0.2,0,0.2,0.2c0-0.2-0.2-0.6-0.2-0.6c0.2,0,0.4,0.2,0.6,0.4c0.2,0.2,0.4,0.6,0.8,1
	c0.6,0.6,1,1.2,1.2,1.6c0.6,0.8-0.4-0.2,0,0.4c0,0,0,0,0.2,0.2c0,0,0,0,0.2,0.2c0,0,0.2,0,0.2-0.2c0.4-0.2,0.6-0.4,0.6-0.4
	c0,0.2,0.6,0.2,1,0.2c0.4,0,0.4,0.2-0.8,0.6c0,0,0.6-0.2,1-0.4c0.6-0.2,1-0.4,1-0.4c0.2,0,0.4-0.2,0.6-0.2h0.4
	c0.2,0,0.4-0.2,0.6-0.2c0.4-0.2,0.8-0.4,1.2-0.6c0.6-0.2,1.4-1,1-0.6l2-1c2-0.8,3.8-2.4,6.4-2.8c0.6-0.4,1.2-0.8,2.4-1.2l0.4,0.2
	c0.8-0.4,2.8-0.8,3-1.4c1.2,0.4,4.2-1.6,5.8-2.2l-0.2-0.4c1-0.4,2-1,3.2-1.6l-0.2-0.2c1-0.8,3-1,4.8-1.8c0,0.2-0.6,0.4-0.8,0.4
	c2.4-0.2,4.2-2.4,6.4-2.8c0.4-0.4,0.8-0.4,1.2-0.6c0,0,0,0-0.2,0h0.2c0.2,0,0.4,0,0.8-0.2c-0.2,0-0.4,0-0.6,0c0.4-0.2,1-0.4,1.4-0.8
	l0.4,0.2c0,0,0,0,0.2,0c0.6-0.2,0.4-0.4,0-0.4c0.2-0.2,0.4-0.4,0.6-0.6c0.6,0.4,1.4-0.8,2.2-0.4c0.2-0.4,2.2-1.2,2.6-2
	c0.6-0.2,1.2-0.4,1.8-0.8l0.4,0.4l1-1.2c1,0,1.4,0,0.6,0.6c1.8-1.4,1.4-0.8,3-2.2v0.4c0.6-0.2,1.4-1,1.8-1c1.6,0,6.6-2.8,10.3-3.8
	c-1-0.6,1.8-0.4,1.6-1c0.2,0.2,0.8,0,0.4,0.4c1.6-1,2.8-0.8,3.6-1.8c0.2,0.2-0.2,0.4,0,0.4c0.2-0.2,0.4-0.4,0.8-0.4
	c0.2,0-0.2,0.2-0.4,0.4c1.8-0.8,1.6-1.4,1.6-2.2c1-0.2,1.4-0.4,2-1c0.4,0,1,0,0,0.6c0.6-0.2,3.8-1.4,3.8-1.8c0.2,0,0.8-0.4,1-0.4
	c1.4-0.6,1.6-0.6,2.8-1.2h-0.4c0.2-0.8,1-0.6,2.2-1.2c2.6-0.8,1-0.6,3.6-1.4l-1.4-0.2c0-0.8,2.4-0.6,3.6-1.4h-0.6
	c0.6-0.6,2.6,0,3.4-0.2c0.2,0-0.2,0.2-0.4,0.4c2.2-0.4,0-0.6,1.6-1.4c0.6-0.6,0.2-0.4,1.8-1.2C133.2,192.2,133.4,191.8,133.4,191.8z
	 M43.9,231.4c-1.6,0.8-0.8,0-1,0.2c-3,1.2-2,2.2-4.8,2.8c-1.2,0-0.4-0.8-0.8-1c1.2-0.8,2-0.6,3-1l-1.2,0.2c0.4-0.4,1.2-0.8,1.6-0.8
	c-0.2,0-0.2,0-0.4,0l6.2-2.6C46.1,229.8,45.1,230.6,43.9,231.4z M53.4,226.5c0-0.2-0.2-0.2-0.4-0.2l1.2-0.6
	C54.2,225.9,53.8,226.3,53.4,226.5z M62.4,223.3c-0.2,0-2.6,0.6-3.2,0.4c-0.2,0-0.2,0-0.2,0l1.6-0.6l0.2,0.6v-0.6l1.6-0.6
	C62.4,222.7,62.4,223.1,62.4,223.3z M70.3,219.9h-0.4l-1.2,0.8c0.2-0.4,0.8-1.2,1.4-1.8l2.4-1C71.7,218.7,71.1,219.5,70.3,219.9z
	 M82.7,214.3L82.7,214.3C82.7,214.3,82.9,214.3,82.7,214.3z M86,212.5c0-0.2-0.2-0.4-0.2-0.6l1-0.4L86,212.5z M109.3,202.2
	c-0.2,0-0.2-0.2,0-0.6l-0.2,0.2c-0.2,0-0.4,0-0.4,0l0.8-0.4l-0.2,0.2c0.2,0,0.2-0.2,0.4-0.4l0.4-0.2c0.4,0,0.6,0,0.8,0L109.3,202.2z
	 M131.4,193.4L131.4,193.4C131.8,192.8,131.6,193.4,131.4,193.4z"/>
<path style="fill:#003A92;" d="M134.6,191.6C134.2,191.8,134.2,192,134.6,191.6C134.6,191.6,134.8,191.6,134.6,191.6l0.8-0.6
	c-2,1.2-2.2,1.2-2.4,1.4c-0.2,0.2-0.6,0.2-1.6,1l0.2,0.2c0.4,0,0.6,0,1-0.2c0,0,0,0,0,0.2c0,0,0,0,0.2,0s0.2,0,0.4-0.2v-0.2
	c0,0-0.2,0,1-0.4L134,193c0.2-0.2,0.6-0.4,0.8-0.4c0,0-0.2,0-0.4,0H134c0,0,0.2,0,0.4,0l0.4-0.6c0,0,0.4-0.2,0.6-0.2
	c0,0-0.2,0-0.4,0c0.2,0,0.8-0.4,1.4-0.8C137.4,190.1,135.4,191.2,134.6,191.6z M133.6,192.4L133.6,192.4l1.8-1L133.6,192.4z"/>
<path style="fill:#003A92;" d="M131.6,193.8L131.6,193.8c0,0.2,0,0.2,0.4,0.2C131.8,193.8,131.6,193.8,131.6,193.8z"/>
<path style="fill:#003A92;" d="M33.5,236.2c-0.2-0.6-0.4,0.2-0.6-0.2c-0.2,0,0.4,0.6,0.8,1c0.2,0,0.6-0.4,0.6-0.4
	C34.3,236.4,33.9,237,33.5,236.2z"/>
<path style="fill:#003A92;" d="M32.7,232.4l-0.6-1c0,0-0.2,0-0.2-0.2C32.3,231.8,32.7,232.4,32.7,232.4z"/>
<path style="fill:#003A92;" d="M31.5,230.4c0.2,0.2,0.4,0.6,0.6,0.8C31.7,230.8,31.7,230.4,31.5,230.4z"/>
<path style="fill:#003A92;" d="M43.5,231l1.2-0.6c0-0.2-0.2-0.2-0.6,0.2C43.7,230.6,43.3,230.8,43.5,231z"/>
<path style="fill:#003A92;" d="M131.4,193.6L131.4,193.6z"/>
<path d="M109.3,299.9c-0.2,0.2,0.8,0.4,0.8,0.6C110.1,300.1,109.1,299.9,109.3,299.9z"/>
<polygon points="108.7,295.5 108.9,295.7 108.3,294.7 "/>
<path d="M109.9,292.1c-1.6-0.2-0.2,1.4-1,1.8h-0.4l1.2,0.8C109.7,293.7,109.3,292.3,109.9,292.1z"/>
<path d="M113.9,291.5c-0.6-0.2-0.4-0.6-0.4,0.4h0.2C113.9,291.7,113.9,291.5,113.9,291.5z"/>
<path d="M113.7,291.7C113.7,292.1,114.3,291.7,113.7,291.7z"/>
<path d="M114.1,289.9l0.4,0.6c0.4,0,0.6-0.4,0.8-0.2C115.1,289.9,114.7,289.9,114.1,289.9z"/>
<path d="M113.1,289.1l0.2,0.4C113.5,289.5,113.5,289.3,113.1,289.1z"/>
<path d="M113.5,290.1l-0.2-0.8c-0.2,0-0.8-0.2,0,0.4C112.9,289.5,113.3,289.7,113.5,290.1z"/>
<path d="M113.3,290.3c-0.4,0.2-0.8,0.4-1.2-0.2C111.9,291.1,113.1,291.3,113.3,290.3z"/>
<path d="M108.5,291.3l-0.6,0.2l0.4,0.6C108.1,291.7,108.9,291.5,108.5,291.3z"/>
<path d="M116.1,287.3c-0.4-0.2-1-0.2-1.4-0.2l0.2,0.4C115.3,287.3,115.5,287.1,116.1,287.3z"/>
<path d="M114.7,286.9l-0.4-0.8C114.1,286.7,114.3,286.9,114.7,286.9z"/>
<polygon points="111.5,288.3 112.3,289.7 111.5,288.1 "/>
<polygon points="116.9,285.3 117.5,285.9 116.5,284.9 "/>
<path d="M117.3,283.8c0.6,0.4,1.2,0,1.4,0.4c0-0.4-0.4-1-0.8-1.4C118.1,283.2,117.9,283.6,117.3,283.8z"/>
<path d="M117.5,282.2c0,0.2,0.2,0.4,0.6,0.8C117.9,282.6,117.7,282.4,117.5,282.2z"/>
<path d="M114.9,285.3c0.2,0,0.8,0.2,1,0l-1-0.2C114.9,285.3,114.9,285.3,114.9,285.3z"/>
<path d="M114.9,285.1L114.9,285.1c0.2-0.2,0.2-0.4,0.2-0.4C115.1,284.9,115.1,284.9,114.9,285.1z"/>
<path d="M114.9,285.5L114.9,285.5C114.7,285.3,114.7,285.3,114.9,285.5z"/>
<path d="M112.9,287.3c-0.4-0.6-0.6-1.4-1.6-1C111.7,286.7,112.3,286.5,112.9,287.3z"/>
<path d="M113.5,285.3l-0.4,0.4c0.2,0,0.6,0.2,0.8,0.4L113.5,285.3z"/>
<polygon points="113.5,284.9 113.5,285.3 113.7,285.1 "/>
<path d="M116.1,282.8c-0.4-0.4-0.2-0.6-0.2-1c-0.4,0.2-0.6,0.6-0.6,0.8C115.7,282.8,116.1,283.2,116.1,282.8z"/>
<path d="M115.5,283.8L115.5,283.8C115.3,283.8,115.3,283.8,115.5,283.8z"/>
<path d="M117.1,278.8L117.1,278.8z"/>
<path d="M115.1,282.6c-0.2,0.2-0.2,0.4,0.2,0.6C115.3,283,115.3,282.8,115.1,282.6C115.3,282.6,115.1,282.6,115.1,282.6z"/>
<path d="M117.3,281.2c-0.2,0-0.4,0.2-0.6,0.2C116.9,281.4,117.5,281.2,117.3,281.2z"/>
<path d="M115.7,283.8L115.7,283.8C115.9,283.8,115.9,283.8,115.7,283.8z"/>
<path d="M115.7,283.8c0-0.2-0.2-0.4-0.4-0.6c0,0.2,0,0.4,0.2,0.6H115.7z"/>
<path d="M111.7,275.6c0.8,0.4,1.4,1.2,0.2,1.6c0.4,0.8,3.4,1.4,5,1.6c-0.4-0.2-0.6-0.2-1-1c-0.6,0-1.6,0.8-2.2,0
	c-0.2-1,0.6-0.4,1.2-0.6c-1.2,0-1.2-1.6-2.8-2l0.2,0.8C112.3,276,111.9,275.6,111.7,275.6z"/>
<path d="M116.5,279.8v0.2c0.2-0.2,0.6-0.2,1.4-0.4c-0.2-0.6-0.6-0.8-0.8-0.8L116.5,279.8z"/>
<path d="M116.1,281.2c-0.8-0.6-1-1.2-2.2-1.2c-0.2,0.6,0.6,0.8,0.8,1.4C114.9,280,115.1,281.6,116.1,281.2c0,0.2,0,0.4,0,0.6
	c0.2-0.2,0.4-0.2,0.6-0.4c-0.2,0-0.2,0-0.2,0C116.3,281.2,116.3,281.2,116.1,281.2c0.4-0.2,0.2,0,0.4,0.2c0,0,0,0,0.2,0v-1.2
	C116.3,280.2,116.3,280.6,116.1,281.2z"/>
<path d="M109.5,284.9h0.2C109.5,284.9,109.5,284.7,109.5,284.9z"/>
<path d="M110.1,284.7c0,0.2,0.4,0.4,0.2,0.6c-0.4,0.2-0.4-0.2-0.8-0.2c0.2,0.2,0.4,0.8,1,0.4v-0.2c0.4-0.4,1.8-0.4,2-0.4
	C111.7,284.9,111.1,284.7,110.1,284.7z"/>
<path d="M112.9,282.8l-0.2-1l-1,0.2l0.4,0.2C111.9,282.4,112.5,282.6,112.9,282.8z"/>
<polygon points="117.7,278.8 118.5,279.4 117.5,278.4 "/>
<polygon points="117.9,277.6 118.9,278 118.5,277.6 "/>
<path d="M133.2,207l-0.2-0.4C133,206.8,133,206.8,133.2,207z"/>
<path d="M132.4,208.8l0.4,0.2C132.6,208.8,132.4,208.8,132.4,208.8z"/>
<path d="M129,248.7c1,0,2.4,0,1.4-0.4l-1-0.2C129.6,248.3,129.4,248.5,129,248.7z"/>
<path d="M131.2,226.5c-0.2,0-0.2,0-0.4,0c0.2,0.2,0.6,0.4,0.8,0.6C131.4,226.9,131.4,226.7,131.2,226.5z"/>
<path d="M127.4,224.9l0.8-0.2C128,224.5,127.8,224.7,127.4,224.9z"/>
<path d="M136.2,196l-0.8-0.6C135.2,195.8,135.8,195.8,136.2,196z"/>
<path d="M122.3,265.3c0.4-0.2,0.8-0.4,0.8-0.6C122.5,264.9,121.5,264.9,122.3,265.3z"/>
<path d="M142.7,211.5c-0.2-0.2-0.2-0.4-0.4-0.4C142.3,211.3,142.5,211.5,142.7,211.5z"/>
<path d="M123.6,263.7c-0.2,0-0.2,0-0.2,0c0,0.4,0,0.6,0,0.8C123.8,264.7,124.2,264.3,123.6,263.7z"/>
<path d="M151.7,158L151.7,158C151.7,157.8,151.7,158,151.7,158z"/>
<path d="M165.4,150.3c0,0.2,0,0.4-0.2,0.4C165.2,150.7,165.4,150.7,165.4,150.3z"/>
<path d="M120.3,273C120.1,273.4,120.3,273.2,120.3,273z"/>
<path d="M116.1,273c0,0-0.2-0.2-0.4-0.2C115.9,272.8,116.1,272.8,116.1,273z"/>
<path d="M118.7,259.1L118.7,259.1C118.5,259.1,118.5,259.1,118.7,259.1z"/>
<path d="M119.7,273.2c0.2,0,0.2-0.2,0.4-0.2C119.9,273.2,119.9,273.2,119.7,273.2z"/>
<path d="M120.1,273.4C120.1,273.4,119.9,273.6,120.1,273.4C120.1,273.6,120.1,273.6,120.1,273.4z"/>
<path d="M120.3,272.8c0,0.2-0.2,0.2-0.2,0.4h0.2C120.3,273,120.3,272.8,120.3,272.8z"/>
<path d="M146.3,179.5L146.3,179.5C146.1,179.1,146.1,179.1,146.3,179.5z"/>
<path d="M121.9,238.4L121.9,238.4z"/>
<path d="M121.5,237.2c1,0.8,0.8,1,0.4,1.2l2.8,0.8L121.5,237.2z"/>
<path d="M134.6,202.2l-1,0.4c-1-1.2-0.4-1.6-1.8-1.6c2.8,1.2-0.6,2.6,2.2,3.8l-0.8,0.2c0-0.2,0-0.2,0-0.2c-1.6,0.2,1.8,1.4,1,2.2
	c-0.4,0.2-0.8,0.4-1.2,0l0.4,1c-0.2,0.2-0.6,0-0.4-0.2l-0.2,1.4c0.4,0.4,1,1,1.2,1.4c-0.6,0.2-0.2-0.2-0.6-0.4l0.4,1
	c-0.8,0-1.4-0.8-1-1.2c-3.2-0.4,0.6,0.8-1.6,1.6l-0.2-0.8c-1.8-0.2-1.4,0.6-2.6,0.8c0.6,0,3.2-0.4,3.6,0.6c-0.2,0.2-0.6,0.4,0,1
	c-1-0.4-1,0-1,0.6l-1.4-0.6c0.2,0.6,0.8,0.8,1.4,1.4c-0.4,0.6-1.4,0.2-2.4,0c-0.6,0.8,2,0,1.8,1.2c-0.8,0.6-0.4,1.4,0,2.6
	c-0.6,0.4-0.8-0.4-1.2-0.4l0.8,0.8c0,0.2-0.4,0-0.6-0.2c0.2,0.6,1.4,0.6,1.4,1.4c1.4,0.8-2.6,0.4-1.2,2c-0.4,0-0.8-0.4-1.4-0.6
	c0.6,1.6,0.4,1.2,1.6,2.8l-1.2,0.4c1.2-0.2,2.2,1,3,2c0.6,0,1,0,1.4,0l0.4,1.2c-0.2,0-0.6-0.2-1.2-0.6c0,0.2,0.2,0.2,0.2,0.4
	c-0.6,0.2-1.4-0.4-2-0.8c0.4,0,0.6,0,1,0c-0.8-0.6-1.6-1.2-2.4-1.4c0.2,0.2,0.2,0.4,0.2,0.4c-0.2-0.2-0.4-0.2-0.6-0.2
	c-0.2,0,0.2,0.2,0.4,0.4l-1.6-0.4l0.6,0.2l-1.4,1c1.2,1.6,3,3.2,3.2,5c-1-0.8-1.8-0.8-3-1.2c1.6,0.2-0.2-1.4,0.4-2
	c-0.2,0.4-0.8,0-1-0.2l0.8,1.8c-1-0.4-1,0-1.4,0.2c2.2,0.6,1,1.6,1.4,2.4c-0.8-0.2-1.4-0.6-1-1.2c-1.8,0.2,2.2,2,0.4,2.2
	c0-0.2,0.2-0.2-0.2-0.4c0.4,0.6-0.4,1.4-1,1v-0.2c-0.6,1-1.4,3.4,0.4,4.2c-0.2,0-2.2-1-2.4-1.2l5.2,4.2c-1.4-0.8-5.4-1.6-6-2.8
	c-0.4,0.2-0.8,0.4-0.4,1.2c0.2,0,2.4,0.4,2.4,0.8c-2,0-1,0.2-2.8,0.4c0.4-0.2,2.8,1,2.6,1.4c-0.4-0.2-2.4-0.8-2.6-1.2l2,2
	c-0.4-0.4-2-0.8-2.8-0.8c0.6,0-0.4,1-0.2,1.2l0.8-0.2c-0.8,1,2.8,2.4,2.4,3.6c-0.4-0.4-2.8-1.6-3.4-1c1.2,0.8,5.4,3.4,6,4.8h-0.8
	l0.4,1.2c-1.6-1.2-5-4-6.2-5.4c-0.8,0.2-0.8-0.2-1,0.6c-0.8,0-0.8-0.8-0.8-1l-1,1.4c1.4,0.4,1,1.8,2.2,2.2l-0.8-2.2
	c1.4,0.4,3.6,2.6,3,3.6c-0.6,0-2.4-1.2-3-1.4c0.4,0.4,0.6,1.4,0.2,1.4l-0.6-0.8c-0.8,0.4,1.4,1.8-0.2,2c-0.2,0.2-2.2,0-1.2,0.4
	c1.8,0.2,6.8,2,8,2.8c-0.2,0-2,0.8-3,0.8c-1.4,0-2.8-1.8-4-1.8c0.4,0.2,0.8,0.6,0.8,0.8c-0.4,0.2-1.2-0.6-1.2,0
	c1.4,0.6-0.6,1.2,1.2,0.8c0.2,0.8-0.6,0.4-0.8,1.2c1,0.2,3,1.8,3.2,2.6c-0.4-0.2-0.8-0.2-1.2-0.2c-0.6,1.2-1.4,1.4-2,2.6
	c-0.4,0-1,0.4-1.6-0.2c0.2,0.2,0.6,0.6,0.6,1c-1.4,0.2,0-0.8-1.6-1c0.8,0.4,0.8,1.4,1.2,2c1.4,0.4,0.6-1,0.4-1.6
	c1.8,0.6,3.4,2.2,3.8,3.6c0,1-1.4,0-1.2,0.2c-1,1.6,2.6,2.6,0.8,3.6c-1.4,0.2-2.2-0.8-3.2-1c-0.2-1,1.2-0.8,1.4-1.4l-1.6-0.6
	c-0.2-0.4-0.4-1,0-1.2c-1.2,0-1.2,2.8-2.8,3.8c0.2,0.4,0.6,1,1,1v-0.4c1,0,1,1.2,1.6,1c0.4,0.8,1.2,1.8,0.4,2.4l-1.4-0.4
	c0.4,0.2,1-0.2,0.6-0.6c0.4,0.6-2.2,0.6-0.6,1.6l1.2-0.2c0.4,0.8,1.6,2,0.8,2.6c1.4,0.2,0-0.2,1.6-0.2c-2-0.2,0.8-1.8-1.4-1.8
	c2,0.2,1-0.6,2.8-0.6c-0.4-0.2-1,0-0.4-0.6c-0.2,0-0.2-0.2-0.4-0.2s-0.6,0-0.8,0c-0.8-0.6-0.4-1.6-0.8-2c0.4-0.2,0.4,0.4,1,0.4
	l-0.6-0.8c1,0.4,2-0.4,2.2,0.8l0.4-0.8c0.6-0.2,1.2-0.8,0.8-1.2c0.4-0.2-0.8-1.2,0-0.6l-0.2-1.4h0.2c0.6-1-0.6-3,1.6-3.6
	c0-0.4-0.2-1,0.2-1.6l0.8,0.2c0-0.6,1.4-1.2,0.6-1.6c2.4,0.4,1.4-2.2,2.2-3l-1-0.4c0.2-0.6,0.2-1.2,0-2.2l-1-0.4
	c-0.6-1,1.4-1.4,1.6-2.4c0.4,0.2,0.2,0.4-0.2,0.6c2.6-0.4-0.6-3.2,1.4-3.6c-0.2-0.4,0-0.6,0.2-0.6c0,0,0,0,0-0.2
	c0.2,0,0.4-0.2,0.6-0.2c-0.2,0-0.6,0-0.6,0.2c0-0.2,0-0.6,0-1l1,0.2c0.4-0.2-0.4-0.4-1.2-0.6c-0.2-0.2-0.2-0.4-0.4-0.6
	c1.8,0.4-0.2-1,1.6-0.6c-0.8-0.6,0-1.8-1.8-2.6c0.2,0,0.4,0,0.4,0.2c0.4-0.2,0.6-0.6,0.2-1l1.4,0.4L128,242c1-0.2,1.4-0.2,2.4,0.6
	c-1.2-1.6-0.2-1.2-1.4-2.6l0.8,0.4c0-0.4-0.8-1.4,0-1.2c1.8-0.2,1.6-3.6,3.8-5c-2.6-0.6,1.4-0.4-0.4-1.2c0.6,0.2,1,0,1.4,0.4
	c-0.2-1.2,1.4-1.2,0.2-2.4c0.6,0.2,0.8,0.6,1.2,0.6c0-0.2-0.4-0.6,0-0.4c0.4,0,0.4,0.4,0.6,0.6c0.2-1-1.4-1.8-3.2-2.6
	c1-0.2,1-0.6,0-1.2c0.6,0,1.4,0,1.2,0.6c0.2-0.4,1.6-1.8,0.2-2.4c0.4,0,0.2-0.4,0.2-0.6c0.4-0.8,0.6-0.8,0.8-1.6l-0.4,0.2
	c-1.6-1-0.2-0.8,0-1.4h0.2c1.8-1-0.4-0.8,1.6-1.8l-1-0.4c-2.2-1,1.8-0.8,1.2-1.8h-0.6c-0.6-0.8,3.4-0.2,3.8-0.4
	c0.2,0,0.2,0.2,0.4,0.4c1.8-0.6-1.2-0.6-1.2-1.6c0.8,0.2,1.8,1,2.2,0.4c0.6,0-1.6-2.6,0-2.8c-0.6,0-1.2,0-1.4-0.6
	c0-0.8,2.8-0.8,1.2-2.2c0.2,0,0.4,0,0.4,0c-0.2-0.6-0.2-1.8-1-2.4c3.6,1-0.6-3.6,2.6-2.4l0.4-1.6l0.4,0.2c0.6-0.8,0-1.4-0.8-2.2
	c0.4-0.2,0.6,0.2,0.8,0.2c1.2-1.2,1-1.4,0-3l1,0.2c-0.4-0.6,2.4-1.4,1.6-3.2c0.2,0,0.4,0.2,0.4,0.4c-0.6-2,4.2-2.6,0.6-4.6l-0.6-1.4
	c-0.8,1.2-1.6-0.8-2.4-0.6c0-0.6,1.6-0.8,1.6-0.2h-0.2c2,1,1.4-1.4,2.6-0.8c0.8-2.6,3-4.6,4-7l-1.6-0.4l0.4-0.8c0.4,0,1.4,0.2,1,0.8
	c1,0-0.4-1.2-0.6-1.4c1-1,1.6,1.2,1.8,0.8v-0.6h-0.2c-0.4-0.6-1.2-1-0.8-1.6c0.4-0.4,1,0.2,1.2,0c0.2,0,0.2,0,0.2-0.2l0.6-1h-1.4
	c-0.4-0.6,0.4-1-1.2-1c2.4,0.2,2.2-3.6,3-3.8c-0.6-1-0.4-1.6,0-2.4c-0.4,0.2-1.8-0.4-1.4-1c2.8,1.4,1.8-0.8,4-0.6
	c-1.6,0,0.4-2-1.8-2c0.4-0.4,1,0.4,2,0.2c-0.6-1.8,1.8-2.8,2.2-4.6c-0.4-0.2-1-0.2-1.4-0.6l2.2-0.2c0-0.4-2-1.2-0.6-1.2
	c-0.4,0-0.8,0-1-0.4c3-2.6,1-7.4,5.8-9.5c-0.8,0.2-0.8-0.2-0.8-0.6c-0.2,0.2-1-0.4-1.4-0.6l2-0.8c-1.4-0.8,0.4-1.6-0.8-2.2v0.6
	c-1.4-1.2-3.8-0.6-5.8-1.4c1.6,1.4-3.4,0.8-1.2,2.8c-0.6,0-0.6-0.4-1-0.6c0.8,0.6,0.8,1,0.2,1.4l-0.2-0.2c-0.4,1.8-1.6,2.2-3,4
	l1,0.2c-0.2,0.4-0.6,0.4-1,0.4c1.4,1,0.6-1.2,2,0c-2.2-0.2-1.2,3-3.6,2.4c-0.2,0.6,1.2,0.2,1,0.8h-0.6l0.8,0.4
	c-0.2,0.4-1.2,0.2-1.6,0c0.2,0,0-0.4,0-0.4c-1,0.2-0.4,1.6-0.6,1.8l0.6-0.4c0,2-1.8,3.8-1.2,6h0.6c0.4,1.6-1,0.8-1,2.4
	c0.4,0.4,0.4,1,0.2,1.4c-0.4-0.6-1.4,0.2-1.8-0.4c0.4,1.8,0.4,1,1.8,2.6h-0.8c0.6,0.6,1,0.8,0.8,1.6c-0.4-0.8-1.4,0-2-1
	c-2.2,0.8,0.8,2.8-1.8,2.6c2,1.6,1.6-0.8,2-0.2c0.8,0,1.4,1.2,1,1.6c-0.2,0.4-3-0.2-3.6,1c0-0.2-0.2-0.2,0-0.4
	c-0.8,0.2,0.4,1.2-0.6,1.4c1.2,0.8-0.4,0.6,1.2,1.4v-1.2c0.2,0.8,2,2.2,0.6,2.8c-0.4-0.2-0.6-0.6-0.8-1c-0.6,0.2,0.2,0.8-0.6,0.8
	c-1.6-0.8,0.2-1.4-0.8-2.6c-0.8,0,0.8,1.8-1,0.6c2.2,1.4-0.8,1,0.8,2.6l-1-0.4c0.2,0.2,0.4,0.6,0.4,0.8l-1.2-1c0.8,1-1.4,0.8-1,1.8
	c0.4-1.4,1.4,0.2,2.2-0.2c0.8,2.2-3,0-3.2,2c0-0.4,1-0.6,1.2-0.2c-0.4,0.2-0.8,0.6-1.6,0.6c-0.2,1.2,1.2,0.2,1.6,1
	c-1.4,0,0.2,0.8,0.4,1.4l-1-0.4c-1.2,1.2,2,1.2,0.8,2.2l-1.2-1l0.2,0.8l-1.2-0.6c0.6,1,0.2,1.2-0.4,1.8c0.8,0.2,1.8,0.8,1.6,1.4
	c-0.8,0.2-0.8-0.6-1,0.4c-0.6-0.4-1.2-1-0.2-1c-0.4-0.2-0.6-0.4-0.8-0.6c-0.8,0.2-0.6,1-0.6,1.4c0-0.2,0.2-0.2,0.4-0.2l1,1.8
	c-0.4,0-0.8-0.2-1-0.4c0,0.2,0.4,0.6,0.4,1c-0.8-0.4-1.6-0.8-1.8-1.4l0.4,1.6c-0.4,0-1.2,0.2-1.4,0c-0.8,0.4,1,2.2,0,2.8
	c0.2,0.2,0.2,0.2,0.4,0.4c-0.6,0.8-1.8,1-1,2.4h-1.6c0,0.8,2.2,0,2.2,1.4c0.2,1-1.4-0.2-2,0c0.6,0.8,1.8,2,0.2,2.4
	C134.4,202.6,134.6,202.6,134.6,202.2z M131.8,211.9c-0.2-0.2-0.6-0.8,0-0.8C132.8,211.9,132.2,211.7,131.8,211.9z M128.6,227.1
	c-0.2-0.2,0-0.4,0.4-0.4C129.2,226.9,129,227.1,128.6,227.1z M120.5,270C120.5,270,120.3,270,120.5,270
	C120.9,269.8,120.7,269.8,120.5,270z M119.7,270.8c0.2,0.2,0.2,0.2,0.4,0.2c-0.2-0.2-0.2-0.4,0-0.6
	C119.7,270.4,119.5,270.4,119.7,270.8z M154.1,179.5h-0.4C153.7,179.1,153.9,179.3,154.1,179.5z"/>
<path d="M128,225.1c0.2,0,0.4,0,0.6,0.2C128.4,225.1,128.2,224.9,128,225.1z"/>
<path d="M136.4,196.2L136.4,196.2C136.4,196,136.2,196,136.4,196.2z"/>
<path d="M116.1,254.3c0.2-0.2,0.4-0.2,0.6-0.2C116.5,253.9,116.1,253.9,116.1,254.3z"/>
<path d="M119.7,275.8v-0.6c0,0.2-0.4,0.2-0.6,0.4C119.3,275.6,119.7,275.6,119.7,275.8z"/>
<path d="M111.5,278.2c0,0.2,0,0.2,0,0.2l0.4,0.2C112.1,278.2,111.9,277.8,111.5,278.2z"/>
<path d="M116.1,275c-0.8-0.2-0.8,0.2-0.6,0.6C116.5,276.2,116.3,275.6,116.1,275z"/>
<path d="M115.3,275.8c0,0.2,0,0.2-0.2,0.4C115.7,276.4,115.5,276,115.3,275.8z"/>
<path d="M119.9,272c-0.2,0,1,0.6,0.6,0.6C121.5,273.2,119.7,270.8,119.9,272z"/>
<polygon points="113.1,274.2 114.3,274.6 113.5,274 "/>
<path d="M115.1,271.6l-0.6,0.4c0.2,0,0.2,0.2,0.2,0.4C115.1,272,115.3,271.6,115.1,271.6z"/>
<path d="M114.9,272.4c0,0.2-0.2,0.4,0,0.6C114.9,272.8,114.9,272.6,114.9,272.4z"/>
<polygon points="113.1,273.4 113.5,273.2 113.7,272.8 "/>
<path d="M117.7,265.1v-0.8c-0.4-0.2-0.6-0.2-0.6,0.2C117.3,264.7,117.3,265.1,117.7,265.1z"/>
<path d="M114.1,266c0.2,0,0.6,0,1,0l-1.4-0.6L114.1,266z"/>
<path d="M114.5,263.9c-0.4-0.2-0.6-1.4-1-0.4C113.9,263.7,114.1,264.3,114.5,263.9z"/>
<polygon points="120.1,254.5 119.9,254.7 122.1,255.5 "/>
<path d="M118.3,243.8c-0.8,0.6,1.2,0.6,0.4,1.2c0.4,0.4,0.8-0.4,1.2,0C119.3,244.2,119.7,244,118.3,243.8z"/>
<path d="M119.7,244.8c0,0.2,0.2,0.2,0.2,0.4C119.9,245,119.7,245,119.7,244.8z"/>
<polygon points="167.2,148.9 167.8,148.7 167,148.7 "/>
<path d="M166,147.3l1.4,0.4l-1.2-0.8C166.2,147.1,166.2,147.3,166,147.3z"/>
<path d="M128.4,212.3l0.4,0.2c0.4,0,0.4,0,0.6-0.2H128.4z"/>
<polygon points="132,205.8 132,205.8 133.2,206.2 "/>
<path d="M132.6,199.4c0,0.2,0,0.6,0,0.8C132.6,199.6,134.2,200,132.6,199.4z"/>
</svg>
