<?xml version="1.0" encoding="utf-8"?>
<!-- Generator: Adobe Illustrator 22.0.1, SVG Export Plug-In . SVG Version: 6.00 Build 0)  -->
<svg version="1.1" id="Layer_1" xmlns="http://www.w3.org/2000/svg" xmlns:xlink="http://www.w3.org/1999/xlink" x="0px" y="0px"
	 viewBox="0 0 600 400" style="enable-background:new 0 0 600 400;" xml:space="preserve">
<style type="text/css">
	.st0{fill:url(#SVGID_1_);}
	.st1{fill:#2361AD;}
	.st2{fill:none;}
	.st3{fill:#636467;}
	.st4{opacity:0.25;fill:#D6D6D6;}
	.st5{fill:#4D4D4F;}
</style>
<g>
	<g>
		<linearGradient id="SVGID_1_" gradientUnits="userSpaceOnUse" x1="13.9894" y1="200.0567" x2="104.2068" y2="200.0567">
			<stop  offset="0" style="stop-color:#4D4D4D"/>
			<stop  offset="4.223427e-02" style="stop-color:#626364;stop-opacity:0.9789"/>
			<stop  offset="0.1042" style="stop-color:#7B7C7E;stop-opacity:0.9479"/>
			<stop  offset="0.1726" style="stop-color:#8E9092;stop-opacity:0.9137"/>
			<stop  offset="0.2501" style="stop-color:#9C9DA0;stop-opacity:0.875"/>
			<stop  offset="0.3439" style="stop-color:#A4A6A8;stop-opacity:0.828"/>
			<stop  offset="0.5" style="stop-color:#A6A8AB;stop-opacity:0.75"/>
			<stop  offset="0.6561" style="stop-color:#A4A6A8;stop-opacity:0.828"/>
			<stop  offset="0.7499" style="stop-color:#9C9DA0;stop-opacity:0.875"/>
			<stop  offset="0.8274" style="stop-color:#8E9092;stop-opacity:0.9137"/>
			<stop  offset="0.8958" style="stop-color:#7B7C7E;stop-opacity:0.9479"/>
			<stop  offset="0.9578" style="stop-color:#626364;stop-opacity:0.9789"/>
			<stop  offset="1" style="stop-color:#4D4D4D"/>
		</linearGradient>
		<rect x="14" y="154.9" class="st0" width="90.2" height="90.2"/>
		<path class="st1" d="M16.8,222.5c0-0.2,0-0.3,0-0.4c0-11,0-21.9,0-32.9c0-0.3,0.1-0.4,0.3-0.5c6.3-2.6,12.5-5.3,18.8-7.9
			c0.1,0,0.2-0.1,0.3-0.2c-0.2-0.2-0.5-0.5-0.7-0.7c-2.1-2.2-4.2-4.3-6.3-6.5c-3.2-3.3-6.4-6.6-9.6-9.8c-0.9-0.9-1.8-1.8-2.7-2.8
			c-0.1-0.1-0.2-0.3-0.2-0.4c0-0.4,0-0.9,0-1.3c0-0.8,0.6-1.4,1.4-1.4c1.3,0,2.7,0,4,0c0.2,0,0.3,0.1,0.5,0.2
			c4.3,2.7,8.5,5.3,12.8,8c4.7,2.9,9.4,5.9,14.1,8.8c0.2,0.1,0.3,0.1,0.5,0c6-2.5,12-5.1,18-7.6c5.6-2.4,11.2-4.7,16.8-7.1
			c1.8-0.8,3.6-1.5,5.4-2.3c0.1-0.1,0.3-0.1,0.4-0.1c2.6,0,5.1,0,7.7,0c0,0,0.1,0,0.2,0c-11.2,8.9-22.4,17.7-33.6,26.6
			c0.1,0.1,0.3,0.2,0.4,0.2c6.9,4.3,13.8,8.7,20.7,13c4.9,3.1,9.9,6.2,14.8,9.3c0.2,0.1,0.3,0.3,0.3,0.5c0,11,0,22,0,33.1
			c0,1-0.5,1.5-1.5,1.5c-1,0-2,0-2.9,0c-0.1,0-0.3-0.1-0.4-0.2c-3.3-3.3-6.5-6.7-9.8-10c-1.5-1.5-3-3-4.5-4.6
			c-3.2-3.3-6.5-6.6-9.7-9.9c-1.5-1.5-3-3-4.5-4.6c-3.3-3.4-6.6-6.7-9.9-10.1c-2.2-2.2-4.3-4.4-6.5-6.6c0,0-0.1-0.1-0.1-0.1
			c-0.5-0.5-0.5-0.5-1-0.1c-4.5,3.6-9,7.1-13.5,10.7c-5,4-10,7.9-15,11.9c-1.6,1.2-3.1,2.5-4.7,3.7C17,222.3,16.9,222.4,16.8,222.5z
			"/>
		<path class="st2" d="M15.4,240.4c0,0.1,0,0.3,0,0.4c0,1.4,1.3,2.7,2.7,2.7c27.2,0,54.4,0,81.6,0c1.4,0,2.7-1.3,2.7-2.7
			c0-18.8,0-37.5,0-56.3c-13.2,2.9-27.9,4.5-43.5,4.5c-15.6,0-30.3-1.6-43.5-4.5c0,5.2,0,10.3,0,15.5
			C15.4,213.5,15.4,226.9,15.4,240.4z"/>
		<path class="st3" d="M102.4,240.8c0,1.5-1.3,2.7-2.7,2.7c-27.2,0-54.4,0-81.6,0c-1.4,0-2.7-1.2-2.7-2.7c0-0.1,0-0.3,0-0.4
			c0-13.5,0-26.9,0-40.4c0-5.2,0-10.3,0-15.5c-1.8-0.4-3.6-0.8-5.4-1.3c0,19.3,0,38.7,0,58c0.1,0.4,0.1,0.9,0.2,1.3
			c0.7,3.2,3.4,5.7,6.7,6.2c0.2,0,0.5,0.1,0.7,0.1c27.5,0,55,0,82.5,0c0.4-0.1,0.9-0.1,1.3-0.2c3.3-0.7,5.8-3.4,6.2-6.7
			c0-0.2,0.1-0.5,0.1-0.7c0-19.3,0-38.7,0-58c-1.8,0.4-3.6,0.9-5.4,1.3C102.4,203.3,102.4,222,102.4,240.8z"/>
		<path class="st3" d="M107.6,157.4c-0.7-3.2-3.5-5.7-6.7-6.2c-0.4-0.1-0.9-0.1-1.4-0.1c-27.2,0-54.3,0-81.5,0
			c-3.8,0-7.2,2.9-7.9,6.6c-0.1,0.4-0.1,0.7-0.2,1.1c0,8.2,0,16.3,0,24.5c1.8,0.4,3.6,0.9,5.4,1.3c0-8.4,0-16.7,0-25.1
			c0-1.4,0.8-2.4,1.8-2.8c0.3-0.1,0.6-0.1,0.9-0.2c0.1,0,0.2,0,0.3,0c27,0,54.1,0,81.1,0c0.8,0,1.4,0.2,2,0.7c0.6,0.5,0.9,1.2,0.9,2
			c0,8.4,0,16.9,0,25.3c1.8-0.4,3.6-0.8,5.4-1.3c0-8.2,0-16.3,0-24.5C107.8,158.3,107.7,157.8,107.6,157.4z"/>
		<path class="st4" d="M107.6,157.4c-0.7-3.2-3.5-5.7-6.7-6.2c-0.4-0.1-0.9-0.1-1.4-0.1c-27.2,0-54.3,0-81.5,0
			c-3.8,0-7.2,2.9-7.9,6.6c-0.1,0.4-0.1,0.7-0.2,1.1c0,8.2,0,16.3,0,24.5c1.8,0.4,3.6,0.9,5.4,1.3c13.2,2.9,27.9,4.5,43.5,4.5
			c15.6,0,30.3-1.6,43.5-4.5c1.8-0.4,3.6-0.8,5.4-1.3c0-8.2,0-16.3,0-24.5C107.8,158.3,107.7,157.8,107.6,157.4z"/>
	</g>
	<g>
		<g>
			<path class="st5" d="M167.6,209v9.4c0,11.4-5.7,17.8-16.6,17.8s-16.6-6.5-16.6-17.8v-36.9c0-11.4,5.7-17.8,16.6-17.8
				s16.6,6.5,16.6,17.8v6.9H157v-7.6c0-5.1-2.2-7-5.8-7c-3.5,0-5.8,1.9-5.8,7v38.3c0,5.1,2.2,6.9,5.8,6.9c3.5,0,5.8-1.8,5.8-6.9V209
				H167.6z"/>
			<path class="st5" d="M204.8,235.5c-0.6-1.8-1-2.9-1-8.7v-11.2c0-6.6-2.2-9-7.3-9h-3.9v28.9h-11.2v-71h16.8
				c11.6,0,16.5,5.4,16.5,16.3v5.6c0,7.3-2.3,12-7.3,14.3v0.2c5.6,2.3,7.4,7.6,7.4,15v11c0,3.4,0.1,6,1.2,8.6H204.8z M192.6,174.6
				v21.8h4.4c4.2,0,6.7-1.8,6.7-7.5v-7c0-5.1-1.7-7.3-5.7-7.3H192.6z"/>
			<path class="st5" d="M228.4,181.5c0-11.4,6-17.8,16.9-17.8c11,0,16.9,6.5,16.9,17.8v36.9c0,11.4-6,17.8-16.9,17.8
				c-11,0-16.9-6.5-16.9-17.8V181.5z M239.6,219.2c0,5.1,2.2,7,5.8,7c3.5,0,5.8-1.9,5.8-7v-38.3c0-5.1-2.2-7-5.8-7
				c-3.5,0-5.8,1.9-5.8,7V219.2z"/>
			<path class="st5" d="M291.6,163.7c10.8,0,16.4,6.5,16.4,17.8v2.2h-10.5v-2.9c0-5.1-2-7-5.6-7s-5.6,1.9-5.6,7
				c0,5.2,2.2,9,9.5,15.4c9.3,8.2,12.3,14.1,12.3,22.2c0,11.4-5.7,17.8-16.6,17.8s-16.6-6.5-16.6-17.8v-4.4h10.5v5.1
				c0,5.1,2.2,6.9,5.8,6.9s5.8-1.8,5.8-6.9c0-5.2-2.2-9-9.5-15.4c-9.3-8.2-12.3-14.1-12.3-22.2C275.2,170.2,280.7,163.7,291.6,163.7
				z"/>
			<path class="st5" d="M336.6,163.7c10.9,0,16.4,6.5,16.4,17.8v2.2h-10.5v-2.9c0-5.1-2-7-5.6-7c-3.5,0-5.6,1.9-5.6,7
				c0,5.2,2.2,9,9.5,15.4c9.3,8.2,12.3,14.1,12.3,22.2c0,11.4-5.7,17.8-16.6,17.8s-16.6-6.5-16.6-17.8v-4.4h10.5v5.1
				c0,5.1,2.2,6.9,5.8,6.9s5.8-1.8,5.8-6.9c0-5.2-2.2-9-9.5-15.4c-9.3-8.2-12.3-14.1-12.3-22.2C320.2,170.2,325.8,163.7,336.6,163.7
				z"/>
			<path class="st5" d="M389.9,235.5c-0.6-1.8-1-2.9-1-8.7v-11.2c0-6.6-2.2-9-7.3-9h-3.9v28.9h-11.2v-71h16.8
				c11.6,0,16.5,5.4,16.5,16.3v5.6c0,7.3-2.3,12-7.3,14.3v0.2c5.6,2.3,7.4,7.6,7.4,15v11c0,3.4,0.1,6,1.2,8.6H389.9z M377.8,174.6
				v21.8h4.4c4.2,0,6.7-1.8,6.7-7.5v-7c0-5.1-1.7-7.3-5.7-7.3H377.8z"/>
			<path class="st5" d="M413.6,181.5c0-11.4,6-17.8,16.9-17.8s16.9,6.5,16.9,17.8v36.9c0,11.4-6,17.8-16.9,17.8s-16.9-6.5-16.9-17.8
				V181.5z M424.7,219.2c0,5.1,2.2,7,5.8,7s5.8-1.9,5.8-7v-38.3c0-5.1-2.2-7-5.8-7s-5.8,1.9-5.8,7V219.2z"/>
			<path class="st5" d="M497.7,235.5h-11.3l-1.9-12.9h-13.7l-1.9,12.9h-10.2l11.4-71h16.3L497.7,235.5z M472.3,213H483l-5.3-35.9
				h-0.2L472.3,213z"/>
			<path class="st5" d="M510,164.5h17.6c11.2,0,16.6,6.2,16.6,17.5v35.9c0,11.4-5.5,17.5-16.6,17.5H510V164.5z M521.2,174.6v50.7
				h6.3c3.5,0,5.7-1.8,5.7-6.9v-36.9c0-5.1-2.1-6.9-5.7-6.9H521.2z"/>
			<path class="st5" d="M573.5,163.7c10.9,0,16.4,6.5,16.4,17.8v2.2h-10.5v-2.9c0-5.1-2-7-5.6-7c-3.5,0-5.6,1.9-5.6,7
				c0,5.2,2.2,9,9.5,15.4c9.3,8.2,12.3,14.1,12.3,22.2c0,11.4-5.7,17.8-16.6,17.8s-16.6-6.5-16.6-17.8v-4.4h10.5v5.1
				c0,5.1,2.2,6.9,5.8,6.9s5.8-1.8,5.8-6.9c0-5.2-2.2-9-9.5-15.4c-9.3-8.2-12.3-14.1-12.3-22.2C557,170.2,562.6,163.7,573.5,163.7z"
				/>
		</g>
	</g>
</g>
</svg>
