<?xml version="1.0" encoding="utf-8"?>
<!-- Generator: Adobe Illustrator 22.0.1, SVG Export Plug-In . SVG Version: 6.00 Build 0)  -->
<svg version="1.1" id="Layer_1" xmlns="http://www.w3.org/2000/svg" xmlns:xlink="http://www.w3.org/1999/xlink" x="0px" y="0px"
	 viewBox="0 0 600 400" style="enable-background:new 0 0 600 400;" xml:space="preserve">
<style type="text/css">
	.st0{fill:#11861E;}
	.st1{fill:#DFFCE4;}
</style>
<rect class="st0" width="600" height="400"/>
<g>
	<g>
		<g>
			<path class="st1" d="M416,210.5c-2,1.5-4,2.8-5.9,4.4c-7.3,6.4-14.7,12.8-21.8,19.4c-6.2,5.7-12.3,11.6-18.3,17.5
				c-2.3,2.3-4.3,4.8-6.4,7.3c0.1,0.1,0.2,0.3,0.3,0.4c1.8-0.7,3.6-1.4,5.4-2.2c7.3-3.2,14.8-5.6,22.6-7.2c3.8-0.7,7.7-0.9,11.5-1.2
				c1.4-0.1,2.8-0.1,4.1,0.1c0.5,0.1,1,0.8,1.9,1.5c-2.6,1.1-4.5,1.9-6.5,2.7c-4,1.6-8,3.2-11.9,5c-4.2,1.9-8.5,3.8-12.4,6.3
				c-9,5.6-18.4,10.7-26.2,18c-3.1,2.9-5.8,6.3-8.7,9.4c-0.6,0.7-1.3,1.4-1.8,2.1c0.2,3,0.4,5.9,0.6,8.9c-0.3-0.1-0.5-0.1-0.8-0.2
				c-1.3,1.5-2.5,3.2-4,4.6c-1.9,1.8-3.8,3.7-6.1,4.8c-3.4,1.6-5.4,4-6.3,7.5c-0.3,1-0.8,2-1,2.5c0.9,2.4,1.8,4.6,2.4,6
				c-1.3,4.6-2.4,8.4-3.7,12.7c1.7-0.3,3-0.7,4.3-0.8c1.1-0.2,2.4-0.4,3.4-0.1c0.9,0.2,1.7,1,2.6,1.5c-0.1,0.3-0.2,0.6-0.3,0.9
				c1.4,0.1,2.7,0.4,4,0.3c2-0.1,3.5,0.6,5.1,1.8c1.6,1.3,3.7,2.1,5.5,3.1c0.6,0.3,1.2,0.7,1.8,1c-1.2,2.3-3.1,2.6-5.1,2.7
				c-1.5,0.1-3,0-4.5,0c-4.7,0-9.3-0.1-14,0c-1.8,0.1-3.6,0.6-5.8,1c2.1,2.2,4.2,4.1,6.1,6.2c2,2.1,1.8,5.4-0.4,7.1
				c-1.2-1-2.4-2-3.9-3.2c-0.7,2.4-0.5,4.2,0.3,6c0.6,1.3,0.9,2.7,1.2,4.1c0.4,2.3,0.8,4.6,1.1,6.9c0.1,0.8,0,1.6,0,2.4
				c-3.1,0.4-5.5-3.1-7.3-9.8c-1.3,0.6-0.8,3.4-3,2.7c-0.9-5.1-1.8-10.1-2.8-15.4c-0.6-0.2-1.4-0.5-2.1-0.8c-1.2-2-2.4-4-3.5-5.7
				c-3.4,0.2-6.5,0.4-9.7,0.6c-3.3,0.2-6.7,0.5-10,0.8c-1.1,0.1-2.2,0-3.3-0.3c-4,2.7-7.7-0.2-11.5-0.6c-3.6-0.4-7.3-0.7-10.9,0.3
				c-2.5,0.7-5.3,0.9-7.9,1c-0.7,0-1.5-0.7-2.3-0.9c-1.2-0.5-2.4-0.9-3.4-1.3c-0.5-3.3,1.3-5,3.3-6.6c0.9-0.2,1.9-0.5,2.9-0.7
				c2.5-3.5,6.1-2.8,10.1-2.7c-1-1.3-1.5-2.1-2.2-2.9c-5.6-6.6-11.7-12.9-16.9-19.8c-5.6-7.6-10.7-15.6-15.4-23.8
				c-3.5-6.1-6.2-12.8-9-19.3c-3.8-9-7.3-18.1-10.9-27.2c-1.2-2.9-2.2-5.8-3.3-8.8c-0.2-0.6,0-1.4,0-2.1c0.3-0.2,0.6-0.4,0.9-0.6
				c1.2,1.5,2.2,3.2,3.7,4.4c2.6,2.3,5.6,4.3,8.3,6.6c5.6,4.8,11,9.7,16.5,14.6c0.9,0.8,1.6,1.9,2.7,3.1c0.2-0.7,0.4-1,0.3-1.3
				c-0.8-3.8-1.7-7.6-2.3-11.5c-0.7-4-1.2-8-1.7-12c-0.4-3-1-6.1-1.1-9.1c-0.4-10.3-0.9-20.6-0.7-30.8c0.1-5.5,1.5-10.9,2.4-16.4
				c0.3-1.6,0.8-3.2,1.4-4.7c0.2-0.5,0.8-0.8,1.4-1.3c0.7,3.1,1.4,5.8,1.9,8.5c0.4,2.2,0.4,4.4,0.8,6.5c0.7,4.1,1.7,8.2,2.4,12.4
				c0.9,4.9,1.6,9.9,2.4,14.8c0.6,3.5,1.1,7,1.8,10.4c1.3,6.3,2.5,12.5,4,18.7c0.8,3.3,2.1,6.6,3.4,9.8c1.1,2.9,2.3,5.8,3.5,8.7
				c0.7,1.7,1.3,3.4,2,5.2c0.1,0.1,0.3,0.2,0.8,0.7c0-3.8,0-7.3,0-11.3c-3-3.2-4-7.7-4-12.5c0-1.2,0.8-2.4,1.5-3.5
				c0.8,5-1.2,10.7,4.4,14.6c-0.6-1.8-1.2-3.3-1.7-4.8c0.2,0,0.4-0.1,0.6-0.1c1.1,0.8,2.2,1.6,3.3,2.4c1.8-1.7,0.4-2.5-0.5-3.4
				c-0.9-0.8-1.9-1.4-3.3-2.4c1.5-0.3,2.4-0.5,3.8-0.8c-1.5-1.3-2.7-2.3-4.3-3.6c-0.2-1.4-0.4-3.2-0.7-5.2c0.8-0.4,1.7-0.9,2.7-1.5
				c-0.1-1-0.3-1.9-0.4-2.9c0.4-0.4,0.9-0.8,1.5-1.4c1.3-10.8,4.6-21.3,9-30.6c-0.6-4.9-1-9.1-1.7-13.2c-0.7-4.4-0.4-8.7,0.4-13
				c0.5-2.4,2.6-7,6-7.9c1.1,3.1-3.5,3.8-2.7,6.6c3.6-1.2,7.3-1.8,11.1-0.8c1.2,0.3,2.8,0.2,3.6,0.9c2.3,1.9,4.5,4.1,6.4,6.4
				c1.4,1.6,2.3,3.5,3.6,5.6c0,1.6,0,3.7,0,6c-0.7-0.4-1.2-0.7-1.6-0.9c-0.1-6.6-3.3-11.5-8.2-14.8c-2.8-1.9-6.6-2.2-10-2.9
				c-0.9-0.2-2.3,0.7-3.1,1.5c-1.8,1.8-3.3,3.8-4.7,5.5c0.4,3.8,0.9,7.2,1,10.6c0.3,5.6,1.7,10.8,4.7,15.7c1.3,2.1,2.6,4.6,2.9,7.1
				c0.5,3.4,0.1,6.9,0,10.4c0,1.1-0.1,2.2-0.2,3.6c0.7,0.4,1.6,0.9,2.8,1.6c0.7-1.8,1.5-3.3,1.9-4.9c0.6-1.9,1.5-2.5,3.4-1.7
				c1.4,0.6,2.8,1.3,4.1,1.9c1.9-1.9,1.6-5.1,4.3-5.7c1.4,1,2.7,1.8,4.1,2.9c1-2.1,1.8-4,2.7-5.9c2.1,0.2,4.1,0.4,6.6,0.6
				c0.4-2.2,0.9-4.3,1.4-6.8c-1,0.2-1.6,0.3-2.2,0.4c-1.2-1.3-1.2-1.3,2.8-3.3c-1.6-0.3-3-0.6-4.8-1c1.1-0.7,1.9-1.2,3.1-1.9
				c-1.3,0-2.2,0-3.2,0c-0.8-2.3,2.1-1.6,2.4-3.5c-1.3-1.9-2.9-4.1-4.5-6.3c0.1-0.1,0.2-0.3,0.3-0.4c0.8,0.7,1.6,1.3,2.5,2
				c-0.1-0.5-0.1-1-0.2-1.5c2.4-0.7,2,2.2,3.5,2.7c2.3-3.7,1.6-8-2.5-14.4c-0.7,0.6-1.3,1.2-2.4,2.1c1.2,0.3,2.1,0.6,3.1,0.8
				c2,3.6,2.1,5.8,0.2,7.2c-1.9-2-3.9-4.1-6-6.3c0-0.9,0-1.9,0-3.1c0.8-0.7,1.6-1.3,2.4-2c-2.1-1.8-3-1.5-5.8,2
				c-0.6-1.5-1.2-2.8-1.8-4.1c-1.7-3.7-3.9-7.1-7.4-9.2c-3.2-1.9-6.6-4.2-10.8-2.4c-0.5,0.2-1.3-0.2-2-0.6c3-1.6,6.2-1.4,9.5-0.4
				c4.3-7.5,9.7-14.2,16.4-19.7c6.6-5.3,12.7-11.7,21.5-13.8c-2.1,6.2-6,11.5-7.7,17.8c0.2,0.1,0.3,0.3,0.5,0.4
				c1.3-1.3,2.6-2.6,4.1-3.8c3.9-3.1,7.8-6.2,11.9-9.2c1-0.7,2.2-1.4,3.7-0.1c-4.2,4.8-8.2,9.7-11,15.5c7-4.1,13.8-8.3,21.8-10
				c0.1,0.2,0.3,0.3,0.4,0.5c-0.4,0.7-0.8,1.4-1.3,2c-6.6,5.8-11.8,12.7-16.6,19.9c-2.5,3.9-4.8,8-7.2,12c0.1,0.1,0.2,0.2,0.4,0.4
				c0.5-0.4,0.9-0.8,1.4-1.2c3.4-3,6.8-5.9,10.2-9c4.4-3.9,9.5-6.6,14.7-9.3c1-0.5,2.2-0.4,3.8-0.7c-9,10.9-16,22.3-20.9,35.3
				c1.5-0.8,2.6-1.4,3.6-2.1c2.9-1.9,6.3-1.4,9.5-1.9c1.6-0.3,2.8,0.5,3.8,1.8c0.6,0.8,1.4,1.4,2.1,2.1c2.1,2,2.9,4.6,3.1,7.4
				c0,0.7-0.1,1.4,0,2c0.3,1.7-0.2,3-1.7,3.9c-0.5,0.3-0.8,0.9-1.3,1.3c0.3,0.6,0.6,1.2,1.1,2.1c-1.5,2.4-2.7,5.4-4.9,7.3
				c-2.1,1.9-5.2,2.7-7.7,3.9c-0.2,1.7-0.4,3.1-0.6,4.6c-0.2,1.7-1.7,2.6-3.4,2.4c-1.3-0.2-2.6-0.3-4.2-0.6c0,3.3,0,6.3,0,9.4
				c-2.1,0.1-4.2,0.3-6.4,0.4c-0.2,2.7-0.3,5.4-0.5,8.8c1-1.2,1.7-1.9,2.2-2.6c1.6-2.2,3.1-4.4,4.6-6.6c1.3-1.1,2.6-2.2,3.8-3.3
				c4.9-4.6,9.6-9.5,14.7-13.8c3.5-3,7.5-5.4,11.5-7.9c4.7-2.9,9.5-5.6,14.3-8.3c0.7-0.4,1.6-0.4,2.5-0.6c0.1,0.2,0.2,0.4,0.4,0.5
				c-2.9,5.3-5.9,10.5-8.8,15.8c0.2,0.1,0.3,0.2,0.5,0.4c2-1,3.9-2.1,5.9-3c6.5-3.1,12.9-6.3,19.5-9.2c3.1-1.4,6.4-2.1,9.7-3
				c2.2-0.6,4.4-1.2,6.7-1.6c1.1-0.2,2.2,0.2,3.3,0.3C416,210,416,210.2,416,210.5z M252.5,318.6c0.4,0.5,0.8,1.1,1.2,1.6
				c0.4,0.8,0.9,1.6,1.3,2.4c0.2-0.1,0.4-0.3,0.6-0.4c-0.6-0.7-1.1-1.4-1.7-2.1c-0.4-0.5-0.8-1.1-1.3-1.6c-0.5-0.7-0.9-1.3-1.4-2
				c-0.2,0.2-0.4,0.3-0.5,0.5C251.3,317.5,251.9,318,252.5,318.6z M309.9,292.4c0.8-1.3,1.7-2.4,2.3-3.8c0.9-1.9,1.5-4,2.3-5.9
				c-0.2-0.1-0.4-0.2-0.6-0.2c-0.5,1.2-0.9,2.5-1.4,3.7C311.6,288.3,310.7,290.4,309.9,292.4c-0.2,0.9-0.5,1.7-0.7,2.6
				c0.2,0,0.5,0,0.7,0.1C309.9,294.2,309.9,293.3,309.9,292.4z M248,313c0.6,0.9,1.2,1.9,1.7,2.8c0.2-0.1,0.4-0.3,0.6-0.4
				c-0.7-0.9-1.4-1.7-2.1-2.6c-0.4-0.7-0.7-1.4-1.1-2.1c-1.4-2-2.9-3.9-4.1-6.1c-2.3-4-4.2-8.1-6.5-12.1c-2.3-3.9-4.8-7.7-4.9-11
				c-3.6-10.8-6.7-20.4-13.3-28.5c0,0.4,0,0.6,0,0.7c3.8,9.3,7.6,18.6,11.3,27.9c1.9,4.7,3.6,9.5,6.6,13.8c2.7,3.8,4.6,8.1,7.1,12
				C244.6,309.4,246.4,311.1,248,313z M328.7,264.8L328.7,264.8c-0.5-0.9-1-2-1.7-2.8c-1.4-1.6-2.9-3.1-4.5-4.8
				c-0.3,0.2-0.8,0.6-1.4,1c0.9,0.6,1.6,1,2.3,1.5c0,0.2-0.1,0.4-0.1,0.5c-1.5,0.2-2.9,1.6-4.9,0.7c0.5-0.6,0.8-0.9,1-1.1
				c-0.7-0.2-1.4-0.3-2.2-0.5c0.4-0.9,0.7-1.5,0.7-1.6c1.9-1.1,3.4-2,4.9-2.9c-0.1-0.1-0.2-0.3-0.3-0.4c-2.2,0.6-4.1,2.4-6.8,1.7
				c2.7-1.9,5.4-3.8,8.1-5.7c-0.1-0.3-0.2-0.5-0.3-0.8c-3.8,3.9-8.4,2.9-12.9,2c-0.8,2.9-1.5,5.4-2.2,8.1c-2.2-0.9-4.1-1.7-5.9-2.5
				c-1.2,1.9-2.3,3.7-3.7,5.9c-2-1.3-3.9-2.5-6.2-4c-1.2,2.6-2.2,4.8-3.2,7.1c1.5,2.2,3,4.4,4.4,6.4c-1.2,2.4-2.2,4.3-3.1,6.2
				c-0.8,2-1.7,4.1-2.1,6.2c-0.5,2.7-0.8,5.5-0.9,8.3c-0.1,4.5,0,8.9,0,13.3c9.6,2.1,16.4,8.6,24.8,12.5c0.3-0.6,0.7-1.2,1.2-2.2
				c-2.7-2.1-5.2-4.2-7.8-6.2c-2.9-2.2-5.7-4.5-8.3-6.4c0-2.9,0.2-5.1,2-6.8c2.9-2.6,3.9-6.1,4.6-9.8c0.5-2.6,0.8-5.1,1.2-7.7
				c0.3-2.5,0.9-4.9,3.5-5.8c1.2,0.2,2.2,0.3,3.1,0.5c5.4,2.8,7.3,7.9,8.8,13.3c1,3.5,2.5,6.8,5.9,8.9c0.3,1,0.6,2.1,0.9,3.2
				c0.9,3,0.3,5.5-2.1,7.6c-2.4,2-4.8,4-7,6.2c-1.1,1.1-1.8,2.6-2.8,3.9c-2.2,3.2-4.4,6.4-6.6,9.5c-0.8,1.1-2,2-3,3
				c-0.7,0.7-1.8,1.5-1.9,2.4c-0.4,4.1-1,8.3,0.4,12.3c0.8,2.3,1.5,4.7,2.4,7.4c1.3,1.7,2.9,3.7,4.4,5.5c5.2,0.4,9.6,2.5,14.4,4.7
				c-0.4-1.1-0.8-2.3-1.2-3.4c-0.1,0.1-0.2,0.2-0.4,0.3c-1.6-1-3.1-1.9-4.7-2.9c0.1-0.7,0.2-1.3,0.3-2c-1.8-1.3-3.7-2.5-5.5-3.8
				c-1.9-5.8-3.8-11.8-5.7-17.4c1.3-1.9,2.3-3.6,3.5-5.3c2.2-3.2,4.4-6.4,6.7-9.5c2.6-3.5,7-4.2,10.4-6.6c2.4-1.7,5.3-3,6.8-5.8
				c0.6-1,0.9-2.1,1.3-2.9c1.4-0.4,2.3-0.7,3.3-1c0-4.1-0.2-7.8-1.8-11.4c-1.1-2.4-2-5.2-2.1-7.8c-0.2-5.4-1.9-10.2-4.6-14.7
				C331.1,267,329.8,266,328.7,264.8z M270.5,341.2c0.1-0.1,0.2-0.2,0.4-0.3c-0.5-1.1-1.1-2.2-1.6-3.3c-1.4-2.6-2.5-5.6-4.4-7.8
				c-3.3-3.7-4.4-8.3-6.9-12.4c-1.8-3.1-3.3-6.4-4.7-9.7c-1.1-2.5-2.2-5-3-7.6c-1.2-4.2-2-8.5-3.1-12.7c-1-3.8-2.2-7.5-3.2-11.2
				c-0.6-2.4-1.1-4.9-1.7-7.4c-1.2-4.8-3-9.4-3.1-14.4c-0.1-2.7-0.8-5.4-1.2-8.1c-0.5-3.3-1.2-6.5-1.5-9.8c-0.3-3.5-0.2-7-0.5-10.4
				c-0.5-5.7-2.1-11.2-1.6-17c0.1-1.2-0.4-2.5-0.6-3.8c-0.2,0-0.4,0-0.6,0c-0.2,1.7-0.7,3.5-0.5,5.2c0.4,6.5,1,12.9,1.6,19.4
				c0.6,7,1.1,14.1,2.1,21.1c0.8,5.7,2.3,11.3,3.6,16.9c0.8,3.2,1.9,6.2,2.7,9.4c1.5,5.8,2.7,11.7,4.2,17.4c0.7,2.8,1.8,5.6,3,8.3
				c2.3,5.3,4.5,10.7,7.1,15.8c2.3,4.6,5.1,8.9,7.7,13.4c1.7,2.9,3.3,5.8,5,8.6C269.9,341,270.3,341.1,270.5,341.2z M236.3,203.5
				c-0.1,0-0.2,0-0.4,0c0,2.7-0.1,5.3,0,8c0.1,2.6,0.4,5.1,0.7,7.6c0.4,3.1,0.7,6.2,1.3,9.3c1.2,5.8,1.2,11.7,1.2,17.6
				c0,0.2,0.1,0.4,0.1,0.6c0.9,3.2,1.8,6.4,2.7,9.6c1.3,4.8,2.5,9.7,3.6,14.5c1.8,7.3,3.4,14.6,5.3,21.9c0.8,3,2,5.9,3.2,8.8
				c1.6,3.9,3,7.9,4.9,11.6c2.4,4.6,5.3,9,8,13.4c0.3,0.4,0.6,0.8,1.1,1.4c0.2-0.5,0.3-0.7,0.2-0.7c-2.8-5.7-5.8-11.4-8.5-17.1
				c-2-4.1-4-8.3-5.5-12.6c-1.6-4.5-2.8-9.1-4-13.6c-1-3.6-2-7.3-2.9-11c-1-4.2-1.6-8.5-2.8-12.6c-2.3-7.5-2.9-15.3-3.3-23.1
				c-0.1-1.1,0.1-2.3-0.1-3.4c-0.9-4.8-1.8-9.5-2.7-14.3c-0.3-1.6-0.6-3.3-0.8-4.9C237.2,210.8,236.8,207.1,236.3,203.5z
				 M274.4,261.5c-0.6,3.3-4.6,1.5-5.4,4.5c2.5-0.7,4.5-1.3,6.7-2c-1.2-4.3-2.2-8.2-3.3-12.2c-0.9-3.3-1.9-6.6-2.9-9.9
				c-0.4-1.2-0.8-2.5-1.3-3.7c-2.5,0.8-4.5,1.4-6.6,2c0.2,0.6,0.3,1,0.5,1.4c1.8,4.2,2.9,8.4,3.1,13c0.1,2.7,1.5,5.4,2.3,8.3
				C270.1,262.5,272,262,274.4,261.5z M344.2,210.6c-5-3.9-9.5-7.4-14.2-11c-1.5,1.7-2.8,3.1-4.2,4.7c4.8,4.6,9.4,9.1,14.5,14
				C341.7,215.5,342.9,213.1,344.2,210.6z M212.8,249.5c1.5,4.1,2.7,7.9,4.2,11.7c1.6,4,3.3,8,5,12c0.7,1.7,1.5,3.4,2.2,5.2
				c1.7,4.4,2.9,9,5,13.3c2.1,4.4,4.9,8.6,7.4,12.8c1,1.7,1.9,3.6,3.1,5.1c4,5,8.2,9.9,12.3,14.8c1.2,1.4,2.6,2.6,3.9,3.8
				c0.2-0.6,0.2-1.1,0-1.4c-1.9-2.4-3.8-4.8-5.8-7.2c-3-3.7-6.2-7.1-8.9-11c-2.6-3.6-4.5-7.7-6.8-11.5c-2.5-4.2-5.1-8.4-6.5-13.1
				c-1.3-4.2-2.9-8.3-4.5-12.4c-1.5-3.8-3.1-7.6-4.7-11.4C217.1,256.6,216,252.7,212.8,249.5z M339.7,277.1c0.2,0.2,0.3,0.3,0.5,0.5
				c1.4-1.2,2.9-2.4,4.2-3.7c4-4.3,7.9-8.7,11.9-13c1.7-1.8,3.5-3.5,5.2-5.3c4-4.2,7.9-8.4,11.9-12.6c1-1,2.3-1.8,3.4-2.7
				c4.2-3.6,8.4-7.2,12.5-10.9c1.9-1.7,3.6-3.5,5.3-5.3C373.1,238.3,356.1,257.4,339.7,277.1z M333.8,266.3c1.1-1.3,2.1-2.7,3.4-3.8
				c3.9-3.3,7.9-6.4,11.8-9.7c1.5-1.3,3-2.6,4.5-3.9c3.8-3.6,7.3-7.4,11.3-10.7c4.3-3.5,9-6.6,13.6-9.7c4.8-3.2,9.8-6.1,14.7-9.2
				c1.4-0.9,2.7-1.9,4.1-2.8c-0.1-0.2-0.3-0.4-0.4-0.6c-6.5,3.8-13,7.7-19.4,11.5c-1.4,0.8-2.8,1.6-4.1,2.5c-3.4,2.5-6.7,5-10,7.6
				c-3.2,2.6-7,4.8-9.4,8c-3.3,4.3-7.6,7.3-11.6,10.6C338.8,259,335.7,262.2,333.8,266.3z M281.7,262.1c-2.4-7.7-4.7-15.2-7-22.7
				c-1.4-0.4-2.7-0.8-4.4-1.4c2.6,9.6,5.2,18.8,7.8,28.4C279.3,265,280.5,263.6,281.7,262.1z M338.1,232c0.4-1.7,0.8-3.1,1.2-4.7
				c-2.2-2-4.4-4-6.5-6c-1.6-1.6-3.3-3.1-4.8-4.8c-2.6-2.8-5.3-5.6-9.7-6.6C323.4,218.6,329.9,225.8,338.1,232z M386.3,227.8
				c-0.2-0.2-0.3-0.5-0.5-0.7c-2.6,1.7-5.4,3.2-7.9,5.1c-3.4,2.6-6.6,5.6-10,8.3c-3.5,2.9-7.1,5.6-10.5,8.6c-1.8,1.6-3.3,3.6-5,5.2
				c-4.7,4.5-9.4,8.8-14,13.4c-0.9,0.9-1.4,2.2-2.1,3.3c2.3-1.8,4.3-3.7,6.3-5.6c4.2-3.7,8.5-7.2,12.6-10.9c2.4-2.1,4.3-4.8,6.6-6.9
				c3.3-3,6.9-5.7,10.3-8.5c1.8-1.5,3.6-3,5.4-4.5C380.5,232.3,383.4,230.1,386.3,227.8z M284.9,341.2c0.2-1,0.5-1.4,0.5-1.9
				c-0.8-5.5-1.6-10.9-2.4-16.4c-0.4-2.7-0.5-5.5-0.9-8.2c-0.6-4.1-1.7-8.1-1.8-12.2c-0.1-7,0.4-13.9,0.7-20.9
				c0-1.1,0.3-2.3,0.3-3.4c0.1-2,0-4,0-6.6C276.7,280,279.4,330.5,284.9,341.2z M316.8,350.7c0.9-1.8,1.7-3.3,2.3-4.9
				c1.3-3.5,2.6-6.9,3.4-10.5c0.4-1.8,0.5-3.5,1.8-4.9c0.3-0.4,0.4-1.1,0.4-1.6c-0.5-3.7-3-5.7-5.9-7.7c-0.5,0.7-0.9,1.2-1.4,1.9
				c0.7,0.8,1.4,1.3,1.9,2c0.5,0.7,1.2,1.7,1.1,2.4c-0.4,2-1.1,4-1.7,6c-0.3,0.9-0.8,1.7-0.9,2.6c-0.7,4.4-1.3,8.9-2,13.5
				C315.9,349.7,316.3,350.1,316.8,350.7z M263.9,266.3c-0.3,0.1-0.5,0.1-0.8,0.2c-3.1,21.7,3.1,41.6,12.8,60.7
				c0.2-0.7,0.1-1.3-0.1-1.9c-0.8-2.3-1.6-4.7-2.4-7c-1.9-5.2-3.8-10.4-5.6-15.6c-0.5-1.4-1-2.9-1.3-4.3c-0.6-2.9-1.1-5.9-1.5-8.8
				c-0.4-3.1-0.8-6.2-0.8-9.3c-0.1-4,0.3-8,0.3-12.1C264.5,267.6,264.1,266.9,263.9,266.3z M305.3,223.4c4.2,8.6,8.2,16.9,12.4,25.7
				c1-2.4,1.7-4.1,2.3-5.7c-1.8-3.2-3.6-6.3-5.3-9.5c-1.7-3.1-3.4-6.3-4.9-9.3C308.1,224.2,306.7,223.8,305.3,223.4z M325.2,206.5
				c-0.4,1.8-0.7,3.1-1,4.1c5.5,5.1,10.9,10.1,16.2,15.1c1.3-0.5,2.5-0.9,3.8-1.4C337.9,218.4,331.7,212.6,325.2,206.5z M377.2,225
				c-11.1,5-42.4,28.7-44.3,35.3c0.4-0.2,0.9-0.2,1.1-0.5c4.7-4.3,9.4-8.6,14.1-12.8c2.4-2.2,4.8-4.5,7.6-6.2
				c2.5-1.5,4.6-3.4,6.8-5.3c2.1-1.8,4.4-3.9,6.9-4.6C373.2,230,374.6,226.8,377.2,225z M289,262.1c1.6-2.2,1.9-3.9,1.3-5.9
				c-2-6.8-4.8-13.3-8.4-19.1c-1-0.6-1.8-1-2.9-1.5C282.8,244.4,285.1,253.3,289,262.1z M244.6,244c-0.2,0-0.3,0.1-0.5,0.1
				c0.9,4.9,1.7,9.9,2.8,14.8c1.7,7,3.7,13.9,5.6,20.8c0.5,1.7,1.1,3.4,1.6,5.1c0.4,1.4,0.7,2.8,1.1,4.2c0.8,2.4,1.7,4.9,2.7,7.3
				c1,2.3,2.1,4.5,3.2,6.7c0.2-0.1,0.3-0.1,0.5-0.2c-0.2-0.8-0.3-1.7-0.6-2.4c-1-2.5-2.6-4.9-3-7.6c-0.8-5.6-3.1-10.7-4.9-15.9
				c-0.5-1.5-1.3-2.9-1.6-4.5c-0.6-2.6-1-5.4-1.6-8c-1.2-5.2-2.5-10.3-3.8-15.4C245.7,247.4,245.1,245.7,244.6,244z M287.6,230.4
				c4,9.8,7.8,19.3,11.6,28.7c0.2,0,0.3,0,0.5,0c0.2-1.2,0.7-2.5,0.5-3.6c-0.4-2.1-1.2-4.1-1.9-6.1c-1.6-4.3-3.1-8.7-4.9-12.9
				C292.3,234.2,291.2,231.4,287.6,230.4z M329.6,239c0.2-0.1,0.4-0.2,0.6-0.3c0.1-2.2,0.4-4.4-1.2-6.4c-3.9-4.7-7.5-9.7-11.4-14.4
				c-0.8-1-2.2-1.6-3.4-2.4c-0.2,0.2-0.4,0.5-0.6,0.7C318.9,223.8,324.3,231.4,329.6,239z M329.9,255.1c0.4-0.2,0.6-0.2,0.8-0.3
				c2.9-3.5,5.7-7.1,8.8-10.6c3.8-4.3,7.6-8.7,11.8-12.5c3.3-3.1,7.4-5.4,11-8.2c2.3-1.7,4.5-3.7,6.7-5.5
				C357.1,222.9,332.3,246.7,329.9,255.1z M339,198.1c-0.1,0.1-0.1,0.2-0.2,0.4c1.6,0.8,3.2,1.6,4.5,2.2c0.5,2.4,0.6,4.6,2.6,6.5
				c0.5-1.5,0.9-2.7,1.4-4.2c2,2.2,3.7,4,5.6,6.1c0.5-5.4-2.3-8.9-5.7-11.7C344.2,197.6,341.6,197.9,339,198.1z M298.2,228.4
				c-0.2,0.1-0.4,0.2-0.6,0.4c3.3,8.5,6.6,17,9.9,25.5c0.3,0,0.6-0.1,0.9-0.1c0-1.5,0.4-3.1,0-4.5c-0.7-2.6-1.9-5.1-2.9-7.6
				c-1.1-2.7-2.1-5.4-3.1-8.1C301.5,231.7,300.1,229.8,298.2,228.4z M313.6,359.5c-0.2,0.2-0.3,0.4-0.5,0.5c0.5,2.9,1,5.7,1.5,8.7
				c0.9-0.4,1.4-0.6,2.4-1.1c0.6,1.9,1.4,3.7,1.8,5.5c0.5,2.2,1.3,4.2,3.3,5.5c-0.1-1.9-0.7-3.7-0.6-5.5c0-2.5-0.8-4.5-2.1-6
				c-0.7-2.3-1.3-4.1-1.9-6.1C316.2,360.5,314.9,360,313.6,359.5z M268.3,271c-0.2,0.1-0.4,0.1-0.6,0.2c0.1,12.6,1.2,25.1,6.2,37.3
				c-0.2-1.9-0.4-3.5-0.6-5c-0.6-4.2-0.6-8.6-1.8-12.6c-1.6-5.6-1.7-11.3-2.3-17C269.1,273,268.6,272,268.3,271z M335.3,160
				c-0.3-0.2-0.5-0.4-0.8-0.6c-1.8,1.5-3.7,2.8-5.3,4.5c-5.8,6.4-11.6,12.8-17.2,19.3c-1.1,1.2-1.6,2.9-2.4,4.4
				c0.3,0.2,0.6,0.4,0.9,0.6C319.2,179.2,325.6,168.1,335.3,160z M288.2,340.6c0.2,0.1,0.4,0.1,0.6,0.2c0.2-1,0.6-1.9,0.6-2.9
				c0.2-4,0.3-8,0.5-12.1c0.3-4.5,0.8-9,1.1-13.5c0.1-0.8-0.4-1.6-0.6-2.7C288.4,311.9,287.2,330.7,288.2,340.6z M337.3,175.2
				c-8,3.6-23.5,22.7-23.2,28.8C319.5,192.5,328.6,184,337.3,175.2z M390.3,254.9c-0.1-0.2-0.2-0.4-0.3-0.7c-3,1.1-6.1,2-8.9,3.5
				c-5.3,2.9-10.5,6.1-15.7,9.4c-2.2,1.4-4.2,3.1-6.2,4.6c0.1,0.1,0.2,0.2,0.3,0.3C369.7,266.4,380,260.7,390.3,254.9z M315.6,148.9
				c-0.2-0.2-0.4-0.4-0.6-0.6c-8.6,6.9-15.9,14.9-18.6,26.1c2.9-4.4,5.2-9.3,8.4-13.6C308,156.5,311.9,152.8,315.6,148.9z
				 M286.5,278.2c-0.2-0.1-0.4-0.2-0.5-0.3c-0.5,1-1.2,1.9-1.3,2.9c-0.5,4-1.2,7.9-1.3,11.9c-0.1,4.7,0.5,9.4,0.7,14.1
				c0.1,2.2-0.1,4.3,0.1,6.5c0.1,1.7,0.6,3.4,0.9,5.1c0.2,0,0.4,0,0.6-0.1c0-2.2,0.1-4.5,0-6.7c-0.2-3.3-0.7-6.5-1-9.7
				c-0.1-1.6,0.3-3.2,0.3-4.8c0-1-0.8-2.1-0.7-3.1C284.9,288.7,285.7,283.5,286.5,278.2z M313.9,153.8c-4.1,1.7-16,21.7-14.8,25.3
				C304,170.5,309,162,313.9,153.8z M297.9,341.4c0.6-8.3,1.1-16.4,1.6-24.5c-1.5,1.2-1.7,3.3-1.9,4.8c-0.9,6.5-1.2,13.1-1.8,19.9
				C296.7,341.6,297.2,341.5,297.9,341.4z M302.3,305.7c0.3,0.1,0.6,0.3,0.9,0.4c0.3-0.4,0.6-0.7,0.8-1.1c2.5-7.9,4.8-16,8.4-23.5
				c0.2-0.4,0-1,0-1.5c-0.3,0-0.6-0.1-0.8-0.1C307.6,288.2,304.7,296.9,302.3,305.7z M329.1,161.2c-0.2-0.3-0.5-0.5-0.7-0.8
				c-2.5,2.2-5.1,4.4-7.5,6.7c-3.3,3-6.5,6.1-9.7,9.3c-1.2,1.2-2.5,2.5-2.2,3.8C315.7,173.9,322.4,167.6,329.1,161.2z M328.3,171.7
				c-0.1-0.1-0.3-0.2-0.4-0.3c-6.4,5.3-10.5,12.4-14.8,19.3c0.3,0.2,0.5,0.4,0.8,0.7c1.3-1.6,2.7-3,3.8-4.7c2.1-3,4.1-6.1,6.2-9.1
				C325.4,175.5,326.9,173.6,328.3,171.7z M334.4,182c-7.3,6.9-12.7,15.1-16.5,24.3C323.4,198.2,328.9,190.1,334.4,182z M308,151.8
				c-6.8,4.2-12.2,10.5-15.4,18.7C297.9,164,303.2,157.6,308,151.8z M312.4,161c-0.2-0.1-0.4-0.2-0.6-0.3c-4.6,6.1-7.4,13-9.8,20.1
				c0.3,0.1,0.6,0.3,0.9,0.4C306.1,174.5,309.3,167.7,312.4,161z M228.9,263.4c-0.2,0.1-0.4,0.3-0.6,0.4c2.6,7.4,7.2,13.6,12.1,19.6
				c0.2-0.1,0.4-0.2,0.5-0.3C237,276.5,232.9,269.9,228.9,263.4z M240.3,216.6c1.2,8.5,2.2,16.6,3.3,24.6c0.2-2.6,0.3-5.2,0.2-7.7
				c-0.2-3.3-0.7-6.5-0.9-9.7C242.8,221.2,241.9,219,240.3,216.6z M234.9,281.9c2,6.6,7.1,11.3,10.3,17.2
				C242.7,292.8,239.3,287.1,234.9,281.9z M266.5,234.3c0.2,0.1,0.3,0.1,0.5,0.2c1.5-1.9,6.3-16.9,5.9-18.5
				c-0.2-0.1-0.4-0.1-0.6-0.2C270.4,222,268.4,228.1,266.5,234.3z M347,241.3c5.3-3.6,11.7-9.9,12.1-11.7
				C355.1,231.7,347.4,239,347,241.3z M321.6,298.9c-0.3-0.2-0.6-0.3-0.9-0.5c-3,4.2-4.2,9.3-6.5,13.8
				C318,308.5,319.7,303.7,321.6,298.9z M292.9,325.9c0.3-0.2,0.5-0.2,0.5-0.3c1.1-4.2,2.2-8.3,3.2-12.5c0.1-0.3-0.6-0.9-1-1.4
				C294.1,313.8,292.4,323.1,292.9,325.9z M303,319c-0.3,0-0.5-0.1-0.8-0.1c-0.9,5.4-1.7,10.7-2.6,16.1c0.3,0,0.6,0.1,0.8,0.1
				C302,329.8,303,324.5,303,319z M311.5,306.9c0.2,0.1,0.5,0.2,0.7,0.3c2.9-4.1,5-8.5,6.6-13.2c-0.3-0.1-0.5-0.3-0.8-0.4
				C315.8,298,313.6,302.4,311.5,306.9z M276.2,291.6c0.2,0,0.4,0,0.6,0c0.5-5.6,1-11.1,1.5-16.7c-2.3,1.5-1.8,3.7-1.8,5.7
				c0,1.8,0,3.5,0,5.3C276.4,287.8,276.2,289.7,276.2,291.6z M317.2,286.3c-0.3-0.1-0.5-0.2-0.8-0.3c-1.3,3.4-2.6,6.9-4,10.3
				c0.3,0.1,0.5,0.2,0.8,0.3C314.2,293,318.2,290.7,317.2,286.3z M343.6,220.9c0.1-3.2,3.8-4.9,2.9-8.6c-1.8,2.6-3.3,4.8-4.9,7.1
				C342.3,219.8,342.9,220.3,343.6,220.9z M321.7,243.5c-0.5,1.7-1,3.4-1.5,5.1c0.2,0.1,0.4,0.2,0.5,0.3c1.5-1.5,3.6-2.6,3.9-5.4
				C323.6,243.5,322.8,243.5,321.7,243.5z M274.9,222.9c-2.9,2.8-1.9,6.2-2.4,9.3c0.2,0,0.5,0.1,0.7,0.1
				C273.8,229.1,274.3,226,274.9,222.9z M345.4,222.1c3.8-3,5.1-5.5,3.6-6.5c-1.3,2-2.7,4-4.1,6.1
				C344.9,221.7,345.2,221.9,345.4,222.1z M320,228c-1.6,1-3.1,1.9-4.5,2.8c2.1,0.8,3.5-0.4,5.3-1.2
				C320.5,229.1,320.3,228.7,320,228z M290.1,345c-2.1-0.3-5.5,2.7-5.4,5C286.4,348.4,288.2,346.8,290.1,345z M317.6,225.2
				c-2.5-0.6-4.2,1.2-3.4,3.1C315.3,227.3,316.5,226.3,317.6,225.2z M306.8,229.5c-0.2-0.2-0.5-0.3-0.7-0.5
				c-0.9,1.1-1.8,2.2-2.8,3.3c0.2,0.4,0.4,0.8,1.1,1.8C305.3,232.4,306,231,306.8,229.5z M276.4,350.6c2.2,0,4.7-2.1,5.4-4.1
				C279.3,346.8,278.4,348.8,276.4,350.6z M307.9,233.7c-1.1,1.2-1.9,2.1-2.8,3.1c0.1,0.2,0.3,0.4,0.4,0.6c1.2-0.6,2.5-1.2,3.8-1.9
				C308.8,234.9,308.4,234.4,307.9,233.7z M301.1,242.6c-1.1,0.8-2,1.4-2.9,2c0.1,0.1,0.2,0.3,0.2,0.4c1.1,0,2.2,0,3.7,0
				C301.8,244.1,301.5,243.6,301.1,242.6z M259.2,347.6c2.1,0.6,4.6-0.9,5.5-3.3C262.6,345.5,260.9,346.6,259.2,347.6z M311.4,224.3
				c0.2,0.1,0.3,0.3,0.5,0.4c0.9-1.3,1.8-2.5,2.6-3.8c0.1-0.2-0.4-0.8-0.8-1.4C312.8,221.4,312.1,222.9,311.4,224.3z M290.1,241.1
				c-1.2,1.2-2.3,2-1.9,3.9c1.1-0.9,1.9-1.5,2.8-2.2C290.7,242.2,290.4,241.7,290.1,241.1z M324.9,345.5c-2.5,0.4-3.6,1.8-3.2,4.2
				C322.8,348.2,323.8,346.9,324.9,345.5z M300.1,240c-0.1-0.3-0.2-0.6-0.3-0.9c-1.8-1-2.1,0.8-3,1.6c0.1,0.2,0.2,0.5,0.3,0.7
				C298.1,240.9,299.1,240.5,300.1,240z M315.5,212.2c0.2-0.2,0.4-0.4,0.5-0.6c-1.4-1.3-2.8-2.5-4.1-3.8c-0.2,0.2-0.4,0.4-0.5,0.6
				C312.8,209.7,314.1,211,315.5,212.2z M298.4,235.5c-0.2-0.3-0.4-0.8-0.7-1.2c-2,1.5-2.3,2-1.8,3.4c0.7-0.6,1.5-1.1,2.2-1.7
				C298.2,235.9,298.2,235.8,298.4,235.5z M285.2,237.2c2.7-2.6,2.8-3.1,1.5-4.1C286.1,234.5,285.6,235.8,285.2,237.2z M309.8,240
				c0-0.2-0.1-0.5-0.1-0.7c-1.1,0-2.1,0-3.2,0c-0.1,0.2-0.1,0.4-0.2,0.6c0.3,0.3,0.6,0.7,0.9,0.9C308.3,240.5,309.1,240.3,309.8,240
				z M258.8,344.5c-0.2-0.3-0.3-0.5-0.5-0.8c-1.4,0.9-2.8,1.8-4.2,2.7c0.2,0.3,0.4,0.6,0.5,0.8C256,346.3,257.4,345.4,258.8,344.5z
				 M275.3,267.7c-0.1-0.2-0.1-0.4-0.2-0.6c-1.4,0.3-2.9,0.6-4.3,1c0.1,0.3,0.1,0.6,0.2,0.9C272.5,268.5,273.9,268.1,275.3,267.7z
				 M319.2,234.5c0.1,0.2,0.3,0.4,0.4,0.6c0.9-0.2,1.8-0.4,2.7-0.5c0.1-0.3,0.3-0.5,0.4-0.8c-0.4-0.4-0.7-0.7-1.2-1.2
				C320.4,233.5,319.8,234,319.2,234.5z M325.6,347.5c0.3,0.2,0.6,0.5,0.8,0.7c0.9-1.1,1.7-2.3,2.6-3.4c-0.2-0.2-0.5-0.4-0.7-0.5
				C327.4,345.3,326.5,346.4,325.6,347.5z M289.2,238.4c-0.3-0.2-0.5-0.4-0.8-0.5c-0.7,1.1-1.4,2.2-2.1,3.3c0.2,0.1,0.3,0.2,0.5,0.3
				C287.6,240.4,288.4,239.4,289.2,238.4z M302.8,228.7c0.9-0.6,2.7-1.1,1.3-3.2C303.5,226.8,303.2,227.8,302.8,228.7z M250,350.3
				c0.2,0.3,0.3,0.5,0.5,0.8c0.7-0.5,1.3-1,2-1.5c-0.1-0.2-0.2-0.3-0.3-0.5C251.5,349.5,250.7,349.9,250,350.3z M333.5,346.2
				c-0.2-0.1-0.4-0.3-0.6-0.4c-0.4,0.7-0.9,1.3-1.3,2c0.2,0.1,0.4,0.2,0.6,0.4C332.6,347.5,333,346.9,333.5,346.2z M235.7,269
				c-0.2,0.1-0.3,0.2-0.5,0.2c0.3,0.6,0.7,1.3,1,1.9c0.2-0.1,0.4-0.2,0.5-0.3C236.4,270.3,236.1,269.6,235.7,269z M286.2,351.3
				c0.1,0.2,0.2,0.4,0.4,0.6c0.5-0.3,1.1-0.7,1.6-1c-0.1-0.2-0.2-0.3-0.3-0.5C287.3,350.6,286.7,351,286.2,351.3z M337.1,180
				c-0.1-0.2-0.3-0.4-0.4-0.5c-0.2,0.3-0.3,0.7-0.8,1.5C336.6,180.4,336.9,180.2,337.1,180z"/>
			<path class="st1" d="M309.1,218.8c-0.8,0.1-1.6,0.2-2.4,0.4c-0.1-0.3-0.1-0.6-0.2-0.9c0.8-0.2,1.6-0.3,2.4-0.5
				C308.9,218.1,309,218.5,309.1,218.8z"/>
			<path class="st1" d="M306,213c-1.1,0.3-1.8,0.5-2.6,0.8C304.1,211.9,304.1,211.9,306,213z"/>
			<path class="st1" d="M306.4,216c-0.7,0.3-1.4,0.7-2,1c-0.1-0.2-0.2-0.4-0.3-0.6c0.7-0.4,1.3-0.8,2-1.1
				C306.1,215.5,306.2,215.7,306.4,216z"/>
			<path class="st1" d="M303.6,219.6c0.4-0.2,0.9-0.4,1.3-0.7c0.1,0.1,0.2,0.3,0.2,0.4c-0.4,0.2-0.8,0.5-1.3,0.7
				C303.8,219.9,303.7,219.8,303.6,219.6z"/>
			<path class="st1" d="M303.9,209.7c0.3,0.1,0.6,0.2,0.8,0.3c0,0.1-0.1,0.2-0.1,0.3c-0.3-0.1-0.5-0.2-0.8-0.4
				C303.8,209.9,303.8,209.8,303.9,209.7z"/>
			<path class="st1" d="M327.5,269.6c-1.2-0.2-2.2-0.5-3.4-0.7c0.1-0.7,0.2-1.2,0.3-1.6c5.1-0.6,5.6-0.3,7.4,4
				c-2.2-0.1-4.3-0.3-6.9-0.4C325.9,270.4,326.6,270,327.5,269.6z"/>
			<path class="st1" d="M328.7,264.8c-0.4,0.4-0.8,1-1.2,1.1c-3.6,0.5-7.4,0.6-10.7,2.6c-0.3,0.2-0.8,0.1-1.4,0.2c1-2.1,3-2.3,4.6-3
				c1.7-0.7,3.7-1.1,5.6-1.4C326.6,264.1,327.7,264.6,328.7,264.8C328.7,264.9,328.7,264.8,328.7,264.8z"/>
			<path class="st1" d="M327.8,273.1c1.2-0.4,2.5-0.8,3.8-1.1c1,1,2.3,1.7,2,3.3c-2.1-0.5-3.8-1-5.6-1.4
				C327.9,273.7,327.9,273.4,327.8,273.1z"/>
			<path class="st1" d="M318.8,264.2c2.9-3,5.9-3.4,7.6-1.1C323.9,263.5,321.5,263.8,318.8,264.2z"/>
			<path class="st1" d="M335,278.4c-0.9,0.3-1.6,0.8-2.1,0.6c-1.4-0.5-2.6-1.2-3.9-1.8C330.7,275.4,332.7,275.6,335,278.4z"/>
			<path class="st1" d="M334.9,280.2c0.3,1,0.4,1.6,0.8,3.1c-1.5-0.5-2.5-0.9-3.6-1.3c0-0.7,0-1.2,0-1.8
				C333.1,280.2,333.9,280.2,334.9,280.2z"/>
			<path class="st1" d="M310.8,258.1c1.4-0.6,2.8-1.1,4.2-1.7c0.1,0.3,0.3,0.6,0.4,0.9c-1.4,0.7-2.7,1.3-4.1,2
				C311.1,258.8,310.9,258.4,310.8,258.1z"/>
			<path class="st1" d="M311.3,254.9c1.1-0.3,2.2-0.6,3.3-1c0.1,0.2,0.1,0.5,0.2,0.7c-1,0.7-1.8,2.2-3.3,1
				C311.4,255.4,311.3,255.2,311.3,254.9z"/>
			<path class="st1" d="M333.6,286.8c0.7-0.1,1.4-0.3,2.6-0.5c-0.6,1-0.8,1.6-1.2,2.3c-0.5-0.4-1-0.7-1.4-1.1
				C333.6,287.3,333.6,287.1,333.6,286.8z"/>
			<path class="st1" d="M317.1,265.2c-1,0.6-1.9,1.2-2.9,1.8c-0.1-0.2-0.3-0.4-0.4-0.6c1-0.6,1.9-1.2,2.9-1.8
				C316.8,264.7,317,265,317.1,265.2z"/>
			<path class="st1" d="M336.5,293c1.9-0.4,2.2,0,1.9,2.2C337.7,294.4,337.1,293.7,336.5,293z"/>
			<path class="st1" d="M312.7,260.4c0.6-0.4,1.2-0.9,1.9-1.4c0.4,0.3,0.7,0.5,1.3,0.9c-1.2,0.4-2.1,0.6-2.9,0.9
				C312.8,260.6,312.8,260.5,312.7,260.4z"/>
			<path class="st1" d="M334.8,285.4c-0.7-0.2-1.5-0.4-2.2-0.6c0.1-0.2,0.1-0.4,0.2-0.7c0.8,0.1,1.5,0.3,2.3,0.4
				C335,284.8,334.9,285.1,334.8,285.4z"/>
			<path class="st1" d="M315.1,262.9c0.7-0.3,1.4-0.6,2.1-1c0.1,0.1,0.1,0.3,0.2,0.4c-0.7,0.4-1.3,0.7-2,1.1
				C315.3,263.3,315.2,263.1,315.1,262.9z"/>
			<path class="st1" d="M329.7,280.3c0.6,0.1,1.1,0.1,1.7,0.2c0,0.2-0.1,0.5-0.1,0.7c-0.6-0.1-1.1-0.2-1.7-0.3
				C329.7,280.7,329.7,280.5,329.7,280.3z"/>
			<path class="st1" d="M324.4,274.6c0.6,0,1.1,0,1.7,0c0,0.1,0,0.3,0,0.4c-0.6,0-1.1,0.1-1.7,0.1
				C324.4,274.9,324.4,274.7,324.4,274.6z"/>
			<path class="st1" d="M320.8,269.1c0.5-0.2,0.9-0.4,1.4-0.6c0.1,0.2,0.1,0.4,0.2,0.6c-0.5,0.1-1,0.3-1.4,0.4
				C320.9,269.4,320.8,269.2,320.8,269.1z"/>
			<path class="st1" d="M322.5,273c-0.3,0-0.6,0-1.5,0c0.8-0.4,1.1-0.5,1.4-0.6C322.4,272.7,322.4,272.8,322.5,273z"/>
			<path class="st1" d="M312.1,270.4c0.2-0.2,0.4-0.5,0.5-0.7c0.1,0.1,0.2,0.2,0.4,0.2c-0.2,0.3-0.3,0.5-0.5,0.8
				C312.4,270.6,312.2,270.5,312.1,270.4z"/>
		</g>
		<g>
			<path class="st1" d="M76.3,175.5c1.2-2.6,2.5-5.1,3.7-7.7c0.7-1.6,1.4-3.2,2.2-4.9c11.7,5.2,23.3,10.4,35,15.6
				c1.2-2.7,2.4-5.3,3.7-8.1c-11.7-5.2-23.3-10.4-35.1-15.7c2-4.5,3.9-8.8,5.8-13c1.8,0.3,1.8,0.3,0.8,3.1
				c23.4,10.4,46.7,20.9,70.3,31.4c0.5-0.8,0.9-1.6,1.4-2.5c0.5,0.2,1,0.4,1.6,0.7c-2,4.5-4,8.9-6,13.3c-12.1-5.4-24-10.7-36.1-16.1
				c-1.2,2.8-2.4,5.4-3.6,8.2c12.1,5.4,23.9,10.7,36,16.1c-2,4.5-3.9,8.8-5.9,13.3c-0.6-0.3-1-0.5-1.6-0.7c0.3-0.8,0.6-1.6,1-2.6
				c-23.4-10.5-46.8-20.9-70.3-31.4c-0.5,0.8-0.8,1.5-1.3,2.3c-0.5-0.1-1.1-0.3-1.7-0.4C76.3,176.1,76.3,175.8,76.3,175.5z"/>
			<path class="st1" d="M314.6,16.3c4.2,0.6,8.3,1.2,12.8,1.9c1.9,22.7,3.9,45.5,5.9,68.4c0.2,0,0.3,0,0.5,0
				c2.6-21.6,5.3-43.1,7.9-64.6c-2.6-0.9-2.6-0.9-2.4-2.4c2.6,0.3,5.3,0.5,7.9,0.9c0.4,0.1,0.7,0.9,1.2,1.8c-1.4,0-2.2,0-3.3,0
				c-3.2,25.9-6.4,51.8-9.6,77.9c-4.1-0.5-8.1-1-12.2-1.5c-1.9-22.1-3.8-44-5.7-65.9c-0.1,0-0.3,0-0.4,0
				c-2.5,20.7-5.1,41.4-7.6,61.9c0.6,1.2,3.5-0.2,2.4,2.6c-2.7-0.3-5.3-0.6-8-1c-0.4-0.1-0.6-0.9-1.2-1.9c1.4,0.1,2.2,0.2,3.3,0.3
				c3.1-25.3,6.2-50.7,9.3-76.1c-0.9-0.2-1.7-0.3-2.5-0.5c0-0.6,0-1.2,0-1.8C313.5,16.3,314.1,16.3,314.6,16.3z"/>
			<path class="st1" d="M184.7,147.5c-0.5-0.5-0.8-0.9-1.3-1.4c0.8-0.5,1.5-1.1,2.4-1.7c-17.3-19.4-34.4-38.5-51.6-57.7
				c-0.8,0.6-1.5,1.1-2.4,1.8c-0.4-0.4-0.7-0.7-1.2-1.2c1.2-1.1,2.1-1.9,3-2.8c5.2-4.7,10.4-9.3,15.7-13.9c2-1.7,4.2-3.1,7-3.2
				c3.6-0.2,6.4,1.2,8.7,3.8c12.9,14.4,25.8,28.8,38.7,43.2c5.2,5.9,5,11.5-0.8,16.8C197,136.7,190.9,142,184.7,147.5z M142.9,78.8
				c17.3,19.3,34.3,38.4,51.5,57.6c1.7-1.5,3.2-2.8,4.7-4.2c2.1-2,2.1-2.9,0.2-5.1c-10.4-11.7-20.8-23.3-31.2-35
				c-5-5.6-10-11.2-14.9-16.7c-1.9-2.1-3.2-2.5-5-1.1C146.3,75.6,144.7,77.1,142.9,78.8z"/>
			<path class="st1" d="M221.8,118c-0.3-0.5-0.5-1-0.8-1.6c0.8-0.5,1.5-0.9,2.5-1.4c-10.4-23.2-20.8-46.4-31.3-69.7
				c-0.9,0.3-1.7,0.6-2.5,0.9c-0.2-0.1-0.4-0.2-0.6-0.3c0.2-0.6,0.3-1.5,0.7-1.7c7.4-3.4,14.8-6.8,22.3-9.8c6.5-2.6,11.1-0.5,14,5.9
				c8,17.5,15.8,35.1,23.7,52.7c2.8,6.2,1,11.5-5.1,14.4C237.2,111.2,229.5,114.5,221.8,118z M234.2,110.4c1.8-0.8,3.3-1.4,4.8-2.1
				c3.6-1.6,3.9-2.3,2.3-5.9c-5.6-12.4-11.2-24.8-16.8-37.2c-3.7-8.3-7.5-16.7-11.2-25c-1.1-2.4-2.3-3.1-4.4-2.3
				c-2,0.7-4,1.7-6.2,2.7C213.3,63.9,223.7,87,234.2,110.4z"/>
			<path class="st1" d="M293.4,96.6c-6,0.8-11.7,1.6-17.4,2.3c-3.4,0.5-6.8,0.8-10.2,1.4c-1.4,0.2-1.7-0.2-1.5-1.6
				c0.8-0.2,1.7-0.4,2.7-0.6c-3.4-25.4-6.7-50.6-10.1-76c-1,0-1.9,0-2.8,0c-0.1-0.2-0.3-0.3-0.4-0.5c0.4-0.5,0.7-1.3,1.2-1.3
				c8.9-1.2,17.8-2.4,26.7-3.5c0.3,0,0.7,0,1.2,0c0.7,4.8,1.3,9.6,1.9,14.4c0,0.4-0.5,0.8-0.8,1.3c-0.3-0.4-0.9-0.7-1-1.2
				c-0.5-3.5-0.9-7-1.4-10.8c-4.3,0.6-8.4,1.1-12.8,1.7c1.5,11.3,3,22.4,4.5,33.9c4.2-0.6,8.3-1.1,12.7-1.7
				c-0.2-1.9-0.6-3.6-0.7-5.4c0-0.6,0.4-1.1,0.7-1.7c0.4,0.5,1,0.9,1.1,1.5c0.7,5.2,1.4,10.5,2.1,15.8c-1.1,0.6-1.7,0.4-1.9-0.8
				c-0.2-1.9-0.5-3.7-0.8-5.8c-4.3,0.6-8.4,1.1-12.7,1.7c1.6,11.9,3.1,23.5,4.7,35.4c4.3-0.6,8.3-1.1,12.7-1.7
				c-0.4-3.2-0.8-6.3-1.2-9.4c-0.1-0.4-0.2-0.8-0.2-1.2c0.1-0.6,0.4-1.1,0.7-1.6c0.4,0.4,1,0.8,1.1,1.3
				C292.2,87,292.7,91.7,293.4,96.6z"/>
			<path class="st1" d="M402.7,38.1c2.4,1.5,4.9,2.9,7.3,4.4c1.5,0.9,3,1.7,4.7,2.7c-6.2,11.1-12.4,22.2-18.7,33.4
				c2.6,1.5,5.1,2.9,7.7,4.4c6.2-11.2,12.4-22.2,18.7-33.4c4.3,2.4,8.4,4.7,12.4,6.9c-0.5,1.7-0.5,1.7-3.2,0.5
				c-12.4,22.2-24.9,44.5-37.5,66.9c0.8,0.5,1.5,1,2.4,1.6c-0.3,0.5-0.5,0.9-0.9,1.5c-4.3-2.4-8.4-4.7-12.7-7.1
				c6.4-11.5,12.8-22.8,19.2-34.3c-2.6-1.5-5.1-2.9-7.8-4.3c-6.4,11.5-12.8,22.8-19.2,34.3c-4.3-2.4-8.4-4.7-12.6-7.1
				c0.3-0.6,0.6-1,0.9-1.5c0.8,0.4,1.5,0.7,2.5,1.2c12.5-22.3,24.9-44.6,37.5-67c-0.8-0.5-1.4-1-2.1-1.5c0.2-0.5,0.4-1.1,0.5-1.6
				C402.2,38,402.4,38.1,402.7,38.1z"/>
			<path class="st1" d="M486.5,107.8c-0.6-0.9-1-1.6-1.4-2.3c0.4-0.3,0.8-0.6,1.4-1.1c3.3,4.7,6.5,9.3,9.9,14
				c-0.5,0.4-0.9,0.7-1.4,1.1c-0.6-0.8-1.1-1.4-1.8-2.2c-20.2,14.2-40.4,28.5-60.8,42.8c2.5,3.5,4.8,6.9,7.3,10.5
				c4.2-2.9,8.2-5.8,12.4-8.7c0.3,0.5,0.6,0.9,1,1.4c-5.1,3.6-10.2,7.2-15.3,10.8c-5.6-7.9-11.1-15.7-16.6-23.6
				c0.4-0.4,0.8-0.7,1.3-1.1c0.6,0.7,1.1,1.3,1.8,2.2C445,137,465.7,122.5,486.5,107.8z"/>
			<path class="st1" d="M516.4,154.9c-0.4-1-0.6-1.7-0.9-2.6c0.5-0.2,1-0.5,1.6-0.8c2.2,5.3,4.4,10.6,6.6,16c-0.5,0.3-1,0.5-1.6,0.8
				c-0.4-0.9-0.8-1.7-1.3-2.6c-23.1,9.5-46.2,19.1-69.5,28.7c1.6,4,3.2,7.9,4.9,11.9c4.8-1.9,9.4-3.8,14.1-5.8
				c0.2,0.5,0.4,1,0.7,1.6c-5.8,2.4-11.6,4.8-17.5,7.2c-3.7-9-7.4-18-11.1-27c0.5-0.3,1-0.5,1.6-0.8c0.4,0.8,0.8,1.6,1.3,2.5
				C468.9,174.4,492.6,164.7,516.4,154.9z"/>
			<path class="st1" d="M469.4,85.7c-0.6,0.3-1.1,0.6-1.6,0.9c-0.5-0.4-1.1-0.9-1.8-1.6c-17.3,18.7-34.5,37.4-52,56.4
				c0.8,0.6,1.5,1,2.3,1.6c-0.6,0.6-1,1.1-1.4,1.6c-4.2-3.9-8.3-7.7-12.6-11.6c0.4-0.5,0.7-0.9,1.1-1.4c0.8,0.6,1.5,1.2,2.2,1.8
				c17.3-18.7,34.5-37.4,51.8-56.1c-0.6-0.7-1.2-1.3-1.8-2c0.3-0.4,0.6-0.8,1.1-1.4C460.8,77.8,465,81.6,469.4,85.7z"/>
			<path class="st1" d="M115.2,106.2c0.4,0.6,0.7,1,1.1,1.5c-0.3,0.5-0.8,1.2-1.4,2c20.6,15,41.3,29.9,62.1,45.1
				c0.5-0.9,0.8-1.6,1.3-2.4c0.7,0.5,1.2,0.8,1.7,1.2c-3.4,4.6-6.7,9.2-10.1,13.9c-0.5-0.3-1-0.6-1.5-0.9c0.5-0.9,1-1.6,1.5-2.4
				c-20.6-15-41.2-29.9-61.9-44.9c-0.6,0.7-1.1,1.3-1.8,2c-0.4-0.3-0.9-0.5-1.5-0.9C108.3,115.7,111.6,111.1,115.2,106.2z"/>
		</g>
	</g>
</g>
</svg>
