<?xml version="1.0" encoding="utf-8"?>
<!-- Generator: Adobe Illustrator 22.0.1, SVG Export Plug-In . SVG Version: 6.00 Build 0)  -->
<svg version="1.1" xmlns="http://www.w3.org/2000/svg" xmlns:xlink="http://www.w3.org/1999/xlink" x="0px" y="0px"
	 viewBox="0 0 600 400" style="enable-background:new 0 0 600 400;" xml:space="preserve">
<g id="Layer_1" style="display:none;">
	
		<image style="display:inline;overflow:visible;" width="133" height="103" xlink:href="../../../../../Desktop/highland oaks icon.jpg"  transform="matrix(3.8835 0 0 3.8835 41.7476 0)">
	</image>
</g>
<g id="Layer_2">
	<rect style="fill:#55CE86;" width="600" height="400"/>
	<path style="fill:#E6E7E8;" d="M389.3,101c-1.4-6.9-10.9-25.3-21.1-16.6c-9,7.7,11,10.9,14.5,15.8c11.1,15.7-8.3,45-24.6,22.8
		c-6.8-9.1-4.6-22.2-8.4-32.4c-2.9-7.9-8.2-16.2-13.3-23c-9.3-12.2-32.8-17.6-43.9-4.2c-8.8,10.6-5.1,26.8-4,39.1
		c-9.4-7.4-17.3-14.4-29.2-20.1c8.5-8.3,12.3-14.8,12.8-25.7c0.5-10.3-2.2-16-9-24.2c-5.9-7.2-17.1-16.6-27.1-10.6
		c-12,7.3-1.4,20,9.4,18.1c9.2-1.6,12.9-6.1,18.1,5.3c3.5,7.6,8.7,20.4-10.3,35.3c-4.6-1.5-27.8-12.8-38.2,2.1
		c-6.2,8.9,2,23.1,2.5,28.1c-5,10.2-7.6,14.5-8.3,25.8c-0.5,8.9,2,21.8,7.1,29.4c4.2,6.3,19.8,19.1,28.1,9.3c3.9-4.6,2.3-9-3-10.9
		c-6.4-2.3-8.5,4.8-14.3,2.8c-11.5-4-11.9-21.4-10.7-30.8c1.8-13.6,7.6-21.3,16.9-31c5.5-5.8,11.4-9.7,22.4-18.8
		c8.8,3.8,23.7,15.8,30.8,21.7c-23.8,0-38,23-20.1,41.7c14.6,15.2,35.4,21,56.4,20.1C360.1,168.5,398.7,146.3,389.3,101z
		 M242.2,88.6c-5.9,5.9-13.5,10.1-19.1,16.1c-4.8-5.2-7.8-16.9-0.9-22.6c6.2-5.1,19-0.2,25.5,2C245.7,85.4,243.9,86.9,242.2,88.6z"
		/>
	<g>
		<path style="fill:#E6E7E8;" d="M74.1,245.8h27.3v-16.8c0-3-0.2-5-0.6-5.9c-0.3-0.7-0.9-1.3-1.8-1.9c-1.2-0.7-2.6-1-3.9-1H93v-1.6
			h25.2v1.6h-2.1c-1.4,0-2.7,0.3-3.9,1c-0.9,0.5-1.6,1.2-1.9,2.1c-0.3,0.9-0.5,2.9-0.5,5.7v38c0,3,0.2,4.9,0.6,5.9
			c0.3,0.7,0.9,1.3,1.8,1.9c1.3,0.7,2.6,1,4,1h2.1v1.6H93v-1.6h2.1c2.4,0,4.1-0.7,5.2-2.1c0.7-0.9,1.1-3.2,1.1-6.7V249H74.1v17.9
			c0,3,0.2,4.9,0.6,5.9c0.3,0.7,0.9,1.3,1.8,1.9c1.2,0.7,2.6,1,3.9,1h2.1v1.6H57.3v-1.6h2.1c2.4,0,4.2-0.7,5.3-2.1
			c0.7-0.9,1-3.2,1-6.7v-38c0-3-0.2-5-0.6-5.9c-0.3-0.7-0.9-1.3-1.8-1.9c-1.3-0.7-2.6-1-4-1h-2.1v-1.6h25.2v1.6h-2.1
			c-1.4,0-2.7,0.3-3.9,1c-0.9,0.5-1.5,1.2-1.9,2.1c-0.3,0.9-0.5,2.9-0.5,5.7V245.8z"/>
		<path style="fill:#E6E7E8;" d="M149.6,275.7v1.6h-25.2v-1.6h2.1c2.4,0,4.2-0.7,5.3-2.1c0.7-0.9,1-3.2,1-6.7v-38
			c0-3-0.2-4.9-0.6-5.9c-0.3-0.7-0.9-1.3-1.8-1.9c-1.3-0.7-2.6-1-4-1h-2.1v-1.6h25.2v1.6h-2.1c-2.4,0-4.2,0.7-5.2,2.1
			c-0.7,0.9-1.1,3.2-1.1,6.7v38c0,3,0.2,4.9,0.6,5.9c0.3,0.7,0.9,1.3,1.8,1.9c1.2,0.7,2.6,1,3.9,1H149.6z"/>
		<path style="fill:#E6E7E8;" d="M208.5,217.1l1.5,18.6h-1.5c-1.5-4.6-3.5-8.1-5.9-10.5c-3.5-3.4-8-5.1-13.5-5.1
			c-7.5,0-13.2,3-17.1,8.9c-3.3,5-4.9,11-4.9,17.9c0,5.6,1.1,10.7,3.3,15.4c2.2,4.6,5,8,8.5,10.2c3.5,2.2,7.1,3.2,10.8,3.2
			c2.2,0,4.3-0.3,6.3-0.8c2-0.5,4-1.4,5.9-2.4v-17c0-2.9-0.2-4.9-0.7-5.8c-0.4-0.9-1.1-1.6-2.1-2.1c-0.9-0.5-2.6-0.7-5-0.7v-1.6
			h22.8v1.6h-1.1c-2.3,0-3.8,0.8-4.6,2.3c-0.6,1.1-0.9,3.2-0.9,6.3v18c-3.3,1.8-6.6,3.1-9.8,3.9c-3.2,0.8-6.8,1.3-10.8,1.3
			c-11.4,0-20-3.6-25.9-10.9c-4.4-5.5-6.6-11.8-6.6-18.9c0-5.2,1.2-10.1,3.7-14.9c3-5.6,7-10,12.1-13c4.3-2.5,9.4-3.8,15.3-3.8
			c2.1,0,4.1,0.2,5.8,0.5c1.7,0.3,4.2,1.1,7.4,2.3c1.6,0.6,2.7,0.9,3.3,0.9c0.5,0,1-0.3,1.4-0.8c0.4-0.5,0.6-1.5,0.7-3H208.5z"/>
		<path style="fill:#E6E7E8;" d="M238.6,245.8H266v-16.8c0-3-0.2-5-0.6-5.9c-0.3-0.7-0.9-1.3-1.8-1.9c-1.2-0.7-2.6-1-3.9-1h-2.1
			v-1.6h25.2v1.6h-2.1c-1.4,0-2.7,0.3-3.9,1c-0.9,0.5-1.6,1.2-1.9,2.1c-0.3,0.9-0.5,2.9-0.5,5.7v38c0,3,0.2,4.9,0.6,5.9
			c0.3,0.7,0.9,1.3,1.8,1.9c1.3,0.7,2.6,1,4,1h2.1v1.6h-25.2v-1.6h2.1c2.4,0,4.1-0.7,5.2-2.1c0.7-0.9,1.1-3.2,1.1-6.7V249h-27.3
			v17.9c0,3,0.2,4.9,0.6,5.9c0.3,0.7,0.9,1.3,1.8,1.9c1.2,0.7,2.6,1,3.9,1h2.1v1.6h-25.2v-1.6h2.1c2.4,0,4.2-0.7,5.3-2.1
			c0.7-0.9,1-3.2,1-6.7v-38c0-3-0.2-5-0.6-5.9c-0.3-0.7-0.9-1.3-1.8-1.9c-1.3-0.7-2.6-1-4-1h-2.1v-1.6h25.2v1.6H245
			c-1.4,0-2.7,0.3-3.9,1c-0.9,0.5-1.5,1.2-1.9,2.1c-0.3,0.9-0.5,2.9-0.5,5.7V245.8z"/>
		<path style="fill:#E6E7E8;" d="M337.7,261l1.4,0.3l-5,16h-45.6v-1.6h2.2c2.5,0,4.3-0.8,5.3-2.4c0.6-0.9,0.9-3.1,0.9-6.4v-38
			c0-3.7-0.4-6-1.2-6.9c-1.1-1.3-2.8-1.9-5-1.9h-2.2v-1.6h26.6v1.6c-3.1,0-5.3,0.3-6.6,0.9c-1.3,0.6-2.1,1.4-2.6,2.3
			s-0.7,3.1-0.7,6.6v37c0,2.4,0.2,4,0.7,4.9c0.3,0.6,0.9,1.1,1.6,1.3c0.7,0.3,3,0.4,6.8,0.4h4.3c4.5,0,7.7-0.3,9.5-1s3.5-1.8,5-3.5
			C334.7,267.3,336.2,264.7,337.7,261z"/>
		<path style="fill:#E6E7E8;" d="M383.9,257.6h-22.8l-4,9.3c-1,2.3-1.5,4-1.5,5.1c0,0.9,0.4,1.7,1.3,2.4c0.9,0.7,2.7,1.1,5.5,1.3
			v1.6h-18.5v-1.6c2.5-0.4,4-1,4.8-1.7c1.5-1.4,3.1-4.2,4.9-8.5l20.7-48.4h1.5l20.5,48.9c1.6,3.9,3.1,6.5,4.5,7.7s3.2,1.8,5.6,2v1.6
			h-23.2v-1.6c2.3-0.1,3.9-0.5,4.8-1.2s1.2-1.5,1.2-2.4c0-1.3-0.6-3.3-1.7-6L383.9,257.6z M382.7,254.4l-10-23.8l-10.2,23.8H382.7z"
			/>
		<path style="fill:#E6E7E8;" d="M408.5,218.5h16l36,44.1v-33.9c0-3.6-0.4-5.9-1.2-6.8c-1.1-1.2-2.8-1.8-5.1-1.8h-2v-1.6h20.5v1.6
			h-2.1c-2.5,0-4.3,0.8-5.3,2.3c-0.6,0.9-1,3-1,6.3v49.6h-1.6l-38.8-47.4v36.2c0,3.6,0.4,5.9,1.2,6.8c1.1,1.2,2.8,1.8,5.1,1.8h2.1
			v1.6h-20.5v-1.6h2c2.5,0,4.3-0.8,5.3-2.3c0.6-0.9,1-3,1-6.3v-40.9c-1.7-2-3-3.3-3.9-3.9c-0.9-0.6-2.2-1.2-3.9-1.8
			c-0.8-0.3-2.1-0.4-3.8-0.4V218.5z"/>
		<path style="fill:#E6E7E8;" d="M477.5,277.3v-1.6h2.2c2.5,0,4.3-0.8,5.3-2.4c0.6-1,1-3.1,1-6.4v-38c0-3.7-0.4-6-1.2-6.9
			c-1.1-1.3-2.8-1.9-5-1.9h-2.2v-1.6h23.9c8.8,0,15.5,1,20.1,3c4.6,2,8.3,5.3,11.1,10c2.8,4.7,4.2,10,4.2,16.1
			c0,8.2-2.5,15-7.5,20.5c-5.6,6.1-14.1,9.2-25.5,9.2H477.5z M494.3,273c3.7,0.8,6.8,1.2,9.2,1.2c6.7,0,12.3-2.4,16.7-7.1
			c4.4-4.7,6.6-11.1,6.6-19.2c0-8.1-2.2-14.5-6.6-19.2c-4.4-4.7-10.1-7-17-7c-2.6,0-5.6,0.4-8.9,1.3V273z"/>
		<path style="fill:#E6E7E8;" d="M206.2,306c7.6,0,14.3,2.9,19.8,8.7s8.4,13,8.4,21.7c0,8.9-2.8,16.4-8.5,22.3
			c-5.6,5.9-12.5,8.8-20.5,8.8c-8.1,0-14.9-2.9-20.4-8.6c-5.5-5.8-8.3-13.2-8.3-22.3c0-9.3,3.2-17,9.5-22.9
			C191.9,308.5,198.5,306,206.2,306z M205.4,309.1c-5.3,0-9.5,2-12.7,5.9c-4,4.9-5.9,12-5.9,21.3c0,9.6,2.1,17,6.2,22.2
			c3.2,3.9,7.3,5.9,12.5,5.9c5.5,0,10.1-2.2,13.7-6.5c3.6-4.3,5.4-11.1,5.4-20.4c0-10.1-2-17.6-5.9-22.5
			C215.4,311.1,211,309.1,205.4,309.1z"/>
		<path style="fill:#E6E7E8;" d="M280.7,346.4H258l-4,9.3c-1,2.3-1.5,4-1.5,5.1c0,0.9,0.4,1.7,1.3,2.4c0.9,0.7,2.7,1.1,5.5,1.3v1.6
			h-18.5v-1.6c2.5-0.4,4-1,4.8-1.7c1.5-1.4,3.1-4.2,4.9-8.5l20.7-48.4h1.5l20.5,48.9c1.6,3.9,3.1,6.5,4.5,7.7c1.3,1.2,3.2,1.8,5.6,2
			v1.6H280v-1.6c2.3-0.1,3.9-0.5,4.8-1.2s1.2-1.5,1.2-2.4c0-1.3-0.6-3.3-1.7-6L280.7,346.4z M279.5,343.2l-10-23.8l-10.2,23.8H279.5
			z"/>
		<path style="fill:#E6E7E8;" d="M333,333.5l21.7,21.6c3.6,3.6,6.6,6,9.1,7.3c2.5,1.3,5,2,7.5,2.2v1.6h-28v-1.6
			c1.7,0,2.9-0.3,3.6-0.8c0.7-0.6,1.1-1.2,1.1-1.9c0-0.7-0.1-1.3-0.4-1.9c-0.3-0.5-1.2-1.6-2.7-3.1l-20.3-20.1v19
			c0,3,0.2,4.9,0.6,5.9c0.3,0.7,0.9,1.3,1.8,1.9c1.2,0.7,2.6,1,3.9,1h2v1.6h-25.1v-1.6h2.1c2.4,0,4.2-0.7,5.3-2.1
			c0.7-0.9,1-3.2,1-6.7v-38c0-3-0.2-5-0.6-5.9c-0.3-0.7-0.9-1.3-1.8-1.8c-1.3-0.7-2.6-1-4-1h-2.1v-1.6H333v1.6h-2
			c-1.4,0-2.7,0.3-3.9,1c-0.9,0.5-1.5,1.2-1.9,2.1c-0.3,0.9-0.5,2.8-0.5,5.7v18c0.6-0.5,2.6-2.4,5.9-5.5
			c8.6-7.9,13.8-13.1,15.6-15.7c0.8-1.2,1.2-2.2,1.2-3c0-0.7-0.3-1.3-0.9-1.8c-0.6-0.5-1.6-0.8-3.1-0.8H342v-1.6h21.6v1.6
			c-1.3,0-2.4,0.2-3.5,0.5s-2.3,0.9-3.8,1.8c-1.5,0.9-3.4,2.4-5.6,4.4c-0.6,0.6-3.6,3.5-8.8,8.9L333,333.5z"/>
		<path style="fill:#E6E7E8;" d="M413.6,306v20.3H412c-0.5-3.9-1.5-7-2.8-9.3s-3.3-4.2-5.7-5.5c-2.5-1.4-5.1-2-7.7-2
			c-3,0-5.5,0.9-7.5,2.8s-2.9,3.9-2.9,6.3c0,1.8,0.6,3.4,1.9,4.9c1.8,2.2,6.1,5.1,12.8,8.7c5.5,3,9.2,5.2,11.3,6.8
			c2,1.6,3.6,3.4,4.6,5.6c1.1,2.1,1.6,4.4,1.6,6.7c0,4.5-1.7,8.3-5.2,11.5c-3.5,3.2-7.9,4.8-13.3,4.8c-1.7,0-3.3-0.1-4.8-0.4
			c-0.9-0.1-2.8-0.7-5.6-1.6c-2.8-0.9-4.6-1.4-5.4-1.4c-0.7,0-1.3,0.2-1.7,0.7c-0.4,0.4-0.7,1.3-0.9,2.7H379v-20.2h1.6
			c0.8,4.2,1.8,7.4,3,9.5s3.2,3.8,5.8,5.2c2.6,1.4,5.5,2.1,8.6,2.1c3.6,0,6.5-1,8.6-2.9c2.1-1.9,3.1-4.2,3.1-6.8
			c0-1.4-0.4-2.9-1.2-4.4c-0.8-1.5-2-2.8-3.7-4.1c-1.1-0.9-4.2-2.7-9.2-5.5c-5-2.8-8.6-5.1-10.7-6.7c-2.1-1.7-3.7-3.5-4.8-5.6
			c-1.1-2-1.6-4.3-1.6-6.7c0-4.2,1.6-7.9,4.9-10.9c3.2-3.1,7.4-4.6,12.4-4.6c3.1,0,6.4,0.8,9.9,2.3c1.6,0.7,2.8,1.1,3.4,1.1
			c0.8,0,1.4-0.2,1.8-0.7s0.9-1.4,1.1-2.7H413.6z"/>
	</g>
</g>
</svg>
