<?xml version="1.0" encoding="utf-8"?>
<!-- Generator: Adobe Illustrator 22.0.1, SVG Export Plug-In . SVG Version: 6.00 Build 0)  -->
<svg version="1.1" id="Layer_1" xmlns="http://www.w3.org/2000/svg" xmlns:xlink="http://www.w3.org/1999/xlink" x="0px" y="0px"
	 viewBox="0 0 600 400" style="enable-background:new 0 0 600 400;" xml:space="preserve">
<style type="text/css">
	.st0{fill:#39B54A;}
	.st1{fill:#58595B;}
</style>
<g>
	<path class="st0" d="M17.8,225.8l-7.4-87.6h33.7l-5.4,88.7L17.8,225.8z M44.5,109.7c0,2.4-0.5,4.6-1.4,6.7
		c-0.9,2.1-2.2,3.9-3.7,5.5c-1.6,1.6-3.4,2.8-5.5,3.7c-2.1,0.9-4.4,1.4-6.7,1.4c-2.4,0-4.6-0.5-6.6-1.4c-2.1-0.9-3.9-2.2-5.4-3.7
		c-1.6-1.6-2.8-3.4-3.7-5.5c-0.9-2.1-1.4-4.4-1.4-6.7c0-2.4,0.5-4.6,1.4-6.6c0.9-2.1,2.2-3.9,3.7-5.4c1.6-1.6,3.4-2.8,5.4-3.7
		c2.1-0.9,4.3-1.4,6.6-1.4c2.4,0,4.6,0.5,6.7,1.4c2.1,0.9,3.9,2.2,5.5,3.7c1.6,1.6,2.8,3.4,3.7,5.4
		C44.1,105.1,44.5,107.3,44.5,109.7z"/>
	<path class="st1" d="M118.9,211.9l-0.6-33.3l-34.5,4.5l-0.5,56.1L57.9,245L55.3,92.2c15.2,1.6,29.5,3,29.5,3L84,165.6h33.7
		l-1.3-57.9l29.4-0.6l-2.4,108.7L118.9,211.9z"/>
	<path class="st1" d="M226.3,219.8l-15.7,3l0.5-14.6c-1.2,1.5-2.7,2.8-4.5,4c-1.8,1.1-3.8,2.1-5.9,2.8c-2.1,0.7-4.2,1.2-6.4,1.5
		c-2.2,0.3-4.2,0.5-6.2,0.5c-13.5,0-23.2-3.2-29.2-9.7c-5.9-6.5-8.9-16.3-8.9-29.4c0-5.1-0.1-31.7,0.6-44.3l26.8-0.3
		c-0.8,7.8-1.6,16-2.7,24.6c-1,8.6-1.5,16.7-1.5,24.4c0,6.8,1.5,11.8,4.5,14.9c3,3.1,7.9,4.7,14.8,4.7c3.5,0,6.9-1,10.4-2.9
		c3.5-1.9,6.2-4.3,8.3-7l2.1-41.5l0.9-14.7l25.9,0.1l-11,69.1L226.3,219.8z"/>
	<path class="st1" d="M300.3,226.3V178c0-5.7-1.4-10.3-4.3-13.7c-2.9-3.4-7.2-5.1-13.1-5.1c-2.9,0-6,0.5-9.3,1.5
		c-3.3,1-5.8,2.8-7.4,5.5l-3.6,50.6c1.1,0.9-18,1-18,1l-5.8-74.3l29.1-5.1l-0.8,9.9c3.8-1.5,7.8-3,12.2-4.5
		c4.3-1.5,8.5-2.3,12.7-2.3c9.8,0,17.5,2.7,22.9,7.9c5.4,5.3,8.1,12.9,8.1,22.9c0,2.5-3.8,52.1-4.2,54.7L300.3,226.3z"/>
	<path class="st1" d="M428.3,137.5c0,1.9-0.4,3.8-1.1,5.7c-0.8,1.8-1.8,3.5-3.1,4.9c-1.3,1.5-2.8,2.7-4.5,3.6
		c-1.7,0.9-3.6,1.4-5.5,1.4c-4,0-7.2-1.4-9.7-4.2c-2.4-2.8-3.6-6.1-3.6-9.9v-0.6c-0.5-0.1-1.1,0.2-1.7,1.1c-0.6,0.8-1.2,1.8-1.8,2.8
		c-0.6,1.1-1.1,2.1-1.6,3.2c-0.5,1-0.8,1.8-1.1,2.2c6.5,3.7,11.6,8.6,15.5,14.7c3.8,6.1,5.8,12.9,5.8,20.4c0,5.8-1.2,11.3-3.6,16.4
		c-2.4,5.1-5.7,9.5-9.7,13.2c-4.1,3.7-8.7,6.6-14,8.8c-5.3,2.1-10.8,3.2-16.5,3.2c-2.2,0-4.3-0.1-6.5-0.2c-2.2-0.2-4.3-0.5-6.5-1.1
		c-1.5,1-2.3,2.1-2.3,3.4c0,1.3,1.1,2.3,3.2,3c2.1,0.7,4.5,1.2,7.1,1.5c2.6,0.3,5.2,0.5,7.8,0.6c2.5,0.1,4.2,0.2,5.1,0.2
		c5.8,0.3,11.5,1.4,17,3.1c5.5,1.7,10.4,4.2,14.7,7.5c4.3,3.3,7.7,7.4,10.2,12.2c2.5,4.9,3.8,10.5,3.8,17c0,6.8-1.7,12.5-5.2,17.2
		c-3.5,4.6-7.8,8.4-13.1,11.2c-5.2,2.8-11,4.8-17.2,6.1c-6.2,1.2-12.1,1.9-17.6,1.9c-5.6,0-11.5-0.6-17.8-1.9
		c-6.2-1.2-11.9-3.3-17.2-6.1c-5.2-2.8-9.6-6.5-13.1-11.2c-3.5-4.7-5.2-10.4-5.2-17.2c0-6.8,1.9-12.4,5.7-16.9
		c3.8-4.4,8.5-8.2,14.3-11.2c-2.8-1.2-5.2-2.8-7.3-4.7c-2.1-1.9-3.1-4.5-3.1-7.8c0-1.9,0.4-3.7,1.2-5.3c0.8-1.6,1.9-2.9,3.2-4.1
		c1.4-1.1,2.9-2.1,4.5-2.9c1.7-0.8,3.3-1.5,4.9-2c-5.8-3.8-10.5-8.6-14.1-14.5c-3.6-5.9-5.4-12.4-5.4-19.5c0-6.2,1.3-11.8,3.9-16.9
		c2.6-5.1,6.1-9.5,10.4-13.2c4.3-3.7,9.3-6.5,14.8-8.6c5.6-2.1,11.3-3.1,17.1-3.1c3.9,0,7.9,0.5,12,1.5c1.2-2.6,2.6-5.2,4.2-7.7
		c1.6-2.5,3.5-4.8,5.5-6.9c2.1-2.1,4.4-3.7,7-5s5.5-1.9,8.6-1.9c2.4,0,4.8,0.4,7.4,1.1c2.5,0.8,4.8,1.9,6.9,3.3
		c2.1,1.5,3.8,3.2,5.1,5.3C427.6,132.5,428.3,134.8,428.3,137.5z M400.2,271.5c0-4-0.8-7.5-2.3-10.4c-1.5-2.9-3.6-5.4-6.2-7.3
		c-2.6-1.9-5.6-3.4-8.9-4.3c-3.4-0.9-6.8-1.4-10.4-1.4c-3.6,0-7,0.5-10.4,1.4c-3.4,0.9-6.3,2.4-8.8,4.3c-2.5,1.9-4.6,4.4-6.1,7.3
		c-1.5,2.9-2.3,6.4-2.3,10.4c0,4,0.8,7.5,2.3,10.4c1.5,2.9,3.5,5.3,6.1,7.2c2.5,1.9,5.5,3.3,8.8,4.2c3.4,0.9,6.8,1.4,10.4,1.4
		c3.6,0,7-0.5,10.4-1.4c3.4-0.9,6.3-2.3,8.9-4.2c2.6-1.9,4.6-4.3,6.2-7.2C399.4,279,400.2,275.5,400.2,271.5z M391.1,182.6
		c0-3-0.4-6.3-1.3-9.8c-0.9-3.5-2.2-6.7-4-9.6c-1.8-2.9-4-5.4-6.7-7.3c-2.7-1.9-5.9-2.9-9.6-2.9c-3.7,0-6.9,1-9.6,2.9
		c-2.7,1.9-5,4.4-6.8,7.3c-1.8,2.9-3.2,6.1-4.1,9.6c-0.9,3.5-1.4,6.8-1.4,9.9c0,3.1,0.5,6.5,1.4,10c0.9,3.5,2.3,6.7,4.1,9.7
		c1.8,2.9,4.1,5.4,6.8,7.3c2.8,1.9,6,2.9,9.7,2.9c3.7,0,6.9-1,9.6-2.9c2.7-1.9,4.9-4.4,6.7-7.4c1.8-3,3.1-6.2,4-9.6
		C390.7,189.1,391.1,185.8,391.1,182.6z"/>
	<path class="st1" d="M508.9,189.1c0,0.8,0,1.5-0.1,2.3c-0.1,0.8-0.1,1.5-0.1,2.3l-66,1.3c1.4,6.4,4.6,11.1,9.6,14.1
		c5,3,10.6,4.5,16.9,4.5c3,0,6.1-0.2,9.2-0.6c3.1-0.4,6.2-1.1,9.2-2.1c3-1,5.9-2.2,8.6-3.8c2.7-1.6,5.1-3.4,7.3-5.6
		c-1.2,4.5-3.2,8.5-6,12c-2.8,3.5-6.1,6.3-10,8.6c-3.8,2.3-8,4-12.5,5.1c-4.5,1.1-8.9,1.7-13.4,1.7c-6.1,0-11.8-1.1-17.3-3.2
		c-5.5-2.2-10.2-5.1-14.3-8.9c-4.1-3.8-7.3-8.3-9.6-13.6c-2.4-5.3-3.6-11.1-3.6-17.4c0-6.6,1.4-12.6,4.1-18
		c2.7-5.4,6.3-10,10.7-13.9c4.4-3.8,9.6-6.8,15.4-8.8c5.8-2.1,11.9-3.1,18.3-3.1c6.7,0,12.7,1.2,18.1,3.7c5.4,2.5,9.9,5.9,13.7,10.2
		c3.8,4.3,6.7,9.3,8.7,15C507.9,176.5,508.9,182.6,508.9,189.1z M484.1,180.8c-0.2-2.9-0.8-5.7-1.8-8.4c-1-2.7-2.3-5.1-4.1-7.1
		c-1.7-2.1-3.8-3.7-6.2-4.9c-2.4-1.2-5.3-1.9-8.5-1.9c-3.2,0-6.1,0.6-8.4,1.8c-2.4,1.2-4.4,2.8-6,4.8c-1.6,2-2.9,4.3-4,7
		c-1,2.7-1.8,5.4-2.4,8.2L484.1,180.8z"/>
	<path class="st1" d="M590,160.1c0,4.4-1.4,8.1-4.1,10.9c-2.7,2.9-6.3,4.3-10.9,4.3c-3.4,0-5.9-0.6-7.8-1.9
		c-1.8-1.2-3.4-2.6-4.6-4.2c-1.2-1.6-2.5-3-3.7-4.2c-1.2-1.2-3-1.9-5.3-1.9c-4,0-7.2,1.3-9.6,3.8c-2.4,2.5-4.2,5.5-5.4,9
		c-0.1,0.2-1.6,50.3-1.6,51.1c0,0-14,2.4-23.5,3.7l-4.8-84.2l30.9-6.9l-0.3,14.9c4.5-3.1,9.2-5.8,14-8c4.8-2.2,10.1-3.3,16-3.3
		c1.9,0,3.9,0.2,6,0.6c2.1,0.4,4,1.1,5.8,1.9c1.8,0.9,3.5,2,4.9,3.5c1.4,1.5,2.4,3.2,3.1,5.3C589.7,156.6,590,158.4,590,160.1z"/>
</g>
</svg>
