<?xml version="1.0" encoding="utf-8"?>
<!-- Generator: Adobe Illustrator 22.0.1, SVG Export Plug-In . SVG Version: 6.00 Build 0)  -->
<svg version="1.1" id="Layer_1" xmlns="http://www.w3.org/2000/svg" xmlns:xlink="http://www.w3.org/1999/xlink" x="0px" y="0px"
	 viewBox="0 0 600 400" style="enable-background:new 0 0 600 400;" xml:space="preserve">
<style type="text/css">
	.st0{fill:#376596;}
</style>
<g>
	<g>
		<path class="st0" d="M33.2,281.8c15.6-4.9,32.7-9.9,49.5-15.8c6.5-2.3,12.7-6.2,18.2-10.4c9-6.9,11.3-16.4,4.8-25.7
			c-6.7-9.5-14.8-18.4-23.6-26.1c-11.2-9.9-23.7-18.4-35.9-27.6c11.5,2,22.9,4.3,34.4,5.8c14.5,2,29.1,4.2,43.6,0.6
			c13.4-3.3,18.4-11.4,15.7-25c-3.6-17.7-13.3-32.6-22.3-47.9c-4-6.7-8.4-13.2-12.1-20.4c6.4,4,12.6,8.5,19.2,12.1
			c13.6,7.3,27.2,14.4,41.2,20.8c4.8,2.2,10.8,3.1,16.1,2.6c10.2-0.9,16.1-9.2,17.3-21.6c2.2-22.3-2.5-43.9-6.4-65.6
			c-0.4-2.4-0.9-4.8-1.6-8.1c6.8,9.4,12.6,18.3,19.4,26.5c8.3,9.9,16.6,20,26.3,28.5c16.3,14.4,29.7,11.4,40-7.8
			c10.1-18.8,14.4-39.5,19.4-60c0.5-2.2,1-4.4,2.4-6.8c1.7,7,3,14,5.1,20.8c4.5,14.3,9.2,28.5,14.2,42.6c1.2,3.3,3.4,6.4,5.5,9.3
			c8.8,12.2,19.6,14.8,31.4,5.5c10.1-7.9,19-17.6,27.4-27.3c8.2-9.5,15.1-20.1,22.8-30.5c-2,11.5-4.2,22.7-5.7,33.9
			c-2.1,15.1-4.4,30.2-0.6,45.3c3.1,12.3,11.4,17.3,24,14.9c18-3.5,33.1-13.2,48.4-22.3c6.8-4.1,13.4-8.5,21.4-13.7
			c-6,9.5-11.7,17.3-16.1,25.8c-6.7,12.8-13.8,25.5-18.5,39.1c-6.3,18.1,2.3,28.9,21.3,30.5c19.6,1.6,38.6-2.1,57.7-5.3
			c4.5-0.7,8.9-1.7,14.7-2.8c-8.8,6.4-16.8,11.6-24.2,17.7c-9.9,8.1-19.4,16.6-28.7,25.3c-3.1,2.9-5.5,6.8-7.7,10.6
			c-5.9,10.4-4.1,19.2,5.2,26.8c11.1,8.9,24.4,13,37.8,17c10.4,3.1,20.9,5.7,32.4,8.7c-7.6,0-14.1,0-20.6,0c-75.1,0-235,0-235,0
			l0.6-110.6h42.9l0.2-23.4l-43.6,0l0-47l-24,0v46.6h-44.6l-0.4,24h44.4l0.4,110.5C286.9,281.8,114.4,281.8,33.2,281.8z"/>
		<g>
			<path class="st0" d="M59.9,373.9c0,10.7-5.3,16.1-15.9,16.1c-2.4,0-6-0.5-10.8-1.6v-10.2c3.9,1.5,6.8,2.3,8.8,2.3
				c2.1,0,3.7-0.7,4.9-2.2c1.2-1.5,1.8-3.5,1.8-6.2v-66.3h11.2V373.9z"/>
			<path class="st0" d="M74.4,347.1c0-18,1.8-29.6,5.3-34.9c3.5-5.3,9.4-7.9,17.5-7.9c9.3,0,15.5,3,18.5,8.9
				c3.1,5.9,4.6,16.6,4.6,32c0,13.8-0.7,23.4-2.1,28.7s-3.7,9.3-7.1,11.8c-3.4,2.5-7.9,3.8-13.7,3.8c-5.9,0-10.5-1.2-13.7-3.5
				c-3.2-2.3-5.5-6.1-7.1-11.3C75.2,369.4,74.4,360.2,74.4,347.1z M108.6,347.8c0-15.7-0.9-25.5-2.8-29.2c-1.8-3.7-4.6-5.6-8.3-5.6
				c-4.4,0-7.3,2.2-8.9,6.7c-1.6,4.4-2.4,11.9-2.4,22.5v4.6c0,11.7,0.7,20.3,2,25.7c1.3,5.4,4.4,8.1,9.4,8.1c3,0,5.7-1.5,7.8-4.6
				c2.2-3,3.3-11.4,3.3-25.2V347.8z"/>
			<path class="st0" d="M169.5,305.9l-16.1,47.6v35.3h-11.2V354l-15.8-48.1h11.1l10.3,37.4l0.2-0.1l10.4-37.3H169.5z"/>
			<path class="st0" d="M210.4,315.3h-19.1v26.2h17.1v9.4h-17.1v37.9h-11.1v-82.9h30.1V315.3z"/>
			<path class="st0" d="M262.8,369.2c0,13.8-6.2,20.8-18.6,20.8c-13.6,0-20.4-6.9-20.4-20.6V306h11.1v58.7c0,6.3,0.5,10.6,1.6,13.1
				c1.1,2.4,3.5,3.6,7.1,3.6c3.6,0,5.9-1.3,6.8-3.8c0.9-2.5,1.4-7,1.4-13.5v-58h11.1V369.2z"/>
			<path class="st0" d="M308.9,388.8h-30v-82.9H290v73.6h18.8V388.8z"/>
			<path class="st0" d="M385.7,388.8h-8.8l-21.2-56.9l-0.3,0v56.9h-10v-82.9h8.9l21.2,56.9l0.3,0v-57h9.8V388.8z"/>
			<path class="st0" d="M401.4,347.1c0-18,1.8-29.6,5.3-34.9c3.5-5.3,9.4-7.9,17.5-7.9c9.3,0,15.5,3,18.5,8.9
				c3.1,5.9,4.6,16.6,4.6,32c0,13.8-0.7,23.4-2.1,28.7s-3.7,9.3-7.1,11.8c-3.4,2.5-7.9,3.8-13.7,3.8c-5.9,0-10.5-1.2-13.7-3.5
				c-3.2-2.3-5.5-6.1-7.1-11.3S401.4,360.2,401.4,347.1z M435.6,347.8c0-15.7-0.9-25.5-2.8-29.2c-1.8-3.7-4.6-5.6-8.3-5.6
				c-4.4,0-7.3,2.2-8.9,6.7s-2.4,11.9-2.4,22.5v4.6c0,11.7,0.7,20.3,2,25.7c1.3,5.4,4.4,8.1,9.4,8.1c3,0,5.7-1.5,7.8-4.6
				c2.2-3,3.3-11.4,3.3-25.2V347.8z"/>
			<path class="st0" d="M464.8,305.9H476v82.9h-11.2V305.9z"/>
			<path class="st0" d="M520.7,316.6c-3.6-2-6.9-2.9-9.8-2.9s-5.4,1-7.5,3.1c-2.1,2.1-3.1,4.6-3.1,7.5c0,2.1,0.6,4.3,1.8,6.7
				c1.2,2.4,4,6.1,8.3,11.3c4.3,5.2,7.6,9.7,9.9,13.5c2.3,3.8,3.4,8.2,3.4,13.2c0,6.2-1.9,11.2-5.6,15c-3.7,3.8-8.6,5.8-14.5,5.8
				c-3.3,0-7.3-1-12.1-2.9v-10c0.1,0,0.3,0.1,0.4,0.2c0.7,0.5,2,1.2,4.1,2.2s4.1,1.5,6.1,1.5c3.3,0,5.9-1.1,8-3.3
				c2.1-2.2,3.2-4.9,3.2-8.3c0-2.3-0.5-4.5-1.6-6.5c-1.1-2-3-4.7-5.8-8.1l-7.5-9.2c-2.9-3.6-5-6.8-6.4-9.8s-2.1-6.5-2.1-10.6
				c0-6,1.8-10.9,5.3-14.7c3.5-3.8,8.1-5.7,13.7-5.7c3.9,0,7.9,1,11.8,2.9V316.6z"/>
			<path class="st0" d="M566.8,388.8h-30v-82.9h29.5v9.4h-18.4v26.3h17.1v9.4h-17.1v28.6h18.9V388.8z"/>
		</g>
	</g>
</g>
</svg>
