<?xml version="1.0" encoding="utf-8"?>
<!-- Generator: Adobe Illustrator 22.0.1, SVG Export Plug-In . SVG Version: 6.00 Build 0)  -->
<svg version="1.1" id="Layer_1" xmlns="http://www.w3.org/2000/svg" xmlns:xlink="http://www.w3.org/1999/xlink" x="0px" y="0px"
	 viewBox="0 0 600 400" style="enable-background:new 0 0 600 400;" xml:space="preserve">
<style type="text/css">
	.st0{fill:#FFFBCC;}
	.st1{fill:#492C09;}
	.st2{fill:#CA6A28;}
</style>
<rect class="st0" width="600" height="400"/>
<g>
	<g>
		<path class="st1" d="M139.2,230.8c0,6,0.2,8.7,0.4,10c1.5,0.1,3.1,0.3,4.9,0.4c0,0.8-0.1,1.5-0.2,2h-5.1c-0.8,0-1.7-0.1-2.5-0.1
			c-0.9,0-1.8,0.1-2.6,0.1h-3.2c-0.2-0.7-0.3-1.4-0.3-2.1c1-0.3,2.1-0.6,3.3-0.9c0.1-1.6,0.2-4.9,0.2-11.1c0-8.9-0.2-12.5-0.3-13.8
			c-1.1-0.1-2.3-0.3-3.7-0.4c0-0.8,0.1-1.5,0.2-2h3.8c1.1,0,1.8,0,2.6,0c2.4,0,4.1-0.3,6.5-0.3c7.5,0,11.2,2.6,11.2,7.9
			c0,5.7-4.3,10.5-12.1,10.5C141.2,231,140.1,230.9,139.2,230.8z M142.9,215.3c-1.2,0-2.6,0.2-3.8,0.5c0,1.5,0.1,4.8,0.1,12
			c1.5,0.4,3.4,0.6,5,0.6c3-1.1,4.9-3.8,4.9-7.3C149.1,217.2,146.9,215.3,142.9,215.3z"/>
		<path class="st1" d="M176.7,240.1c0.3,0.5,0.5,1.1,0.5,1.7c-1.2,1.2-2.9,1.9-4.4,1.9c-2.7,0-3.4-2-3.6-4.7
			c-1.4,2.6-3.6,4.7-6.8,4.7c-3.2,0-5.7-2.2-5.7-5.8c0-3.8,3-6,7.7-6c1.8,0,3.5,0.4,4.8,0.8c0-0.2,0-0.3,0-0.5v-1.7
			c0-3.5-1.5-5.9-4.5-5.9c-1.3,0-2.5,0.4-3.4,0.9c0,1.3,0.1,2.7,0.3,3.9c-0.6,0.3-1.3,0.4-2,0.5c-0.9-1.8-1.4-3.6-1.8-5.6
			c2.3-1.4,5.3-2.2,8.1-2.2c4.2,0,8.2,1.8,8.2,8c0,1.3-0.2,3.3-0.2,5.4c0,2.5,0.2,4.3,0.4,5.2C175.2,240.5,176,240.3,176.7,240.1
			L176.7,240.1z M165.4,240.6c1.6-1,3.1-3.1,3.7-6.2c-1-0.3-2.2-0.5-3.3-0.5c-2.7,0-4.4,1.1-4.4,3.3
			C161.3,239.4,162.7,240.6,165.4,240.6L165.4,240.6z"/>
		<path class="st1" d="M200.2,239.4c0.9,0.3,1.9,0.6,2.9,0.9c0,0.7-0.1,1.3-0.2,2c-2.1,0.2-4.2,0.8-6.1,1.4h0c0,0-1-1.8-1.4-5.9
			c-1.3,3.2-4.1,5.9-8,5.9c-3.8,0-6.4-2.4-6.4-7.3c0-2.2,0.1-5.5,0.1-8.3c0-0.8,0-1.5-0.1-2.1c-0.8-0.3-1.5-0.5-2.3-0.7
			c0-0.7,0.1-1.3,0.2-2c2-0.2,3.9-0.8,5.8-1.4c0.7,0.2,1.3,0.6,1.7,1.3c-0.1,0.8-0.4,7.7-0.4,11c0,4.5,1.3,6.2,5,6.2
			c2.3-1.5,4.3-5,4.3-12.4c0-0.9,0-1.6-0.1-2.1c-0.7-0.3-1.5-0.4-2.3-0.6c0-0.7,0.1-1.3,0.2-2c2-0.2,3.9-0.8,5.8-1.4
			c0.7,0.2,1.3,0.6,1.7,1.3c-0.2,0.8-0.4,2.7-0.4,9C200,235.9,200.1,238.2,200.2,239.4L200.2,239.4z"/>
		<path class="st1" d="M213,240.9c0.8,0.1,1.6,0.2,2.6,0.3c0,0.8-0.1,1.5-0.2,2h-2.6c-0.8,0-1.6-0.1-2.5-0.1c-0.8,0-1.6,0.1-2.5,0.1
			h-2c-0.2-0.7-0.3-1.4-0.3-2.1c0.6-0.3,1.3-0.5,2.1-0.7c0.1-1.8,0.2-5.6,0.2-13.6c0-6.9-0.1-10.4-0.2-12c-0.9-0.3-1.8-0.5-2.7-0.7
			c0-0.7,0.1-1.3,0.2-2c2.1-0.2,4.2-0.8,6.1-1.4c0.7,0.2,1.3,0.7,1.7,1.3h0h0c0,0-0.3,1.8-0.3,14C212.7,235.4,212.9,239.3,213,240.9
			L213,240.9z"/>
		<path class="st1" d="M238.1,240.1c0.3,0.5,0.5,1.1,0.5,1.7c-1.2,1.2-2.9,1.9-4.4,1.9c-2.7,0-3.4-2-3.6-4.7
			c-1.4,2.6-3.6,4.7-6.8,4.7c-3.2,0-5.7-2.2-5.7-5.8c0-3.8,3-6,7.7-6c1.8,0,3.5,0.4,4.8,0.8c0-0.2,0-0.3,0-0.5v-1.7
			c0-3.5-1.5-5.9-4.5-5.9c-1.3,0-2.5,0.4-3.4,0.9c0,1.3,0.1,2.7,0.3,3.9c-0.6,0.3-1.3,0.4-2,0.5c-0.9-1.8-1.4-3.6-1.8-5.6
			c2.3-1.4,5.3-2.2,8.1-2.2c4.2,0,8.2,1.8,8.2,8c0,1.3-0.2,3.3-0.2,5.4c0,2.5,0.2,4.3,0.4,5.2C236.6,240.5,237.4,240.3,238.1,240.1
			L238.1,240.1z M226.8,240.6c1.6-1,3.1-3.1,3.7-6.2c-1-0.3-2.2-0.5-3.3-0.5c-2.7,0-4.4,1.1-4.4,3.3
			C222.7,239.4,224.1,240.6,226.8,240.6L226.8,240.6z"/>
		<path class="st1" d="M266.1,212.3c4.2,0,7.5,1.7,9.2,3.7c-0.5,2.8-1.3,5.5-2.3,8c-0.7,0-1.5-0.2-2.2-0.5c0.3-1.9,0.4-3.9,0.5-5.7
			c-1.2-1.1-3.7-2.7-7.4-2.7c-3.9,1.6-6.2,6.4-6.2,12.5c0,8.6,4.3,12.3,9,12.3c2.8,0,6.1-1.3,7.8-2.3c0.5,0.8,0.7,1.6,0.7,2.4
			c-2.1,1.5-6.3,3.6-10.7,3.6c-7.2,0-12.3-5.4-12.3-14.8C252.3,219,257.8,212.3,266.1,212.3L266.1,212.3z"/>
		<path class="st1" d="M288,222c5.9,0,9.6,3.8,9.6,10.3c0,6.8-4.1,11.4-10.5,11.4c-5.9,0-9.6-3.8-9.6-10.3
			C277.5,226.6,281.6,222,288,222L288,222z M282.5,232.7c0,4.6,1.6,8.6,7,8.5c2-1.2,3.2-4.2,3.2-8.2c0-4.6-1.6-8.6-7-8.5
			C283.7,225.7,282.5,228.7,282.5,232.7z"/>
		<path class="st1" d="M311,222c5.9,0,9.6,3.8,9.6,10.3c0,6.8-4.1,11.4-10.5,11.4c-5.9,0-9.6-3.8-9.6-10.3
			C300.5,226.6,304.6,222,311,222L311,222z M305.5,232.7c0,4.6,1.6,8.6,7,8.5c2-1.2,3.2-4.2,3.2-8.2c0-4.6-1.6-8.6-7-8.5
			C306.7,225.7,305.5,228.7,305.5,232.7z"/>
		<path class="st1" d="M345.6,231.8c0,7.4-4.4,11.9-10.2,11.9c-1.6,0-3.1-0.3-4.4-1c0,4.6,0.1,7.1,0.2,8.2c1.1,0.1,2.3,0.2,3.7,0.3
			c0,0.8-0.1,1.5-0.2,2H331h0c-0.8,0-1.6-0.1-2.5-0.1s-1.6,0.1-2.5,0.1h-2c-0.2-0.7-0.3-1.4-0.3-2.1c0.6-0.3,1.3-0.5,2.1-0.7
			c0.1-1.4,0.2-4.3,0.2-10.3c0-8.7-0.1-12.5-0.2-14c-0.8-0.3-1.7-0.5-2.5-0.7c0-0.7,0.1-1.3,0.2-2c2-0.2,4.1-0.8,5.9-1.4
			c0.5,0.2,0.9,0.4,1.3,0.8c-0.3,0.7-0.5,2-0.4,5.7c1.1-3.4,4-6.5,7.9-6.5C342.9,222,345.6,226,345.6,231.8z M340.6,232.5
			c0-5.2-2.1-7.3-5.4-7.5c-4.3,2.7-4.4,9.6-4.4,14.4c0.7,0.7,2,1.7,3.9,1.7C338.3,241.2,340.6,237.9,340.6,232.5z"/>
		<path class="st1" d="M365,238.8c0.4,0.7,0.6,1.4,0.7,2.1c-2.4,1.7-5.4,2.7-8.2,2.7c-5.3,0-9-3.8-9-10.4c0-7.1,4.5-11.3,10.4-11.3
			c4.5,0,7.2,2.4,7.2,6.1c0,1.7-0.6,3.1-1.6,3.9c-3.8,0-7.5,0-11.3,0c0,0,0,0.1,0,0.1c0,5.3,2.7,8.2,6.6,8.2
			C361.4,240.3,363.3,239.8,365,238.8z M353.3,230.3c2.6,0,5.3,0,7.9,0c0.2-0.8,0.4-1.6,0.4-2.4c0-2.6-2-3.9-5.2-3.6
			C354.5,225.6,353.6,228,353.3,230.3z"/>
		<path class="st1" d="M382.6,222c1,0,2,0.3,2.7,0.8c-0.5,2.5-1.2,4.9-2,7.1c-0.6,0-1.3-0.1-1.9-0.3c0.1-1.3,0.2-2.7,0.2-4
			c-0.6-0.3-1.2-0.5-1.7-0.5c-2.2,1.7-3.9,5.2-3.9,12.4c0,1.6,0.1,2.7,0.2,3.3c1.1,0.1,2.3,0.2,3.7,0.3c0,0.8-0.1,1.5-0.2,2H376
			c-0.8,0-1.6-0.1-2.5-0.1c-0.8,0-1.7,0.1-2.5,0.1h-2c-0.2-0.7-0.3-1.4-0.3-2.1c0.6-0.2,1.3-0.5,2-0.7c0.1-1.1,0.3-3.2,0.3-7
			c0-4-0.1-6.2-0.2-7.3c-0.8-0.3-1.7-0.5-2.5-0.7c0-0.7,0.1-1.3,0.2-2c2-0.2,4.1-0.8,5.9-1.4c0.5,0.2,0.9,0.4,1.3,0.8
			c-0.4,0.9-0.5,2.4-0.3,5.6C376.8,224.8,379.2,222,382.6,222L382.6,222z"/>
		<path class="st1" d="M434.1,240.8c1,0.1,2.2,0.2,3.5,0.4c0,0.8-0.1,1.5-0.2,2h-3.8c-0.8,0-1.6-0.1-2.4-0.1c-0.8,0-1.6,0.1-2.4,0.1
			h0h-3.4c0-0.1-0.3-1.1-0.3-2.2c0.9-0.3,2-0.6,3.2-0.9c0-4.5-1.1-17.7-1.1-21.7c-2.2,4.8-8.1,20.6-8.5,23c-0.9,0.4-1.9,0.7-3,0.6
			c-2-2.4-7.3-17-9.1-23.6c-0.7,5.9-2,19.1-1.4,22.3c1,0.2,2.1,0.3,3.3,0.4c0,1-0.2,1.9-0.2,2.1h-3.1c-0.6,0-1.2,0-1.8,0
			c-0.6,0-1.2,0-1.8,0H398c-0.2-0.7-0.3-1.4-0.3-2.1c1-0.3,2-0.6,3.2-0.9c0.9-4.4,2.5-21.4,2.5-24.8c-1.1-0.2-2.2-0.3-3.4-0.4
			c0-1,0.2-1.9,0.2-2.1h3.1c1.6,0,3.9-0.1,5.5-0.2c0.4,1.8,6.2,16.4,8.7,21.6c2.9-7.1,7.4-18.9,8.1-21.4c0.9,0,2,0.1,2.9,0.1
			c0.9,0,1.9-0.1,2.8-0.1v0h3.4c0,0.1,0.3,1.1,0.3,2.2c-1,0.3-2.4,0.7-3.7,1.1C431.7,220.8,433.2,237,434.1,240.8L434.1,240.8z"/>
		<path class="st1" d="M459.6,240.1c0.3,0.5,0.5,1.1,0.5,1.7c-1.2,1.2-2.9,1.9-4.4,1.9c-2.7,0-3.4-2-3.6-4.7
			c-1.4,2.6-3.6,4.7-6.8,4.7c-3.2,0-5.7-2.2-5.7-5.8c0-3.8,3-6,7.7-6c1.8,0,3.5,0.4,4.8,0.8c0-0.2,0-0.3,0-0.5v-1.7
			c0-3.5-1.5-5.9-4.5-5.9c-1.3,0-2.5,0.4-3.4,0.9c0,1.3,0.1,2.7,0.3,3.9c-0.6,0.3-1.3,0.4-2,0.5c-0.9-1.8-1.4-3.6-1.8-5.6
			c2.3-1.4,5.3-2.2,8.1-2.2c4.2,0,8.2,1.8,8.2,8c0,1.3-0.2,3.3-0.2,5.4c0,2.5,0.2,4.3,0.4,5.2C458.1,240.5,458.9,240.3,459.6,240.1
			L459.6,240.1z M448.2,240.6c1.6-1,3.1-3.1,3.7-6.2c-1-0.3-2.2-0.5-3.3-0.5c-2.7,0-4.4,1.1-4.4,3.3
			C444.1,239.4,445.5,240.6,448.2,240.6L448.2,240.6z"/>
		<path class="st1" d="M475.9,241.8c-1,0.8-3.3,1.9-5.8,1.9c-3.2,0-5.8-1.5-5.8-6.7c0-6.2,0-9.3,0.1-10.8c-0.9-0.3-1.8-0.5-2.8-0.7
			c0-0.7,0.1-1.3,0.2-2c1-0.1,2-0.3,3-0.5c0.5-1.8,1-3.8,1.2-5.7c1-0.1,2.2-0.1,3.2-0.2c0,0.8,0.3,2.7,0.3,4.3
			c0,0.8-0.1,1.4-0.2,1.8c1.7,0,3.4-0.1,5.2-0.1c0.1,0.6,0.3,1.4,0.3,2.3c-2,0.1-3.8,0.3-5.4,0.5c-0.1,1.4-0.3,4.2-0.3,9.6
			c0,3.8,1.3,4.8,3.3,4.8c1.6,0,3-0.7,3-0.7C475.7,240.4,475.8,241.1,475.9,241.8z"/>
		<path class="st1" d="M490.9,241.8c-1,0.8-3.3,1.9-5.8,1.9c-3.2,0-5.8-1.5-5.8-6.7c0-6.2,0-9.3,0.1-10.8c-0.9-0.3-1.8-0.5-2.8-0.7
			c0-0.7,0.1-1.3,0.2-2c1-0.1,2-0.3,3-0.5c0.5-1.8,1-3.8,1.2-5.7c1-0.1,2.2-0.1,3.2-0.2c0,0.8,0.3,2.7,0.3,4.3
			c0,0.8-0.1,1.4-0.2,1.8c1.7,0,3.4-0.1,5.2-0.1c0.1,0.6,0.3,1.4,0.3,2.3c-2,0.1-3.8,0.3-5.4,0.5c-0.1,1.4-0.3,4.2-0.3,9.6
			c0,3.8,1.3,4.8,3.3,4.8c1.6,0,3-0.7,3-0.7C490.7,240.4,490.8,241.1,490.9,241.8z"/>
		<path class="st1" d="M516.9,241.1c0,0.8-0.1,1.5-0.2,2h-2.6c-0.8,0-1.6-0.1-2.5-0.1c-0.8,0-1.6,0.1-2.5,0.1h-2
			c-0.2-0.7-0.3-1.4-0.3-2.1c0.6-0.2,1.3-0.5,2-0.7c0.1-1.3,0.3-4.1,0.3-9.7c0-3.9-1.2-5.5-4.8-5.6c-2,1.4-4.3,4.8-4.3,11.7
			c0,2,0.1,3.3,0.2,4c0.8,0.1,1.7,0.2,2.6,0.3c0,0.8-0.1,1.5-0.2,2h-2.6c-0.8,0-1.6-0.1-2.5-0.1s-1.6,0.1-2.5,0.1h-2
			c-0.2-0.7-0.3-1.4-0.3-2.1c0.6-0.2,1.3-0.5,2-0.7c0.1-1.8,0.2-5.6,0.2-13.7c0-6.9-0.1-10.3-0.2-12c-0.9-0.3-1.7-0.5-2.6-0.6
			c0-0.7,0.1-1.3,0.2-2c2.1-0.2,4.2-0.8,6.1-1.4c0.7,0.2,1.3,0.7,1.7,1.3c0,0-0.3,1.6-0.3,9.2c0,3.3-0.1,5-0.1,6.3
			c1.4-3.1,4.2-5.5,7.8-5.5c3.9,0,6.4,2.4,6.4,7c0,2.8-0.1,5.4-0.1,8.2c0,2,0.1,3.1,0.1,3.7C515,241,515.9,241,516.9,241.1z"/>
		<path class="st1" d="M535.6,238.8c0.4,0.7,0.6,1.4,0.7,2.1c-2.4,1.7-5.4,2.7-8.2,2.7c-5.3,0-9-3.8-9-10.4
			c0-7.1,4.5-11.3,10.4-11.3c4.5,0,7.2,2.4,7.2,6.1c0,1.7-0.6,3.1-1.6,3.9c-3.8,0-7.5,0-11.3,0c0,0,0,0.1,0,0.1
			c0,5.3,2.7,8.2,6.6,8.2C531.9,240.3,533.9,239.8,535.6,238.8z M523.9,230.3c2.6,0,5.3,0,7.9,0c0.2-0.8,0.4-1.6,0.4-2.4
			c0-2.6-2-3.9-5.2-3.6C525.1,225.6,524.2,228,523.9,230.3z"/>
		<path class="st1" d="M569.2,225.2c-1.6,3.4-5.7,16-6.4,17.9c-1.5,0.1-2.9,0.2-4.4,0.2c-0.7-2.4-2.8-9.6-4.3-13.9
			c-1.4,4-3.7,11.7-4.4,13.7c-1.5,0.1-2.9,0.2-4.4,0.2c-1-3.7-4.6-14.5-6.2-18.6c-0.5-0.1-1-0.1-1.5-0.2c0-0.8,0.1-1.5,0.2-2h2.1v0
			c0.9,0,1.9,0.1,2.8,0.1c0.9,0,1.9-0.1,2.8-0.1h2.5c0.2,0.7,0.3,1.4,0.3,2.1c-0.8,0.3-1.7,0.5-2.7,0.8c0,2.9,2.1,9.5,3.4,13.2
			c1.4-5,4.1-14.3,5.1-15.5c0.9-0.3,1.9-0.4,2.7-0.2c1.3,2,4.2,11.8,5.1,16.4c1.3-4.3,3.7-12.5,3.8-14.5c-0.8-0.1-1.6-0.2-2.6-0.2
			c0-0.8,0.1-1.5,0.2-2h2.8v0v0c0.4,0,0.8,0,1.3,0c0.4,0,0.8,0,1.2,0h1.7c0.2,0.7,0.3,1.4,0.3,2.1
			C570.3,224.8,569.8,225,569.2,225.2z"/>
		<path class="st1" d="M588.2,237c0,4-3.6,6.6-8.6,6.6c-3.1,0-6.2-1.1-8-2.3c0.5-1.8,1.1-3.4,1.8-5c0.7,0,1.4,0.2,2.1,0.4
			c-0.2,0.9-0.2,1.9-0.3,2.8c1.4,1.1,3.7,2,6.4,2c1.1-0.7,1.8-1.8,1.8-3.1c0-4.8-10.2-3.9-10.2-10.3c0-3.7,3.6-6.1,8.2-6.1
			c2.6,0,4.9,0.8,6.2,1.6c-0.4,1.6-1,3.3-1.7,4.9c-0.6,0-1.3-0.1-1.9-0.3c0.1-0.9,0.1-2,0.2-3c-1.3-0.7-3-1.3-4.9-1.3
			c-1.1,0.5-1.8,1.5-1.8,2.8C577.5,231.4,588.2,230.1,588.2,237z"/>
	</g>
</g>
<g>
	<g>
		<path class="st2" d="M40.9,173c0,2.2-1,4.5-2.9,6.9c-1.8,2.2-3.7,3.7-5.9,4.7c-2.8,1.3-5.8,1.9-8.9,1.9c-0.9,0-1.7-0.1-2.4-0.2
			c-0.1,0.3-0.2,0.8-0.4,1.6c-0.7,2.6-1,4.8-1,6.7c0,4.6,2,6.9,6,6.9c2,0,3.9-0.7,5.9-2c1.9-1.3,3.3-2.9,4.1-4.7
			c0.4-0.9,0.6-1.8,0.6-2.5c0-2-0.8-2.9-2.5-2.9c-0.1,0-0.2,0-0.3,0h-0.3c-0.4,0-0.8,0.2-1.3,0.5c-0.6,0.4-0.8,0.7-0.8,1.1
			c0,0.1,0.1,0.3,0.4,0.5c0.3,0.2,0.4,0.5,0.4,0.8c0,0.4-0.1,0.7-0.4,0.9s-0.6,0.4-1,0.4c-0.7,0-1.1-0.5-1.1-1.4
			c0-0.9,0.5-1.8,1.4-2.5c1-0.8,2-1.2,2.8-1.2c1.1,0,1.9,0.4,2.5,1.2c0.6,0.7,0.9,1.6,0.9,2.7c0,1.1-0.3,2.3-0.8,3.5
			c-0.9,2-2.3,3.6-4.1,4.7c-1.8,1.1-3.8,1.6-6.1,1.6c-3,0-5.3-1.1-6.9-3.4c-1.3-1.9-2-4.3-2-7.2c0-1.5,0.3-3.4,0.9-5.8
			c-5.1-1.4-7.7-3.8-7.7-7.2c0-1.8,0.7-3.4,2.2-4.7c1.3-1.1,2.8-2,4.8-2.6c1-0.3,2.1-0.4,3.5-0.4c2.4,0,3.9,0.5,4.4,1.6v0.4
			c-1.2-0.9-2.6-1.3-4.3-1.3c-2.4,0-4.6,0.6-6.6,1.9c-2.2,1.4-3.3,3.1-3.3,5.2c0,2.7,2.2,4.8,6.5,6.2c0.1,0,0.3,0.1,0.6,0.1
			c0.3-0.7,1-1.9,1.9-3.6c1.6-2.8,4-5.4,7.4-7.8c3.6-2.5,6.9-3.8,9.9-3.8C39.7,169.8,40.9,170.9,40.9,173z M40.2,172.9
			c0-1.6-0.9-2.4-2.6-2.4c-3.1,0-6.3,1.6-9.7,4.9c-3.2,3-5.4,6.4-6.7,9.9c0.5,0.1,1.1,0.2,2,0.2c2.9,0,5.7-0.6,8.4-1.9
			c3.2-1.5,5.6-3.6,7.1-6.4C39.7,175.7,40.2,174.2,40.2,172.9z"/>
		<path class="st2" d="M53.9,188.7c0,1.8-1,2.7-3.1,2.7l-0.9,2.2c-1.7,3.9-3.7,5.9-6.1,5.9c-1.3,0-2.3-0.6-3.1-1.7
			c-0.7-1-1.1-2.2-1.1-3.5c0-2.3,0.8-4.6,2.5-6.9c1.8-2.5,3.8-3.8,6-3.8c2,0,3,1.4,3.1,4.3c0,0.9-0.1,1.7-0.3,2.4l0.3,0.1
			c0.7,0,1.3-0.2,1.6-0.9c0.3-0.5,0.4-1.1,0.3-1.9c0-0.1,0.1-0.1,0.2-0.1C53.7,187.6,53.9,188,53.9,188.7z M50.1,186.5
			c0-0.5-0.1-0.9-0.5-1.4c-0.3-0.5-0.8-0.7-1.2-0.7c-1.5,0-3,1.6-4.4,4.8c-1.3,2.8-1.9,5.1-1.9,6.8c0,1.8,0.7,2.8,2,2.8
			c2,0,3.8-2,5.3-6c0.3-0.9,0.5-1.4,0.6-1.6c-0.1-0.2-0.3-0.5-0.6-0.8c-0.3-0.5-0.5-1.1-0.5-1.8C48.9,187.5,49.3,186.8,50.1,186.5z"
			/>
		<path class="st2" d="M75.8,195.4c-0.4,1-0.9,1.9-1.6,2.7c-0.9,1-1.8,1.5-2.7,1.5c-1.6,0-2.4-1-2.4-2.9c0-1.2,0.6-3.2,1.9-5.9
			c1.2-2.7,1.9-4.4,1.9-4.9c0-0.7-0.3-1.1-0.8-1.1c-0.8,0-1.8,0.7-3,2.2c-1.5,1.9-2.7,3.9-3.6,6.1l-2.5,6.4h-2.4
			c-0.1,0-0.1-0.1-0.1-0.2c1.1-3,2.7-7.2,4.7-12.5c0.1-0.4,0.2-0.7,0.2-1.1c0-0.7-0.3-1-0.8-1c-0.3,0-0.7,0.2-1.1,0.5
			c-2.3,1.8-4.2,4.7-5.8,8.6c-0.5,1.4-1.2,3.2-2,5.3c-0.1,0.2-0.3,0.3-0.6,0.3c-1.1,0-1.7-0.1-1.9-0.1c-0.1-0.1-0.1-0.2-0.1-0.3
			c0-0.1,0.2-0.6,0.6-1.5c2.8-7.4,4.1-11.5,4.1-12.1c0-0.5-0.2-0.8-0.5-0.8c-0.4,0-0.7,0.2-1,0.6c-0.2,0.2-0.5,0.6-0.8,1.1h-0.4
			c-0.1-0.1-0.1-0.1-0.1-0.2c0-0.3,0.3-0.7,0.8-1.3c0.4-0.4,0.8-0.7,1-0.8c0.4-0.2,0.8-0.3,1.1-0.3c0.8,0,1.5,0.5,1.9,1.4
			c0.1,0.3,0.2,0.7,0.1,1.4c-0.1,1.1-0.1,1.6-0.1,1.4v0.2h0.1c1.5-1.7,2.4-2.7,2.8-3c0.9-0.9,1.9-1.3,2.8-1.3c1.6,0,2.4,1,2.4,3
			c0,0.3,0,0.6-0.1,0.9c0.6-0.6,1.5-1.5,2.7-2.7c0.8-0.8,1.6-1.1,2.5-1.1c1.6,0,2.3,0.9,2.3,2.8c0,1.3-0.6,3.3-1.9,6.1
			c-1.3,2.8-1.9,4.5-1.9,5c0,0.7,0.3,1,0.8,1c0.6,0,1.3-0.4,2-1.3c0.6-0.7,1-1.4,1.2-2.1c0.1-0.1,0.2-0.2,0.4-0.2
			C75.6,195.2,75.7,195.3,75.8,195.4z"/>
		<path class="st2" d="M90.5,188.5c0,2.7-1,5.4-3.1,8c-1.4,1.8-2.7,2.7-4,2.7c-1.5,0-2.4-0.9-2.8-2.8l-0.2-0.3l-5.7,17.2
			c-1.3,0-2,0-2.2,0c1.8-5.8,4.2-13.3,7.1-22.4c1-3.3,1.5-5.1,1.5-5.3c0-0.6-0.2-0.9-0.6-0.9c-0.4,0-0.9,0.3-1.3,1
			c-0.5,0.6-0.8,1-0.9,1c-0.1-0.1-0.1-0.3,0.1-0.8c0.6-1.3,1.4-1.9,2.6-1.9c1.3,0,2,0.9,2,2.7c0,0.1,0,0.3,0.1,0.5
			c1.5-2.2,2.9-3.3,4.1-3.3c1.1,0,2,0.6,2.6,1.7C90.2,186.2,90.5,187.3,90.5,188.5z M88.2,186.4c0-1.4-0.4-2-1.3-2
			c-0.7,0-1.5,0.6-2.4,1.8c-0.7,0.9-1.3,1.8-1.7,2.7c-1.1,2.4-1.6,4.4-1.6,6c0,2.3,0.6,3.4,1.7,3.4c0.9,0,2-1.2,3.1-3.6
			C87.5,191.5,88.2,188.7,88.2,186.4z"/>
		<path class="st2" d="M107,188.7c0,1.8-1,2.7-3.1,2.7l-0.9,2.2c-1.7,3.9-3.7,5.9-6.1,5.9c-1.3,0-2.3-0.6-3.1-1.7
			c-0.7-1-1.1-2.2-1.1-3.5c0-2.3,0.8-4.6,2.5-6.9c1.8-2.5,3.8-3.8,6-3.8c2,0,3,1.4,3.1,4.3c0,0.9-0.1,1.7-0.3,2.4l0.3,0.1
			c0.7,0,1.3-0.2,1.6-0.9c0.3-0.5,0.4-1.1,0.3-1.9c0-0.1,0.1-0.1,0.2-0.1C106.8,187.6,107,188,107,188.7z M103.2,186.5
			c0-0.5-0.1-0.9-0.5-1.4c-0.3-0.5-0.8-0.7-1.2-0.7c-1.5,0-3,1.6-4.4,4.8c-1.3,2.8-1.9,5.1-1.9,6.8c0,1.8,0.7,2.8,2,2.8
			c2,0,3.8-2,5.3-6c0.3-0.9,0.5-1.4,0.6-1.6c-0.1-0.2-0.3-0.5-0.6-0.8c-0.3-0.5-0.5-1.1-0.5-1.8
			C101.9,187.5,102.4,186.8,103.2,186.5z"/>
		<path class="st2" d="M118.3,187.1c0,0.7-0.2,1.3-0.6,1.8c-0.4,0.5-1,0.8-1.7,0.8c-1.1,0-1.6-0.5-1.6-1.5c0-0.4,0.1-0.7,0.4-1
			c0.3-0.3,0.6-0.4,0.9-0.4c0.3,0,0.5,0.1,0.7,0.4c0.1,0.3,0.3,0.4,0.5,0.4c0.3,0,0.5-0.3,0.5-0.8c0-1.4-0.9-2.1-2.7-2.1
			c-0.9,0-1.6,0.2-2.2,0.7c-0.7,0.5-1,1.2-1,2c0,0.9,0.8,2,2.4,3.4s2.4,2.6,2.4,3.6c0,0.4-0.1,0.9-0.3,1.4c-0.9,2.4-2.7,3.7-5.3,3.7
			c-1.2,0-2.2-0.3-3.1-0.9c-1-0.7-1.4-1.6-1.4-2.8c0-0.6,0.2-1.2,0.6-1.8c0.4-0.7,0.9-1.1,1.4-1.1h0.7v0.3c-0.8,0.8-1.2,1.6-1.2,2.6
			c0,1.9,1,2.9,3,2.9c0.9,0,1.7-0.3,2.5-0.9c0.7-0.6,1.1-1.3,1.1-2.2c0-0.6-0.8-1.7-2.4-3.1c-1.6-1.5-2.4-2.8-2.4-4.1
			c0-1.4,0.6-2.5,1.8-3.4c1-0.8,2.2-1.2,3.4-1.2c1,0,1.9,0.3,2.6,0.8C118,185.3,118.3,186.1,118.3,187.1z"/>
		<path class="st2" d="M130.6,186.2c0,2.5-2,4.4-6,5.7c-0.4,0.1-0.9,0.2-1.3,0.4c-0.2,0-0.4,0.1-0.6,0.2c-0.2,0.1-0.4,0.5-0.5,1.1
			c-0.2,1.1-0.4,1.9-0.4,2.6c0,1.8,0.7,2.7,2,2.7c1.2,0,2.7-1.2,4.5-3.7h0.6c-0.4,1.1-1.1,2-2.1,2.9c-1.1,1-2.2,1.5-3.2,1.5
			c-2.1,0-3.5-1.4-4.1-4.3c-0.1-0.3-0.1-0.5-0.1-0.7c0-2.3,0.8-4.7,2.5-7c1.8-2.6,3.8-3.9,6.1-3.9
			C129.7,183.6,130.6,184.5,130.6,186.2z M128.5,185.7c0-0.9-0.3-1.4-0.8-1.4c-1.5,0-3,1.9-4.5,5.7c-0.3,0.8-0.5,1.3-0.5,1.4
			c0.3,0,0.5,0,0.7,0c0.9-0.2,1.8-0.6,2.7-1.3c1-0.8,1.6-1.5,1.9-2.3C128.4,186.9,128.5,186.2,128.5,185.7z"/>
		<path class="st2" d="M144.9,186.9c0,0.8-0.3,1.6-0.9,2.5c-0.7,0.9-1.4,1.4-2.3,1.4c-1,0-1.5-0.5-1.5-1.4c0-0.4,0.2-0.8,0.5-1.2
			c0.3-0.4,0.7-0.6,1.1-0.6c0.3,0,0.5,0.1,0.7,0.4c0.2,0.3,0.3,0.4,0.4,0.4c0.7,0,1.1-0.6,1.1-1.8c0-0.5-0.2-0.9-0.5-1.2
			c-0.4-0.3-0.8-0.5-1.3-0.5c-1.8,0-3.7,2.1-5.7,6.3c-0.7,1.5-1.3,3-1.9,4.5l-1.3,3.6c-0.1,0.1-0.4,0.2-0.9,0.2c-0.2,0-0.4,0-0.8,0
			s-0.6,0-0.8,0c-0.1,0-0.1-0.1-0.1-0.2l2.4-6.8c0.3-0.7,0.7-1.7,1.2-3.1c0.7-2,1.1-3.2,1.1-3.8c0-0.5-0.2-0.7-0.6-0.7
			c-0.4,0-0.9,0.3-1.3,0.9s-0.7,0.9-0.8,0.9c-0.1,0-0.3-0.1-0.4-0.2c0.9-1.7,1.8-2.6,2.9-2.6c1.5,0,2.2,1.3,2.1,3.8
			c1.9-2.3,3.5-3.5,4.8-3.5c0.8,0,1.5,0.3,2,0.8C144.7,185.4,144.9,186,144.9,186.9z"/>
		<path class="st2" d="M176.7,187.8c0,0.8-0.3,1.8-0.8,3.1c-0.5,1.3-1.1,2.2-1.6,2.8c0.3,1.2,0.5,2.2,0.5,2.9c0,2.8-1,5.4-3,7.9
			c-2.1,2.6-4.6,3.9-7.3,3.9c-0.9,0-1.7-0.2-2.6-0.7c-1-0.6-1.5-1.3-1.5-2.2c0-0.4,0.2-0.8,0.5-1.2c0.3-0.4,0.7-0.6,1-0.6
			c0.6,0,0.9,0.3,0.9,0.8c0,0.3-0.2,0.4-0.6,0.4c-0.4,0-0.7,0.3-0.7,0.9c0,1.3,1,1.9,2.9,1.9c1,0,1.9-0.2,2.9-0.7
			c1.9-0.9,3.5-2.3,4.8-4.1c1.3-1.9,2-3.9,2-5.9c0-1.1-0.1-1.9-0.3-2.4c-3,3.4-6.2,5.1-9.7,5.1c-1.8,0-3.4-0.6-4.6-1.7
			c-1.2-1.1-1.8-2.6-1.8-4.5c0-4.2,3.1-8.3,9.4-12c0.2-0.1,0.4-0.3,0.5-0.4c-0.1-0.9-0.1-1.6-0.1-2.1c0-1,0.1-1.9,0.3-2.6
			c0.3-1.3,1-2.5,1.9-3.6c1-1.2,2.1-1.8,3.2-1.8c0.8,0,1.4,0.3,1.8,0.8c0.4,0.6,0.7,1.2,0.7,2c0,1.5-0.7,3.3-2.1,5.2
			c-1.1,1.6-2.4,2.9-4,4.1c0.2,0.8,0.4,1.3,0.7,1.7c1.4-0.7,2.5-1.1,3.1-1.1c1.2,0,2.1,0.4,2.8,1.2
			C176.4,185.6,176.7,186.6,176.7,187.8z M173.4,193.4c0-0.5-0.6-1.9-1.9-4.2c-1-1.7-1.6-2.8-2-3.3c-0.4,0.2-0.7,0.6-1,1.2
			s-0.4,1.1-0.4,1.6c0,0.6,0.2,0.9,0.7,0.9c0.2,0,0.3,0.1,0.2,0.3c-0.1,0.3-0.2,0.5-0.4,0.5c-0.8,0-1.2-0.5-1.2-1.6
			c0-1.3,0.5-2.5,1.6-3.5c-0.2-0.5-0.5-1-0.8-1.7c-3.3,2.1-5.4,3.7-6.5,4.7c-2.2,2-3.3,4-3.3,6.1c0,0,0,0.3,0.1,0.7
			c0.2,1.3,0.9,2.2,1.9,2.9c1,0.6,2.1,1,3.4,1c0.9,0,2-0.2,3.1-0.5c1.2-0.4,2.5-1.2,3.9-2.3C172.7,194.9,173.4,194,173.4,193.4z
			 M174.2,173.2c0-1-0.5-1.6-1.5-1.6c-1.1,0-2.2,0.7-3.1,2c-0.8,1.1-1.3,2.3-1.4,3.6c0,0.2,0,0.5,0,1l0,0.7c0,0.7,0.1,1.2,0.2,1.5
			c0.9-0.4,2-1.4,3.4-2.9C173.3,175.9,174.2,174.4,174.2,173.2z M176.1,187.7c0-2.3-1.1-3.4-3.2-3.4c-1.1,0-2,0.4-2.8,1.1
			c0.2,0.4,1.1,1.9,2.6,4.5c0.3,0.5,0.7,1.4,1.2,2.6c0.1,0.1,0.2,0.2,0.3,0.1C175.5,190.9,176.1,189.2,176.1,187.7z"/>
		<path class="st2" d="M224.6,178.3c0,2.5-1.2,4.8-3.6,6.8c-2.2,1.9-4.5,2.8-6.8,2.8c-0.6,0-1.2-0.1-1.7-0.3c-0.7-0.3-1-0.7-1-1.2
			c0-0.2,0.1-0.3,0.2-0.3c0,0,0.1,0.1,0.3,0.4c0.1,0.3,0.3,0.5,0.4,0.5c0.3,0.2,0.9,0.4,1.7,0.4c2.4,0,4.4-1.3,6.1-3.9
			c1.4-2.2,2.1-4.3,2.1-6.2c0-0.8-0.2-1.7-0.5-2.7c-0.2-0.6-0.8-1.3-1.8-2.1c-0.9-0.7-1.7-1.2-2.3-1.4c-0.3,0.2-0.8,0.6-1.3,1.3
			c-1.3,1.7-2.4,3.7-3.1,5.8c-0.4,1.3-1,3.2-1.8,5.8c-0.4,1.4-1.2,3.7-2.4,7.1c-1.1,3-3,5.7-5.8,7.9c-2.6,2.1-5.2,3.2-7.8,3.2
			c-1.5,0-2.8-0.4-3.9-1.2c-1.3-0.9-2-2.1-2-3.7c0-0.9,0.3-1.8,0.8-2.6c0.7-0.9,1.5-1.4,2.6-1.4c0.6,0,1.1,0.2,1.6,0.6
			c0.5,0.4,0.7,0.9,0.7,1.5c0,0.4-0.1,0.8-0.4,1.2c-0.3,0.4-0.6,0.6-1,0.6c-0.9,0-1.3-0.5-1.3-1.4c0-0.1,0-0.3,0.1-0.6
			c0.1-0.3,0.2-0.5,0.2-0.6c-0.2-0.2-0.4-0.3-0.6-0.3c-0.6,0-1.1,0.3-1.5,0.9c-0.3,0.5-0.5,1.1-0.5,1.8c0,1.4,0.6,2.5,1.8,3.3
			c0.9,0.6,2.1,0.9,3.4,0.9c3.9,0,7.2-2.4,9.9-7.3c1.1-1.9,2-4.3,2.9-7.1c0.3-1.2,0.9-3,1.6-5.3c1.6-4.8,3.9-8.4,6.8-11
			c-0.4-0.5-1.6-0.8-3.5-0.8c-1,0-1.8,0-2.5,0c-3.4,0.2-6.5,1.5-9.2,3.9c-3,2.5-4.4,5.4-4.4,8.7c0,2.6,1.2,4,3.7,4
			c1.9,0,3.5-1,4.8-2.9c1.2-1.7,1.8-3.5,1.8-5.5c0-0.3,0-0.6-0.1-0.9c0.4,0.1,0.7,0.6,0.7,1.4c0,1.9-0.6,3.7-1.9,5.5
			c-1.4,2-3.2,3-5.2,3c-1.7,0-3-0.6-4-1.9c-0.8-1.1-1.3-2.4-1.3-4c0-4.2,2-7.3,5.9-9.6c3-1.7,6.5-2.6,10.4-2.6
			c1.8,0,3.1,0.1,4.1,0.4c0.3,0.1,0.9,0.2,1.5,0.5c0.3-0.2,0.7-0.4,1.3-0.8c0.8-0.5,1.5-0.7,2.1-0.7c0.6,0,1,0.2,1,0.5
			c-1.4,0-2.6,0.4-3.6,1.3C222.5,172.5,224.6,175.2,224.6,178.3z"/>
		<path class="st2" d="M230.2,196.1c0,0.1-0.2,0.4-0.5,0.9c-1,1.7-2.1,2.5-3.4,2.5c-1.6,0-2.4-0.9-2.4-2.8c0-1.2,0.6-3.1,1.8-5.8
			c1.2-2.7,1.8-4.5,1.8-5.3c0-0.6-0.2-0.9-0.6-0.9c-0.3,0-0.7,0.3-1.2,0.8s-0.7,0.8-0.7,0.8h-0.4c-0.1,0-0.1-0.1-0.1-0.2
			c0-0.2,0.2-0.6,0.7-1.1c0.4-0.5,0.8-0.9,1-1c0.5-0.2,0.9-0.4,1.3-0.4c1.5,0,2.2,0.9,2.2,2.6c0,1-0.6,3-1.8,6
			c-1.2,3-1.8,4.8-1.8,5.4c0,0.6,0.3,0.9,0.8,0.9c0.6,0,1.2-0.4,1.8-1.2c0.1-0.2,0.5-0.7,1.2-1.7h0.5
			C230.2,195.9,230.2,196,230.2,196.1z M231,179c0,0.6-0.2,1.2-0.6,1.8c-0.4,0.6-0.9,1-1.5,1c-0.7,0-1.1-0.5-1.1-1.5
			c0-0.4,0.1-0.9,0.4-1.5c0.4-0.7,0.9-1.1,1.5-1.1C230.6,177.7,231,178.1,231,179z"/>
		<path class="st2" d="M246.1,184.4c-0.1,0.2-0.4,1.1-0.9,2.7c-2.2,6.7-3.4,10.2-3.4,10.6v0.4c0,0.6,0.3,0.9,0.8,0.9
			c0.7,0,1.6-1,2.7-2.9h0.6c-1.1,2.5-2.4,3.7-3.8,3.7c-0.9,0-1.5-0.3-1.9-1c-0.2-0.3-0.4-1-0.7-2.1c-0.9,1.1-1.5,1.8-1.8,2
			c-0.7,0.7-1.5,1-2.4,1c-2.3,0-3.4-1.7-3.4-5.2c0-3.7,1.5-6.7,4.5-9.2c1.3-1.1,2.5-1.6,3.6-1.6c1.2,0,2.1,0.7,2.8,2.2
			c0.2-0.4,0.4-0.9,0.8-1.6h2.1C246,184.1,246.1,184.2,246.1,184.4z M242.1,187.1c0-1.9-0.5-2.8-1.6-2.8c-1.2,0-2.5,1.3-3.8,4
			c-0.9,2-1.6,3.9-2,5.9c-0.2,0.9-0.3,1.8-0.3,2.7c0,1.3,0.4,2,1.4,2c1.2,0,2.4-1.2,3.7-3.5c0.9-1.7,1.7-3.4,2.2-5.2
			C241.9,188.8,242.1,187.8,242.1,187.1z"/>
		<path class="st2" d="M261.6,195.5c0,0.4-0.4,1.1-1.2,2.1c-1.1,1.4-2.2,2-3.2,2c-1.5,0-2.3-1-2.3-2.9c0-1.2,0.6-3.1,1.9-5.8
			c1.3-2.7,1.9-4.3,1.9-5c0-0.8-0.3-1.1-0.9-1.1c-0.8,0-1.7,0.7-2.9,2.1c-2,2.4-3.7,5.7-5.3,9.8c-0.2,0.5-0.5,1.3-1,2.5
			c0,0.1-0.4,0.1-1.2,0.1c-0.5,0-0.9,0-1.3-0.1v-0.3c0-0.3,0.8-2.5,2.4-6.4s2.4-6.3,2.4-7.1c0-0.5-0.2-0.8-0.5-0.8
			c-0.5,0-1.2,0.6-1.9,1.7h-0.5v-0.3c0-0.3,0.3-0.7,0.8-1.2c0.5-0.5,0.9-0.8,1.1-0.9c0.3-0.1,0.6-0.2,0.9-0.2c1.3,0,2,0.9,2,2.7
			c0-0.1,0,0.5-0.1,1.7c2.4-3,4.3-4.5,5.7-4.5c1.6,0,2.4,0.9,2.4,2.8c0,1.1-0.7,3.1-2,6s-2,4.7-2,5.2c0,0.6,0.3,1,0.9,1
			c0.7,0,1.4-0.5,2.1-1.6c0.3-0.5,0.7-1.1,1.3-2h0.4C261.6,195.3,261.6,195.4,261.6,195.5z"/>
		<path class="st2" d="M269.8,196.1c0,0.1-0.2,0.4-0.5,0.9c-1,1.7-2.1,2.5-3.4,2.5c-1.6,0-2.4-0.9-2.4-2.8c0-1.2,0.6-3.1,1.8-5.8
			c1.2-2.7,1.8-4.5,1.8-5.3c0-0.6-0.2-0.9-0.6-0.9c-0.3,0-0.7,0.3-1.2,0.8s-0.7,0.8-0.7,0.8h-0.4c-0.1,0-0.1-0.1-0.1-0.2
			c0-0.2,0.2-0.6,0.7-1.1c0.4-0.5,0.8-0.9,1-1c0.5-0.2,0.9-0.4,1.3-0.4c1.5,0,2.2,0.9,2.2,2.6c0,1-0.6,3-1.8,6
			c-1.2,3-1.8,4.8-1.8,5.4c0,0.6,0.3,0.9,0.8,0.9c0.6,0,1.2-0.4,1.8-1.2c0.1-0.2,0.5-0.7,1.2-1.7h0.5
			C269.8,195.9,269.8,196,269.8,196.1z M270.7,179c0,0.6-0.2,1.2-0.6,1.8c-0.4,0.6-0.9,1-1.5,1c-0.7,0-1.1-0.5-1.1-1.5
			c0-0.4,0.1-0.9,0.4-1.5c0.4-0.7,0.9-1.1,1.5-1.1C270.3,177.7,270.7,178.1,270.7,179z"/>
		<path class="st2" d="M282.8,187.1c0,0.7-0.2,1.3-0.6,1.8c-0.4,0.5-1,0.8-1.7,0.8c-1.1,0-1.6-0.5-1.6-1.5c0-0.4,0.1-0.7,0.4-1
			c0.3-0.3,0.6-0.4,0.9-0.4c0.3,0,0.5,0.1,0.7,0.4c0.1,0.3,0.3,0.4,0.5,0.4c0.3,0,0.5-0.3,0.5-0.8c0-1.4-0.9-2.1-2.7-2.1
			c-0.9,0-1.6,0.2-2.2,0.7c-0.7,0.5-1,1.2-1,2c0,0.9,0.8,2,2.4,3.4s2.4,2.6,2.4,3.6c0,0.4-0.1,0.9-0.3,1.4c-0.9,2.4-2.7,3.7-5.3,3.7
			c-1.2,0-2.2-0.3-3.1-0.9c-1-0.7-1.4-1.6-1.4-2.8c0-0.6,0.2-1.2,0.6-1.8c0.4-0.7,0.9-1.1,1.4-1.1h0.7v0.3c-0.8,0.8-1.2,1.6-1.2,2.6
			c0,1.9,1,2.9,3,2.9c0.9,0,1.7-0.3,2.5-0.9c0.7-0.6,1.1-1.3,1.1-2.2c0-0.6-0.8-1.7-2.4-3.1c-1.6-1.5-2.4-2.8-2.4-4.1
			c0-1.4,0.6-2.5,1.8-3.4c1-0.8,2.2-1.2,3.4-1.2c1,0,1.9,0.3,2.6,0.8C282.5,185.3,282.8,186.1,282.8,187.1z"/>
		<path class="st2" d="M294.2,182.6c-0.1,0.4-0.2,0.6-0.4,0.8h-2.9l-2.9,8.3c-1.2,3.4-1.8,5.3-1.8,5.8c0,0.8,0.3,1.2,1,1.2
			c1.1,0,2.3-1.2,3.4-3.6h0.5c0,0.1,0,0.3,0,0.4c-0.1,0.1-0.2,0.4-0.4,0.7c-1,2.2-2.4,3.2-4,3.2c-1.8,0-2.6-1-2.6-2.9
			c0-1.3,1.4-5.7,4.2-13.2h-3.1c0.1-0.2,0.2-0.5,0.3-0.8h3l2.7-7.6h2.5l-2.7,7.6H294.2z"/>
	</g>
</g>
</svg>
