<?xml version="1.0" encoding="utf-8"?>
<!-- Generator: Adobe Illustrator 22.0.1, SVG Export Plug-In . SVG Version: 6.00 Build 0)  -->
<svg version="1.1" id="Layer_1" xmlns="http://www.w3.org/2000/svg" xmlns:xlink="http://www.w3.org/1999/xlink" x="0px" y="0px"
	 viewBox="0 0 600 400" style="enable-background:new 0 0 600 400;" xml:space="preserve">
<style type="text/css">
	.st0{fill:#FFFFFF;}
	.st1{fill:#8A080A;}
</style>
<title>Artboard 1santa-jim</title>
<g>
	<rect y="-0.1" class="st0" width="600" height="400"/>
	<g>
		<path class="st1" d="M323.4,194.8c0.3-0.3,0.5-0.6,0.5-0.7s-0.1-0.2-0.4-0.2c-3.1,0-7.1,1.8-12,5.3c-4.6,3.3-8.9,7-12.7,11.1
			c-3.6,3.9-5.4,6.5-5.4,7.9c0,0.1,0.1,0.2,0.2,0.2c0,0,0,0,0.1,0c1,0,3.9-2,8.9-5.9s9.7-7.9,14.1-11.8L323.4,194.8z"/>
		<path class="st1" d="M183,194.8c0.3-0.3,0.5-0.6,0.5-0.7s-0.1-0.2-0.4-0.2c-3.1,0-7.1,1.8-12,5.3c-4.6,3.3-8.9,7-12.7,11.1
			c-3.6,3.9-5.4,6.5-5.4,7.9c0,0.1,0.1,0.2,0.2,0.2c0,0,0,0,0.1,0c1,0,3.9-2,8.9-5.9s9.7-7.9,14.1-11.8L183,194.8z"/>
		<path class="st1" d="M0,0v400h600V0H0z M447.8,172.2c2.9-2.3,5.3-3.4,7.1-3.4c0.6-0.1,1.1,0.1,1.6,0.5c0.9,0.9,1.5,2.1,1.7,3.3
			c0,0.8-0.2,1.6-0.7,2.2c-0.5,0.6-1.1,1.3-1.8,2.1c-1.2,1.2-2.6,2.3-4.1,3.1c-1.8,1.2-3.8,1.9-6,2c-1.3-0.1-2.3-1.3-2.2-2.6
			c0,0,0,0,0-0.1C443.5,176.9,444.9,174.5,447.8,172.2z M129.4,220c-8.3,5.4-17.4,9.4-27,11.8c-9.5,2.7-19.3,4.1-29.2,4.3
			c-4.7-0.1-9.3-1.3-13.5-3.4c-4.7-2.2-7.1-5-7.1-8.2c0-1.1,0.9-1.6,2.7-1.7c9.5-1,15.6-2.2,18.2-3.4c0.5-0.1,1-0.2,1.6-0.3
			c0.4,0,0.6,0.1,0.6,0.3c0,0.3-0.5,0.8-1.4,1.6c-0.9,0.5-1.9,0.9-2.9,1.3c-2.3,0.8-3.4,1.3-3.4,1.6s0.8,0.4,2.4,0.4
			s5.7-0.6,12.2-1.9s13.5-2.9,21-5c6.8-1.8,13.4-4.2,19.7-7.4c5.7-3,8.6-5.8,8.6-8.6c0-1.8-2.1-2.7-6.3-2.7l-12.3,0.5
			c-7.6,0-12.7-0.3-15.3-0.8c-2.4-0.5-4.7-1.1-7-1.9c-1.8-0.6-3.4-1.5-4.9-2.6c-2.9-2.1-4.6-5.4-4.5-9c0-1.1,0.7-2.8,2.1-5.1
			c2-3,4.4-5.7,7.1-8c3.7-3.3,7.7-6.3,12-8.8c5.8-3.2,11.9-5.7,18.3-7.3c8-2.2,16.3-3.4,24.6-3.6c3.4,0,6.7,0.4,10,1.1
			c3,0.6,5.9,1.5,8.7,2.7c2.4,1.1,4.5,2.7,6.1,4.8c1.7,2.1,2.7,4.7,2.7,7.4c0,2.3-2.2,4.7-6.5,7.3c-4.8,2.9-11.2,4.4-19.1,4.4
			c-7.9,0-11.9-0.6-11.9-1.7c0-0.9,2.3-1.9,6.9-3.1s9.3-2.6,13.9-4.2s7-3.4,7-5.4c0-1-1.8-1.6-5.3-1.6c-23.3,0-43.4,6-60.2,18.1
			c-3.1,2.3-4.7,4.3-4.7,6c0,2.7,8.4,4,25.1,4c15.1,0.2,22.6,4.2,22.6,12.1C141,209.6,137.1,214.9,129.4,220z M321.9,223.5
			c-6.2,4.4-10.1,6.6-11.6,6.6c-1.3,0.1-2.5-0.4-3.3-1.4c-0.7-1-1-2.7-1-5.2l1-7.7c0-0.2-0.1-0.4-0.2-0.4s-0.3,0.2-0.7,0.5
			c-1,1.1-2.4,2.5-4,4.2c-2.6,2.4-5.3,4.7-8.3,6.6c-3.9,2.8-7.1,4.2-9.5,4.2c-0.5-0.1-1-0.2-1.5-0.4c-0.9-0.5-1.7-1.2-2.4-2
			c-1-1.4-1.6-3.1-1.5-4.8c0.1-1.4,0.5-2.8,1.2-4.1c-9.4,7.5-16,11.9-19.8,13.1c-1.7,0.4-3.4,0.6-5.1,0.6c-2,0-3.8-1-5.4-3
			s-2.5-4.8-2.5-8.2c0.1-1.9,0.5-3.7,1.3-5.4c-2.4,1.9-5.1,4.1-8,6.3c-8.1,6.3-13.8,9.4-17,9.4c-6.2,0-9.3-3.3-9.3-9.9
			c0.1-2.9,1.1-5.6,2.9-7.9l5.2-7.1c0.3-0.4,0.5-0.8,0.7-1.3c0-0.1-0.2,0-0.7,0.4c-14,11.7-22.9,18.5-26.8,20.5
			c-0.7,0.4-1.6,0.6-2.4,0.6c-2.7,0-4-1.2-4-3.6c0-0.8,0.3-1.6,0.7-2.3c5.9-5.5,10.1-9.9,12.6-13.4c1.9-1.9,3.5-4,4.9-6.3l-0.7,0.6
			c-2.7,2.3-5.4,4.6-7.9,6.7s-5.4,4.5-8.7,7.1s-6.2,4.9-8.8,6.7c-6.2,4.4-10.1,6.6-11.6,6.6c-1.3,0.1-2.5-0.4-3.3-1.4
			c-0.7-1-1-2.7-1-5.2l1-7.7c0-0.2-0.1-0.4-0.2-0.4s-0.3,0.2-0.7,0.5c-1.1,1.1-2.4,2.5-4,4.2c-2.6,2.4-5.3,4.7-8.3,6.6
			c-3.9,2.8-7.1,4.2-9.5,4.2c-0.5-0.1-1-0.2-1.5-0.4c-0.9-0.5-1.7-1.2-2.4-2c-1-1.4-1.6-3.1-1.4-4.8c0-2.1,1.6-5.3,4.8-9.6
			c3.4-4.6,7.2-8.8,11.4-12.7c4.5-4.2,9.4-7.8,14.8-10.8c5.4-3.1,10.2-4.6,14.2-4.6c1.5,0.1,2.7,1.2,3.6,3.3
			c0.5-0.6,1.3-1.1,2.2-1.1c0.9,0.2,1.8,0.7,2.3,1.4c0.6,0.1,1.1,0.4,1.4,0.8c0.5,0.5,0.8,1.2,0.7,1.9c-0.2,1.1-0.8,2.1-1.7,2.7
			c-1.7,2.1-3.7,4.5-5.9,7.1c-2.3,2.7-3.9,4.6-4.8,5.7c-1,1.2-2,2.5-3,3.9c-1.8,2.5-2.7,4.5-2.9,6c8.1-3.9,20.7-12.1,37.8-24.8
			l0.5-0.8c1.5-2.3,2.7-3.4,3.6-3.4c1.1,0.1,2.2,0.5,3.2,1c1.5,0.6,2.2,1.4,2.2,2.2c0,0.6-0.2,1.2-0.6,1.7l-9.1,12.6
			c-0.6,0.7-1.1,1.4-1.6,2.2c0,0.2,0,0.2,0.1,0.2l0.6-0.4c9.3-6.5,17-12.2,23.1-17.1c0.8-0.7,1.8-1.1,2.8-1.2c0.5,0,1,0,1.5,0.2
			l3.4,1c0.7,0.2,1.2,0.9,1.2,1.6c0,0.6-0.1,1.1-0.5,1.6c-1.5,1.7-3.3,3.6-5.3,5.7s-3.4,3.7-4.4,4.8l-3.3,3.7
			c-1.2,1.4-2.1,2.4-2.6,3.1s-1.1,1.6-1.8,2.5c-0.5,0.7-1,1.5-1.3,2.4c-0.4,1.6-0.7,3.2-0.7,4.8c0,0.7,0.5,1.1,1.4,1.1
			c1.8-0.3,3.5-0.8,5.1-1.7c3.1-1.5,6-3.2,8.8-5.2c3.4-2.3,8-5.7,13.6-10l4-3c4.5-5.5,9.4-10.7,14.8-15.3c0.7-0.6,1.1-1.1,1.1-1.6
			s-0.9-0.7-2.5-0.7l-7.6,0.2c-10.7,0-16.2-1.2-16.5-3.6c-2.5-0.5-3.8-1.2-3.8-2.2c0-0.3,0.2-0.5,0.4-0.5l0,0l0.9-0.1l1.2-0.2
			l13.4-1.9c8.3-1.2,17.8-2.2,28.5-3l8.3-11.1c0.5-1,2.2-1.4,5.1-1.4s4.3,0.6,4.4,1.8c-0.2,0.8-0.5,1.5-1,2.2l-3,4.2
			c-0.3,0.9-0.6,1.9-0.7,2.9c0,0.6,0.6,0.8,1.7,0.8l6.2-0.1c8,0,13.8,1.1,17.4,3.4c1.8,0.6,2.6,1.3,2.6,2.2c0,0.6-0.8,1.1-2.4,1.3
			s-7,0.9-16.3,1.9s-15.7,1.6-19.1,1.7c-1.5,0.1-5,2.7-10.6,8c-5.7,5.4-10.9,11.2-15.8,17.3c-5,6.3-7.5,10.7-7.5,13.2
			c0,0.4,0.2,0.8,0.6,1c0.4,0.3,1,0.4,1.5,0.4c1-0.1,1.9-0.3,2.8-0.7c13.3-7.8,26.2-16.3,38.8-25.4c1.2-0.9,2.4-1.8,3.6-2.6
			c0.7-0.5,1.4-1,2.1-1.6l0.1,0.1c1.2-0.8,2.5-1.5,3.7-2.2c5.4-3.1,10.2-4.6,14.2-4.6c1.5,0.1,2.7,1.2,3.6,3.3
			c0.5-0.7,1.3-1.1,2.2-1.2c0.9,0.2,1.8,0.7,2.3,1.4c0.6,0.1,1.1,0.4,1.5,0.8c0.5,0.5,0.8,1.2,0.7,1.9c-0.2,1.1-0.8,2.1-1.7,2.7
			c-1.7,2.1-3.7,4.5-5.9,7.1c-2.3,2.7-3.9,4.6-4.8,5.7c-1,1.2-2,2.5-3,3.9c-1.8,2.5-2.7,4.5-2.9,6c8.2-3.9,21.1-12.4,38.8-25.5
			c0.7,0.5,1.1,1.2,1.1,2s-0.4,1.6-1,2.1l-2.4,2.1c-0.9,0.8-2.8,2.4-5.5,4.7s-5.4,4.6-7.9,6.7s-5.4,4.5-8.7,7.1
			S324.4,221.6,321.9,223.5L321.9,223.5z M390.6,227.9c-2.5,2.8-4.7,5.2-6.6,7.3s-4.7,4.7-8.1,7.7c-3,2.7-6.2,5.3-9.5,7.7
			c-3.1,2.1-6.4,3.9-9.9,5.3c-3.3,1.4-6.8,2.2-10.3,2.2c-5.1,0-7.6-1.8-7.6-5.3c0-3.9,2.4-8.4,7.1-13.5c4.7-5,10.2-9.3,16.2-12.8
			c6.1-3.5,11.1-5.2,15-5.2c0.5,0,0.7,0.2,0.7,0.6c0,0.4-0.2,0.8-0.5,1c-1,0.6-2,1.1-3,1.6c-4.7,2.4-10.7,7.2-18,14.4
			s-10.9,12.1-10.9,14.7c0,0.2,0.1,0.4,0.3,0.5h0.1c3.4,0,10.7-6,21.9-17.9c10.8-11.5,20.1-22,27.8-31.5
			c11.6-14,21.2-25.7,28.8-35.1s11.8-15,12.6-16.9c0.5-0.6,0.9-1.3,1.1-2.1c0-0.4-0.2-0.7-0.6-0.7c-5.1,0-11.3,2.1-18.4,6.2
			c-7,4-13.6,8.8-19.6,14.3c-5.5,5-10.6,10.4-15.2,16.2c-4.2,5.3-6.3,9.3-6.3,11.8c0,0.3,0.1,0.5,0.4,0.5c2.6,0,11.6-6.5,27-19.6
			c1.5-1.6,2.5-2.4,2.9-2.4s0.6,0.1,0.6,0.4c-0.4,1-0.9,1.9-1.6,2.7c-12.7,18.4-22.7,27.7-29.8,27.7c-2.5,0.1-4.8-1.1-6.1-3.2
			c-1.5-2.1-2.2-5-2.2-8.6s1.9-8.4,5.6-14.6c4.1-6.5,8.9-12.6,14.3-18c6.1-6.1,13.1-11.2,20.7-15.2c8-4.3,15.8-6.4,23.3-6.4
			c2.5,0,4.9,0.7,7,2c1.9,1.1,3,3.1,3,5.2c0,2.2-0.6,4.4-1.6,6.3c-2.7,5.6-9.2,16-19.5,31.4s-19.2,27.5-26.9,36.5
			C394.5,223.6,393.1,225.1,390.6,227.9L390.6,227.9z M546.3,198.6c-2.6,2.5-5.8,5.6-9.8,9.4c-3.9,3.7-9.9,8.7-18,15
			c-8.1,6.3-13.8,9.4-17,9.4c-6.2,0-9.3-3.3-9.3-9.9c0.1-2.9,1.1-5.6,2.9-7.9l5.2-7.1c0.3-0.4,0.5-0.8,0.7-1.3c0-0.1-0.2,0-0.7,0.4
			c-14,11.7-22.9,18.5-26.8,20.5c-0.7,0.4-1.6,0.6-2.4,0.6c-2.7,0-4-1.2-4-3.6c0-0.8,0.2-1.5,0.6-2.2c4.7-6.8,8.3-11.3,10.8-13.6
			l2-2c0.1-0.1,0.2-0.3,0.2-0.5c0-0.1-0.1-0.2-0.2-0.2c0,0,0,0-0.1,0c-0.2,0-0.4,0.2-0.7,0.5l-12.9,10.1c-7.5,5.9-11.6,9-12.3,9.4
			c-0.6,0.3-1.2,0.5-1.9,0.5c-1-0.1-1.9-0.5-2.7-1c-1.2-0.7-1.8-1.5-1.8-2.4c0-0.4,0.2-0.7,0.4-1c4.7-5.2,8.7-9.9,11.9-14
			c-3.8,3.2-7.3,6.1-10.6,8.8c-9.5,7.6-16.5,12.2-21,13.5c-1.5,0.4-3.1,0.6-4.7,0.6c-6.2,0-9.3-3.3-9.3-9.9c0-2.6,1.4-6.3,4.2-11.1
			c2.6-4.4,5.5-8.7,8.7-12.7c3-3.7,5-5.7,5.9-6.1c1.4-0.9,3-1.3,4.7-1.3s3.3,0.3,4.8,1c0.4,0.2,0.7,0.5,0.7,1c0,0.4-0.4,1-1.1,1.8
			s-1.9,2.1-3.5,3.7s-3.9,4.6-7,8.8c-2.5,3.2-4.6,6.7-6.2,10.4c-0.6,0.9-0.9,1.9-1,3c0,0.9,0.5,1.3,1.5,1.3c1-0.1,2-0.3,2.9-0.7
			c13.7-7.2,26.9-15.4,39.5-24.4c0.4-0.6,0.7-1.2,1.1-1.7c0.8-1.4,1.8-2.8,2.8-4.1c0.5-0.7,1.3-1.2,2.2-1.2c1,0.1,2,0.6,2.7,1.4
			c0.9,0.7,1.4,1.7,1.5,2.8c0,1.1-0.4,2.1-1,3c-2.7,4.9-4.9,8.1-6.4,9.6c-0.2,0.2-0.3,0.4-0.4,0.7c0,0.2,0.1,0.3,0.2,0.3l0.4-0.1
			l16.2-11.2c4.1-2.8,6.6-4.2,7.4-4.2c0.9,0,1.8,0.3,2.6,0.8c0.9,0.5,1.4,1.1,1.4,1.8s-0.2,1.4-0.6,1.9l-7.9,10.8
			c-0.6,0.7-1.1,1.4-1.6,2.2c0,0.2,0,0.2,0.1,0.2l0.6-0.4c10.1-6.8,16.9-11.6,20.5-14.3c3.6-2.7,5.7-4.4,6.5-5.1
			c0.8-0.7,1.8-1.1,2.8-1.2c0.5,0,1,0,1.5,0.2l2.7,2c0.8,0.4,1.2,0.9,1.2,1.6c0,0.6-0.1,1.1-0.5,1.6c-4.7,5.2-8.5,9.3-11.4,12.3
			s-4.9,5.3-6.2,6.8c-1.6,1.8-2.9,3.8-3.9,6c-0.6,0.9-0.9,1.9-1,3c0,0.7,0.5,1.1,1.4,1.1c1.8-0.3,3.5-0.8,5.1-1.7
			c3.1-1.5,6-3.2,8.8-5.2c3.4-2.3,8-5.7,13.7-10s10.7-8,14.9-10.9c0.7,0.5,1.1,1.2,1.1,2.1C547.4,197.2,547,198.1,546.3,198.6
			L546.3,198.6z"/>
	</g>
</g>
</svg>
