<?xml version="1.0" encoding="utf-8"?>
<!-- Generator: Adobe Illustrator 22.0.1, SVG Export Plug-In . SVG Version: 6.00 Build 0)  -->
<svg version="1.1" id="Layer_1" xmlns="http://www.w3.org/2000/svg" xmlns:xlink="http://www.w3.org/1999/xlink" x="0px" y="0px"
	 viewBox="0 0 600 400" style="enable-background:new 0 0 600 400;" xml:space="preserve">
<g>
	<g>
		<path d="M502.3,91c17.8,0,35.5,0,53.3,0c19,0,34.1,14.5,34.2,33.5c0.2,36.3,0.3,72.6,0,108.9c-0.1,18.2-15.5,33.1-33.7,33.2
			c-36,0.1-72,0.1-108,0c-19.2-0.1-33.8-14.9-34.1-34.8c-0.3-16.6-0.1-33.2-0.1-49.9c0-17.9,0-35.8,0-53.7c0-23.2,14-37.1,37-37.1
			C468.1,91,485.2,91,502.3,91z M530.1,258.6c-20.6-29.7-40.6-58.6-61.4-88.7c0,30.6,0,59.5,0,88.7C489,258.6,509,258.6,530.1,258.6
			z M473.9,98.9c20.6,29.7,40.6,58.6,61.3,88.6c0-30.5,0-59.4,0-88.6C514.9,98.9,494.9,98.9,473.9,98.9z"/>
		<path d="M10,179.4c0-17.4,0-34.9,0-52.3c0-20.7,14.6-35.5,35.2-35.6c35.2-0.1,70.4-0.1,105.5,0c20,0.1,34.8,14.3,35,34.3
			c0.3,35.7,0.3,71.3,0,107c-0.2,19.9-15,34.4-35,34.5c-35.2,0.2-70.4,0.2-105.5,0c-20.7-0.1-35.2-15-35.3-35.6
			C10,214.3,10,196.8,10,179.4z M53.4,158.3c41.6,0,83,0,124.8,0c0-6.4-0.2-12.5,0.1-18.6c0.2-4-1.1-5.2-5.1-5.2
			c-38.4,0.1-76.8,0.1-115.2,0.1c-1.5,0-3.1,0.2-4.6,0.3C53.4,143.1,53.4,150.6,53.4,158.3z M139.1,202c-40.6,0-80.6,0-121,0
			c0,7.9,0,15.5,0,23.4c40.4,0,80.6,0,121,0C139.1,217.6,139.1,210.1,139.1,202z"/>
		<path d="M299.5,91.5c17.6,0,35.2,0,52.8,0c20.9,0,35.7,14.7,35.7,35.7c0.1,34.7,0,69.4,0,104.1c0,20.7-14.2,35.8-35,36
			c-35.3,0.4-70.7,0.4-106,0c-20.8-0.2-35-15.2-35-36c-0.1-34.5-0.1-69.1,0-103.6c0-21.6,14.7-36.2,36.2-36.2
			C265.2,91.5,282.4,91.5,299.5,91.5z M308.1,187.6c-1-1.4-2.5-4-4.6-6.1c-11.5-11.7-14.9-11-29.2-3.2
			c-10.1,5.5-10.9,13.5-11.5,22.6c-0.1,1.4,0.4,3.3,1.3,4.4c2.8,3.3,5.7,6.6,9,9.4c12.7,10.6,30,4.3,32.8-11.9
			C306.6,198.3,307.1,193.9,308.1,187.6z M349.3,194c0-2.4,0-4.8,0-7.3c-0.1-6.2-16.1-16-21.8-13.4c-0.1,0.1-0.3,0.1-0.4,0.2
			c-9.4,5.3-18.4,10.9-17.9,23.8c0,0.6-0.2,1.3-0.3,1.9c-2.2,12.6-2,13.1,8.9,19.6c5.9,3.5,9.6,3.3,15.1-0.8
			c2.1-1.5,3.9-3.4,6.2-4.6C347,209.3,351.8,203.7,349.3,194z M277.5,129.2c-3.3,1.4-6.9,2.3-9.8,4.3c-9.9,6.8-13.2,17.4-15.9,28.3
			c-0.4,1.5,0,4,1.1,5c4.3,4.2,8.6,8.9,13.8,11.6c2,1.1,6.5-2.3,9.8-3.9c3.3-1.6,6.5-3.5,9.7-5.4c1-0.6,2-1.6,2.4-2.7
			c1.8-4.3,3.4-8.7,5.1-13C297.6,143.9,288.3,130.1,277.5,129.2z M349.2,179.3c0-14.5,0.5-27.6-0.4-40.7c-0.2-3-4.9-7.2-8.3-8
			c-8.6-2.2-18.2,7.1-16.3,15.8c1.7,7.8,5.2,15.1,7.9,22.7c0.1,0.4,0.6,0.7,1,1C338.2,172.9,343.1,175.8,349.2,179.3z M283.4,228.7
			c0.3-0.4,0.7-0.8,1-1.3c-1.1-1.5-1.9-3.4-3.4-4.6c-5.2-4.2-10.8-8.1-16-12.4c-3.7-3.1-7.6-3.8-11.5-1.3c-1.5,0.9-2.8,3.4-2.7,5.2
			c0.1,4.9-2.2,10.6,3.8,13.9c0.5,0.3,1.2,0.5,1.8,0.5C265.4,228.7,274.4,228.7,283.4,228.7z M288.5,130.4
			c6.1,17.4,19.9,12.1,31.8,10.1c3.5-0.6,6.1-6.1,9.8-10.1C314.9,130.4,301.4,130.4,288.5,130.4z M348.9,209
			c-8.8,6.4-16.9,12.3-25,18.2c0.3,0.4,0.6,0.7,0.8,1.1c7.9,0,15.9,0,24.2,0C348.9,222,348.9,216,348.9,209z M251.6,151.3
			c1.5-3.2,2.7-6.6,4.6-9.7c2.6-4.2,1.2-7.1-2.8-10C248,137.8,251.9,144.7,251.6,151.3z"/>
	</g>
	<g>
		<g>
			<path d="M49.9,286.7l-2.8,5.5l-0.5-0.3c0-0.1,0-0.2,0-0.3c0-0.4-0.3-0.8-1-1.2c-2-1.4-4.4-2.1-7.1-2.1c-1.2,0-2.3,0.1-3.2,0.4
				c-0.7,0.2-1.2,0.6-1.6,1c-0.4,0.5-0.6,0.9-0.6,1.5c0,0.9,0.5,1.5,1.6,1.8c0.5,0.2,1.7,0.3,3.5,0.5l2.7,0.3
				c1.6,0.2,2.9,0.4,3.9,0.7c1,0.3,1.9,0.7,2.6,1.2c0.8,0.6,1.4,1.3,1.8,2.2c0.4,0.9,0.7,1.9,0.7,2.9c0,1.6-0.5,3.1-1.6,4.3
				c-1,1.2-2.4,2-4.4,2.6c-1.5,0.4-3.1,0.6-4.8,0.6c-3.1,0-6.1-0.7-9.1-2.2c-0.6-0.3-1-0.4-1.1-0.4c-0.1,0-0.4,0.1-0.7,0.4l-0.5-0.3
				l2.5-5.7l0.5,0.2c0,0.1,0,0.2,0,0.2c0,0.5,0.2,1,0.7,1.4c0.7,0.7,1.9,1.2,3.4,1.7s3,0.7,4.4,0.7c1.5,0,2.8-0.3,3.9-0.8
				c0.6-0.3,1.1-0.7,1.4-1.1c0.4-0.5,0.5-1,0.5-1.5c0-0.8-0.4-1.3-1.2-1.6c-0.6-0.2-1.7-0.4-3.5-0.6l-2.6-0.3
				c-1.8-0.2-3-0.4-3.7-0.5c-0.7-0.2-1.5-0.4-2.2-0.8c-1-0.5-1.8-1.3-2.4-2.3c-0.5-0.9-0.8-2-0.8-3.2c0-2,0.7-3.6,2-4.9
				c1.8-1.7,4.4-2.5,8-2.5c1.5,0,2.9,0.2,4.1,0.5c1.3,0.3,2.9,0.9,4.8,1.7c0.7,0.3,1.1,0.4,1.2,0.4c0.2,0,0.5-0.1,0.8-0.4
				L49.9,286.7z"/>
			<path d="M67.9,284.3c4,0,7.3,1.1,9.6,3.3c2.5,2.3,3.8,5.2,3.8,8.9c0,2.2-0.6,4.3-1.8,6.2c-2.3,3.8-6.2,5.6-11.6,5.6
				c-4,0-7.2-1.1-9.6-3.3c-1.3-1.2-2.2-2.6-2.9-4.2c-0.6-1.4-0.9-3-0.9-4.5c0-2.3,0.6-4.4,1.8-6.4C58.7,286.3,62.5,284.4,67.9,284.3
				z M67.9,288.3c-2.2,0-4.1,0.7-5.5,2c-1.7,1.6-2.6,3.6-2.6,6.1s0.9,4.5,2.6,6.1c1.5,1.3,3.3,2,5.6,2c2.2,0,4.1-0.7,5.5-2
				c0.9-0.8,1.5-1.7,2-2.9c0.4-1,0.6-2,0.6-3.1c0-2.6-0.9-4.7-2.6-6.2C72,288.9,70.2,288.3,67.9,288.3z"/>
			<path d="M110.3,286.5v13c0,2.5-0.5,4.3-1.4,5.5c-1.6,2.2-5,3.3-10.1,3.3c-3.7,0-6.5-0.6-8.5-1.8c-1.1-0.7-1.9-1.6-2.4-2.8
				c-0.4-1.2-0.6-2.6-0.6-4.2v-13c0-0.4-0.1-0.6-0.2-0.8s-0.4-0.3-0.8-0.4v-0.5h7.2v0.5c-0.4,0.1-0.7,0.2-0.8,0.4
				c-0.2,0.2-0.2,0.5-0.2,0.8v11.6c0,1.3,0.1,2.3,0.2,3c0.1,0.6,0.4,1.2,0.8,1.6c1.1,1.2,2.9,1.7,5.6,1.7c2.6,0,4.5-0.6,5.6-1.7
				c0.4-0.4,0.7-1,0.8-1.6c0.1-0.6,0.2-1.6,0.2-3v-11.6c0-0.4-0.1-0.6-0.2-0.8s-0.4-0.3-0.8-0.4v-0.5h6.8v0.5
				c-0.4,0.1-0.7,0.3-0.8,0.4S110.3,286.2,110.3,286.5z"/>
			<path d="M129,288.5v17.6c0,0.4,0.1,0.6,0.2,0.8c0.2,0.2,0.4,0.3,0.8,0.4v0.5h-7.2v-0.5c0.4-0.1,0.7-0.3,0.8-0.4
				c0.2-0.2,0.2-0.4,0.2-0.8v-17.6h-7.2c-0.3,0-0.6,0.1-0.8,0.2c-0.2,0.2-0.3,0.4-0.4,0.9H115v-6h0.5c0.1,0.4,0.3,0.7,0.5,0.9
				c0.2,0.2,0.4,0.2,0.8,0.2h19.5c0.4,0,0.6-0.1,0.8-0.2c0.2-0.2,0.3-0.4,0.4-0.9h0.5v6h-0.5c-0.1-0.4-0.3-0.7-0.4-0.9
				c-0.2-0.2-0.4-0.2-0.8-0.2H129z"/>
			<path d="M161.6,297.8h-13.4v8.4c0,0.3,0.1,0.6,0.2,0.8s0.4,0.3,0.8,0.4v0.5H142v-0.5c0.4-0.1,0.7-0.3,0.8-0.4
				c0.2-0.2,0.2-0.4,0.2-0.8v-19.7c0-0.3-0.1-0.6-0.2-0.8s-0.4-0.3-0.8-0.4v-0.5h7.2v0.5c-0.4,0.1-0.7,0.2-0.8,0.4
				c-0.2,0.2-0.2,0.5-0.2,0.8v7.5h13.4v-7.5c0-0.3-0.1-0.6-0.2-0.8c-0.2-0.2-0.4-0.3-0.8-0.4v-0.5h7.2v0.5c-0.4,0.1-0.7,0.3-0.8,0.4
				s-0.2,0.4-0.2,0.8v19.7c0,0.3,0.1,0.6,0.2,0.8c0.2,0.2,0.4,0.3,0.8,0.4v0.5h-7.2v-0.5c0.4-0.1,0.7-0.2,0.8-0.4
				c0.2-0.2,0.2-0.5,0.2-0.8V297.8z"/>
		</g>
		<g>
			<path d="M222.7,284.3c4,0,7.3,1.1,9.6,3.3c2.5,2.3,3.8,5.2,3.8,8.9c0,2.2-0.6,4.3-1.8,6.2c-2.3,3.8-6.2,5.6-11.6,5.6
				c-4,0-7.2-1.1-9.6-3.3c-1.3-1.2-2.2-2.6-2.9-4.2c-0.6-1.4-0.9-3-0.9-4.5c0-2.3,0.6-4.4,1.8-6.4
				C213.5,286.3,217.3,284.4,222.7,284.3z M222.7,288.3c-2.2,0-4.1,0.7-5.5,2c-1.7,1.6-2.6,3.6-2.6,6.1s0.9,4.5,2.6,6.1
				c1.5,1.3,3.3,2,5.6,2c2.2,0,4.1-0.7,5.5-2c0.9-0.8,1.5-1.7,2-2.9c0.4-1,0.6-2,0.6-3.1c0-2.6-0.9-4.7-2.6-6.2
				C226.8,288.9,225,288.3,222.7,288.3z"/>
			<path d="M247.6,304.1h14.3c0.4,0,0.6-0.1,0.8-0.2c0.2-0.2,0.3-0.4,0.4-0.8h0.5v6h-0.5c-0.1-0.4-0.3-0.7-0.4-0.8
				c-0.2-0.2-0.4-0.2-0.8-0.2h-20.4v-0.5c0.4-0.1,0.7-0.3,0.8-0.4c0.2-0.2,0.2-0.4,0.2-0.8v-19.6c0-0.4-0.1-0.6-0.2-0.8
				s-0.4-0.3-0.8-0.4v-0.5h7.2v0.5c-0.4,0.1-0.7,0.2-0.8,0.4c-0.2,0.2-0.2,0.5-0.2,0.8V304.1z"/>
			<path d="M269,306.1v-19.6c0-0.4-0.1-0.6-0.2-0.8s-0.4-0.3-0.8-0.4v-0.5h12.9c2.8,0,5,0.3,6.5,1c2.2,0.9,3.8,2.5,4.8,4.7
				c0.8,1.7,1.2,3.7,1.2,6c0,4-1.2,7-3.7,9.1c-1,0.9-2.2,1.5-3.6,1.9c-1.4,0.4-3.1,0.6-5.3,0.6h-12.9v-0.5c0.4-0.1,0.7-0.3,0.8-0.4
				C268.9,306.8,269,306.5,269,306.1z M274,304.1h6.4c2,0,3.6-0.3,4.6-0.8c2.2-1.2,3.3-3.5,3.3-7c0-2.5-0.6-4.4-1.8-5.7
				c-0.7-0.7-1.5-1.3-2.4-1.6c-0.9-0.3-2.2-0.5-3.7-0.5H274V304.1z"/>
			<path d="M318.3,297.8h-13.4v8.4c0,0.3,0.1,0.6,0.2,0.8c0.2,0.2,0.4,0.3,0.8,0.4v0.5h-7.2v-0.5c0.4-0.1,0.7-0.3,0.8-0.4
				c0.2-0.2,0.2-0.4,0.2-0.8v-19.7c0-0.3-0.1-0.6-0.2-0.8s-0.4-0.3-0.8-0.4v-0.5h7.2v0.5c-0.4,0.1-0.7,0.2-0.8,0.4
				c-0.2,0.2-0.2,0.5-0.2,0.8v7.5h13.4v-7.5c0-0.3-0.1-0.6-0.2-0.8c-0.2-0.2-0.4-0.3-0.8-0.4v-0.5h7.2v0.5c-0.4,0.1-0.7,0.3-0.8,0.4
				s-0.2,0.4-0.2,0.8v19.7c0,0.3,0.1,0.6,0.2,0.8c0.2,0.2,0.4,0.3,0.8,0.4v0.5h-7.2v-0.5c0.4-0.1,0.7-0.2,0.8-0.4
				c0.2-0.2,0.2-0.5,0.2-0.8V297.8z"/>
			<path d="M347.4,302h-10.5l-1.6,3.3c-0.2,0.5-0.3,0.8-0.3,1.1c0,0.5,0.4,0.8,1.1,1v0.5h-7.7v-0.5c0.5-0.1,0.8-0.2,1-0.5
				s0.5-0.7,0.8-1.3l8.5-17.8c0.3-0.6,0.4-1,0.4-1.4c0-0.5-0.3-0.9-1-1.1v-0.5h8.2v0.5c-0.7,0.2-1,0.5-1,1c0,0.3,0.1,0.7,0.3,1.1
				l8.8,17.9c0.4,0.8,0.7,1.3,1,1.6s0.7,0.5,1.1,0.6v0.5h-8.5v-0.5c0.7-0.1,1.1-0.5,1.1-1.1c0-0.2-0.1-0.6-0.3-1.1L347.4,302z
				 M345.9,298.8l-3.8-8.3l-3.8,8.3H345.9z"/>
			<path d="M374.8,307.9l-8.6-16v14.2c0,0.4,0.1,0.6,0.2,0.8c0.2,0.2,0.4,0.3,0.8,0.4v0.5h-6.8v-0.5c0.4-0.1,0.7-0.3,0.8-0.4
				c0.2-0.2,0.2-0.4,0.2-0.8v-19.7c0-0.3-0.1-0.6-0.2-0.8s-0.4-0.3-0.8-0.4v-0.5h8.9v0.5c-0.5,0.1-0.8,0.4-0.8,0.9
				c0,0.2,0.1,0.5,0.2,0.8l6.3,12l6.4-11.8c0.3-0.5,0.4-0.9,0.4-1.1c0-0.5-0.3-0.7-0.8-0.8v-0.5h8.8v0.5c-0.4,0.1-0.7,0.3-0.8,0.4
				s-0.2,0.4-0.2,0.8v19.7c0,0.4,0.1,0.6,0.2,0.8c0.2,0.2,0.4,0.3,0.8,0.4v0.5h-7.2v-0.5c0.4-0.1,0.7-0.2,0.8-0.4s0.2-0.5,0.2-0.8
				v-14.2L374.8,307.9z"/>
		</g>
		<g>
			<path d="M435.4,292v14.1c0,0.4,0.1,0.6,0.2,0.8c0.2,0.2,0.4,0.3,0.8,0.4v0.5h-6.8v-0.5c0.4-0.1,0.7-0.3,0.8-0.4
				c0.2-0.2,0.2-0.4,0.2-0.8v-19.7c0-0.3-0.1-0.6-0.2-0.8s-0.4-0.3-0.8-0.4v-0.5h7.9v0.5c-0.5,0.1-0.7,0.4-0.7,0.8
				c0,0.3,0.2,0.6,0.5,0.9l12.8,13.3v-13.8c0-0.3-0.1-0.6-0.2-0.8c-0.2-0.2-0.4-0.3-0.8-0.4v-0.5h6.8v0.5c-0.4,0.1-0.7,0.3-0.8,0.4
				s-0.2,0.4-0.2,0.8v19.7c0,0.4,0.1,0.6,0.2,0.8c0.2,0.2,0.4,0.3,0.8,0.4v0.5h-7.3v-0.5c0.5-0.1,0.7-0.3,0.7-0.7
				c0-0.2-0.3-0.6-0.8-1.2L435.4,292z"/>
			<path d="M474.4,284.3c4,0,7.3,1.1,9.6,3.3c2.5,2.3,3.8,5.2,3.8,8.9c0,2.2-0.6,4.3-1.8,6.2c-2.3,3.8-6.2,5.6-11.6,5.6
				c-4,0-7.2-1.1-9.6-3.3c-1.3-1.2-2.2-2.6-2.9-4.2c-0.6-1.4-0.9-3-0.9-4.5c0-2.3,0.6-4.4,1.8-6.4
				C465.1,286.3,469,284.4,474.4,284.3z M474.4,288.3c-2.2,0-4.1,0.7-5.5,2c-1.7,1.6-2.6,3.6-2.6,6.1s0.9,4.5,2.6,6.1
				c1.5,1.3,3.3,2,5.6,2c2.2,0,4.1-0.7,5.5-2c0.9-0.8,1.5-1.7,2-2.9c0.4-1,0.6-2,0.6-3.1c0-2.6-0.9-4.7-2.6-6.2
				C478.5,288.9,476.6,288.3,474.4,288.3z"/>
			<path d="M499.3,298.5v7.7c0,0.3,0.1,0.6,0.2,0.8c0.2,0.2,0.4,0.3,0.8,0.4v0.5h-7.2v-0.5c0.4-0.1,0.7-0.3,0.8-0.4
				c0.2-0.2,0.2-0.4,0.2-0.8v-19.7c0-0.4-0.1-0.6-0.2-0.8s-0.4-0.3-0.8-0.4v-0.5h14.5c1.8,0,3.2,0.1,4.2,0.3c1,0.2,1.9,0.6,2.7,1.1
				c0.9,0.6,1.6,1.4,2,2.4c0.4,1,0.6,2,0.6,3.1c0,3.8-2.1,6-6.3,6.6l4.5,6.4c0.8,1.1,1.4,1.8,1.7,2.2c0.4,0.3,0.8,0.5,1.4,0.5v0.5
				h-8.4v-0.5c0.6-0.1,0.9-0.3,0.9-0.6c0-0.2-0.3-0.7-0.8-1.5l-4.7-6.8H499.3z M499.3,294.6h7.8c1.2,0,2,0,2.4-0.1s0.9-0.2,1.3-0.4
				c0.9-0.5,1.3-1.3,1.3-2.5s-0.4-2.1-1.3-2.5c-0.4-0.2-0.8-0.4-1.3-0.4c-0.5-0.1-1.3-0.1-2.5-0.1h-7.8V294.6z"/>
			<path d="M535.5,288.5v17.6c0,0.4,0.1,0.6,0.2,0.8c0.2,0.2,0.4,0.3,0.8,0.4v0.5h-7.2v-0.5c0.4-0.1,0.7-0.3,0.8-0.4
				c0.2-0.2,0.2-0.4,0.2-0.8v-17.6h-7.2c-0.3,0-0.6,0.1-0.8,0.2c-0.2,0.2-0.3,0.4-0.4,0.9h-0.5v-6h0.5c0.1,0.4,0.3,0.7,0.5,0.9
				c0.2,0.2,0.4,0.2,0.8,0.2h19.5c0.4,0,0.6-0.1,0.8-0.2c0.2-0.2,0.3-0.4,0.4-0.9h0.5v6h-0.5c-0.1-0.4-0.3-0.7-0.4-0.9
				c-0.2-0.2-0.4-0.2-0.8-0.2H535.5z"/>
			<path d="M568.1,297.8h-13.4v8.4c0,0.3,0.1,0.6,0.2,0.8c0.2,0.2,0.4,0.3,0.8,0.4v0.5h-7.2v-0.5c0.4-0.1,0.7-0.3,0.8-0.4
				c0.2-0.2,0.2-0.4,0.2-0.8v-19.7c0-0.3-0.1-0.6-0.2-0.8c-0.2-0.2-0.4-0.3-0.8-0.4v-0.5h7.2v0.5c-0.4,0.1-0.7,0.2-0.8,0.4
				c-0.2,0.2-0.2,0.5-0.2,0.8v7.5h13.4v-7.5c0-0.3-0.1-0.6-0.2-0.8c-0.2-0.2-0.4-0.3-0.8-0.4v-0.5h7.2v0.5c-0.4,0.1-0.7,0.3-0.8,0.4
				s-0.2,0.4-0.2,0.8v19.7c0,0.3,0.1,0.6,0.2,0.8c0.2,0.2,0.4,0.3,0.8,0.4v0.5H567v-0.5c0.4-0.1,0.7-0.2,0.8-0.4s0.2-0.5,0.2-0.8
				V297.8z"/>
		</g>
	</g>
</g>
</svg>
