<?xml version="1.0" encoding="utf-8"?>
<!-- Generator: Adobe Illustrator 22.0.1, SVG Export Plug-In . SVG Version: 6.00 Build 0)  -->
<svg version="1.1" id="Layer_1" xmlns="http://www.w3.org/2000/svg" xmlns:xlink="http://www.w3.org/1999/xlink" x="0px" y="0px"
	 viewBox="0 0 600 400" style="enable-background:new 0 0 600 400;" xml:space="preserve">
<style type="text/css">
	.st0{fill:#231F20;}
</style>
<g>
	<path class="st0" d="M133.5,148.4c-0.6-0.6-1.2-1.1-1.8-1.7c-0.6-0.5-1.2-1.1-1.8-1.6c-0.3-0.3-0.6-0.5-0.9-0.8c-1.2-1-2.5-2-3.8-3
		c-0.7-0.5-1.3-0.9-2-1.4c-0.7-0.5-1.4-0.9-2-1.3c-0.3-0.2-0.7-0.4-1-0.6c-0.7-0.4-1.4-0.8-2.1-1.2c-0.7-0.4-1.3-0.7-2-1.1
		c-2.5-1.3-5-2.4-7.6-3.4c-0.3-0.1-0.7-0.2-1-0.4c-1-0.4-2-0.7-3-1c-1.3-0.4-2.7-0.8-4.1-1.2c-0.7-0.2-1.4-0.3-2.1-0.5
		c-0.6-0.1-1.3-0.3-1.9-0.4c-0.2,0-0.3-0.1-0.5-0.1h0c-4.3-0.8-8.8-1.2-13.3-1.2c-1.3,0-2.5,0-3.8,0.1c-2.4,0.1-4.8,0.4-7.2,0.7
		c-5.2,0.8-10.2,2.1-15,4c-1,0.4-2,0.8-3,1.2c-0.6,0.3-1.2,0.5-1.8,0.8c-0.8,0.4-1.6,0.8-2.4,1.2c-1.5,0.7-2.9,1.5-4.3,2.4
		c-0.7,0.4-1.4,0.9-2.1,1.3c-0.8,0.5-1.5,1-2.3,1.6c-0.5,0.3-1,0.7-1.5,1.1c-0.2,0.1-0.3,0.2-0.5,0.3c-0.5,0.4-1,0.8-1.5,1.2
		c-0.1,0.1-0.2,0.2-0.3,0.3c-0.5,0.4-1.1,0.9-1.6,1.3c-0.1,0.1-0.2,0.1-0.2,0.2c-2.6,2.2-5,4.7-7.3,7.2c-0.4,0.4-0.8,0.9-1.2,1.4
		c-1,1.2-2,2.5-3,3.8c-0.7,1-1.4,2-2.1,3c-0.2,0.3-0.4,0.7-0.7,1c-0.2,0.3-0.4,0.7-0.6,1.1c-0.2,0.4-0.5,0.8-0.7,1.2
		c-0.5,0.8-1,1.7-1.4,2.6c-0.2,0.4-0.4,0.8-0.6,1.2v0c-0.5,1-0.9,1.9-1.4,2.9c-0.5,1.2-1,2.4-1.5,3.7c-0.2,0.6-0.5,1.3-0.7,1.9
		c-0.5,1.5-1,3.1-1.4,4.6c-0.6,2.3-1.1,4.6-1.5,7c-0.1,0.5-0.2,1.1-0.3,1.6c-0.1,0.5-0.1,1-0.2,1.5c-0.2,1.5-0.3,3-0.4,4.5
		c0,0.5-0.1,1-0.1,1.5c0,0.4,0,0.7,0,1.1c0,0.4,0,0.7,0,1.1h0c0,0.3,0,0.6,0,1c0,0.4,0,0.7,0,1.1c0,0.1,0,0.2,0,0.2
		c0,1.1,0.1,2.2,0.1,3.3l0,0c0.1,0.9,0.1,1.7,0.2,2.6c0.1,0.5,0.1,1.1,0.2,1.6c1.6,12.9,6.5,24.7,13.9,34.6c1.6,2.2,3.3,4.2,5.2,6.2
		c0.5,0.6,1.1,1.2,1.7,1.7c0.4,0.4,0.8,0.8,1.1,1.1c0.6,0.6,1.2,1.1,1.8,1.6c0.8,0.7,1.6,1.4,2.4,2.1c1.2,1,2.5,2,3.8,2.9
		c0.4,0.3,0.9,0.6,1.3,0.9c0.9,0.6,1.8,1.2,2.7,1.8c0.5,0.3,0.9,0.6,1.4,0.8c3.7,2.2,7.7,4,11.8,5.5c1,0.4,2.1,0.7,3.1,1.1
		c6.8,2.1,14.1,3.3,21.6,3.3c0,0,0.1,0,0.1,0c40,0,72.5-32.5,72.5-72.5C155,179.8,146.8,161.6,133.5,148.4z M147.5,179.8
		c-0.1-0.1-0.3-0.1-0.4-0.1c-0.1,0-0.1-0.1-0.1-0.2c0.1-0.5,0.5-0.6,0.9-0.4c0.1,0,0.1,0.1,0.2,0.1c0.3,0.3,0.7,0.3,1,0.1
		c0,0,0.1,0,0.1-0.1c0.2,0.5,0.3,1.1,0.5,1.6c-0.1,0-0.2,0-0.3,0c-0.5,0-1.1,0.3-1.2,0.6c-0.1,0.5,0.1,1,0.5,1.3
		c0.3,0.2,0.6,0.4,0.9,0.6c0.3,0.1,0.5,0.2,0.8,0.3c0.1,0.4,0.2,0.8,0.3,1.3c-0.3,0.1-0.7,0.1-1.1-0.1c-0.1-0.1-0.3-0.1-0.5-0.2
		c-0.9-0.2-1.8-0.6-2-1.6c0-0.1-0.1-0.2-0.2-0.3c0-0.1-0.1-0.2-0.1-0.3c0.3-0.5,0.5-1.1,0.8-1.6
		C148.1,180.4,148.1,180.1,147.5,179.8z M136.2,158.7c0.3,0.1,0.6,0.3,0.7,0.5c0.4,0.6,0.8,1.3,1.2,2c0.3,0.5,0,1-0.1,1.5
		c-0.1,0.2-0.1,0.5,0,0.6c0.1,0.1,0.4,0.1,0.6,0.1c0.4-0.1,0.8-0.4,1.2-0.3c0.3,0.1,0.6,0.5,0.9,0.8c0.2,0.3,0.5,0.7,0.6,1
		c0.1,0.2,0,0.5-0.1,0.7c-0.1,0.1-0.4,0.1-0.7,0.1c-0.2,0-0.3-0.1-0.5-0.2c-1-0.5-1.4-0.3-1.9,0.7c-0.2-0.1-0.5-0.2-0.6-0.4
		c-0.3-0.3-0.5-0.5-0.9-0.6c-0.3,0-0.4-0.2-0.3-0.5c0-0.3,0.1-0.5,0.1-0.8c0-0.4,0.1-0.8,0.1-1.2c0-0.6,0-1.2,0-1.8
		c0-0.2-0.1-0.5-0.2-0.7c-0.3-0.4-0.3-0.9-0.3-1.4C135.8,158.7,135.9,158.6,136.2,158.7z M134.9,160.2c0.5-0.1,0.7,0.1,0.6,0.6
		c-0.1,0.4-0.4,0.7-0.5,1.1c-0.1,0.1-0.2,0.3-0.1,0.5c0.2,0.7,0.1,1.3-0.1,2c-0.2,0.5,0.1,1,0.4,1.4c0.2,0.2,0.3,0.4,0.1,0.7
		c-0.1,0.1,0,0.3,0,0.4c0,0.5-0.2,0.7-0.8,0.7c-0.3,0-0.7-0.1-0.9-0.6c-0.2-0.5-0.6-0.8-1.1-1.1c-0.2-0.1-0.6-0.4-0.5-0.6
		c0-0.4,0.1-0.8,0.5-1c0.4-0.2,0.7-0.5,1.1-0.8c0.4-0.4,0.4-0.9,0-1.2c0,0,0,0,0,0c-0.3-0.2-0.6-0.5-0.4-0.9c0.2-0.4,0.5-0.7,1-0.8
		C134.4,160.3,134.7,160.3,134.9,160.2z M108.2,143.3c0.4-0.4,0.7-0.5,1.2-0.2c0.3,0.2,0.6,0.3,0.9,0.5c0.4,0.3,0.7,0.2,1,0
		c0.3-0.2,0.6-0.4,0.9-0.6c0.1-0.1,0.4-0.1,0.5,0c0.1,0.1,0.2,0.4,0.1,0.5c-0.2,0.3-0.4,0.6-0.6,0.8c-0.2,0.2-0.5,0.3-0.3,0.7
		c0.1,0.3,0.8,0.4,1,0.3c0.2-0.1,0.3-0.3,0.4-0.4c0.1-0.1,0.1-0.2,0.1-0.3c0.1-0.2,0.4-0.5,0.4-0.7c-0.1-0.4-0.3-0.7-0.5-1
		c-0.1-0.2-0.3-0.3-0.3-0.5c-0.4-1,0.1-1.7,1.2-1.8c0.2,0,0.3-0.1,0.3-0.2c0.2-0.4,0.6-0.7,0.5-1.3c0-0.2,0-0.5-0.1-0.7
		c0-0.1-0.1-0.3-0.1-0.4c0.6,0.3,1.2,0.6,1.8,1c0,0.1,0,0.1,0,0.2c0.1,0.3,0.2,0.5,0.6,0.5c0.7,0,0.7,0,0.7,0.8
		c-0.1,0.6,0,1.3,0.2,1.8c0,0.1,0,0.3-0.1,0.4c-0.1,0.2-0.3,0.5-0.5,0.7c-0.2,0.3-0.4,0.6-0.8,0.7c-0.4,0.1-0.6-0.1-0.6-0.5
		c0-0.1,0-0.3,0-0.4c-0.1-0.1-0.2-0.2-0.3-0.3c-0.1,0.1-0.3,0.3-0.3,0.4c0.3,0.8-0.1,1.3-0.6,1.8c-0.2,0.2-0.3,0.4-0.3,0.6
		c-0.1,0.5-0.5,0.8-1,0.9c-0.4,0.1-0.7,0.2-1.1,0.4c-0.6,0.2-0.8,0.5-0.7,1.1c0,0.2,0.1,0.4,0.1,0.7c0.1,0.4-0.2,0.7-0.6,0.8
		c-1,0.1-1.5-0.4-1.3-1.4c-0.1-0.4-0.2-0.8-0.4-1.2c-0.1-0.4,0-1.1,0.3-1.3c0.1,0,0.2,0,0.3,0c0.3,0,0.5-0.4,0.4-0.6
		c0-0.1-0.2-0.2-0.3-0.1c-0.4,0.2-0.8,0.3-1.1,0.7c-0.3,0.4-0.9,0.3-1.1-0.3c-0.1-0.2-0.2-0.3-0.2-0.4
		C107.8,144.2,107.8,143.8,108.2,143.3z M107.8,155.4c0.3,0.1,0.5,0.1,0.8,0c0.4,0,0.8-0.1,1.2-0.1c0.8,0.1,1.4-0.2,1.9-0.7
		c0.2-0.2,0.3-0.5,0.1-0.7c-0.5-0.7-1.2-1.1-2-1.2c-0.4,0-0.7-0.1-1.1-0.2c-0.3-0.1-0.5-0.4-0.5-0.8c0-0.7,0.3-0.8,0.9-0.5
		c0.3,0.1,0.6,0.3,0.9,0.4c0.8,0.3,1.5,0.1,2-0.6c0.1-0.2,0.3-0.4,0.4-0.6c0.2-0.3,0.4-0.3,0.7-0.1c0.2,0.2,0.3,0.4,0.5,0.5
		c0.2,0.1,0.4,0.1,0.6,0.1c0.1,0,0.1-0.3,0.1-0.5c0-0.2-0.1-0.4-0.2-0.5c-0.2-0.5-0.1-0.8,0.4-1.1c0.4-0.3,0.6-0.3,1,0.1
		c0.4,0.4,0.6,0.4,1,0.1c0.8-0.7,1.4-1.6,1.7-2.7c0.1-0.5,0.3-0.6,0.8-0.5c0.1,0,0.3,0.1,0.4,0.1c0.4,0.2,0.7,0.1,1-0.2
		c0.1-0.1,0.1-0.2,0.2-0.2c0.6-0.3,0.7-0.8,0.7-1.3c0-0.2,0.1-0.6,0.3-0.6c0.3-0.1,0.6,0,0.9,0.1c0.1,0,0.2,0.3,0.1,0.5
		c-0.1,0.5,0,0.9,0.1,1.3c0.1,0.3,0.1,0.6,0,0.9c0,0.4-0.1,0.7-0.1,1.1c0,0.7-0.2,0.9-0.8,0.6c-0.3-0.1-0.6-0.3-0.8-0.5
		c-0.4-0.3-0.7-0.5-1.1-0.8c-0.1,0-0.2,0-0.2,0c0,0-0.1,0.1,0,0.2c0.1,0.6-0.1,1.1-0.7,1.4c-0.8,0.4-0.9,0.9-0.6,1.7
		c0.2,0.5,0.1,0.8-0.5,0.9c-0.2,0.1-0.5,0-0.8,0c-0.5-0.1-0.8,0.1-0.9,0.6c-0.1,0.5,0,0.7,0.5,0.8c0,0,0.1,0,0.1,0
		c0.4,0.1,0.8,0.1,1.1,0.5c0.3,0.6,0.4,1.2,0.2,1.8c-0.1,0.4,0,0.6,0.2,0.8c0.8,0.7,0.9,1.6,0.7,2.6c-0.1,0.4,0.2,0.8,0.6,0.8
		c0.7,0,1.3,0.3,1.8,0.8c0.1,0.1,0.2,0.2,0.3,0.2c0.8,0.2,1.6,0.3,2.3,0.5c0.2,0.1,0.4,0.3,0.6,0.5c0.3,0.3,0.6,0.7,0.9,0.9
		c0.9,0.4,1.8,0,2.3-0.8c0.3-0.6,0.6-0.7,1.3-0.6c0.3,0.1,0.7,0.1,1,0.2c0.2,0,0.4,0,0.5,0c0.2-0.1,0.4-0.3,0.6-0.4
		c-0.2-0.1-0.3-0.3-0.5-0.4c-1.2-0.5-1.3-1-0.3-1.8c0.5-0.5,0.5-0.9-0.2-1.3c-0.2-0.1-0.3-0.2-0.5-0.2c-0.9-0.3-0.9-0.3-1.4,0.5
		c-0.1,0.1-0.1,0.3-0.2,0.4c-0.1,0.5-0.3,1-0.8,1.4c-0.2,0.2-0.3,0.5-0.4,0.8c-0.4,0.7-0.8,0.9-1.5,0.6c-0.4-0.2-0.6-0.5-0.3-1
		c0.1-0.2,0.2-0.4,0.4-0.6c0.8-0.4,0.9-1.3,1-2c0-0.1-0.1-0.3-0.2-0.4c-0.2-0.3-0.5-0.6-0.7-0.9c-0.2-0.3-0.1-0.6,0.2-0.8
		c0.3-0.2,0.5,0,0.7,0.2c0.2,0.2,0.4,0.5,0.6,0.8c0.2,0.2,0.4,0.6,0.8,0.4c0.3-0.2,0.5-0.5,0.7-0.9c0.1-0.2,0-0.5,0.1-0.8
		c0-0.2,0.2-0.4,0.3-0.4c0.3-0.1,0.4,0.1,0.4,0.4c0,0.1,0,0.2,0,0.2c0.2,0.1,0.5,0.4,0.7,0.4c0.3-0.1,0.3-0.4,0.1-0.7
		c-0.1-0.2-0.3-0.4-0.5-0.5c-0.4-0.2-0.5-0.4-0.5-0.8c0-0.5,0-1,0-1.5c0-0.2,0.2-0.3,0.4-0.4c0.3-0.1,0.7-0.2,0.9,0.1
		c0.4,0.4,0.7,0.8,0.8,1.4c0.1,0.5,0.4,0.9,0.7,1.4c0.1,0.2,0.3,0.4,0.5,0.6c0.5,0.7,0.5,0.9,0.1,1.6c-0.1,0.2-0.3,0.3-0.5,0.4
		c-0.1,0.1-0.3,0-0.4,0.1c-0.1,0.1-0.2,0.2-0.3,0.3c0.1,0.1,0.2,0.2,0.4,0.2c0.1,0,0.2,0,0.3,0c0.5,0,1,0,1.2,0.6
		c0,0.1,0.1,0.1,0.1,0.2c0.5,0.6,0.6,0.9,0.2,1.5c-0.3,0.4-0.7,0.8-1,1.3c-0.2,0.3-0.2,0.6,0,0.9c0.1,0.1,0.1,0.3,0.1,0.3
		c-0.3,0.3-0.6,0.7-0.9,0.9c-0.3,0.2-0.7,0.1-1.1-0.1c-0.3-0.2-0.6-0.3-0.9-0.4c-0.3-0.1-0.5-0.1-0.7,0.1c-0.2,0.3-0.3,0.6-0.1,0.9
		c0.2,0.3,0.6,0.6,0.9,0.9c0.3,0.3,0.5,0.9,0.3,1.2c-0.2,0.3-0.6,0.5-1,0.4c-0.2-0.1-0.4-0.2-0.5-0.3c-0.4-0.4-0.9-0.6-1.4-0.5
		c-0.4,0.1-0.8,0.1-1.2,0.2c-0.6,0.1-0.8,0-1-0.6c0-0.1-0.1-0.2-0.1-0.3c-0.2-0.3-0.5-0.5-0.9-0.5c-0.1,0-0.2,0-0.3,0
		c-0.4,0-0.7-0.1-0.8-0.5c-0.1-0.3-0.2-0.5-0.7-0.4c-0.5,0.2-1.1,0.1-1.5-0.3c-0.4-0.3-0.8-0.5-1.3-0.3c-0.5,0.1-0.8-0.1-0.9-0.5
		c0-0.1-0.1-0.2-0.1-0.3c-0.2-0.5-0.6-0.6-0.9-0.2c-0.3,0.3-0.6,0.5-1.1,0.6c-0.4,0-0.7,0.2-0.8,0.6c-0.2,0.5-0.7,0.6-1.2,0.7
		c-0.6,0.1-1.1,0.3-1.4,0.9c-0.3,0.5-0.9,0.7-1.3,0.4c-0.3-0.2-0.3-0.5,0-0.7c0.2-0.1,0.5-0.2,0.8-0.4c0.2-0.1,0.5-0.3,0.6-0.5
		c0.3-0.5,0.1-0.7-0.4-1c-0.6-0.3-1.1-0.7-1.5-1c-0.3-0.2,0-0.7,0.4-0.7c0.4-0.1,0.8-0.1,1.2-0.2c0.4-0.1,0.8,0,1,0.4
		c0.1,0.2,0.2,0.3,0.3,0.5c0.1,0.1,0.2,0.1,0.3,0.1c0.2,0,0.4,0,0.7,0c0.1,0,0.3-0.1,0.3-0.2c0.1-0.3,0-0.6,0.1-0.9
		c0.1-0.3,0.1-0.7,0.3-1c0.2-0.4,0.5-0.4,0.8,0c0.2,0.4,0.4,0.8,0.6,1.1c0.2,0.3,0.3,0.3,0.5,0c0.2-0.2,0.4-0.3,0.6-0.5
		c-0.3-0.5-0.5-1-0.8-1.6c-0.2-0.3-0.4-0.6-0.6-0.8c-0.2-0.3-0.5-0.3-0.8,0c0,0-0.1,0.1-0.1,0.1c-0.4,0.7-1,0.9-1.7,1.1
		c-0.1,0-0.4-0.1-0.4-0.2c-0.6-1.4-1.3-1.3-2.7-0.8c-0.3,0.1-0.5,0.2-0.8,0.3c-0.4,0.2-0.7,0.2-1.1-0.1c-0.4-0.3-0.8-0.5-1.3-0.6
		c-0.5,0-0.8-0.6-0.6-1C107.3,155.4,107.5,155.3,107.8,155.4z M47.9,140.7c0.3-0.5,0.4-1.1,0.3-1.7c0.7-0.4,1.4-0.8,2.1-1.1
		c0.3,0.4,0.7,0.8,1.1,1.2c0.3,0.3,0.5,0.2,0.8-0.1c0.2-0.3,0.5-0.5,0.7-0.8c0.1-0.1,0.2-0.3,0.2-0.5c-0.1-0.5,0-0.9,0.1-1.3
		c0.5-0.2,1-0.4,1.4-0.6c0.4-0.2,0.8-0.4,1.3-0.5c0.4,0.1,0.7,0.4,1,0.7c0.3,0.5,0.3,0.8,0,1.2c-0.3,0.3-0.7,0.4-1.2,0.2
		c-0.1-0.1-0.3-0.2-0.4-0.2c-0.4-0.2-1,0-1.4,0.3c-0.3,0.3-0.3,0.7-0.1,1c0.3,0.5,0.6,1.1,0.9,1.6c0.1,0.3,0.3,0.5,0.3,0.8
		c0,0.4,0.2,0.5,0.5,0.4c0.5-0.1,1.1,0,1.5,0.2c0.1,0.1,0.3,0.1,0.5,0.1c0.3,0.2,0.7,0.3,1,0.5c0.1,0.1,0.3,0.2,0.4,0.1
		c0.5-0.2,0.6-0.7,0.7-1.2c0.1-0.4-0.2-0.5-0.5-0.6c-0.5-0.3-0.6-0.9-0.6-1.4c0-0.5,0.3-0.9,0.9-1c0.8-0.2,0.8-0.3,0.7-1.1
		c-0.1-0.5,0.2-0.8,0.8-0.7c0.2,0,0.4,0.1,0.5,0.2c0.5,0.2,1.2,0.1,1.7-0.4c0.3-0.4,0-0.7-0.1-1c0-0.1,0-0.1-0.1-0.2
		c-0.1-0.4,0-0.6,0.3-0.9c0.3-0.2,0.5-0.1,0.8-0.1c0.4,0.1,0.8,0.2,1.2,0.1c0.5-0.2,0.9-0.1,1.3,0.1c0.4,0.2,0.8,0.3,1.2,0.2
		c0.2,0,0.4-0.1,0.6,0c0.2,0,0.4,0.1,0.6,0.2c0.4,0.3,0.7,0.6,1,0.9c0.5,0.4,1.2,0.3,1.4-0.2c0.4-0.7,1.1-0.8,1.5-0.1
		c0.3,0.4,0.5,0.9,0.8,1.3c0.1,0.1,0.3,0.3,0.4,0.3c0.8,0,1.4,0.4,2,0.8c0.3,0.2,0.7,0.6,0.8,0.9c0,0.5,0.2,0.8,0.4,1.2
		c0.2,0.4,0.5,0.7,0.9,1c0.1,0.1,0.5,0.2,0.7,0.1c0.2-0.1,0.3-0.4,0.3-0.7c0-0.2-0.1-0.4-0.2-0.6c-0.2-0.4-0.3-0.9-0.1-1.3
		c0.2-0.5,0.1-0.8-0.4-0.9c-0.3-0.1-0.4-0.3-0.5-0.6c-0.1-0.6,0.4-0.9,1.1-0.8c0.4,0.1,0.7,0.2,1,0.3c0.3,0.1,0.5,0.1,0.8,0.2
		c0.4,0,0.5-0.2,0.5-0.5c0-0.4,0.2-0.8,0.3-1.2c0,0,0.2,0,0.3,0c0-0.2,0-0.5-0.1-0.7c-0.3-0.4-0.2-0.7-0.2-1.1
		c0-0.4,0.2-0.6,0.6-0.6c0.4,0,0.7,0.2,0.8,0.6c0.1,0.3,0.1,0.7,0.1,1.1c0,0.6,0.8,1.1,1.3,0.8c1-0.7,2.1-1.2,1.9-2.7
		c-0.1-0.7-0.3-1.3-0.7-1.9c0.6,0,1.2,0.1,1.9,0.1c0.2,0.2,0.4,0.3,0.7,0.3c0.2,0,0.4-0.1,0.5-0.3c0.7,0.1,1.4,0.1,2,0.2
		c0,0.1,0,0.3-0.1,0.4c0,0.2-0.2,0.4-0.2,0.6c0,0.1,0,0.4,0.1,0.4c0.1,0.1,0.4,0.1,0.5,0c0.3-0.4,0.9-0.7,1-1.2
		c0.4,0.1,0.8,0.1,1.3,0.2c-0.1,0.1-0.1,0.3-0.2,0.4c-0.2,0.3-0.2,0.5,0,0.8c0.5,0.6,1.1,1,1.9,1.1c0,0,0,0,0,0
		c-0.1,0.4-0.2,0.9-0.3,1.3c-0.2,0.7-0.7,0.9-1.3,0.5c-0.3-0.2-0.5-0.5-0.7-0.8c-0.5-0.7-1-0.8-1.5-0.5c-0.7,0.5-0.8,1-0.3,1.7
		c0.2,0.2,0.4,0.5,0.6,0.7c0.2,0.2,0.4,0.4,0.6,0.6c0.3,0.4,0.2,0.6-0.3,0.7c-0.5,0.2-1,0.4-1.5,0.7c-0.5,0.3-0.6,0.7-0.3,1.2
		c0.4,0.6-0.1,1.5-0.8,1.6c-0.9,0.2-1,1-1.5,1.6c0,0,0,0.1,0,0.2c0.2,0.5,0.4,1.1,0.7,1.6c0.2,0.4,0.4,0.7,0.2,1.1
		c-0.1,0.3,0.5,0.6,0.6,1c0.3,1.1,1.1,1.8,1.8,2.6c0.3,0.3,0.7,0.3,1.1-0.1c0.2-0.2,0.4-0.4,0.7-0.5c0.1,0,0.4,0.1,0.4,0.2
		c0,0.3,0,0.8-0.2,1c-0.5,0.5-1,1-1.5,1.4c-0.1,0-0.2-0.1-0.2-0.1c-0.2-0.1-0.3-0.2-0.5-0.3c-0.6-0.2-1.8,0.5-1.9,1.1
		c0,0.1,0,0.2,0,0.3c0.5,0.9,0.8,1.8,1.7,2.3c0.2,0.1,0.4,0.2,0.5,0.3c0.3,0.2,0.4,0.4,0.3,0.7c-0.2,0.4,0,0.6,0.3,0.8
		c0.1,0.1,0.3,0.2,0.4,0.4c0.4,0.5,0.4,0.8,0.1,1.3c-0.1,0.2-0.2,0.4-0.2,0.6c-0.1,0.3,0.1,0.4,0.3,0.4c0.6,0,1-0.5,0.9-1.1
		c0-0.3,0-0.6,0-0.9c0.1-0.5,0-1-0.2-1.5c-0.4-0.7-0.4-0.8,0.3-1.2c0.7-0.4,1.2-0.2,1.7,0.4c0.4,0.6,0.9,1.2,1.4,1.7
		c0.3,0.4,0.2,0.9-0.4,1c-0.2,0-0.4,0.1-0.5,0.1c-0.7,0.6-1.2,1.2-1.5,2c-0.2,0.5-0.3,1-0.8,1.4c-0.2,0.1-0.3,0.5-0.5,0.7
		c-0.1,0.1-0.2,0.2-0.3,0.3c-0.6,0-1.1,0-1.7,0c-0.3-0.3-0.7-0.5-1-0.8c-0.2-0.2-0.3-0.4-0.1-0.7c0.3-0.5,0.6-0.9,0.9-1.3
		c0.1-0.1,0.2-0.4,0.1-0.5c-0.5-0.6-0.8-1.4-1.6-1.8c-0.6-0.3-1-0.8-1.5-1.3c-0.1-0.1-0.1-0.2-0.1-0.3c-0.1-0.8-0.1-1.5-0.2-2.3
		c0-0.3,0-0.6-0.2-0.8c-0.4-0.4-0.8-0.5-1.3-0.3c-0.1,0-0.3,0.3-0.3,0.4c0.1,0.5-0.2,0.8-0.4,1.2c-0.2,0.4-0.3,0.4-0.6,0.1
		c-0.2-0.2-0.3-0.2-0.4,0.1c0,0.1-0.1,0.3-0.1,0.4c0.1,0.5-0.2,0.8-0.6,1c-0.6,0.5-0.7,0.8-0.2,1.4c0.3,0.4,0.2,0.6-0.3,0.7
		c-0.2,0-0.3,0.1-0.5,0.2c-0.3,0.2-1.1-0.1-1.2-0.5c0-0.1,0-0.3,0.1-0.4c0.1-0.1,0.2-0.2,0.3-0.3c0.9-0.6,0.9-0.8,0.3-1.6
		c-0.2-0.3-0.2-0.5-0.1-0.9c0.2-0.4,0.2-0.7,0.3-1.1c0.1-0.2,0.2-0.4,0.3-0.5c0.2-0.2,0.4-0.3,0.6-0.4c0.4-0.4,0.3-0.8-0.2-1
		c-0.4-0.1-0.7,0.1-0.9,0.4c-0.1,0.1-0.3,0.2-0.4,0.1c-0.4-0.2-0.5-0.5-0.5-0.9c0-0.1,0.1-0.3,0.2-0.4c0,0,0.1,0,0.2,0
		c0.4,0,0.7-0.2,0.9-0.6c0.2-0.5,0.6-0.7,1-0.9c0.2-0.1,0.4-0.3,0.5-0.5c0.1-0.4,0.1-0.9,0.1-1.4c0-0.5-0.4-0.7-0.9-0.4
		c-0.3,0.2-0.5,0.5-0.7,0.7c-0.4,0.5-0.6,0.5-1,0.1c-0.1-0.1-0.2-0.2-0.2-0.3c-0.3-0.7-1.1-0.9-1.6-1.3c-0.1-0.1-0.2,0-0.3,0
		c-0.3,0.2-0.6,0.4-0.9,0.5c-0.1,0.1-0.2,0.1-0.3,0.2c-0.1-0.1-0.2-0.2-0.2-0.3c-0.1-0.3,0.1-0.5,0.4-0.5c1.1-0.3,2.2-0.6,3.1-1.3
		c0.2-0.2,0.4-0.3,0.1-0.6c-0.4-0.4-0.4-0.9,0.2-1.3c0.4-0.3,0.6-0.7,0.5-1.2c-0.1-0.4,0.1-0.7,0.5-0.8c0.1,0,0.2,0,0.3-0.1
		c0.4-0.2,0.5-0.4,0.2-0.8c-0.1-0.1-0.2-0.2-0.4-0.3c-0.5-0.3-0.9-0.9-1.6-0.9c-0.6,0-1,0.4-0.9,1c0.1,0.3,0.2,0.7,0.3,1
		c0.2,0.4,0.1,0.7-0.1,1.1c-0.2,0.3-0.4,0.7-0.8,0.8c-0.2,0.1-0.3,0.3-0.5,0.4c-0.5,0.3-0.9,0.6-1.4,0.8c-0.6,0.2-0.7,0.2-0.7,0.9
		c0,0.5-0.4,0.8-0.8,1c-0.1,0-0.3,0-0.4-0.1c-0.1-0.1,0-0.2,0-0.3c0.1-0.1,0.2-0.2,0.3-0.4c0.6-0.7,0.6-1.4,0.1-2.1
		c-0.1-0.1-0.1-0.2-0.1-0.4c0-0.8-0.3-1.5-0.6-2.2c-0.2-0.4-0.4-0.5-0.8-0.5c-0.4,0-0.9-0.1-1.3-0.4c-0.4-0.2-0.7-0.7-1.1-1
		c-0.5-0.4-1.1-0.5-1.2,0.3c0,0.1,0,0.3-0.1,0.4c-0.1,0.2-0.1,0.3-0.2,0.5c-0.2-0.1-0.3-0.2-0.5-0.3c-0.7-0.4-0.9-1.3-1.7-1.5
		c-0.1,0-0.3-0.1-0.4,0c-0.4,0.2-0.6,0.1-0.7-0.3c-0.1-0.4-0.2-0.7-0.6-0.7c-0.3-0.1-1,0.2-1,0.5c-0.1,0.6-0.6,0.9-1,1.3
		c-0.1,0.1-0.3,0.3-0.4,0.5c-0.3,0.4-0.6,0.5-1.1,0.4c-0.2-0.1-0.4-0.2-0.6-0.3c-0.4-0.2-0.9,0-1.1,0.4c-0.2,0.7-0.5,1.3-0.7,2
		c-0.2,0.8-0.4,1.5,0.5,2c0.2,0.1,0.3,0.4,0.3,0.7c0,0.2,0,0.5,0,0.7c0,0.2,0,0.4,0.1,0.5c0.2,0.3,0.5,0.5,0.9,0.4
		c0.4-0.1,0.7-0.3,0.7-0.8c0-0.3,0.1-0.6,0.1-0.8c0-0.3,0.1-0.5,0.4-0.6c0.3-0.1,0.5,0.1,0.6,0.4c0.1,0.2,0.1,0.3,0.1,0.5
		c0,0.6,0.3,1,0.6,1.5c0.1,0.2,0.3,0.3,0.4,0.5c0.4,0.5,0.4,0.9,0,1.4c-0.3,0.3-0.5,0.4-0.8,0.1c-0.4-0.5-1-0.6-1.6-0.7
		c-0.4,0-0.7-0.2-0.9-0.6c-0.1-0.2-0.6-0.4-0.9-0.4c-0.3,0.1-0.4,0.3-0.4,0.6c-0.1,0.7-0.1,1.4-0.2,2.1c0,0-0.1,0-0.1,0
		c-0.1-0.1-0.2-0.2-0.2-0.3c-0.1,0.1-0.1,0.1-0.1,0.2c-0.4,0.5-0.6,0.5-1.1,0.1c-0.1-0.1-0.2-0.3-0.3-0.5c-0.3-0.4-0.7-0.6-1.1-0.5
		c-0.3,0-0.6,0.3-0.7,0.5c-0.1,0.6-0.5,0.9-0.9,1.2c-0.6,0.5-0.5,0.9,0.2,1.2c0.1,0,0.3,0.1,0.4,0.1c0.1,0.1,0.2,0.2,0.3,0.4
		c0,0.2,0,0.5,0,0.8c-0.5-0.2-1-0.3-1.5-0.5c-0.6-0.2-1-0.2-1.5,0.3c-0.2,0.2-0.3,0.5-0.5,0.8c-0.1,0.1-0.3,0.3-0.4,0.3
		c-0.2-0.1-0.4-0.2-0.5-0.4c-0.1-0.2,0-0.4-0.1-0.6c0-0.2-0.1-0.5-0.2-0.6c-0.6-0.4-1.2-0.8-2-0.8c-0.4,0-0.8-0.2-1.2-0.5
		c0.8,0,1.4-0.9,1.2-1.5c-0.2-0.5-0.2-1,0-1.5c0.1-0.1,0.2-0.2,0.3-0.2c0.3,0.1,0.7,0.3,1,0.5c0.5,0.3,0.8,0.4,1.3,0
		c0.5-0.4,0.9-0.4,1.5-0.2c0.3,0.1,0.8,0.2,1,0c0.8-0.5,1.6-0.6,2.6-0.5c0.3,0,0.7-0.1,1.1-0.3c0.2-0.1,0.2-0.3,0-0.5
		c-0.3-0.3-0.6-0.6-0.8-0.9c-0.5-0.8-1.2-1.1-2-1.3c-0.1,0-0.3-0.1-0.4-0.1c-0.4,0-0.7-0.2-0.8-0.6c-0.1-0.4-0.4-0.5-0.8-0.4
		c-0.4,0.1-0.7,0.1-1.1,0.1c-0.3,0-0.5-0.1-0.5-0.5c0-0.2,0.1-0.5,0.1-0.7c0-0.2-0.1-0.4-0.2-0.6c-0.1-0.1-0.4,0-0.5,0.1
		c-0.2,0.1-0.3,0.3-0.5,0.4c-0.4,0.2-0.7,0.4-1.1,0.5c-0.2,0.1-0.4,0.1-0.5,0.2c-0.3,0.6-0.6,1.3-1,2c-0.1,0.1-0.1,0.2-0.2,0.3
		c-0.1-0.1-0.2-0.2-0.3-0.3c-0.1-0.5-0.3-0.9-0.7-1.2C47.7,141.8,47.6,141.3,47.9,140.7z M79.3,154.3c0.3,0.3,0.2,0.6,0,0.8
		c-0.1,0.2-0.3,0.4-0.4,0.5c-0.3,0.4-0.3,0.6,0,1c0,0,0.1,0,0.1,0.1c0.4,0.4,0.3,0.7-0.2,0.8c-0.4,0.1-0.7,0.2-1.1,0.3
		c-0.7,0.2-0.7,0.2-0.8,0.8c-0.1,0.4-0.4,0.5-0.7,0.6c-0.1,0-0.3-0.1-0.4-0.2c-0.1-0.1-0.1-0.2-0.1-0.3c0.2-0.4,0.4-0.7,0.6-1.1
		c0.2-0.2,0.4-0.4,0.2-0.7c-0.1-0.1-0.1-0.2,0-0.3c0.1-0.3,0.2-0.7,0.4-0.9c0.5-0.5,0.3-1,0.2-1.6c-0.1-0.3-0.2-0.6-0.4-0.9
		c-0.4-0.7-0.9-0.9-1.7-0.8c-0.2,0-0.4,0.1-0.6,0.1c-0.2,0-0.5-0.2-0.5-0.3c-0.1-0.2,0.1-0.5,0.2-0.6c0.2-0.2,0.6-0.2,0.9-0.3
		c0.8-0.2,0.8-0.2,0.8-1c0-0.1,0.1-0.3,0.2-0.3c0.2,0,0.5,0.1,0.7,0.2c0.1,0.1,0.1,0.3,0.2,0.4c0.4,0.9,0.8,1.2,1.7,1.1
		c0.8-0.1,1.1,0.5,1.5,1c-0.5-0.1-0.8,0.2-1,0.6C79,153.7,79.1,154.1,79.3,154.3z M78.1,190.2c0.1,0.3,0.3,0.6,0.4,1
		c0.1,0.2,0.1,0.5,0.1,0.9c-0.5-0.3-0.8-0.5-0.9-0.9c-0.1-0.4-0.3-0.7-0.5-1.1c-0.7-1.4-1.8-2.2-3.5-2.4c-0.7-0.1-1.2-0.3-1.7-0.8
		c-0.2-0.2-0.3-0.5-0.2-0.8c0.2-0.5,0.4-1,0.6-1.5c0.3-0.6,0.8-0.7,1.4-0.3c0.3,0.2,0.6,0.4,0.9,0.6c0.9,0.7,1.4,0.7,2.4,0.1
		c0.1,0.9,0.5,1.6,0.9,2.4c0.3,0.5,0.5,1,0.8,1.5c0.1,0.2,0.1,0.4,0.2,0.6c-0.4,0-0.8,0-1.2,0.1C78,189.7,78,189.9,78.1,190.2z
		 M79.6,149.1c-0.5-0.2-1-0.3-1.6,0c-0.3,0.1-0.6,0.1-0.9-0.2c-0.3-0.3-0.3-0.7,0.2-0.8c0.6-0.2,1.2-0.5,1.8-0.6
		c0.3-0.1,0.7,0.2,1,0.2c0.4,0.1,0.6,0.3,0.7,0.7c0,0.1,0.1,0.1,0.1,0.2c0.1,0.2,0.2,0.4,0.1,0.5c-0.1,0.2-0.4,0.2-0.5,0.3
		C80.2,149.2,79.9,149.2,79.6,149.1z M31.7,176.4c0.2-0.7,0.8-1.1,1.6-0.9c0.3,0.1,0.6,0.2,0.8,0.4c0.4,0.2,0.8,0.1,1.1-0.1
		c0.3-0.2,0.3-0.5,0.2-0.8c-0.1-0.4-0.1-0.8,0.1-1.3c0.2-0.3,0.2-0.7,0.2-1.1c0-0.4,0.2-0.6,0.6-0.5c0.4,0.1,0.6,0.5,0.5,0.9
		c-0.1,0.3-0.2,0.5-0.3,0.7c0.2,0.2,0.3,0.3,0.5,0.4c0.1,0.1,0.3,0.2,0.4,0.2c0.4,0,1.3-0.6,1.4-1c0.2-0.6,0.6-0.9,1-0.8
		c0.5,0.2,0.8,0.7,0.6,1.3c-0.1,0.3,0,0.6,0.3,0.9c0.2,0.2,0.4,0.3,0.6,0.5c0.3,0.3,0.6,0.6,0.7,1c0.2,0.7,0.7,1.2,1.2,1.6
		c0.3,0.2,0.6,0.1,0.9-0.1c0.2-0.2,0.5-0.5,0.8-0.7c0.6-0.4,1-0.3,1.5,0.3c0.2,0.3,0.5,0.6,0.8,0.9c0.2,0.2,0.3,0.4,0.2,0.7
		c-0.1,0.1-0.1,0.4,0,0.5c0.3,0.1,0.6,0.3,0.8,0.3c0.3,0,0.5-0.3,0.7-0.6c0.2-0.3-0.1-0.5-0.3-0.7c-0.1-0.1-0.2-0.2-0.3-0.2
		c-0.4-0.2-0.5-0.5-0.2-0.9c0.2-0.4,0.4-0.4,1-0.3c0.2,0,0.3,0.1,0.4,0.1c-0.1,0.9-0.4,1.7-0.6,2.6c-0.6,1.4-1.2,2.8-1.8,4.2
		c0,0.1-0.1,0.2-0.2,0.4c-0.1,0.2-0.2,0.4-0.4,0.6c0,0,0,0.1-0.1,0.1c-0.1-0.1-0.1-0.1-0.2-0.2c-0.1-0.1-0.2-0.2-0.2-0.3
		c-0.2-0.3-0.3-0.6-0.5-0.9c-0.2-0.2-0.5-0.3-0.6-0.5c-0.5-0.8,0-1.8,0.7-1.9c0.2,0,0.4-0.1,0.6-0.2c0.1-0.1,0.2-0.3,0.2-0.4
		c0-0.1-0.2-0.2-0.4-0.2c-0.3,0-0.5-0.2-0.7-0.4c-0.3-0.3-0.6-0.6-1-0.8c-0.5-0.3-1-0.5-1.6-0.7c-0.2-0.1-0.5,0.1-0.7,0.2
		c-0.1,0-0.1,0.3,0,0.5c0.2,0.5,0.5,0.9,0.8,1.4c0.3,0.6,0.3,0.6-0.3,0.8c-0.7,0.2-0.8,0.6-0.4,1.2c0.3,0.3,0.9,0.6,0.6,1.2
		c0,0.1,0.1,0.1,0.1,0.2c0.1,0.2,0.2,0.4,0.3,0.6c0,0.1,0.1,0.2,0.2,0.2c0.1,0,0.2-0.1,0.3-0.2c0.1-0.1,0.1-0.2,0.1-0.2
		c0.1-0.3,0.4-0.4,0.7-0.3c0.3,0.1,0.3,0.3,0.3,0.5c-0.1,0.2-0.1,0.5-0.1,0.7c-0.1,0.3-0.2,0.4-0.5,0.4c-0.2,0-0.5,0.1-0.7,0.2
		c-0.3,0.1-0.6,0.4-1,0.2c0.4-0.4,0.4-0.4-0.1-0.7c-0.1-0.1-0.3-0.3-0.3-0.5c-0.1-0.3-0.1-0.6-0.1-1c0-0.6-0.3-0.8-0.9-0.8
		c-0.5,0-0.9,0.2-1.1,0.7c-0.1,0.3-0.2,0.5-0.4,0.8c-0.2,0.3-0.5,0.4-0.8,0.2c-0.4-0.2-0.8-0.3-1.3-0.5c-0.7-0.2-1,0-1.3,0.6
		c-0.3,0.6-0.6,1.1-1,1.7c-0.5,0.7-1.5,0.7-2.1,0c-0.4-0.5-0.7-1-1.3-1.2c-0.1,0-0.1-0.2-0.2-0.2c0.1-0.1,0.2-0.2,0.3-0.2
		c0.7-0.1,1.4-0.1,2.1-0.2c0.2,0,0.5-0.1,0.5-0.2c0.1-0.2,0-0.5-0.1-0.6c-0.1-0.2-0.4-0.3-0.5-0.5c-0.1-0.1-0.3-0.4-0.2-0.5
		c0.2-0.6,1-1,1.6-0.6c0.4,0.3,0.8,0.2,1.2,0.1c0.4-0.1,0.8-0.1,1.2-0.1c0.6,0.1,1.1-0.3,1-0.9c-0.1-0.5-0.2-0.9-0.7-1.2
		c-0.2-0.1-0.3-0.3-0.4-0.5c-0.2-0.4-0.2-0.8,0.1-1.1c0.3-0.3,0.6-0.2,1,0c0.4,0.2,0.5,0.2,0.8-0.2c0.4-0.7,0.7-0.8,1.5-0.6
		c0.3,0.1,0.7,0.1,0.9-0.2c0.2-0.4,0-0.6-0.3-0.9c-0.4-0.3-0.9-0.7-1.3-1.1c-0.2-0.2-0.4-0.2-0.6,0.1c-0.3,0.5-0.8,0.9-1.4,1.2
		c-0.4,0.1-0.9,0.4-1.1,0.7c-0.3,0.7-0.8,1-1.4,1.1c-0.6,0.2-1.1,0.3-1.4,0.9c0,0.1-0.1,0.1-0.1,0.1c-0.3,0.2-0.6,0.2-0.8,0
		c-0.2-0.2-0.2-0.6,0.1-0.8c0.2-0.2,0.5-0.2,0.7-0.4c0.1-0.1,0.2-0.2,0.3-0.3c0-0.2,0-0.5,0-0.7c-0.1-0.5-0.4-0.6-0.9-0.4
		c-0.2,0.1-0.4,0.2-0.6,0.2C31.9,177.2,31.5,176.9,31.7,176.4z M20.9,167c0.5-1,1.1-2,1.7-3c0.2-0.4,0.4-0.7,0.6-1
		c0.1-0.2,0.2-0.3,0.3-0.5c0.1,0,0.1,0.1,0.2,0.2c0.7,0.6,1,0.7,1.9,0.3c0.5-0.2,1.2-0.1,1.5,0.4c0.1,0.1,0.1,0.2,0.1,0.3
		c-0.1,0.3-0.2,0.6-0.3,0.9c-0.3,0.5-0.2,1.1,0,1.6c0.1,0.3,0.1,0.5,0,0.7c-0.1,0.2-0.2,0.5-0.3,0.8c-0.1,0.3,0,0.5,0.4,0.5
		c0.5,0,1.2-0.9,1-1.3c-0.2-0.4-0.1-0.7,0-1c0.1-0.2,0.2-0.3,0.4-0.4c0.1,0.1,0.3,0.2,0.4,0.4c0.2,0.4,0.3,0.8,0.5,1.1
		c0.3,0.4,0.4,0.8,0.1,1.3c-0.2,0.3-0.1,0.6,0.3,0.7c0.5,0.2,0.7,0.9,0.3,1.3c-0.2,0.2-0.5,0.4-0.8,0.6c-0.4,0.2-0.3,0.5-0.4,0.8
		c0,0.3,0,0.5,0.3,0.7c0.6,0.3,1.2,0.7,1.8,0.9c0.7,0.2,0.8,0.7,0.8,1.3c0,0.4,0,0.8-0.2,1.1c-0.5,0.7-0.6,1.4-0.4,2.1
		c0,0.1,0,0.3,0,0.4c0,0.1-0.1,0.3-0.2,0.4c-0.1,0-0.3,0-0.4-0.2c-0.3-0.4-0.6-0.8-0.8-1.2c-0.2-0.3-0.2-0.5,0-0.8
		c0.1-0.1,0.2-0.3,0.2-0.4c-0.1-0.6-0.3-1.1-0.9-1.5c-0.1-0.1-0.3-0.2-0.4-0.2c-0.5,0.1-1.2-0.1-1.6,0.5c-0.3,0.4-0.9,0.4-1.1,0.2
		c-0.8-0.7-1.6-0.4-2.4-0.1c-0.1,0.1-0.3,0.1-0.5,0.1c0-0.2-0.1-0.3-0.1-0.5c0-0.2,0.1-0.3,0.2-0.5c0.2-0.4,0.6-0.7,0.7-1.1
		c0.2-0.7,0.6-0.7,1.2-0.8c0.2,0,0.4,0,0.5,0c0.2,0,0.4,0,0.5-0.1c0.5-0.4,1-0.9,1.5-1.3c0.5-0.5,0.4-0.9,0-1.2
		c-0.6-0.5-1.2-0.5-1.5,0c-0.2,0.2-0.3,0.4-0.5,0.6c-0.3,0.4-0.7,0.5-1.2,0.5c-0.3,0-0.5-0.1-0.5-0.5c0-0.4-0.2-0.6-0.5-0.8
		c-0.2-0.1-0.5-0.2-0.7-0.3c-0.4-0.2-0.8-0.2-1.1,0.2c-0.1,0.1-0.3,0.1-0.3,0.1c-0.1-0.1-0.2-0.3-0.2-0.4c0.1-0.2,0.2-0.5,0.3-0.7
		c0.1-0.2,0.2-0.4,0.1-0.6C21.1,167.5,21,167.3,20.9,167z M22.5,172.3c-0.2,0.3-0.4,0.5-0.8,0.4c-0.4-0.1-0.5-0.4-0.5-0.8
		c0,0,0-0.1,0-0.2c-0.1-0.8,0.7-1.5,1.7-1.2c0.4,0.1,0.5,0.7,0.2,1C22.8,171.8,22.6,172,22.5,172.3z M17.2,175.1
		c0.1-0.2,0.2-0.4,0.2-0.6c0.3-0.1,0.6-0.1,1-0.2c0.3-0.1,0.5,0,0.6,0.4c0.2,0.8,0.7,1,1.3,0.4c0.4-0.4,0.9-0.5,1.4-0.4
		c0.1,0,0.3,0.1,0.4,0.2c0,0.1-0.1,0.3-0.1,0.4c-0.1,0.2-0.2,0.3-0.4,0.5c-0.4,0.6-0.3,1.2,0.3,1.6c0.1,0.1,0.4,0.1,0.6,0
		c0.7-0.1,1.2,0.3,1.2,0.9c0,0.7-0.5,1-1.1,0.6c-0.2-0.1-0.3-0.2-0.5-0.3c-0.4-0.2-0.7-0.1-0.9,0.3c-0.1,0.2-0.2,0.4-0.3,0.7
		c-0.1,0.3-0.2,0.3-0.4,0.1c-0.3-0.2-0.5-0.5-0.7-0.7c-0.5-0.6-1.2-1.2-1.3-2.1c0-0.3-0.3-0.4-0.6-0.4c-0.3,0-0.6,0.1-0.8,0.1
		c-0.2,0-0.3,0-0.5-0.1C16.8,176.1,17,175.6,17.2,175.1z M44.4,248.1c-0.8,0.6-1.6,1.3-2.6,1.7c-0.5,0.2-0.8,0.6-1,1
		c-0.1,0.2-0.2,0.3-0.4,0.5c-0.3-0.2-0.4-0.4-0.3-0.6c0.4-1.4,1.2-2.5,2.7-2.9c0.5-0.1,0.9-0.3,1.2-0.8c0.4-0.7,1.2-0.9,1.9-1
		c0.5-0.1,1-0.1,1.5-0.2c1.1-0.2,1.9-0.8,2.7-1.5c1-1,2-2,3.1-3c0.8-0.7,1.5-1.4,2.1-2.2c0.1-0.1,0.2-0.2,0.4-0.3
		c-0.1,0.2-0.1,0.4-0.2,0.5c-0.3,0.7-0.8,1.2-1.3,1.7c-0.9,0.8-1.6,1.8-2.2,2.9c-0.7,1.6-2.2,2.5-3.8,3c-0.7,0.2-1.4,0.3-2.1,0.5
		C45.4,247.4,44.9,247.7,44.4,248.1z M47.5,256.6c-0.4-0.1-0.7-0.2-1.1-0.4c-0.6-0.3-0.7-0.8-0.3-1.3c0.1-0.1,0.2-0.2,0.3-0.3
		c0.7-0.7,1.2-1.5,1.5-2.4c0.1-0.3,0.2-0.5,0.4-0.7c0.4-0.4,0.7-0.8,1-1.3c0.4-0.7,0.8-1.3,1.2-2c0.1-0.2,0.2-0.3,0.6-0.2
		c-0.8,2.9-1.5,5.9-2.8,8.7C48,256.7,47.8,256.7,47.5,256.6z M59.2,254.7c0.2,0.5,0,0.9-0.3,1.3c-0.6,0.9-1.3,1.8-1.9,2.7
		c-0.2,0.3-0.5,0.5-0.9,0.4c-0.2-0.1-0.5,0.1-0.7,0.2c-0.3,0.1-0.6,0.4-0.9,0.5c-0.4,0.2-0.8,0.2-1.2-0.1c-0.2-0.5,0.1-0.9,0.5-1.2
		c0.2-0.1,0.4-0.2,0.7-0.4c0.4-0.2,0.6-0.5,0.7-1c0-0.2,0.1-0.4,0.2-0.5c0.5-0.7,1-1.4,1.6-2c0.8-0.9,1.7-1.7,2.2-2.7
		c0-0.1,0.1-0.1,0.3-0.3c-0.1,0.5-0.1,0.9-0.1,1.2C59.1,253.5,59.1,254.1,59.2,254.7z M62.8,243.8c-0.5,0.5-0.9,1.1-1.2,1.7
		c-0.2,0.4-0.6,0.7-0.9,1c-0.4,0.4-0.9,0.7-1.4,1.1c-0.7,0.6-1.3,1.3-1.5,2.3c-0.1,0.4-0.3,0.8-0.4,1.2c-0.4,1-1,1.7-2,2.2
		c-0.4,0.2-0.7,0.4-1.1,0.6c-0.7,0.4-1.3,0.9-1.6,1.7c-0.3,0.8-0.9,1.5-1.7,2c-0.1,0.1-0.3,0.2-0.4,0.2c-0.1,0-0.3,0.1-0.3,0
		c-0.1,0-0.1-0.2-0.1-0.3c0.3-0.9,0.6-1.8,1.1-2.6c0.3-0.6,0.6-1.2,0.5-2c0-0.5,0.1-1.1,0.3-1.5c0.3-0.9,0.6-1.7,0.6-2.7
		c0-0.5,0.2-1,0.5-1.4c0.6-0.7,1.1-1.5,1.7-2.2c0.5-0.7,1.2-1.2,2-1.5c0.8-0.3,1.4-0.8,1.6-1.6c0.1-0.2,0.2-0.4,0.3-0.5
		c0.7-0.6,1.4-1.1,2.1-1.6c0.2-0.1,0.5-0.3,0.7-0.2c0.8,0,1.5-0.1,2.3-0.3c0.1,0,0.2,0,0.3,0c0.3,0.9,0.1,1.7-0.5,2.4
		c-0.3,0.3-0.4,0.7-0.4,1.1C63.4,243.1,63.1,243.5,62.8,243.8z M64.4,255.3c-0.1-0.3-0.2-0.5-0.3-0.7c-0.2-0.6-0.3-1.1-0.5-1.7
		c-0.1-0.3-0.1-0.5,0-0.8c0.3-0.5,0.1-1.1,0.1-1.7c0-0.3-0.1-0.7-0.1-1c0.1-0.9,0.5-1.7,1.3-2.2c0.4-0.2,0.7-0.6,1-0.9
		c0.9-1.1,2-2.1,3.4-2.7c0.6-0.3,1.1-0.6,1.5-1.1c0.3-0.3,0.6-0.6,1.1-1c-0.1,1.2,0.2,2.4-0.3,3.5c-0.2,0.4-0.2,0.9-0.1,1.4
		c0.4,1.3,0,2.4-0.9,3.5c-0.8,1-1.7,1.7-2.8,2.4c-0.2,0.1-0.3,0.2-0.5,0.2c-0.6,0.1-1.1,0.5-1.4,0.9c-0.3,0.4-0.6,0.9-1,1.3
		C64.8,254.9,64.7,255,64.4,255.3z M73.8,250.7c-0.3,0.6-0.5,1.3-0.8,1.9c-0.5,1-1.1,2-1.6,3c-0.2,0.3-0.4,0.7-0.5,1.1
		c-0.1,0.3-0.2,0.6-0.1,1c0.2,1.4,0.5,2.8,1.4,4c0.6,0.8,0.4,1.9-0.2,2.6c-0.4,0.4-0.8,0.7-1.4,0.8c-0.3,0-0.6,0.1-0.9,0.2
		c-0.5,0.1-1,0-1.3-0.4c-0.5-0.5-1-0.9-1.7-1.1c-0.3-0.1-0.5-0.3-0.4-0.7c0.1-0.6-0.1-1.2-0.2-1.8c-0.1-0.4-0.1-0.9-0.1-1.3
		c0-0.2,0-0.4-0.1-0.5c-0.2-0.6-0.1-1.2,0.4-1.6c0.3-0.3,0.6-0.5,0.9-0.8c0.5-0.5,0.9-1,1.2-1.7c0.1-0.2,0.3-0.4,0.4-0.6
		c1.5-1.3,3.2-2.4,4.5-3.9c0.2-0.2,0.4-0.3,0.6-0.5C73.8,250.4,73.8,250.6,73.8,250.7z M74.8,225.9c-0.2,1.1-0.8,1.9-1.9,2.5
		c-0.8,0.4-1.5,0.9-2.2,1.3c-0.7,0.4-1.3,0.7-2.1,1c-0.5,0.2-1,0.5-1.4,0.8c-0.5,0.4-1,0.5-1.7,0.4c-1.4-0.3-2.7-0.4-4.1-0.1
		c-0.8,0.2-1.5,0.5-2.1,0.9c-0.5,0.3-1,0.6-1.7,0.6c-0.5,0-0.9,0.3-1.2,0.7c-0.7,0.9-1.5,1.8-2.2,2.7c-0.4,0.6-0.8,1.2-1.2,1.8
		c-0.4,0.5-0.7,1.1-1.1,1.6c-0.5,0.6-1.2,1.1-1.9,1.3c-1.6,0.5-3.2,1.3-4.5,2.3c-0.9,0.7-2,1-3.2,0.9c-0.1,0-0.3,0-0.4-0.1
		c-0.8-0.4-1.5-0.2-2.3-0.1c-1.2,0.2-2.3,0.2-3.5,0c-0.3,0-0.6-0.1-0.8-0.3c-0.5-0.3-0.9-0.4-1.5-0.3c-1.9,0-3.7-0.5-5.4-1.3
		c-0.2-0.1-0.4-0.3-0.6-0.5c-3.2-4.1-6-8.6-8.2-13.3c-1.6-3.4-2.9-6.8-3.9-10.3c0.2-0.1,0.4-0.3,0.6-0.4c0.3-0.2,0.3-0.5,0-0.8
		c-0.5-0.5-0.7-1-0.8-1.6c-0.1-0.4-0.3-0.8-0.7-1c-0.3-1.3-0.5-2.6-0.7-3.9c0-0.1,0-0.2,0-0.3c0.1,0,0.2,0,0.3-0.1
		c1,0.1,2-0.3,2.5-1.2c0.1-0.1,0.1-0.4,0-0.5c-0.3-0.2-0.6-0.4-0.9-0.4c-0.8,0-1.6,0.2-2.2,0.7c0-0.1,0-0.3-0.1-0.4
		c-0.3,0-0.5,0.1-0.8,0.1c0,0,0-0.1,0-0.1c0-0.2-0.1-0.5-0.1-0.7c0.1,0,0.2,0,0.3,0c0.2,0,0.5-0.2,0.6-0.4c0.2-0.3,0.1-0.5-0.4-0.9
		c-0.2-0.2-0.5-0.4-0.7-0.6c0-0.5-0.1-1-0.1-1.6c0-0.3,0-0.5,0-0.8c0.1,0,0.1-0.1,0.2-0.1c1.1-0.4,1.1-0.4,0.6-1.7
		c-0.2-0.4-0.5-0.7-0.8-0.8l0-0.3c0-0.2,0-0.5,0-0.7c0-0.2,0-0.4,0-0.6l0-0.3c0-0.4,0-0.8,0-1.2c0.2-0.1,0.3-0.3,0.5-0.5
		c0.2-0.2,0.4-0.3,0.6-0.1c0.4,0.2,0.8,0.1,1-0.3c0.2-0.4,0.5-0.7,0.7-1.1c0.4-0.6,0.2-0.9-0.4-1.1c-0.2,0-0.3-0.1-0.5-0.1
		c-0.5,0-0.8-0.4-0.8-0.9c0-0.4-0.1-0.8,0-1.2c0-0.2,0.2-0.4,0.2-0.4c0.5,0,0.7-0.3,0.9-0.6c0.4-0.4,1-0.3,1.2,0.2
		c0.1,0.3,0.2,0.6,0.2,0.9c0.1,0.4,0.1,0.7,0.1,1.1c0.1,0.4,0.4,0.6,0.8,0.4c0.3-0.1,0.6-0.3,0.8-0.4c0.2-0.1,0.3-0.1,0.5-0.1
		c0.5,0.1,1.1,0.2,1.6,0.2c0.5,0,0.9,0,1.3-0.4c0.2-0.2,0.3-0.1,0.5,0.1c0.4,0.5,0.2,1.1-0.1,1.5c-0.5,0.7-0.2,1.3,0.2,1.9
		c0.4,0.7,1.3,1.1,1.8,0.7c0.5-0.3,1-0.3,1.6-0.3c0.7,0,1.3,0.1,1.8,0.5c0.3,0.2,0.6,0.5,0.9,0.7c0.6,0.5,0.7,1.3,0.1,1.8
		c-0.6,0.5-1.3,0.8-1.9,1.3c-0.1,0.1-0.3,0.3-0.2,0.3c0.1,0.5,0.3,1.1,0.5,1.6c0.3,0.5,0.7,0.9,0.8,1.5c0,0.1,0.1,0.2,0.2,0.3
		c0.3,0.3,0.6,0.7,0.9,1c-1,0.5-2.1,0.4-2.4-1c-0.1-0.3-0.1-0.6-0.2-0.9c-0.1-0.2-0.2-0.5-0.4-0.5c-0.2,0-0.4,0.1-0.6,0.3
		c-0.2,0.1-0.3,0.3-0.4,0.5c-0.3,0.5-0.7,0.4-1,0c-0.3-0.5-0.4-1-0.4-1.5c-0.1-0.5-0.1-1,0.3-1.3c0.4-0.3,0.9-0.1,1.2,0.2
		c0.3,0.2,0.5,0.1,0.8-0.1c0.2-0.2,0.3-0.4,0.1-0.7c-0.2-0.3-0.4-0.6-0.6-0.9c-0.2-0.4-0.5-0.5-1-0.5c-0.3,0-0.6-0.1-0.8-0.3
		c-0.4-0.3-0.9-0.5-1.3-0.7c-0.2-0.1-0.5-0.3-0.5-0.4c-0.1-0.4-0.3-0.5-0.6-0.4c-0.2,0.1-0.4,0.1-0.6,0.2c-0.2,0.1-0.4,0.1-0.6,0
		c-0.2-0.2-0.5-0.3-0.8-0.4c-0.4-0.1-0.8,0.2-0.7,0.6c0.2,0.8,0,1.5-0.2,2.3c-0.2,0.8-0.7,1.3-1.3,1.8c-0.4,0.3-0.6,0.6-0.7,1.1
		c-0.1,0.5,0.1,0.8,0.4,1.2c0.4,0.6,0.8,1.1,1.4,1.4c0.4,0.2,0.7,0.3,1.1,0.4c0.3,0,0.6,0,0.9-0.2c0.3-0.2,0.4-0.5,0.6-0.7
		c-0.6-0.2-0.9-0.7-1-1.3c-0.1-0.6,0.1-1.1,0.5-1.5c0.3-0.3,0.7,0,1,0.1c0,0,0.1,0,0.1,0c0.7,0.2,1.1,0.7,1.1,1.4
		c0,0.4-0.1,0.8-0.1,1.2c-0.1,0.4,0.1,0.7,0.5,0.7c0.3,0,0.7-0.1,1-0.2c0.3-0.1,0.5-0.1,0.7,0.2c0.2,0.4,0.7,0.7,1.1,0.8
		c0.9,0.3,1.4,1,1.8,1.7c0.1,0.2,0.2,0.3,0.5,0.3c0.5,0,1,0,1.5,0c0.2,0,0.3-0.1,0.5-0.1c-0.1-0.2-0.1-0.4-0.2-0.5
		c-0.3-0.3-0.5-0.6-0.5-1c-0.1-0.6,0.3-1,1-0.9c0.8,0,1.4,0.2,1.9,0.8c0.2,0.3,0.7,0.2,0.8-0.2c0-0.2-0.1-0.4-0.2-0.6
		c-0.3-0.4-0.4-0.8-0.2-1.3c0.2-0.6,0.2-0.7-0.4-0.9c-0.6-0.3-1.2-0.4-1.7-0.9c-0.2-0.2-0.5-0.5-1-0.4c-0.2,0.1-0.3-0.2-0.2-0.4
		c0.1-0.1,0.2-0.3,0.1-0.4c-0.1-0.3,0.1-0.4,0.3-0.5c0.4-0.1,0.8-0.3,1-0.7c0.4-1.1,0.5-1.5-0.4-2.3c-0.3-0.2-0.4-0.5-0.3-0.8
		c0.1-0.7,0.1-1.5,0.2-2.2c0-0.3,0.2-0.6,0.4-0.9c0-0.1,0.2-0.1,0.3-0.1c0.6,0.3,0.8,1.2,0.4,1.8c-0.4,0.5-0.3,0.8,0.3,1.1
		c0.3,0.2,0.7,0.1,0.7-0.3c0.1-0.4,0.1-0.8,0-1.2c0-0.4,0-0.9-0.1-1.3c0-0.1-0.1-0.2-0.2-0.3c-0.3-0.2-0.5-0.9-0.4-1.2
		c0.2-0.4,0.6-0.2,0.9-0.2c0.1,0,0.3,0.1,0.4,0.1c0.5,0.2,0.5,0.3,0.7-0.2c0.1-0.2,0.2-0.4,0.3-0.6c0-0.1,0.1-0.2,0.2-0.2
		c0.3,0,0.8,0.2,0.9,0.5c0.1,0.4-0.2,0.6-0.5,0.7c-0.5,0.3-0.7,1.1-0.3,1.5c0.3,0.3,0.7,0.5,1.1,0.8c0.3,0.2,0.6,0.4,0.9,0.4
		c0.7,0,1.3,0.2,1.7,0.8c0.1,0.1,0.4,0.3,0.5,0.3c0.2-0.1,0.4-0.3,0.4-0.5c0-0.4-0.1-0.7-0.1-1.1c0-0.2-0.1-0.5,0-0.7
		c0.1-0.8,0-1-0.8-1.1c-0.5-0.1-0.7-0.4-0.6-0.9c0.1-0.4,0.5-0.6,0.9-0.4c0.1,0,0.2,0.1,0.4,0.2c0.3,0.2,0.5,0.2,0.8,0
		c0.6-0.4,1.2-0.5,1.7,0.1c0,0,0.1,0,0.1,0c0.1,0.1,0.4,0.3,0.4,0.4c-0.1,0.2-0.3,0.3-0.4,0.5c-0.1,0.1-0.2,0.1-0.3,0.2
		c-0.8,0.5-0.8,1.5,0,2c0.2,0.1,0.4,0.2,0.6,0.3c0.2,0.1,0.5,0.2,0.5,0.3c0.2,0.4,0.4,0.3,0.7,0.2c0.5-0.1,0.8-0.1,0.6,0.6
		c0,0.1-0.1,0.2-0.2,0.3c-0.2,0.2-0.4,0.3-0.6,0.5c-0.4,0.5-0.8,0.6-1.4,0.2c-0.3-0.2-0.6-0.2-0.9-0.1c-0.7,0.2-1,0.9-1.6,1.3
		c-0.1,0.1-0.1,0.3,0,0.4c0.2,0.5,0.3,1,0.6,1.4c0.5,0.9,1.3,1.1,2.1,0.7c0.2-0.1,0.3-0.2,0.5-0.3c0.2-0.1,0.4-0.2,0.6-0.3
		c0.3-0.1,0.5,0,0.5,0.3c0,0.2,0.2,0.4,0.4,0.5c0.1,0.1,0.4,0.2,0.5,0.3c0.3,0.3,0.8,0.4,1.2,0.3c0.3,0,0.4-0.1,0.2-0.4
		c-0.2-0.3-0.1-0.6,0.2-0.8c0.4-0.4,0.5-0.8,0.5-1.3c0-0.2,0.1-0.5,0.3-0.6c0.7-0.5,1.5-0.8,2.4-0.6c0.2,0,0.4,0,0.6,0
		c0.5-0.1,1-0.2,1.4-0.3c0.2,0,0.4-0.1,0.6-0.1c0.2-0.1,0.5-0.2,0.3-0.5c0-0.1,0.1-0.3,0.1-0.3c0.2-0.1,0.5-0.2,0.8-0.1
		c0.3,0.1,0.5,0,0.7-0.2c0.2-0.3,0.4-0.6,0.3-0.9c-0.1-0.5-0.1-0.9,0.4-1.3c0.2-0.1,0.2-0.4,0.3-0.6c0.1-0.3,0.2-0.6,0.3-0.9
		c0.1-0.3,0.1-0.7,0-1c-0.1-0.4-0.1-0.8,0.2-1.1c0.4,0.1,0.8,0,1-0.1c0.3,0,0.5,0.1,0.6,0.8c0.2,0,0.4-0.1,0.5-0.1
		c-0.4,0.5,0.3,0.7,0.4,1c0.1-0.2,0.1-0.3,0.2-0.5l0.1-0.1c0.2,0.5,0.4,0.9,0.6,1.3c0.1,0,0.2-0.1,0.4-0.1c0.1,0,0.3,0,0.5,0
		c0.2,0,0.3,0,0.5,0c0.2,0,0.4,0,0.6,0c0.2,0,0.4,0,0.5,0c0.2,0,0.3,0,0.5,0c0.3,0,0.6-0.1,0.8-0.2l0.4,0.6c0.4-0.4,0.6-1.7,1.7-1.3
		c-0.1,1.2,2.5,1,2.4,2.5c1.2-1.7,2.5,1.1,2.8-1c0.1,0,0.1,0.1,0.2,0.1l0.1,0.1l0.1,0l0,0l0,0l0,0c0.2,0.1,0.4,0.2,0.7,0.3
		c0.4,0.2,0.9,0.4,1.3,0.6c0.8,0.4,1.5,0.9,1.9,1.4c0.2,0.2,0.3,0.4,0.3,0.6l-0.1-1.1c0,0.4,0.4,0.4,0.9,0.2c0.3-0.1,0.7-0.2,1-0.3
		c0.5,0.7,1,1.3,1.6,1.8c0.7,0.5,1.1,1.3,1.4,2.1c0.2,0.5,0.3,1,0.5,1.5c0.2,0.4,0.4,0.8,0.7,1.2c0.2,0.4,0.5,0.9,0.7,1.3
		c0.2,0.6,0.4,1.3,0.6,1.9c0.1,0.4,0.2,0.8,0,1.3c-0.4,1-0.8,1.9-1.2,2.9c0,0.1-0.1,0.1-0.1,0.3c-0.2-0.1-0.4-0.1-0.5-0.2
		c-0.5-0.1-0.7,0-0.8,0.5c0,0.2,0,0.5,0,0.7c0.1,0.7,0.3,1.4,0.4,2.1c0.1,0.7,0.1,1.4-0.3,2c-0.2,0.3-0.3,0.6-0.5,0.9
		c-0.3,0.5-0.4,1-0.5,1.5c0,0.6-0.2,1.1-0.5,1.6c-0.6,0.9-0.9,2-1,3.1C75.1,223.9,75,224.9,74.8,225.9z M29.3,203.7
		c0.6,0.5,0.5,1.3-0.2,1.7c-0.2,0.1-0.4,0.4-0.5,0.6c-0.1-0.6-0.2-1.3-0.3-1.9c0-0.1,0.1-0.4,0.2-0.4
		C28.7,203.6,29.1,203.6,29.3,203.7z M76.2,260.1c-0.1-0.2-0.1-0.4-0.1-0.5c-0.1-1.5-0.3-2.9-0.2-4.4c0-0.8-0.1-1.7-0.1-2.5
		c0-0.5,0-1.1,0.3-1.6c0.2-0.5,0.5-1.1,0.7-1.6c0.1-0.2,0.2-0.3,0.4-0.6c0.6,0.8,1,1.5,1.5,2.3c0.4,0.6,0.4,1.2,0,1.8
		c-0.2,0.3-0.2,0.5-0.1,0.9c0.2,0.4,0.2,0.9-0.1,1.3c-0.6,0.8-0.8,1.7-1.1,2.7c-0.2,0.6-0.5,1.2-0.7,1.8
		C76.5,259.8,76.4,259.9,76.2,260.1z M80.4,266.7c-1,0.3-1.8,0-2.6-0.6c-0.3-0.2-0.4-0.5-0.3-0.9c0.3-0.5,0.1-0.9-0.2-1.4
		c-0.3-0.5-0.4-1.1-0.1-1.6c0.8-1.4,1.2-2.9,1.8-4.4c0.3-0.7,0.6-1.4,0.9-2.2c0.1-0.2,0.3-0.5,0.4-0.8c0.5,1.1,0.6,2,0.5,3
		c-0.2,1.5-0.1,2.9,0.2,4.4c0.2,0.8,0.3,1.6,0.5,2.5C81.8,265.8,81.4,266.4,80.4,266.7z M82,251.5c-0.4-0.4-0.6-0.8-0.8-1.3
		c-0.5-1.5-1-3.1-2-4.4c-0.2-0.3-0.4-0.7-0.6-1.1c-0.2-0.4-0.2-0.9,0-1.3c0.2-0.3,0.4-0.7,0.6-1c0.3-0.4,0.5-0.8,0.4-1.3
		c0-0.1,0-0.2,0.1-0.4c0.3-0.5,0.2-0.9-0.3-1.3c0.2-0.5,0.4-1,0.7-1.4c0.4,0.2,0.6,0.4,0.6,0.9c0,0.3,0.1,0.6,0.2,1
		c0.1,0.4,0.2,0.8,0.2,1.1c0.1,0.7,0.3,1.4,0.6,2.1c0.4,0.7,0.7,1.5,1.1,2.2c0.3,0.6,0.8,1,1.3,1.4c0.3,0.2,0.5,0.4,0.7,0.6
		c0.4,0.5,0.4,1.1,0.1,1.7c-0.1,0.2-0.2,0.3-0.3,0.5c-0.2,0.3-0.2,0.6-0.1,0.8c0.3,0.5,0.1,1-0.2,1.3c-0.5,0.5-0.7,1-0.8,1.7
		c0,0.2-0.1,0.4-0.1,0.6c0,0-0.1,0-0.1,0c0-0.2-0.1-0.3-0.1-0.5C83,252.7,82.6,252,82,251.5z M89.1,266.8c-0.6,0.1-1.1,0.2-1.5,0.7
		c-0.2,0.3-0.6,0.3-0.9,0.2c-0.6-0.2-1.2-0.4-1.8-0.6c-0.4-0.2-0.8-0.5-1-0.9c-0.3-0.7-0.6-1.4-0.9-2.2c-0.1-0.1-0.1-0.3,0-0.5
		c0.2-1.2,0.3-2.4,0.5-3.7c0-0.2,0.1-0.4,0.2-0.5c0.8-0.8,1.3-1.8,2-2.7c0.2-0.2,0.4-0.4,0.6-0.7c0.1,0,0.1,0.1,0.2,0.1
		c0,0.2,0,0.4,0,0.6c0,0.2-0.1,0.4-0.1,0.5c-0.3,0.7-0.2,1.4,0.3,2.1c0.1,0.2,0.2,0.4,0.2,0.6c0,0.5,0.2,0.8,0.5,1.2
		c0.4,0.4,0.6,0.7,0.6,1.3c0,0.4,0.2,0.7,0.5,1c0.3,0.3,0.6,0.5,0.8,0.8c0.4,0.4,0.6,0.9,0.7,1.5C89.9,266.3,89.7,266.7,89.1,266.8z
		 M92.1,255.6c-0.7,0.4-0.9,1-0.9,1.7c0,0.6,0,1.2,0,1.8c0,0.1,0,0.2,0,0.3c-0.1,0.2-0.2,0.4-0.3,0.4c-0.1,0.1-0.4,0-0.5-0.1
		c-0.1-0.1-0.2-0.3-0.2-0.4c-0.1-0.2-0.1-0.4-0.1-0.7c-0.1-0.4-0.3-0.8-0.7-1c-0.5-0.3-0.7-0.8-0.6-1.3c0-0.2,0.1-0.4,0.1-0.5
		c0.2-0.5,0.2-1-0.1-1.5c-0.2-0.3-0.2-0.7-0.2-1c0-0.6,0.1-1.1,0.2-1.7c0-0.2,0.1-0.3,0.2-0.5c0.5-0.6,0.7-1.2,0.3-2
		c-0.4-0.9-0.3-1.9,0.1-2.8c0.1-0.2,0.2-0.3,0.4-0.6c0.6,1.1,1.2,2.2,1.7,3.2c0.1,0.1,0.1,0.3,0,0.5c-0.1,0.5,0.1,1,0.4,1.4
		c0.2,0.2,0.4,0.5,0.6,0.7C93.8,252.7,93.1,254.9,92.1,255.6z M111.3,230.5c-0.3,0-0.7,0-1-0.1c-0.3,0-0.6,0-0.9,0.3
		c-0.1,0.1-0.3,0.2-0.5,0.2c-1,0-2.1,0-3.1-0.4c-0.6-0.2-1.2-0.3-1.9-0.1c-0.3,0.1-0.6,0.1-0.9,0c-0.8-0.2-1.6,0-2.4,0.2
		c-0.5,0.2-1,0.4-1.5,0.6c-1,0.3-2,0.5-3.1,0.2c-0.2-0.1-0.5-0.2-0.7-0.3c0.1-0.1,0.1-0.1,0.1-0.1c0.5,0.2,1,0,1.4-0.2
		c1.1-0.6,2.2-0.8,3.4-0.9c0.3,0,0.6,0.1,0.7-0.3c0.1-0.4-0.3-0.5-0.6-0.6c-0.9-0.4-1.9-0.3-2.9-0.2c-0.4,0-0.8,0.1-1.2,0.1
		c-0.5,0-1-0.2-1.4-0.5c-0.7-0.6-1.4-1.1-2.1-1.7c-0.6-0.5-0.5-1.4,0.3-1.8c0,0,0.1,0.1,0,0.1c-0.1,0.8,0.3,1.3,0.9,1.6
		c0.3,0.2,0.5,0.5,0.7,0.8c0.4,0.8,1,1.2,1.9,1.2c0.9,0,1.7-0.1,2.6-0.2c0.5,0,1-0.2,1.6-0.2c0.3,0,0.7,0,1,0.1
		c0.7,0.2,1.3,0.5,1.9,0.7c0.6,0.3,1.3,0.3,2,0c0.4,0.3,0.9,0.3,1.5,0.2c0.3-0.1,0.7-0.1,1.1,0c1,0.1,2,0.1,3,0.2
		c0.3,0,0.5,0.1,0.6,0.3c-0.1,0.1-0.2,0.3-0.4,0.4C111.2,230.5,111.3,230.5,111.3,230.5z M95.6,266.4c-0.8-0.1-1.6-0.3-2.4-0.4
		c-0.4-0.1-0.5-0.2-0.5-0.6c0.1-1,0.1-1.9,0.2-2.9c0-0.4,0.1-0.8,0.2-1.4c0.2,0.1,0.4,0.2,0.5,0.3c0.5,0.5,1,1,1.4,1.5
		c0.2,0.2,0.3,0.5,0.3,0.7c0,0.7,0.2,1.4,0.4,2c0.1,0.2,0.1,0.4,0.2,0.7C95.8,266.4,95.7,266.4,95.6,266.4z M102,260.2
		c-0.5,0.1-1,0.2-1.5,0.3c-0.1,0-0.1,0-0.2,0c-0.8,0.3-1.3-0.1-1.8-0.7c-1-1.4-1.5-2.8-1-4.5c0.1-0.3,0.1-0.7,0.1-1
		c0-0.3-0.1-0.5-0.5-0.7c-0.4-0.1-0.5-0.1-0.7,0.3c-0.4,0.9-0.8,1.9-1.2,2.9c-0.2,0.4-0.1,0.8,0.1,1.2c0.5,0.8,0.9,1.6,1.4,2.3
		c0.3,0.5,0.3,0.6,0.2,1.2c-1.1-0.1-1.5-0.5-1.8-1.5c-0.1-0.3-0.3-0.7-0.5-0.9c-0.7-0.7-0.7-1.4-0.5-2.2c0.2-0.9,0.7-1.8,1.2-2.6
		c0.5-0.8,0.7-1.6,0.6-2.5c0-0.4-0.1-0.8-0.2-1.2c-0.1-0.4-0.1-0.9-0.2-1.3c-0.1-0.5,0-1.1,0.2-1.6c0.2-0.5,0.1-1-0.2-1.4
		c-1-1.1-1.4-2.5-2-3.9c-0.3-0.7-0.2-1.3,0.2-1.9c0.1-0.2,0.3-0.5,0.4-0.8c0.1,0.7,0.3,1.2,0.4,1.8c0.1,0.8,0.4,1.6,1,2.2
		c0.6,0.6,0.8,1.4,1,2.2c0.5,1.9,1,3.9,1.5,5.8c0.2,1,0.7,1.7,1.6,2.1c1.2,0.6,1.9,1.7,2.7,2.6c0.3,0.3,0.4,0.7,0,1.2
		c-0.3,0.3-0.2,0.7-0.1,1c0.1,0.2,0.2,0.4,0.3,0.6C102.8,259.8,102.7,260.1,102,260.2z M108.3,259.1c-0.3-0.2-0.7-0.4-1.1-0.2
		c-0.3,0.1-0.5-0.1-0.6-0.3c-0.2-0.2-0.5-0.4-0.7-0.7c-0.3-0.4-0.6-0.8-0.9-1.2c-0.3-0.5-0.6-0.9-0.9-1.4c-0.2-0.2-0.3-0.5-0.4-0.7
		c-0.2-0.3-0.3-0.5-0.5-0.8c-0.5-0.5-0.7-1-0.9-1.7c-0.3-1-0.6-2.1-0.9-3.1c-0.1-0.4-0.4-0.8-0.6-1.3c-0.1-0.1-0.1-0.2-0.1-0.4
		c0.1,0.1,0.2,0.1,0.3,0.2c1,1.3,2,2.6,3,3.9c0.3,0.4,0.6,0.8,0.9,1.2c0.9,1.5,2.1,2.9,3.2,4.2c0.7,0.8,1.2,1.7,1.7,2.6
		c0,0.1,0.1,0.2,0.1,0.4C109.2,259.6,108.8,259.3,108.3,259.1z M112.6,259.4c-0.6-0.2-1.1-0.6-1.5-1c-0.2-0.2-0.3-0.4-0.4-0.6
		c-0.7-1-1.3-1.9-2-2.9c-0.7-1-1.3-2-1.9-3c-0.4-0.7-0.9-1.3-1.3-1.9c-0.6-0.9-1.3-1.9-1.9-2.8c-0.5-0.8-1.1-1.7-1.8-2.4
		c-0.4-0.4-0.7-1-0.9-1.5c-0.2-0.5-0.4-1-0.6-1.4c-0.1-0.3-0.2-0.6,0.1-0.9c0.4-0.5,0.3-0.9,0.1-1.4c-0.1-0.2-0.2-0.5-0.3-0.8
		c0.2-0.1,0.4-0.1,0.5-0.1c0.3,0,0.7,0.1,1,0.1c0.6,0,1,0.3,1.2,0.8c0.1,0.2,0.3,0.4,0.5,0.5c0.4,0.2,0.9,0.4,1.4,0.6
		c0.5,0.2,1,0.4,1.5,0.7c0.6,0.3,1.2,0.4,1.9,0.4c0.3,0,0.6,0,0.9,0c0.6,0.2,1.3,0.4,1.9,0.6c0.4,0.1,0.6,0.4,0.7,0.8
		c0.1,0.6,0.3,1.3,0,1.9c-0.1,0.2-0.1,0.3-0.1,0.5c-0.4,1-0.2,2,0.2,3c0.3,0.7,0.6,1.5,0.9,2.2c0.2,0.4,0.2,0.8,0.1,1.3
		c-0.1,0.4,0,0.9,0,1.3c0,0.3,0.2,0.6,0.3,0.9c0.2,0.5,0.2,1-0.1,1.5c-0.2,0.4-0.3,0.9-0.3,1.3c0,0.3,0.1,0.6,0.3,0.9
		C113.3,258.5,113.2,258.7,112.6,259.4z M119,255.5c-0.5-0.4-1.1-0.8-1.6-1.2c-0.4-0.3-0.9-0.7-1.3-1.1c-0.4-0.3-0.7-0.8-0.7-1.3
		c0-0.3-0.1-0.6-0.2-0.8c-0.7-1.5-1.1-3-1.4-4.6c0-0.3-0.1-0.5-0.2-0.8c-0.2-0.9-0.1-1.7,0.3-2.5c0.1-0.2,0.2-0.3,0.4-0.5
		c0,0,0.1,0,0.1,0c0,0.4,0.1,0.7,0.1,1.1c0.1,1,0.4,1.9,0.8,2.8c0.3,0.7,0.6,1.4,0.7,2.2c0.1,0.8,0.6,1.4,1.1,2
		c0.9,1,1.6,2.2,2.2,3.4C119.6,254.7,119.6,255.1,119,255.5z M119.9,251.5c-0.5-0.9-1.2-1.6-1.8-2.3c-0.3-0.4-0.4-0.8-0.5-1.3
		c-0.1-0.9-0.3-1.7-0.9-2.4c0,0,0-0.1-0.1-0.3c0.2,0,0.2,0,0.3,0c0.8,0.5,1.5,1.2,1.6,2.2c0.1,0.4,0.2,0.7,0.3,1
		c0.3,0.5,0.5,1,0.6,1.6c0.1,0.5,0.3,0.9,0.5,1.4C120,251.5,119.9,251.5,119.9,251.5z M128.7,247.7c-0.4,0.2-0.8,0.4-1.2,0.6
		c-0.1-0.1-0.2-0.1-0.2-0.1c-0.6-0.6-1.4-0.9-2.3-1c-0.4-0.1-0.7-0.3-1-0.6c-0.7-0.7-1.5-1.4-2.3-2.1c-0.5-0.5-1.1-0.7-1.8-0.8
		c-0.3,0-0.5-0.1-0.8-0.1c-0.4-0.1-0.8-0.3-1.1-0.6c-0.7-0.8-1.4-1.6-2.1-2.4c-0.3-0.3-0.4-0.6-0.4-1.1c0.4,0,0.7,0,1,0.2
		c0.3,0.2,0.5,0.4,0.8,0.6c0.6,0.4,1.2,0.6,2,0.6c0.3,0,0.7,0.1,0.9,0.3c0.9,0.6,1.8,1,2.8,1.2c0.9,0.2,1.6,0.7,2.2,1.5
		c0.8,1.1,1.9,2,3.1,2.8c0.1,0.1,0.3,0.1,0.4,0.2C129.1,247.1,129.1,247.5,128.7,247.7z M132.2,245.2c-0.8,0-1.6-0.1-2.4-0.1
		c-0.7,0-1.2-0.3-1.6-0.8c-0.4-0.5-0.7-1.1-1.1-1.6c0,0,0.1-0.1,0.1-0.1c0.2,0.1,0.4,0.2,0.6,0.4c0.6,0.4,1.3,0.7,2.1,0.8
		c1.1,0.2,1.9,0.7,2.8,1.4C132.5,245.2,132.4,245.2,132.2,245.2z M133.7,241.9c-0.9-0.3-1.8-0.5-2.6-0.9c-1.1-0.4-2.3-0.7-3.5-0.7
		c-1.2,0.1-2.3-0.3-3.3-1.1c-0.4-0.4-1-0.5-1.5-0.6c-0.9-0.1-1.6-0.5-2.3-1.1c-0.4-0.4-1.1-0.6-1.7-0.8c-0.4-0.2-0.9-0.2-1.3-0.3
		c-0.6-0.1-1.1-0.5-1.5-1.1c-0.3-0.5-0.6-0.9-0.9-1.3c-0.5-0.6-1.1-1.1-1.8-1.3c-0.3-0.1-0.6-0.3-1.1-0.5c1-0.3,1.9-0.6,2.8-0.8
		c0,0,0.1,0,0.1,0c1.4-0.6,2.9-0.5,4.4-0.3c1.3,0.2,2.7,0.2,4.1,0.3c0,0,0.1,0,0.1,0c1.3-0.3,2.4,0.2,3.5,0.9
		c0.2,0.1,0.4,0.3,0.7,0.5c0.3,0.2,0.7,0.4,1.2,0.4c0.5-0.1,0.9,0.2,1.1,0.7c0.2,0.6,0.5,1.2,0.6,1.8c0.4,1.6,1.1,3,2.1,4.3
		c0.2,0.3,0.4,0.6,0.7,0.9C133.6,241.2,133.8,241.5,133.7,241.9z M114.7,229.7c0.1-0.5,0.3-0.8,0.7-1c0.7-0.5,1.5-0.9,2.4-0.9
		c0.5,0,0.9-0.2,1.2-0.6c0.1-0.1,0.2-0.2,0.4-0.4c0.2,0.2,0.4,0.3,0.5,0.4c0.9,1.1,2.1,1.6,3.5,1.7c0.7,0,1.5,0,2.2-0.1
		c0.8-0.1,1.6-0.1,2.2,0.6c0.1,0.1,0.1,0.1,0.2,0.3c-0.2,0-0.3,0.1-0.4,0.1c-0.9,0-1.8-0.1-2.7-0.1c-0.5,0-1.1,0-1.6,0.1
		c-1,0.2-1.9,0.1-2.6-0.6c-0.2-0.1-0.4-0.2-0.6-0.2c-0.7,0.1-1.5,0.1-2.2-0.1c-0.3-0.1-0.7,0.1-1,0.2
		C116,229.2,115.4,229.5,114.7,229.7z M136.5,240.7c-0.6-0.2-1-0.5-1.3-1c-0.2-0.4-0.5-0.9-0.7-1.3c-0.3-0.6-0.6-1.1-1.3-1.3
		c-0.1,0-0.2-0.2-0.3-0.3c0.3-0.2,0.6-0.3,0.9-0.3c0.9,0,1.7,0.3,2.3,1.1c0.2,0.3,0.5,0.7,0.7,1c0.1,0.1,0.2,0.3,0.3,0.5
		c-0.4,0.1-0.8,0.1-1.1,0.2C136.2,239.8,136.4,240.2,136.5,240.7z M139,235.5c-1.1,0.4-2.1,0.4-3.1-0.2c-0.6-0.4-1.2-0.8-1.9-1.1
		c-0.2-0.1-0.4-0.2-0.7-0.1c-0.5,0.1-0.9,0-1.2-0.4c-0.4-0.5-0.8-1-1.4-1.4c-0.2-0.1-0.3-0.5-0.4-0.7c0,0,0.1-0.1,0.1-0.1
		c1.1,0.5,2.3,0.3,3.4,0.4c0.4,0,0.7,0.1,1,0.3c0.4,0.2,0.8,0.3,1.2,0.4c0.5,0.1,0.9,0.2,1.3,0.5c0.7,0.5,1.3,1,1.9,1.5
		C139.6,234.7,139.5,235.3,139,235.5z M139.9,232.6c-0.2-0.1-0.3-0.2-0.5-0.4c-0.8-0.6-1.6-1.1-2.6-1.2c-0.3,0-0.5-0.1-0.6-0.3
		c-0.3-0.4-0.7-0.6-1.2-0.6c-0.9,0-1.8-0.1-2.7-0.1l0-0.2c0.8-0.2,1.5-0.4,2.3-0.5c0.1,0,0.2,0,0.2,0c1.3,0.3,2.7,0.6,3.9,1.3
		c0.6,0.3,1.2,0.6,1.7,1c0.3,0.2,0.6,0.5,0.9,0.8C140.7,232.9,140.3,232.9,139.9,232.6z M149.9,214.6
		C149.9,214.6,149.9,214.7,149.9,214.6c-0.2,0.2-0.4,0.4-0.6,0.6c-0.4,0.3-0.5,0.7-0.4,1.1c0.1,0.3,0.2,0.5,0.2,0.8
		c0,0.1,0.1,0.2,0.1,0.3c-0.1,0.3-0.2,0.5-0.2,0.7c-0.1,0.2-0.4,0.3-0.6,0.3c-0.2,0-0.4,0.1-0.5,0.2c-0.4,0.2-0.6,0.7-0.3,1.1
		c0.2,0.3,0.4,0.4,0.7,0.4c-0.2,0.4-0.4,0.8-0.7,1.2c-0.4,0.7-1,1.2-1.7,1.5c0.2,0.2,0.4,0.5,0.6,0.8c-0.1,0.3-0.3,0.7-0.4,1
		c-0.1,0.2-0.2,0.3-0.4,0.3c-1.6,0-3.1,0.6-4.7,0.9c-1.6,0.3-3.2,0.3-4.8-0.1c-1.6-0.5-3.1-0.4-4.6,0.3c-1.9,0.9-3.8,0.8-5.7,0.1
		c-1.3-0.4-2.5-0.9-3.8-1.3c-2.6-0.8-5-0.3-7.2,1.1c-0.3,0.2-0.6,0.4-1,0.7c-1.6,1.1-3.3,1.4-5.2,0.7c-1.4-0.5-2.9-0.4-4.4-0.3
		c-0.8,0.1-1.6,0-2.2-0.5c-0.1-0.1-0.4-0.2-0.6-0.2c-1-0.1-2,0-3,0.3c-1,0.4-1.9,0.1-2.6-0.7c-0.3-0.3-0.5-0.6-0.8-1
		c-0.4-0.5-0.6-1.2-0.7-1.8c-0.1-0.6-0.2-1.2-0.4-1.8c-0.2-0.5-0.2-1,0.1-1.5c0.5-0.9,0.5-1.9,0.6-2.9c0-1.1,0.1-2.2-0.1-3.3
		c-0.2-1.5-0.8-2.9-1.4-4.3c-0.1-0.3-0.3-0.6-0.4-0.9c-0.2-0.5-0.2-0.9,0.1-1.4c0.2-0.3,0.2-0.6,0.1-0.9c-0.3-1.3-0.9-2.4-1.6-3.5
		c-0.4-0.6-0.7-1.3-0.8-2.1c-0.2-1.5-0.9-2.8-1.8-4.1c-0.3-0.3-0.5-0.7-0.8-1c-0.4-0.5-0.6-1.1-0.6-1.8l6.3-4.1l-1.6-1.5
		c0.1-0.1,0.2-0.3,0-0.6c1.3,0.1,0.6,1.2,1.4,1.8c-0.3-0.3,0.1-1.8,0.3-2.3l2.3,0.3c0.1,0.4-0.6,0.7,0.1,1c0.3-0.5,1.4-0.5,1.8-0.2
		c0.2-0.4,1.5-0.2,2-0.3c0.1,0.1,0.3,0.2,0.4,0.4c1-0.8,2.1-1.4,3.2-1.9c0.3,0.1,0.7,0.1,1-0.2c0.3-0.2,0.6-0.4,0.8-0.5
		c0.1,0,0.2-0.1,0.2-0.1c0,0,0.1,0,0.1,0c0.2,0,0.3,0,0.5,0.2c0.2,0.3,0.1,0.6-0.1,0.8c-0.2,0.2-0.4,0.5-0.6,0.7
		c-0.1,0.1-0.1,0.4,0,0.4c0.1,0.1,0.3,0.1,0.4,0c0.6-0.3,1.1-0.7,1.3-1.3c0.2-0.4,0.3-0.8,0.4-1.2c0-0.1,0.1-0.2,0.2-0.3
		c0.4-0.1,0.7-0.1,1.1-0.2c0.2,0.2,0.4,0.4,0.4,0.7c0,0.4,0,0.8-0.4,1.1c-0.1,0.1-0.2,0.2-0.2,0.3c-0.2,0.5-0.4,1-0.7,1.4
		c-0.2,0.3-0.5,0.6-0.9,0.7c-0.6,0.2-1.2,0.4-1.9,0.6c0.2,0.5,0.3,1.1,0.5,1.7c0.1,0.2,0.1,0.4,0.2,0.6c0,0.1,0.2,0.1,0.2,0.1
		c0-0.1,0.1-0.2,0.1-0.2c0-0.4,0.1-0.6,0.6-0.6c0.2,0,0.5,0,0.7,0.1c0.4,0.2,0.8,0.1,1-0.2c0.4-0.4,0.9-0.7,1.4-0.9
		c0.2-0.1,0.5-0.2,0.7-0.3c0.6-0.5,1.4-0.7,2.1-0.9c0.6-0.2,0.9,0,0.9,0.6c0,0.4-0.1,0.7-0.1,1.1c0,0.5,0,1-0.4,1.5
		c-0.2,0.2-0.2,0.6-0.1,0.9c0,0.1,0.5,0.3,0.7,0.2c0.6-0.1,1,0,1.5,0.3c0.5,0.2,1,0.5,1.6,0c0.5-0.3,1-0.2,1.3,0.3
		c0.1,0.2,0.3,0.3,0.4,0.4c0.3,0.3,0.3,0.4,0,0.7c-0.5,0.3-0.9,0.8-1.6,0.6c-0.2,0-0.4,0-0.6,0c-0.4,0.1-0.5,0-0.5-0.4
		c0-0.4-0.2-0.5-0.5-0.4c-0.2,0-0.5,0-0.7,0.1c-0.2,0.1-0.5,0.3-0.5,0.3c0.2,0.5,0,0.9-0.3,1.3c0,0,0,0,0,0c0,0.5,0,1.1,0.6,1.4
		c0.1,0,0.2,0.2,0.3,0.3c0.2,0.3,0.5,0.6,0.9,0.7c0.2,0,0.3,0.2,0.4,0.3c0.3,0.5,0.5,0.6,1.1,0.4c0.7-0.3,1.3-0.1,1.9,0.3
		c0.1,0.1,0.3,0.2,0.4,0.2c0.6-0.2,1.2-0.4,1.8-0.7c0.5-0.3,0.8-0.3,1.1,0.2c0.1,0.1,0.1,0.3,0.2,0.5c0.1,0.4,0.3,0.6,0.7,0.7
		c0.6,0.2,1,0.5,1.3,1c0.1,0.2,0.2,0.4,0.4,0.6c0.4,0.4,0.9,0.7,1.3,1.1c0.2,0.1,0.3,0.1,0.4,0c0.3-0.3,0.4-0.6,0.4-1
		c-0.1-0.4,0-0.8,0.4-1c0.3-0.2,0.3-0.5,0-0.7c-0.1-0.1-0.3-0.2-0.4-0.3c-0.5-0.3-0.7-0.6-0.6-1.2c0-0.6-0.3-1-1-1.1
		c0.2-0.3,0.3-0.6,0.5-1c0-0.1,0.1-0.2,0.1-0.3c-0.2-0.4-0.3-0.8-0.6-1.1c-0.3-0.3-0.7-0.6-1-0.9c-0.3-0.2-0.3-0.5-0.2-0.8
		c0.2-0.5,0.6-0.9,0.5-1.5c0-0.1,0.1-0.2,0.2-0.3c0.4-0.3,0.9-0.3,1.3,0c0.3,0.2,0.6,0.5,0.9,0.8c0.3,0.2,0.5,0.3,0.9,0.1
		c0.8-0.5,1.1-1.2,0.8-2c-0.1-0.3-0.2-0.6-0.3-0.8c-0.1-0.2-0.1-0.3-0.1-0.5c0-0.9-0.9-1.7-1.8-1.7c-0.3,0-0.5,0-0.6-0.3
		c-0.1-0.2-0.3-0.3-0.5-0.1c-0.6,0.3-0.6,0.8-0.6,1.2c0,0.3-0.1,0.5-0.3,0.6c-0.4,0.1-0.5,0.4-0.4,0.7c0,0.1,0,0.2,0,0.3
		c0,0.8-0.4,1.1-1.2,0.8c-0.1-0.1-0.2-0.1-0.3-0.2c-0.2-0.2-0.5-0.2-0.8-0.1c-0.6,0.2-1.2,0.4-1.8,0.7c-0.9,0.4-1.8-0.1-2-1
		c-0.1-0.3-0.3-0.7-0.6-0.9c-0.7-0.6-1.4-1.3-2.5-1.3c-0.5,0-0.6-0.2-0.6-0.7c0-0.1,0-0.2,0-0.3c-0.1-0.3-0.1-0.6,0.1-0.9
		c0.5-0.8,1-1.6,1.1-2.6c0.1-1-0.1-1.4-1.1-1.6c-0.4-0.1-0.5-0.3-0.2-0.6c0.4-0.5,0.7-0.9,1.1-1.3c0.5-0.4,0.8-0.4,1.2,0.1
		c0.1,0.1,0.1,0.2,0.2,0.2c0.2,0.1,0.4,0.2,0.5,0.1c0.1-0.1,0.2-0.3,0.2-0.5c0-0.2-0.1-0.4-0.2-0.7c-0.1-0.3-0.1-0.6,0.2-0.8
		c0.3-0.2,0.6,0,0.9,0.2c0.4,0.3,0.7,0.6,1.1,0.7c0.6,0.2,1.1,0.5,1.5,0.8c0.3,0.3,0.6,0.4,1.1,0.2c0.1-0.1,0.3-0.1,0.5-0.1
		c0.5,0,0.7,0.2,0.6,0.7c0,0.2,0,0.5,0,0.7c0,0.1,0.1,0.3,0.2,0.3c0.6,0.3,1.2,0.1,1.4-0.6c0-0.2,0-0.4,0-0.6
		c-0.1-0.3-0.1-0.5,0.2-0.6c0.2-0.1,0.4,0,0.6,0.1c0.1,0,0.1,0.1,0.2,0.1c0.3,0.2,0.6,0.2,0.8-0.1c0.1-0.2,0.1-0.4,0.2-0.5
		c0.1-0.6,0.3-0.8,1-0.8c0.4,0,0.6-0.2,0.9-0.5c0.2-0.3,0.4-0.5,0.7-0.7c0.8-0.5,0.8-0.7,0.1-1.3c-0.1-0.1-0.3-0.2-0.4-0.3
		c-0.3-0.2-0.6-0.3-0.9,0c-0.6,0.5-1.1,0.3-1.5-0.1c0,0-0.1-0.1-0.1-0.1c-0.4-0.3-0.5-0.2-0.8,0.1c-0.3,0.4-0.7,0.4-1,0
		c-0.1-0.1-0.1-0.2-0.2-0.3c-0.2-0.3-0.5-0.3-0.8,0c-0.1,0.1-0.2,0.3-0.4,0.4c-0.4,0.3-0.6,0.7-0.5,1.2c0.1,0.6,0,0.9-0.6,1.2
		c-0.5,0.3-1.1,0.1-1.6-0.1c-0.5-0.2-1-0.4-1.5-0.7c-0.2-0.1-0.4-0.3-0.5-0.4c-0.2-0.2-0.1-0.3,0.1-0.4c0.4-0.1,0.8-0.3,1.3-0.3
		c0.8-0.1,1.4-0.5,1.9-1.1c0.4-0.7,0.9-0.8,1.6-0.6c0.5,0.1,0.8,0,1.2-0.3c0.7-0.5,1.6-0.5,2.3-1c0,0,0,0,0,0c0.5,0.2,1,0.1,1.4-0.1
		c0.3-0.1,0.5,0,0.7,0.2c0.1,0.2,0.1,0.3,0.2,0.5c0.3,0.7,1.6,1,2.2,0.6c0.4-0.3,0.9-0.5,1.3-0.8c0.1-0.1,0.4,0,0.5,0
		c0.2,0.1,0.4,0.3,0.6,0.3c0.6,0.1,1.2,0.3,1.8,0.3c0.3,0,0.6-0.3,0.8-0.5c0.1-0.2-0.1-0.5-0.3-0.8c-0.1-0.2-0.4-0.2-0.6-0.3
		c-0.2-0.1-0.4-0.2-0.6-0.3c-0.1-0.1-0.1-0.5,0-0.5c0.6-0.2,1.1-0.7,1.7-0.4c0.5,0.2,0.9,0.2,1.3-0.1c0.5-0.3,1-0.4,1.6-0.3
		c0.6,0,0.8-0.1,0.8-0.7c0-0.5,0-1,0-1.4c0.1-0.6,0.2-1.1,0.1-1.7c-0.1-0.5,0.1-0.8,0.6-1c0.2-0.1,0.3-0.2,0.5-0.3
		c0.1-0.1,0.3-0.1,0.4-0.1c0.6,0.3,1.2,0.6,1.7,0.9c0.1,0,0.1,0.1,0.1,0.2c0,0-0.1,0.1-0.2,0.1c-0.1,0-0.3,0-0.4,0
		c-0.3,0.3-0.7,0.5-1,0.8c-0.2,0.2-0.4,0.9-0.2,1.1c0.2,0.2,0.6,0.3,0.8,0.2c0.5-0.3,0.9-0.7,1.4-1.1c0.1-0.1,0-0.3,0-0.4
		c0-0.3,0.1-0.5,0.2-0.8c0.4,0.8,0.8,1.5,1.1,2.3c-0.4,0.2-0.9,0.3-1.3,0.5c-0.2,0.1-0.5,0.1-0.7,0.3c-0.3,0.5-0.7,0.7-1.3,0.7
		c-0.1,0-0.2,0.1-0.3,0.2c0,0.1,0.1,0.2,0.2,0.2c0.3,0.1,0.3,0.3,0.1,0.5c-0.1,0.2-0.1,0.3,0.1,0.4c0.3,0.1,0.5,0.3,0.7,0.6
		c0.1,0.2,0.3,0.1,0.4,0c0.1-0.3,0.2-0.6,0.3-0.9c0.1-0.3,0.2-0.4,0.5-0.4c0.3,0,0.6-0.1,0.8-0.2c0.4-0.1,0.5,0,0.6,0.4
		c0.1,0.3,0.1,0.6,0.2,0.9c0.1,0.5,0,0.6-0.5,0.7c-0.7,0.1-1.3,0.3-1.8,0.8c-0.1,0.1-0.4,0.2-0.5,0.2c-0.2,0-0.5,0-0.7,0
		c-0.3,0-0.4,0.1-0.3,0.4c0.1,0.5,0.3,1,0.3,1.6c0.1,0.4-0.2,0.7-0.6,0.7c-0.4,0-0.8,0.1-1.1,0c-0.4-0.1-0.6,0.2-0.7,0.5
		c-0.2,0.3-0.2,0.6,0.1,0.9c0.3,0.3,0.6,0.7,0.8,1c0.3,0.4,0.3,0.9-0.1,1.1c-0.4,0.2-0.9,0.3-1.2,0c-0.5-0.5-0.9-1.1-1.4-1.6
		c0,0,0-0.1,0-0.1c0.1-0.7,0.2-1.4,0.2-2c0-0.3,0.2-0.7-0.1-0.9c-0.3-0.2-0.7-0.2-1-0.1c-0.2,0-0.4,0.2-0.5,0.3
		c-0.5,0.5-1,1.1-1.4,1.7c-0.3,0.4-0.1,1,0.3,1.2c0.3,0.2,0.6,0.4,0.9,0.6c0.1,0.2,0.3,0.5,0.2,0.6c-0.1,0.4-0.3,0.7-0.5,1
		c-0.3,0.4-0.3,1.1,0,1.3c0.4,0.3,0.8,0.3,1.2-0.1c0.2-0.2,0.5-0.4,0.7-0.6c0.6-0.5,1.3-0.5,1.9-0.2c0.4,0.2,0.5,0.6,0.2,0.9
		c-0.1,0.2-0.3,0.2-0.5,0.4c-0.3,0.2-0.6,0.4-0.8,0.7c-0.8,1.1-2.2,1.1-2.9-0.1c-0.2-0.3-0.5-0.4-0.7-0.5c-0.4-0.1-0.6,0-0.7,0.3
		c-0.1,0.3-0.4,0.3-0.7,0.1c-0.3-0.2-0.2-0.4,0-0.6c0.2-0.3,0.4-0.5,0.6-0.8c0.2-0.3,0.3-0.6,0.5-0.8c0.6-0.6,0.6-1-0.1-1.6
		c-0.2-0.2-0.4-0.5-0.4-0.7c0.1-0.7-0.1-1.3-0.4-1.9c-0.2-0.6-1.1-0.9-1.6-0.6c-0.2,0.1-0.4,0.5-0.4,0.7c0,0.3,0,0.5-0.2,0.7
		c-0.1,0.1-0.1,0.3-0.1,0.4c0.3,0.5,0,0.9-0.3,1.3c-0.1,0.2-0.2,0.3-0.2,0.5c0,0.3,0.1,0.5,0,0.8c0,0.2-0.1,0.5-0.3,0.6
		c-0.5,0.4-1,0.6-1.5,1c-0.3,0.2-0.6,0.3-1,0.3c-0.3,0-0.6,0.1-0.9,0.2c-0.1,0-0.2,0.2-0.2,0.3c0,0.6,0.4,1,1,1c0.2,0,0.3,0,0.4,0.2
		c0.2,0.8,0.7,1.4,1.6,1.4c0.4,0,0.7,0.2,1,0.5c0.2,0.3,0.2,0.7-0.1,1c-0.2,0.2-0.6,0.2-0.9-0.1c-0.2-0.2-0.3-0.4-0.5-0.5
		c-0.3-0.2-0.5-0.2-0.6,0.2c0,0.1-0.1,0.2-0.1,0.3c-0.2,0.3-0.1,0.6,0.2,0.8c0.5,0.4,0.9,1,1.3,1.5c0.2,0.3,0.2,1-0.1,1.2
		c-0.5,0.5-0.4,1.1-0.3,1.7c0.1,0.4,0,1-0.4,1.2c-0.6,0.4-0.7,0.9-0.8,1.6c0,0.2,0.1,0.4,0.2,0.5c0.6,0.5,0.9,1.2,0.9,1.9
		c0,0.7-0.1,1-0.7,1.4c-0.2,0.1-0.3,0.3-0.4,0.4c-0.2,0.6-0.3,1.1-0.4,1.7c-0.1,0.5,0,0.8,0.4,1c0-0.2-0.1-0.3-0.1-0.4
		c0-0.2,0-0.3,0.1-0.4c0.1-0.1,0.3,0,0.4,0c0.3,0,0.6,0,0.8,0c0.6-0.1,1.1-0.1,1.5,0.4c0.2,0.2,0.4,0.3,0.7,0.3
		c0.3,0,0.6,0.2,0.8,0.4c0.3,0.2,0.6,0.4,0.9,0.6c0.7,0.2,1.2,0.7,1.4,1.3c0.3,0.8,0.5,1.7,0.7,2.5c0,0.1,0.1,0.2,0.2,0.3
		c0,0,0.1,0,0.1,0c0-0.1,0-0.2,0-0.3c-0.1-0.5-0.1-1.2,0.1-1.6c0.1-0.3,0.3-0.5,0.5-0.6c0.6-0.4,1.3-0.8,1.3-1.6
		c0.1-0.6-0.3-0.9-0.7-1.2c-0.3-0.3-0.6,0-0.9,0.2c-0.3,0.1-0.6,0.1-0.8,0.1c-0.3,0-0.5-0.2-0.5-0.5c0-0.3,0.2-0.4,0.5-0.5
		c0.2-0.1,0.5-0.1,0.7-0.2c0.3-0.1,0.6-0.2,0.3-0.5c0-0.1-0.1-0.2-0.1-0.2c0.1-0.6-0.3-0.9-0.8-1.1c-0.4-0.2-0.8-0.5-1.2-0.7
		c-0.3-0.2-0.7-0.4-1-0.4c-1.3-0.1-1.9-1.4-2.1-2.3c0-0.2,0-0.4,0.1-0.6c0-0.1,0.3-0.2,0.3-0.1c0.3,0.2,0.7,0.4,0.9,0.6
		c0.5,0.6,1,0.7,1.7,0.5c0.3-0.1,0.5,0,0.8,0.2c0.2,0.2,0.5,0.3,0.8,0.4c0.5,0.2,1.1,0.7,0.9,1.2c-0.2,0.6,0.1,1.2,0.1,1.8
		c0,0.1,0.1,0.1,0.1,0.2c0.7,0.1,1.4,0.3,2.1,0.4c0.7,0.1,1,0.6,0.6,1.1c-0.4,0.5-0.5,1.1-0.3,1.7c0,0.1,0,0.3,0.1,0.4
		c0.2,0.6,0.4,1.3,0.6,1.9c0.6-0.3,1.1-0.3,1.7,0c0.6,0.3,0.7,0.8,0.2,1.3c-0.1,0.1-0.3,0.2-0.5,0.2c-0.3,0.1-0.6,0.1-0.9,0.1
		c-0.4,0-0.6,0.2-0.8,0.5c-0.2,0.5-0.5,0.7-1,0.7c-0.2,0-0.4,0.1-0.7,0.2c-0.5,0.2-0.9,0.3-1.3,0.8c0,0-0.1,0-0.2,0
		c0.8,1,1.9,1.7,2.2,3c0.1-0.2,0.2-0.3,0.3-0.3c0.8-0.7,1.2-0.9,1.8-0.1c0.1,0.1,0.3,0.2,0.4,0.3c0.4,0.2,0.8,0.5,1.2,0.7
		c-0.1,0.1-0.1,0.2-0.2,0.2c-0.5,0.5-0.5,0.7-0.1,1.3c0.1,0.1,0.1,0.3,0.2,0.5c0.1,0.7,0.8,0.9,1.3,0.5c0.1-0.1,0.3-0.2,0.4-0.2
		c0.7-0.1,1.4,0,2,0.3c0.6,0.3,0.9,0.1,0.9-0.6c0-0.4,0-0.8-0.1-1.2c-0.1-0.8-0.7-1.2-1.4-0.9c-0.2-0.2-0.6-0.3-0.9-0.2
		c-0.2,0.1-0.4,0.1-0.6,0.2c0,0-0.1-0.1-0.1-0.1c-0.4-0.3-0.6-1-0.3-1.5c0.4-0.5,0.4-1,0.3-1.6c-0.1-0.3,0-0.7,0.4-0.8
		c0.5-0.1,0.9-0.1,1.4,0c0.2,0.1,0.4,0.5,0.5,0.7c0,0,0.1,0.1,0.1,0.1c0.2,0.3,0.2,0.5,0.1,0.9c-0.2,0.6-0.2,0.8,0.4,1.2
		c0.8,0.5,1.6,1.1,2.5,1.6c0.1,0.1,0.2,0.2,0.3,0.3C150,214.3,150,214.5,149.9,214.6z M120.9,192.8c0.5-0.3,1-0.4,1.5-0.5
		c0.6,0,1,0.3,1,0.7c0,0.5-0.6,1-1.1,0.9c-0.6-0.1-1,0.3-1.3,0.6c-0.2,0.2-0.1,0.5,0.2,0.6c0.2,0.1,0.4,0,0.5,0.1
		c0.2,0.1,0.5,0.3,0.6,0.4c0.2,0.2,0.3,0.4,0.6,0.4c0.3,0,0.6,0.2,0.8,0.5c0.1,0.3,0.4,0.5,0.6,0.7c0.2,0.2,0.4,0.3,0.5,0.4
		c0.1,0.1,0.1,0.4,0,0.6c-0.1,0.1-0.4,0.2-0.5,0.1c-0.8-0.5-1.7-0.7-2.3-1.6c-0.1-0.1-0.3-0.2-0.5-0.1c-0.9,0.3-1.8,0.6-2.7,0.9
		c-0.3,0.1-0.7,0-0.8-0.3c-0.1-0.3,0-0.8,0.3-0.8c0.9-0.1,0.9-1,1.3-1.5c0,0,0-0.1,0-0.2C119.5,193.8,120.1,193.2,120.9,192.8z
		 M151.7,208.8c-0.3,0.1-0.4,0.1-0.6-0.1c-0.2-0.3-0.5-0.3-0.9-0.1c-0.4,0.2-0.5,0.6-0.6,1c-0.3,0.9-0.7,1-1.4,0.4
		c-0.1-0.1-0.2-0.2-0.2-0.3c-0.2-0.4-0.6-0.6-1.1-0.7c-0.4,0-0.5-0.2-0.5-0.7c0-0.3,0-0.6,0-0.9c0-0.4-0.1-0.4-0.4-0.2
		c-0.3,0.2-0.6,0.3-1,0.4c-0.3,0.1-0.7,0-0.9-0.3c-0.2-0.3-0.3-0.6,0-0.9c0.5-0.6,1.2-0.9,1.9-1.3c0,0,0.1,0,0.2,0
		c0,0.2,0,0.4,0.1,0.6c0.1,0.3,0.1,0.6,0.5,0.6c0.4,0,0.7-0.1,0.8-0.5c0-0.1,0.2-0.2,0.4-0.2c0.1,0.2,0.2,0.3,0.2,0.5
		c0,0.2-0.1,0.4-0.1,0.7c-0.1,0.5,0.1,0.8,0.7,0.6c1.2-0.3,2.2-1,3-1.9c0.1-0.1,0.1-0.2,0-0.4c-0.2-0.6-0.7-1-1.5-1.1
		c-0.5,0-0.6-0.1-0.6-0.7c0-0.5,0.4-1,0.1-1.6c0-0.1,0.1-0.2,0.1-0.2c0.1,0,0.3,0,0.4,0.1c0.5,0.4,1,0.5,1.7,0.3
		c0.2-0.1,0.3-0.1,0.4-0.1c-0.1,2.3-0.2,4.6-0.5,6.9C151.8,208.8,151.8,208.8,151.7,208.8z"/>
	<g>
		<g>
			<path class="st0" d="M198,189.1c-8,0-13.4,8.5-15,19.3c-1.3,9.6,0.9,18.2,7.8,18.2c2.9,0,5.6-1.6,7.5-5.1l3.6,2.4
				c-2.2,4.8-8,7.8-12.5,7.8c-12.6,0-17.7-11-16-23.3c1.7-12.3,10.6-23.3,22.8-23.3c6.8,0,11.3,2.8,10.5,8.5
				c-0.4,2.9-3.2,5.5-6.2,5.5s-5.1-2.5-4.7-5.5c0.3-1.8,1.5-3.6,3.1-4.5C198.4,189.1,198,189.1,198,189.1z"/>
			<path class="st0" d="M220.2,232.3c-8.6,0-14.7-7.3-13.3-17.5c1.5-10.2,9-17.5,17.6-17.5c8.6,0,14.7,7.2,13.2,17.5
				C236.3,224.9,228.9,232.3,220.2,232.3z M216.6,214.8c-1.3,9.6,0.1,13.3,3.7,13.3c3.6,0,6.3-3.9,7.7-13.3
				c1.4-9.6-0.1-13.3-3.7-13.3C220.8,201.5,218,205.2,216.6,214.8z"/>
			<path class="st0" d="M258.5,203.6c2-2.7,4.9-6.2,9.6-6.2s8.1,3.8,7.4,8.5l-2.7,18.7c-0.1,1,0.6,1.8,1.7,1.8c1,0,2-0.8,2.1-1.8
				l0.4-2.9h2.7l-0.4,2.9c-0.6,4.2-4.5,7.6-8.7,7.6s-7.1-3.4-6.6-7.6l2.6-18.3c0.2-1.5-0.8-2.7-2.3-2.7c-1.5,0-2.9,1.2-5.5,4.8
				l-2.2,3l-2.7,19.7h-8.8l3.6-25.2c0.1-1-0.6-1.8-1.7-1.8c-1,0-2,0.8-2.1,1.8l-0.4,2.9h-2.7l0.4-2.9c0.6-4.2,4.5-7.6,8.7-7.6
				c3.9,0,6.7,3,6.6,6.8L258.5,203.6z"/>
			<path class="st0" d="M309.8,204.7c-0.3,2.3-2.6,4.4-5,4.4c-2.5,0-4.1-2-3.8-4.4c0.2-1.3,0.7-2.2,1.6-3c-1-0.4-1.9-0.9-3.2-0.9
				c-3,0-5,1.4-5.4,3.5c-0.3,1.8,0.9,3.1,2.4,4.1l6.9,4.1c3.1,2,5.5,5.3,4.9,9.5c-1,6.8-7.1,10.3-14.6,10.3
				c-7.5,0-11.2-5.7-10.6-9.4c0.3-2.1,1.8-5.2,5.2-5.2c2.7,0,4.6,2.2,4.2,4.8c-0.3,1.9-1.5,3.4-3.2,4.3c1,1,2.7,1.7,4.7,1.7
				c2.9,0,5.7-1.7,6.2-4.7c0.4-2.3-0.9-3.8-2.7-5l-6.8-4c-3.2-2-4.9-5.2-4.4-8.5c0.9-5.9,6.4-9,13.3-9
				C305.3,197.3,310.4,200.1,309.8,204.7z"/>
			<path class="st0" d="M321,232.3c-4.2,0-7.1-3.4-6.6-7.6l3.6-25.9h8.8l-3.6,25.9c-0.1,1,0.6,1.8,1.7,1.8c1,0,2-0.8,2.1-1.8
				l0.4-2.9h2.7l-0.4,2.9C329.1,228.8,325.2,232.3,321,232.3z"/>
			<path class="st0" d="M328,190.3c-0.3,2.4-2.6,4.4-5,4.4c-2.4,0-4.1-2-3.8-4.4c0.3-2.4,2.6-4.4,5-4.4
				C326.7,185.9,328.3,187.9,328,190.3z"/>
			<path class="st0" d="M332.5,236.1l4.1-2.5c0.8,2.5,2.9,4.8,7,4.8c4.3,0,8.3-2.6,9-7.7l0.5-3.3c-2.6,2.9-5.7,4.8-9.1,4.8
				c-6.8,0-11.1-7.2-9.7-17.5c1.4-10.2,7.9-17.5,14.7-17.5c3.2,0,6,1.8,7.8,4.8l0.1-0.4c0.4-2.4,2.5-4.4,5-4.4c2.4,0,4.1,2,3.8,4.4
				l-3.7,26.2c-1.6,11.5-9.1,15.9-17,15.9C337.2,243.8,333.1,239.2,332.5,236.1z M354.9,214.8c1-7.1-0.8-11.7-3.8-11.7
				c-3,0-6.1,4.6-7.1,11.7c-1,7.1,0.8,11.7,3.8,11.7C350.8,226.5,354,221.9,354.9,214.8z"/>
			<path class="st0" d="M386.2,203.6c2-2.7,4.9-6.2,9.6-6.2c4.7,0,8.1,3.8,7.4,8.5l-2.7,18.7c-0.1,1,0.6,1.8,1.7,1.8
				c1,0,2-0.8,2.1-1.8l0.4-2.9h2.7l-0.4,2.9c-0.6,4.2-4.5,7.6-8.7,7.6s-7.1-3.4-6.6-7.6l2.6-18.3c0.2-1.5-0.8-2.7-2.3-2.7
				c-1.5,0-2.9,1.2-5.5,4.8l-2.2,3l-2.7,19.7h-8.8l3.6-25.2c0.1-1-0.6-1.8-1.7-1.8c-1,0-2,0.8-2.1,1.8l-0.4,2.9h-2.7l0.4-2.9
				c0.6-4.2,4.5-7.6,8.7-7.6c3.9,0,6.7,3,6.6,6.8L386.2,203.6z"/>
			<path class="st0" d="M436,197.3c3.6,0,6.4,2.6,6.6,6.1c2.2-2.7,5.7-6.1,9.6-6.1c4.2,0,7.2,3.4,6.6,7.6l-2.8,19.6
				c-0.1,1,0.6,1.8,1.7,1.8c1,0,2-0.8,2.1-1.8l0.4-2.9h2.7l-0.4,2.9c-0.6,4.2-4.5,7.6-8.7,7.6c-4.2,0-7.1-3.4-6.6-7.6l2.8-19.6
				c0.1-1-0.6-1.8-1.7-1.8c-1.5,0-3.8,2.7-6.4,6.4l-3.1,21.5h-8.8l3.7-26.1c0.1-1-0.6-1.8-1.7-1.8c-1.5,0-3.8,2.7-6.4,6.4l-3.1,21.5
				h-8.8l3.6-25.2c0.1-1-0.6-1.8-1.7-1.8c-1,0-2,0.8-2.1,1.8l-0.4,2.9h-2.7l0.4-2.9c0.6-4.2,4.5-7.6,8.7-7.6c3.4,0,5.9,2.3,6.6,5.4
				C428.4,200.9,432,197.3,436,197.3z"/>
			<path class="st0" d="M477.3,216.3c-1.3,8.9,1.5,11.3,5.2,11.3c3.8,0,6.9-4.2,7.6-7.2l3.6,0.8c-1.3,4.8-5.4,10.7-13.8,10.7
				c-9,0-14.1-8.1-12.8-17.1c1.3-9.2,8-17.5,17.6-17.5c8.5,0,11.4,5.2,10.9,9.1C495,211.7,488.4,216.3,477.3,216.3z M487.2,205.4
				c0.4-2.5-0.4-4-2-4c-4.3,0-6.8,7.1-7.4,11.6C484.1,212.9,486.8,208.1,487.2,205.4z"/>
			<path class="st0" d="M515.4,203.6c2-2.7,4.9-6.2,9.6-6.2c4.7,0,8.1,3.8,7.4,8.5l-2.7,18.7c-0.1,1,0.6,1.8,1.7,1.8
				c1,0,2-0.8,2.1-1.8l0.4-2.9h2.7l-0.4,2.9c-0.6,4.2-4.5,7.6-8.7,7.6s-7.1-3.4-6.6-7.6l2.6-18.3c0.2-1.5-0.8-2.7-2.3-2.7
				c-1.5,0-2.9,1.2-5.5,4.8l-2.2,3l-2.7,19.7H502l3.6-25.2c0.1-1-0.6-1.8-1.7-1.8c-1,0-2,0.8-2.1,1.8l-0.4,2.9h-2.7l0.4-2.9
				c0.6-4.2,4.5-7.6,8.7-7.6c3.9,0,6.7,3,6.6,6.8L515.4,203.6z"/>
			<path class="st0" d="M539.4,203.3l0.6-4.5h6.1l1.1-7.6h8.8l-1.1,7.6h8.2l-0.6,4.5h-8.2l-3,21.3c-0.1,1,0.6,1.8,1.7,1.8
				c1,0,2-0.8,2.1-1.8l0.4-2.9h2.7l-0.4,2.9c-0.6,4.2-4.5,7.6-8.7,7.6c-4.2,0-7.1-3.4-6.6-7.6l3-21.3H539.4z"/>
			<path class="st0" d="M589.9,204.7c-0.3,2.3-2.6,4.4-5,4.4c-2.5,0-4.1-2-3.8-4.4c0.2-1.3,0.7-2.2,1.6-3c-1-0.4-1.9-0.9-3.2-0.9
				c-3,0-5,1.4-5.4,3.5c-0.3,1.8,0.9,3.1,2.4,4.1l6.9,4.1c3.1,2,5.5,5.3,4.9,9.5c-1,6.8-7.1,10.3-14.6,10.3
				c-7.5,0-11.2-5.7-10.6-9.4c0.3-2.1,1.8-5.2,5.2-5.2c2.7,0,4.6,2.2,4.2,4.8c-0.3,1.9-1.5,3.4-3.2,4.3c1,1,2.7,1.7,4.7,1.7
				c2.9,0,5.7-1.7,6.2-4.7c0.4-2.3-0.9-3.8-2.7-5l-6.8-4c-3.2-2-4.9-5.2-4.4-8.5c0.9-5.9,6.4-9,13.3-9
				C585.4,197.3,590.6,200.1,589.9,204.7z"/>
		</g>
		<g>
			<path class="st0" d="M218.4,156.5h3l7.1,18.1l7.1-18.1h3l-8.5,21h-3.2L218.4,156.5z"/>
			<path class="st0" d="M250.8,156.5h2.6v21h-2.6V156.5z"/>
			<path class="st0" d="M270.4,160.6v16.9h-2.6v-21h2.7l12.1,16.6v-16.6h2.6v21h-2.5L270.4,160.6z"/>
			<path class="st0" d="M304.7,158.8H298v-2.3H314v2.3h-6.7v18.7h-2.6V158.8z"/>
			<path class="st0" d="M338,172.8h-10.6l-1.9,4.7h-2.9l8.4-21h3.2l8.5,21h-2.9L338,172.8z M328.1,170.5h9.1l-4.5-11.7L328.1,170.5z
				"/>
			<path class="st0" d="M363.7,156.2c3.7,0,6.3,1.6,8.2,3.9l-2.1,1.3c-1.3-1.7-3.6-2.9-6.1-2.9c-4.6,0-8.1,3.5-8.1,8.5
				c0,5,3.5,8.6,8.1,8.6c2.5,0,4.6-1.2,5.6-2.3V169h-7.2v-2.3h9.8v7.6c-2,2.2-4.8,3.6-8.2,3.6c-6,0-10.8-4.4-10.8-10.9
				C352.9,160.5,357.7,156.2,363.7,156.2z"/>
			<path class="st0" d="M385.7,156.5h13.8v2.3h-11.1v6.8h10.9v2.3h-10.9v7.2h11.1v2.3h-13.8V156.5z"/>
			<path class="st0" d="M445.5,167.9h-12.3v9.6h-2.6v-21h2.6v9h12.3v-9h2.6v21h-2.6V167.9z"/>
			<path class="st0" d="M472,156.2c6.2,0,10.4,4.7,10.4,10.9c0,6.2-4.2,10.9-10.4,10.9c-6.2,0-10.4-4.7-10.4-10.9
				C461.6,160.8,465.8,156.2,472,156.2z M472,158.5c-4.7,0-7.7,3.6-7.7,8.5c0,4.9,3,8.5,7.7,8.5c4.7,0,7.7-3.7,7.7-8.5
				C479.8,162.1,476.7,158.5,472,158.5z"/>
			<path class="st0" d="M514,160l-7.1,17.5h-1.1l-7.1-17.5v17.5H496v-21h3.7l6.5,16l6.5-16h3.7v21H514V160z"/>
			<path class="st0" d="M530.9,156.5h13.8v2.3h-11.1v6.8h10.9v2.3h-10.9v7.2h11.1v2.3h-13.8V156.5z"/>
		</g>
	</g>
</g>
<g>
</g>
<g>
</g>
<g>
</g>
<g>
</g>
<g>
</g>
<g>
</g>
</svg>
