<?xml version="1.0" encoding="utf-8"?>
<!-- Generator: Adobe Illustrator 22.0.1, SVG Export Plug-In . SVG Version: 6.00 Build 0)  -->
<svg version="1.1" id="Layer_1" xmlns="http://www.w3.org/2000/svg" xmlns:xlink="http://www.w3.org/1999/xlink" x="0px" y="0px"
	 viewBox="0 0 600 400" style="enable-background:new 0 0 600 400;" xml:space="preserve">
<style type="text/css">
	.st0{fill-rule:evenodd;clip-rule:evenodd;fill:#CC3333;}
	.st1{fill:#006699;}
</style>
<g>
	<path class="st0" d="M277.1,23.1c34.1,12.3,95.1,7,128.6-13.1c19.5,13.4,37.4,38.5,48.5,62.9c-110.6,14.7-224.3,29.8-335,44.6
		c4.4-26,16.4-53.6,29.1-73.2C186.9,53.9,246.8,44.6,277.1,23.1 M250.4,54.1l0.8,5.8l6.2-0.8l3.6,27l6.4-0.8l-3.6-27l6.2-0.8
		l-0.8-5.8L250.4,54.1z M291.6,68.4l1.8,13.3l6.4-0.9l-4.4-32.8l-6.4,0.9l1.8,13.3l-10.5,1.4l-1.8-13.3l-6.4,0.9l4.4,32.8l6.4-0.9
		l-1.8-13.3L291.6,68.4z M322.2,72l-11.3,1.5l-1.1-8.1l11.3-1.5l-0.8-5.7L309,59.7l-1-7.5l11.3-1.5l-0.8-5.8l-17.7,2.4l4.4,32.8
		l17.7-2.4L322.2,72z"/>
	<path class="st1" d="M365,293.4c-0.3-1.1-0.8-1.8-1.7-2.2c-0.8-0.3-2-0.3-3.5,0l-1.5,0.4l1.6,6.7l0.9-0.2c1.6-0.4,2.8-1,3.5-1.8
		C365,295.5,365.3,294.5,365,293.4 M308.1,184.9c-0.4-1.9-1.1-3.1-1.6-3.6c-0.5-0.5-0.8-0.7-1.7-0.9c-0.1,0,0,0-0.1,0c0,0,0,0,0,0
		c-0.1,0-0.5,0.2-1.2,0.9c-0.7,0.7-1.6,1.9-2.5,3.6c-1.8,3.3-3.4,8.3-4.6,14.1c-2.3,11.6-2.5,26.4,0.3,38.4c0.1,0.2,0.1,0.4,0.2,0.7
		c4.2-10.2,7.8-21.1,9.8-30.8C308.8,197.9,309.2,189.5,308.1,184.9 M317.8,303.9c-1.5-0.9-3.2-1.2-4.9-0.8c-1.8,0.4-3.2,1.4-4.2,3
		c-1,1.5-1.2,3.2-0.8,5c0.2,0.9,0.6,1.7,1,2.4c0.5,0.7,1.1,1.3,1.8,1.8c0.8,0.5,1.7,0.9,2.5,1.1c0.9,0.2,1.8,0.2,2.6,0
		c1.8-0.4,3.2-1.5,4.1-3c0.9-1.6,1.1-3.3,0.7-5.3C320.3,306.2,319.3,304.8,317.8,303.9 M348.4,181.1c-0.6-2.7-1.6-4.8-2.6-6.1
		c-1.1-1.4-2.2-2.2-3.9-2.7c-0.3-0.1-0.3,0-0.3-0.1c0,0-0.3,0.1-0.9,0.7c-0.6,0.7-1.4,1.9-2.1,3.6c-1.5,3.4-2.8,8.6-3.5,14.6
		c-1.5,12-0.8,27.3,2.1,39.9c0.4,1.7,0.8,3.4,1.3,5c4.3-10.2,8-21.9,9.7-32.6C349.5,194.7,349.7,186.6,348.4,181.1 M392.1,211.4
		c0.7-1.2,1-2.2,1.2-2.7c0,0,0,0-0.1,0c-1-0.4-3.4-0.8-6.9-0.8c-0.7,0-1.3,0.1-1.8,0.2c-1.3,0.3-1.8,0.7-2.5,1.5
		c-0.6,0.8-1.2,2.1-1.5,3.8c-0.7,3.5-0.3,8.4,0.6,12c0,0.2,0.1,0.4,0.1,0.6c2-2.7,4.2-5.6,6.6-8.6
		C389.7,215.1,391.2,213.1,392.1,211.4 M457.5,80l-339.7,45.2c0,0-36.6,118.5,53.9,198.2c49,43.2,74.9,53.8,154.1,66.5
		c0,0,0,0.1,0,0.1c0,0,0.1,0,0.1-0.1c0,0,0.1,0,0.1,0c0,0,0-0.1,0-0.1c73.1-32.9,95.4-50,131.4-104.5C523.8,184.8,457.5,80,457.5,80
		 M267.9,232.1c-2.9,0.7-6-1.7-6.8-5.3c-0.8-3.6,0.9-7,3.8-7.7c2.9-0.7,6,1.7,6.8,5.3C272.5,227.9,270.8,231.4,267.9,232.1
		 M188.4,167.1c-3.9,4.3-9.4,10.7-15.4,18.8c-9,12.1-14.4,22.1-17.2,30.1c-2.9,7.9-3.1,13.7-2.2,17.3c0.9,3.6,2.5,5.3,4.5,6.5
		c2.1,1.1,4.9,1.5,7.9,0.8c3.8-0.9,7.5-3.3,9.9-7.2c2.4-3.9,3.7-9.2,1.9-16.7c-0.7-3.2-2.1-6.9-4.2-10.9c-1.5-2.8-0.4-6.4,2.4-7.9
		c2.8-1.5,6.4-0.4,7.9,2.4c2.5,4.8,4.3,9.4,5.3,13.7c2.3,10,0.7,18.9-3.4,25.5c-4.1,6.6-10.5,10.8-17.2,12.4
		c-5.4,1.2-11.1,0.8-16.1-1.9c-5-2.6-8.9-7.7-10.4-14.1c-1.5-6.6-0.7-14.5,2.6-23.9c3.4-9.4,9.4-20.3,18.8-33.1
		c12.5-16.9,22.9-26.7,23-26.9c1.4-1.3,3.3-1.8,5.1-1.5c1.9,0.4,3.4,1.6,4.2,3.3l48,106.7l3.3-118.9c0.1-3.2,2.8-5.7,6-5.7
		c3.2,0.1,5.7,2.8,5.7,6l-4,144.4c-0.1,2.6-1.9,4.9-4.5,5.5c-0.1,0-0.1,0-0.2,0c-2.7,0.5-5.3-0.9-6.5-3.3L189,166.6
		C188.8,166.7,188.6,166.9,188.4,167.1 M295.6,325.2l-4,1l-4.1-17l-3.9,0.9l-0.9-3.6l11.8-2.9l0.9,3.6l-3.9,0.9L295.6,325.2z
		 M325.2,311.3c-0.2,1.4-0.7,2.8-1.4,4c-0.7,1.3-1.7,2.4-2.9,3.3c-1.2,0.9-2.5,1.5-3.9,1.9c-1.5,0.4-3,0.4-4.5,0.2
		c-1.4-0.2-2.8-0.8-4-1.6c-1.2-0.8-2.2-1.8-3-2.9c-0.8-1.2-1.4-2.5-1.7-3.9c-0.3-1.1-0.4-2.2-0.3-3.3c0.1-1.1,0.3-2.1,0.7-3.2
		c0.7-1.7,1.7-3.2,3-4.4c1.3-1.2,2.9-2,4.8-2.4c1.4-0.3,2.8-0.4,4.2-0.2c1.4,0.2,2.7,0.7,4,1.5c1.3,0.8,2.3,1.8,3.2,2.9
		c0.9,1.2,1.5,2.4,1.8,3.9C325.3,308.4,325.4,309.9,325.2,311.3 M347.9,307.9c0,0.8-0.1,1.5-0.3,2.1c-0.4,1.1-1,2-1.8,2.7
		c-0.8,0.7-1.8,1.2-3.1,1.5c-1.3,0.3-2.4,0.4-3.4,0.1c-1-0.2-2-0.7-2.8-1.5c-0.5-0.5-0.9-1-1.3-1.6c-0.3-0.6-0.7-1.7-1.1-3.3
		l-3.2-13.1l4-1l2.9,11.9c0.5,1.9,1,3.1,1.5,3.7c0.6,0.6,1.3,0.8,2.3,0.6c1-0.2,1.5-0.8,1.8-1.6c0.2-0.8,0.1-2.2-0.4-4l-2.9-11.9
		l4-1l3.2,13.1C347.7,306,347.9,307.2,347.9,307.9 M367.9,307.6l-7.7-8.3l2.3,9.6l-4,1l-5-20.7l4.9-1.2c1.6-0.4,2.7-0.6,3.5-0.7
		c0.8-0.1,1.5-0.1,2.1,0.1c1.3,0.3,2.4,0.8,3.2,1.6c0.9,0.8,1.4,1.9,1.8,3.2c0.4,1.6,0.3,3.1-0.3,4.4c-0.6,1.3-1.6,2.3-3.1,3
		l7.1,6.8L367.9,307.6z M446,265.9c-0.5,1-1.2,1.8-1.9,2.6c-1.5,1.6-3.4,3.1-5.9,4.8c-5.1,3.4-12.6,7.6-23.3,12.9
		c-2.3,1.2-5.1,0.2-6.3-2.1c-1.2-2.3-0.2-5.1,2.1-6.3c10.9-5.4,18.4-9.7,22.8-12.7c-2.4,0.1-5.4,0.4-8.8,0.9
		c-22.6,3-64.2,13.1-102.5,23.3c-38.3,10.2-73.7,20.5-84,23.9c-1.1,0.4-1.9,0.6-2.3,0.8c-0.5,0.3-1.1,0.5-1.7,0.6
		c-0.7,0.1-1.4,0-2-0.2c-2.5-0.8-3.8-3.4-3-5.9c0.4-1.1,0.9-1.6,1.1-1.9c0.3-0.3,0.5-0.4,0.7-0.6c0.3-0.2,0.5-0.3,0.6-0.4
		c0.3-0.1,0.5-0.2,0.7-0.3c0.4-0.2,0.9-0.3,1.4-0.5c1.1-0.4,2.7-0.9,4.7-1.5c4-1.2,9.7-3,16.7-5c14-4.1,33-9.5,53.7-15.1
		c41.4-11.2,88.8-23,114.7-26.5c3.7-0.5,7-0.8,9.8-0.9c2.8-0.1,5.2-0.1,7.3,0.4c1.4,0.3,2.9,0.7,4.4,2.2c0.9,0.8,1.6,2.1,1.8,3.5
		C447,263.6,446.5,264.9,446,265.9 M434.7,210.5c-2.8,0.7-5.2,1.9-7.5,3.6c-2.3,1.8-4.4,4.1-6.4,6.7c-4,5.3-7.3,12.1-10.7,18.1
		c-2.3,4-4.6,7.8-7.9,10.8c-1.9,1.7-4.2,3.2-7,3.8c-1.8,0.4-3.7,0.5-5.6,0.1c-2.3-0.5-3.6-1.5-5-2.5c-1.3-1-2.5-2.2-3.7-3.5
		c-0.2-0.2-0.4-0.4-0.6-0.7c-3,4-5.9,7.7-9.1,10.9c-2.9,2.7-6.1,5.1-9.9,6.6c-1.3,0.5-2.5,0.9-3.8,1.2c-4.3,1-8.6,0.6-12.3-0.9
		c-2.6-1.1-4.8-2.6-6.8-4.5c-2,2.9-4,5.4-6.2,7.5c-2.4,2.3-5,4.3-8.4,5.1c-0.5,0.1-1,0.2-1.5,0.2c-5.1,0.5-9.9-0.1-14.2-1.7
		c-4.3-1.6-8-4.2-11-7.3c-0.1-0.1-0.1-0.1-0.2-0.2c-3.8,6.4-7.7,11.9-11.9,15.9c-2.8,2.7-5.8,4.8-9.5,5.7c0,0,0,0,0,0
		c-1.8,0.4-3.8,0.5-5.8-0.1c-1.4-0.4-2.6-1.2-3.4-2c-0.8-0.8-1.4-1.6-1.8-2.4c-0.8-1.6-1.3-3.1-1.7-4.8c-0.7-3.1-1.1-6.7-1.3-10.5
		c-0.2-3.8-0.3-7.7-0.2-11.3c0.1-7.2,0.4-13,0.4-13c0.2-3.2,3-5.6,6.2-5.4c3.2,0.2,5.6,3,5.4,6.2c0,0,0,0.8-0.1,2.1
		c-0.1,1.3-0.1,3.3-0.2,5.5c-0.1,4.5-0.2,10.3,0.1,15.4c0.2,3.4,0.5,6.5,1,8.5c0.4-0.2,0.9-0.6,1.4-1c1.3-1,2.9-2.6,4.5-4.7
		c3-3.7,6.3-8.9,9.5-14.9c-1.9-4.1-3.4-8.5-4.4-13c-2.1-9.3-2.7-19.4-2.2-28.9c0.6-9.6,2.2-18.6,4.9-25.9c1.8-4.9,4-9.1,7.2-12.2
		c1.8-1.8,4.1-3.3,6.8-4c1.4-0.3,2.8-0.4,4.2-0.2c3.5,0.4,6.8,2.2,8.9,4.7c2.2,2.5,3.5,5.5,4.2,8.7c1.2,5.1,1.1,10.9,0.4,17.2
		c-0.7,6.3-2.2,13.2-4.2,20.2c-3.2,11.2-7.6,22.9-12.6,33.2c2.6,3.8,5.6,6.3,9.3,7.7c2.5,0.9,5.4,1.3,9,1c0,0,0,0,0,0c0,0,0,0,0,0
		c0.1,0,0.9-0.3,1.9-1.1c1-0.8,2.3-2.1,3.6-3.8c1.4-1.8,2.9-4,4.5-6.6c-2.4-4.9-4.3-10.5-5.6-16.4c-2.1-9.3-3.2-19.5-3.1-29.2
		c0-9.7,1-19,3.1-26.5c1.4-5,3.3-9.4,6.3-12.8c1.7-1.9,4.1-3.6,6.9-4.2c2-0.5,4.2-0.4,6.2,0.2c4,1.2,7.4,3.6,9.8,6.7
		c2.4,3.1,3.9,6.8,4.8,10.7c2.3,10.4,1,23-2.1,36c-3,12.4-7.7,25-12.9,35.3c1.7,2.2,3.5,3.6,5.1,4.3c1.5,0.6,3,0.8,5.2,0.3
		c0.6-0.1,1.3-0.4,2.1-0.7c2.1-0.8,4.1-2.2,6.2-4.2c2.1-2,4.3-4.7,6.7-7.9c1-1.4,2.1-2.9,3.2-4.4c-0.6-1.1-1.2-2.2-1.7-3.2
		c-0.7-1.7-1.3-3.6-1.8-5.8c-0.8-3.6-1.4-8-1.2-12.5c0.3-4.4,1.2-9.2,4.4-13.2c2.1-2.7,5.3-4.8,9-5.7c1.4-0.3,2.8-0.5,4.2-0.5
		c3.3,0,6.2,0.2,8.8,0.8c2.6,0.6,5,1.6,7.1,3.7c1.3,1.3,2.3,3.1,2.7,5c0.4,1.8,0.3,3.5,0,5.2c-0.3,1.6-0.9,3.1-1.6,4.7
		c-1.5,3-3.6,6-6.3,9.4c-3.5,4.3-6.6,8.5-9.4,12.4c1.1,1.3,2.1,2.6,3.1,3.5c0.7,0.7,1.4,1.3,1.8,1.5c0.2,0,0.3,0,0.5,0
		c0.3-0.1,0.6-0.2,1.2-0.6c0.5-0.4,1.2-1.1,2-2c1.5-1.9,3.2-4.7,5.1-8.1c3.7-6.7,7.8-15.2,14.3-22.2c4.3-4.6,9.8-8.6,16.8-10.2
		c3.1-0.7,6.3,1.2,7,4.4C439.8,206.7,437.8,209.8,434.7,210.5"/>
</g>
</svg>
